#VRML V2.0 utf8
# 3D model generated by easyeda2kicad.py (https://github.com/uPesy/easyeda2kicad.py)

Shape{
    appearance Appearance {
        material  Material 	{
            diffuseColor 0.6666666666666666 0.6666666666666666 0.6666666666666666
            specularColor 0.4666666666666667 0.4666666666666667 0.4666666666666667
            ambientIntensity 0.2
            transparency 0
            shininess 0.5
        }
    }
    geometry IndexedFaceSet {
        ccw TRUE
        solid FALSE
        coord DEF co Coordinate {
            point [
                0.9724 -0.7343 -0.622, 1.2677 -0.7343 -0.622, 1.2677 -1.4429 -0.622, -0.9724 0.1319 -0.622, -1.2677 0.1319 -0.622, -1.2677 0.2694 -0.622, -0.2065 0.8524 -0.622, -0.5713 0.6655 -0.622, -1.2677 0.8524 -0.622, -0.773 0.6655 -0.622, -0.2065 0.2694 -0.622, -0.2449 0.2826 -0.622, -0.2449 0.3354 -0.622, -0.2449 0.6019 -0.622, -0.2892 0.3164 -0.622, -0.2519 0.6058 -0.622, -0.3371 0.3102 -0.622, -0.3758 0.3145 -0.622, -0.4053 0.3252 -0.622, -0.4325 0.3434 -0.622, -0.4563 0.3696 -0.622, -0.4849 0.4728 -0.622, -0.4809 0.5154 -0.622, -0.4702 0.5494 -0.622, -0.3828 0.6229 -0.622, -0.3459 0.6271 -0.622, -0.4115 0.6123 -0.622, -0.4356 0.596 -0.622, -0.4539 0.5767 -0.622, -0.2937 0.6213 -0.622, -0.4717 0.6318 -0.622, -0.5713 0.6223 -0.622, -0.44 0.652 -0.622, -0.4017 0.6652 -0.622, -0.4726 0.4 -0.622, -0.483 0.4422 -0.622, -0.5175 0.3765 -0.622, -0.4946 0.3396 -0.622, -0.7202 0.2718 -0.622, -0.4594 0.3053 -0.622, -0.4221 0.2834 -0.622, -0.2449 0.6451 -0.622, -0.2868 0.6623 -0.622, -0.3424 0.6701 -0.622, -0.5012 0.6006 -0.622, -0.5222 0.5631 -0.622, -0.7202 0.6223 -0.622, -0.3782 0.2704 -0.622, -0.366 0.2694 -0.622, -0.773 0.2718 -0.622, -0.3532 0.6703 -0.622, -0.534 0.5214 -0.622, -0.5377 0.476 -0.622, -0.5325 0.422 -0.622, -0.9331 0.1213 -0.622, -0.9521 0.1292 -0.622, -0.9521 -0.7316 -0.622, -0.2065 -1.4429 -0.622, -0.9724 -0.7343 -0.622, -1.2677 -1.4429 -0.622, -1.2677 -0.7343 -0.622, -0.9331 -0.7237 -0.622, -0.9168 -0.7112 -0.622, -0.9042 -0.6949 -0.622, -0.8964 0.0735 -0.622, -0.9042 0.0925 -0.622, -0.9168 0.1088 -0.622, -0.8964 -0.6759 -0.622, -0.8937 -0.6555 -0.622, -0.8937 0.0531 -0.622, -0.3375 0.267 -0.622, -0.3027 0.2694 -0.622, -0.2904 0.2702 -0.622, 0.9168 0.1088 -0.622, 0.9042 0.0925 -0.622, 0.8964 -0.6759 -0.622, 0.9042 -0.6949 -0.622, 1.2677 0.1319 -0.622, 0.9724 0.1319 -0.622, 1.2677 0.2694 -0.622, 0.9521 0.1292 -0.622, 0.9331 0.1213 -0.622, 0.9168 -0.7112 -0.622, 0.9331 -0.7237 -0.622, 0.9521 -0.7316 -0.622, 0.8964 0.0735 -0.622, 0.8937 0.0531 -0.622, 0.8937 -0.6555 -0.622, 0.4314 0.5162 -0.622, 0.4174 0.5573 -0.622, 0.4657 0.6655 -0.622, 0.0432 0.6655 -0.622, -0.168 0.6655 -0.622, 0.7236 0.555 -0.622, 0.5609 0.555 -0.622, 0.7634 0.6655 -0.622, 0.5233 0.6655 -0.622, 1.2677 0.8524 -0.622, 0.3948 0.5926 -0.622, 0.3625 0.6236 -0.622, 0.3215 0.6476 -0.622, 0.0336 0.315 -0.622, -0.1152 0.315 -0.622, -0.1152 0.4446 -0.622, 0.2862 0.2774 -0.622, 0.3323 0.2931 -0.622, 0.6146 0.2718 -0.622, 0.12 0.2718 -0.622, 0.024 0.4446 -0.622, 0.12 0.6655 -0.622, 0.024 0.4878 -0.622, 0.2311 0.2718 -0.622, 0.2761 0.6612 -0.622, 0.2271 0.6655 -0.622, 0.0432 0.6223 -0.622, -0.1152 0.6223 -0.622, -0.1152 0.4878 -0.622, 0.0336 0.2718 -0.622, -0.168 0.2718 -0.622, 0.3758 0.3217 -0.622, 0.3807 0.3262 -0.622, 0.4074 0.3572 -0.622, 0.4249 0.3915 -0.622, 0.4347 0.4305 -0.622, 0.4369 0.4637 -0.622, 0.6674 0.2718 -0.622, 0.821 0.6655 -0.622, 1.7598 -0.7343 -0.1299, 1.7598 -1.4429 -0.1299, 1.7504 -1.4429 -0.2259, 1.7504 -0.7343 -0.2259, 1.7224 -1.4429 -0.3182, 1.7224 -0.7343 -0.3182, 1.6769 -1.4429 -0.4033, 1.6769 -0.7343 -0.4033, 1.6157 -1.4429 -0.4779, 1.6157 -0.7343 -0.4779, 1.5411 -1.4429 -0.5391, 1.5411 -0.7343 -0.5391, 1.456 -1.4429 -0.5846, 1.456 -0.7343 -0.5846, 1.3637 -1.4429 -0.6126, 1.3637 -0.7343 -0.6126, 1.2677 -0.7343 -0.5039, 1.2677 -1.4429 -0.5039, 1.3509 -0.7343 -0.4946, 1.3509 -1.4429 -0.4946, 1.43 -0.7343 -0.4669, 1.43 -1.4429 -0.4669, 1.5009 -0.7343 -0.4223, 1.5009 -1.4429 -0.4223, 1.5601 -0.7343 -0.3631, 1.5601 -1.4429 -0.3631, 1.6047 -0.7343 -0.2922, 1.6047 -1.4429 -0.2922, 1.6324 -0.7343 -0.2131, 1.6324 -1.4429 -0.2131, 1.6417 -0.7343 -0.1299, 1.6417 -1.4429 -0.1299, 1.7564 0.855 -0.1883, 1.7574 0.8584 -0.1785, 1.7598 0.1319 -0.1299, 1.7551 0.853 -0.1984, 1.7583 0.8629 -0.1693, 1.7589 0.8686 -0.1607, 1.7593 0.8754 -0.153, 1.7596 0.8831 -0.1462, 1.7597 0.8917 -0.1405, 1.7598 0.901 -0.1359, 1.7598 0.9107 -0.1326, 1.7598 0.9208 -0.1306, 1.7598 0.9311 -0.1299, 1.3637 0.1319 -0.6126, 1.7535 0.8524 -0.2087, 1.7504 0.1319 -0.2259, 1.7504 0.8524 -0.2259, 1.7224 0.1319 -0.3182, 1.7224 0.8524 -0.3182, 1.6769 0.1319 -0.4033, 1.6769 0.8524 -0.4033, 1.6157 0.1319 -0.4779, 1.6157 0.8524 -0.4779, 1.5411 0.1319 -0.5391, 1.5411 0.8524 -0.5391, 1.456 0.1319 -0.5846, 1.456 0.8524 -0.5846, 1.3637 0.8524 -0.6126, -1.2677 -1.4429 0.622, 1.2677 -1.4429 0.622, -1.2677 1.4429 0.622, 1.2677 1.4429 0.622, 1.3637 -1.4429 0.6126, 1.3637 1.4429 0.6126, 1.456 -1.4429 0.5846, 1.456 1.4429 0.5846, 1.5411 -1.4429 0.5391, 1.5411 1.4429 0.5391, 1.6157 -1.4429 0.4779, 1.6157 1.4429 0.4779, 1.6769 -1.4429 0.4033, 1.6769 1.4429 0.4033, 1.7224 -1.4429 0.3182, 1.7224 1.4429 0.3182, 1.7504 -1.4429 0.2259, 1.7504 1.4429 0.2259, 1.7598 -1.4429 0.1299, 1.7598 1.4429 0.1299, 1.7598 -0.7316 -0.1095, 1.7598 -0.2618 -0.7402, 1.7598 -0.2591 -0.7198, 1.7598 -0.5768 -0.8976, 1.7598 -0.6161 -0.0617, 1.7598 -0.5998 -0.0742, 1.7598 -0.5873 -0.0906, 1.7598 -0.5795 -0.1095, 1.7598 -0.5768 -0.1299, 1.7598 -0.2513 -0.7008, 1.7598 -0.2387 -0.6845, 1.7598 -0.7237 -0.0906, 1.7598 -0.7112 -0.0742, 1.7598 -0.6949 -0.0617, 1.7598 -0.3785 -1.0498, 1.7598 -0.3406 -1.034, 1.7598 -0.5557 -0.9764, 1.7598 -0.6759 -0.0539, 1.7598 -0.6555 -0.0512, 1.7598 -0.6351 -0.0539, 1.7598 -0.5714 -0.9384, 1.7598 0.9515 -0.1326, 1.7598 0.9705 -0.1405, 1.7598 0.9868 -0.153, 1.7598 0.9993 -0.1693, 1.7598 -0.3079 -1.009, 1.7598 -0.2829 -0.9764, 1.7598 -0.0229 -0.1095, 1.7598 -0.015 -0.0906, 1.7598 -0.0025 -0.0742, 1.7598 0.0138 -0.0617, 1.7598 0.0328 -0.0539, 1.7598 0.0531 -0.0512, 1.7598 0.0735 -0.0539, 1.7598 0.0925 -0.0617, 1.7598 0.1088 -0.0742, 1.7598 0.1213 -0.0906, 1.7598 0.1292 -0.1095, 1.7598 -0.5306 -1.009, 1.7598 -0.498 -1.034, 1.7598 -0.2672 -0.9384, 1.7598 -0.2618 -0.8976, 1.7598 -0.4601 -1.0498, 1.7598 -0.4193 -1.0551, 1.7598 -0.2224 -0.672, 1.7598 -0.2035 -0.6641, 1.7598 -0.1831 -0.6614, 1.7598 -0.0256 -0.1299, 1.7598 1.1673 -1.0551, 1.7598 1.4429 -0.8976, 1.7598 1.2854 -1.0551, 1.7598 1.0886 -1.034, 1.7598 1.0098 -0.8976, 1.7598 1.056 -1.009, 1.7598 1.0152 -0.9384, 1.7598 1.0309 -0.9764, 1.7598 1.0072 -0.1883, 1.7598 1.0098 -0.2087, 1.7598 1.1266 -1.0498, 1.7598 1.3642 -1.034, 1.7598 1.3968 -1.009, 1.7598 1.4218 -0.9764, 1.7598 -0.084 -0.6587, 1.7598 -0.065 -0.6509, 1.7598 -0.0256 -0.5827, 1.7598 1.3262 -1.0498, 1.7598 1.4375 -0.9384, 1.7598 -0.1043 -0.6614, 1.7598 -0.0487 -0.6384, 1.7598 -0.0361 -0.622, 1.7598 -0.0283 -0.6031, -1.6417 1.4429 -0.8976, -1.7598 1.4429 -0.8976, -1.6417 1.4429 0.1299, -1.7598 1.4429 0.1299, -1.6324 1.4429 0.2131, -1.7504 1.4429 0.2259, -1.6047 1.4429 0.2922, -1.7224 1.4429 0.3182, -1.5601 1.4429 0.3631, 1.6417 1.4429 -0.8976, 1.6417 1.4429 0.1299, 1.6324 1.4429 0.2131, 1.6047 1.4429 0.2922, 1.5601 1.4429 0.3631, 1.5009 1.4429 0.4223, -1.6769 1.4429 0.4033, -1.6157 1.4429 0.4779, -1.5009 1.4429 0.4223, -1.5411 1.4429 0.5391, -1.43 1.4429 0.4669, -1.456 1.4429 0.5846, -1.3509 1.4429 0.4946, -1.3637 1.4429 0.6126, -1.2677 1.4429 0.5039, 1.2677 1.4429 0.5039, 1.3509 1.4429 0.4946, 1.43 1.4429 0.4669, -1.5601 -1.4429 -0.3631, -1.6157 -1.4429 -0.4779, -1.5009 -1.4429 -0.4223, -1.5411 -1.4429 -0.5391, -1.43 -1.4429 -0.4669, -1.456 -1.4429 -0.5846, -1.3509 -1.4429 -0.4946, -1.3637 -1.4429 -0.6126, -1.2677 -1.4429 -0.5039, -1.5009 -1.4429 0.4223, -1.6157 -1.4429 0.4779, -1.5601 -1.4429 0.3631, -1.6769 -1.4429 0.4033, -1.6047 -1.4429 0.2922, -1.7224 -1.4429 0.3182, -1.6324 -1.4429 0.2131, -1.7504 -1.4429 0.2259, -1.6417 -1.4429 0.1299, -1.7598 -1.4429 0.1299, -1.6417 -1.4429 -0.1299, -1.7598 -1.4429 -0.1299, -1.6324 -1.4429 -0.2131, -1.7504 -1.4429 -0.2259, -1.6047 -1.4429 -0.2922, -1.7224 -1.4429 -0.3182, -1.6769 -1.4429 -0.4033, 1.6417 -1.4429 0.1299, 1.6324 -1.4429 0.2131, 1.6047 -1.4429 0.2922, 1.5601 -1.4429 0.3631, 1.5009 -1.4429 0.4223, 1.43 -1.4429 0.4669, 1.3509 -1.4429 0.4946, 1.2677 -1.4429 0.5039, -1.2677 -1.4429 0.5039, -1.3509 -1.4429 0.4946, -1.3637 -1.4429 0.6126, -1.43 -1.4429 0.4669, -1.456 -1.4429 0.5846, -1.5411 -1.4429 0.5391, 1.6417 0.9311 -0.1299, 1.6417 0.9208 -0.1306, 1.6417 0.1319 -0.1299, 1.6417 0.9107 -0.1326, 1.6417 0.9009 -0.1359, 1.6416 0.8917 -0.1405, 1.6414 0.8832 -0.1462, 1.641 0.8754 -0.153, 1.6405 0.8687 -0.1607, 1.6397 0.8629 -0.1693, 1.6386 0.8583 -0.1785, 1.6372 0.855 -0.1883, 1.6354 0.853 -0.1984, 1.6324 0.1319 -0.2131, 1.2677 0.8524 -0.5039, 1.2677 0.1319 -0.5039, 1.3509 0.8524 -0.4946, 1.3509 0.1319 -0.4946, 1.43 0.8524 -0.4669, 1.43 0.1319 -0.4669, 1.5009 0.8524 -0.4223, 1.5009 0.1319 -0.4223, 1.5601 0.8524 -0.3631, 1.5601 0.1319 -0.3631, 1.6047 0.8524 -0.2922, 1.6047 0.1319 -0.2922, 1.6324 0.8524 -0.2131, 1.6334 0.8524 -0.2087, 0.9724 0.1319 -0.5039, 0.9521 0.1292 -0.5039, -0.9168 0.1088 -0.5039, -0.9042 0.0925 -0.5039, 0.9168 0.1088 -0.5039, -0.8964 0.0735 -0.5039, 0.9042 0.0925 -0.5039, -0.9331 -0.7237 -0.5039, 0.9331 0.1213 -0.5039, -1.2677 0.8524 -0.5039, -0.9331 0.1213 -0.5039, -0.9521 -0.7316 -0.5039, -0.9724 -0.7343 -0.5039, -1.2677 -0.7343 -0.5039, -1.2677 0.1319 -0.5039, -0.9724 0.1319 -0.5039, -0.9521 0.1292 -0.5039, -0.8964 -0.6759 -0.5039, -0.9042 -0.6949 -0.5039, -0.9168 -0.7112 -0.5039, 0.9331 -0.7237 -0.5039, 0.9168 -0.7112 -0.5039, 0.9042 -0.6949 -0.5039, 0.9724 -0.7343 -0.5039, 0.9521 -0.7316 -0.5039, 0.8964 -0.6759 -0.5039, 0.8937 -0.6555 -0.5039, -0.8937 -0.6555 -0.5039, -0.8937 0.0531 -0.5039, 0.8937 0.0531 -0.5039, 0.8964 0.0735 -0.5039, 1.6417 -0.5714 -0.9384, 1.6417 -0.5768 -0.8976, 1.6417 -0.3406 -1.034, 1.6417 -0.7316 -0.1095, 1.6417 -0.5768 -0.1299, 1.6417 -0.2513 -0.7008, 1.6417 0.1292 -0.1095, 1.6417 0.1213 -0.0906, 1.6417 0.0328 -0.0539, 1.6417 0.0138 -0.0617, 1.6417 -0.5795 -0.1095, 1.6417 -0.2224 -0.672, 1.6417 -0.2387 -0.6845, 1.6417 -0.2591 -0.7198, 1.6417 -0.2618 -0.7402, 1.6417 -0.2618 -0.8976, 1.6417 -0.5873 -0.0906, 1.6417 -0.5998 -0.0742, 1.6417 -0.6161 -0.0617, 1.6417 -0.6949 -0.0617, 1.6417 -0.7112 -0.0742, 1.6417 -0.7237 -0.0906, 1.6417 1.0098 -0.2087, 1.6417 1.0072 -0.1883, 1.6417 -0.3079 -1.009, 1.6417 -0.6351 -0.0539, 1.6417 -0.6555 -0.0512, 1.6417 -0.6759 -0.0539, 1.6417 1.0098 -0.8976, 1.6417 0.9993 -0.1693, 1.6417 0.9868 -0.153, 1.6417 0.9705 -0.1405, 1.6417 0.0531 -0.0512, 1.6417 0.0735 -0.0539, 1.6417 -0.0025 -0.0742, 1.6417 -0.015 -0.0906, 1.6417 -0.0229 -0.1095, 1.6417 0.1088 -0.0742, 1.6417 0.0925 -0.0617, 1.6417 -0.2672 -0.9384, 1.6417 -0.2829 -0.9764, 1.6417 -0.5557 -0.9764, 1.6417 -0.3785 -1.0498, 1.6417 -0.4193 -1.0551, 1.6417 1.3262 -1.0498, 1.6417 1.2854 -1.0551, 1.6417 1.1673 -1.0551, 1.6417 0.9515 -0.1326, 1.6417 -0.1831 -0.6614, 1.6417 -0.2035 -0.6641, 1.6417 -0.4601 -1.0498, 1.6417 -0.498 -1.034, 1.6417 -0.5306 -1.009, 1.6417 1.4218 -0.9764, 1.6417 1.3968 -1.009, 1.6417 1.3642 -1.034, 1.6417 1.0309 -0.9764, 1.6417 1.0152 -0.9384, 1.6417 1.056 -1.009, 1.6417 1.0886 -1.034, 1.6417 1.1266 -1.0498, 1.6417 -0.0256 -0.1299, 1.6417 -0.0256 -0.5827, 1.6417 -0.1043 -0.6614, 1.6417 -0.084 -0.6587, 1.6417 1.4375 -0.9384, 1.6417 -0.0361 -0.622, 1.6417 -0.0487 -0.6384, 1.6417 -0.065 -0.6509, 1.6417 -0.0283 -0.6031, -1.7535 0.8524 -0.2087, -1.6334 0.8524 -0.2087, -1.7504 0.8524 -0.2259, -1.6324 0.8524 -0.2131, -1.7224 0.8524 -0.3182, -1.6047 0.8524 -0.2922, -1.6769 0.8524 -0.4033, -1.5601 0.8524 -0.3631, -1.6157 0.8524 -0.4779, -1.5009 0.8524 -0.4223, -1.3509 0.8524 -0.4946, -1.3637 0.8524 -0.6126, -1.43 0.8524 -0.4669, -1.456 0.8524 -0.5846, -1.5411 0.8524 -0.5391, -1.3637 -0.7343 -0.6126, -1.456 -0.7343 -0.5846, -1.5411 -0.7343 -0.5391, -1.6157 -0.7343 -0.4779, -1.6769 -0.7343 -0.4033, -1.7224 -0.7343 -0.3182, -1.7504 -0.7343 -0.2259, -1.7598 -0.7343 -0.1299, -1.6417 -0.7343 -0.1299, -1.6324 -0.7343 -0.2131, -1.6047 -0.7343 -0.2922, -1.5601 -0.7343 -0.3631, -1.5009 -0.7343 -0.4223, -1.43 -0.7343 -0.4669, -1.3509 -0.7343 -0.4946, -1.3637 0.1319 -0.6126, -1.7598 0.9311 -0.1299, -1.7598 0.9208 -0.1306, -1.7598 0.1319 -0.1299, -1.7598 0.9107 -0.1326, -1.7598 0.901 -0.1359, -1.7597 0.8917 -0.1405, -1.7596 0.8831 -0.1462, -1.7593 0.8754 -0.153, -1.7589 0.8686 -0.1607, -1.7583 0.8629 -0.1693, -1.7574 0.8584 -0.1785, -1.7564 0.855 -0.1883, -1.7551 0.853 -0.1984, -1.7504 0.1319 -0.2259, -1.7224 0.1319 -0.3182, -1.6769 0.1319 -0.4033, -1.6157 0.1319 -0.4779, -1.5411 0.1319 -0.5391, -1.456 0.1319 -0.5846, -1.7598 -0.7316 -0.1095, -1.7598 -0.5998 -0.0742, -1.7598 -0.6161 -0.0617, -1.7598 0.0138 -0.0617, -1.7598 -0.0025 -0.0742, -1.7598 -0.2224 -0.672, -1.7598 -0.2387 -0.6845, -1.7598 -0.5768 -0.1299, -1.7598 -0.2513 -0.7008, -1.7598 -0.5768 -0.8976, -1.7598 0.9705 -0.1405, -1.7598 0.9868 -0.153, -1.7598 0.9993 -0.1693, -1.7598 0.1292 -0.1095, -1.7598 0.1213 -0.0906, -1.7598 0.1088 -0.0742, -1.7598 0.0925 -0.0617, -1.7598 -0.6351 -0.0539, -1.7598 -0.6555 -0.0512, -1.7598 -0.6759 -0.0539, -1.7598 -0.6949 -0.0617, -1.7598 -0.7112 -0.0742, -1.7598 -0.7237 -0.0906, -1.7598 -0.2591 -0.7198, -1.7598 -0.2618 -0.7402, -1.7598 -0.2618 -0.8976, -1.7598 1.0098 -0.8976, -1.7598 1.0098 -0.2087, -1.7598 1.0072 -0.1883, -1.7598 0.0735 -0.0539, -1.7598 0.0531 -0.0512, -1.7598 0.0328 -0.0539, -1.7598 -0.015 -0.0906, -1.7598 -0.0229 -0.1095, -1.7598 -0.5873 -0.0906, -1.7598 0.9515 -0.1326, -1.7598 -0.3079 -1.009, -1.7598 -0.3406 -1.034, -1.7598 -0.498 -1.034, -1.7598 1.3262 -1.0498, -1.7598 1.2854 -1.0551, -1.7598 -0.2829 -0.9764, -1.7598 -0.5795 -0.1095, -1.7598 -0.2035 -0.6641, -1.7598 -0.1831 -0.6614, -1.7598 -0.3785 -1.0498, -1.7598 -0.4193 -1.0551, -1.7598 -0.4601 -1.0498, -1.7598 -0.5306 -1.009, -1.7598 -0.5557 -0.9764, -1.7598 -0.5714 -0.9384, -1.7598 1.4218 -0.9764, -1.7598 1.3968 -1.009, -1.7598 1.3642 -1.034, -1.7598 1.0309 -0.9764, -1.7598 1.0152 -0.9384, -1.7598 1.056 -1.009, -1.7598 1.0886 -1.034, -1.7598 -0.0256 -0.1299, -1.7598 -0.0256 -0.5827, -1.7598 -0.1043 -0.6614, -1.7598 -0.084 -0.6587, -1.7598 -0.2672 -0.9384, -1.7598 1.1673 -1.0551, -1.7598 1.1266 -1.0498, -1.7598 -0.0361 -0.622, -1.7598 -0.0487 -0.6384, -1.7598 -0.065 -0.6509, -1.7598 1.4375 -0.9384, -1.7598 -0.0283 -0.6031, -1.6372 0.855 -0.1883, -1.6386 0.8583 -0.1785, -1.6417 0.1319 -0.1299, -1.6324 0.1319 -0.2131, -1.6354 0.853 -0.1984, -1.6397 0.8629 -0.1693, -1.6405 0.8687 -0.1607, -1.641 0.8754 -0.153, -1.6414 0.8832 -0.1462, -1.6416 0.8917 -0.1405, -1.6417 0.9009 -0.1359, -1.6417 0.9107 -0.1326, -1.6417 0.9208 -0.1306, -1.6417 0.9311 -0.1299, -1.3509 0.1319 -0.4946, -1.43 0.1319 -0.4669, -1.5009 0.1319 -0.4223, -1.5601 0.1319 -0.3631, -1.6047 0.1319 -0.2922, -1.6417 -0.7316 -0.1095, -1.6417 -0.6161 -0.0617, -1.6417 -0.5998 -0.0742, -1.6417 -0.2618 -0.7402, -1.6417 -0.2591 -0.7198, -1.6417 -0.5768 -0.8976, -1.6417 -0.5768 -0.1299, -1.6417 -0.0025 -0.0742, -1.6417 0.0138 -0.0617, -1.6417 -0.7237 -0.0906, -1.6417 -0.7112 -0.0742, -1.6417 -0.6949 -0.0617, -1.6417 -0.6759 -0.0539, -1.6417 -0.6555 -0.0512, -1.6417 -0.6351 -0.0539, -1.6417 -0.0256 -0.1299, -1.6417 -0.0229 -0.1095, -1.6417 -0.1831 -0.6614, -1.6417 0.9515 -0.1326, -1.6417 0.9705 -0.1405, -1.6417 0.9868 -0.153, -1.6417 0.9993 -0.1693, -1.6417 1.0072 -0.1883, -1.6417 1.0098 -0.2087, -1.6417 -0.2513 -0.7008, -1.6417 -0.2387 -0.6845, -1.6417 -0.5795 -0.1095, -1.6417 -0.2224 -0.672, -1.6417 -0.5873 -0.0906, -1.6417 -0.2035 -0.6641, -1.6417 1.1266 -1.0498, -1.6417 1.1673 -1.0551, -1.6417 1.0098 -0.8976, -1.6417 0.0328 -0.0539, -1.6417 0.0531 -0.0512, -1.6417 0.0735 -0.0539, -1.6417 0.0925 -0.0617, -1.6417 0.1088 -0.0742, -1.6417 0.1213 -0.0906, -1.6417 0.1292 -0.1095, -1.6417 -0.2618 -0.8976, -1.6417 -0.5714 -0.9384, -1.6417 -0.5557 -0.9764, -1.6417 -0.4601 -1.0498, -1.6417 -0.4193 -1.0551, -1.6417 -0.498 -1.034, -1.6417 -0.3785 -1.0498, -1.6417 -0.3406 -1.034, -1.6417 -0.3079 -1.009, -1.6417 -0.2829 -0.9764, -1.6417 1.0152 -0.9384, -1.6417 1.0309 -0.9764, -1.6417 1.056 -1.009, -1.6417 -0.5306 -1.009, -1.6417 -0.2672 -0.9384, -1.6417 -0.015 -0.0906, -1.6417 1.0886 -1.034, -1.6417 1.2854 -1.0551, -1.6417 1.3262 -1.0498, -1.6417 1.3642 -1.034, -1.6417 -0.084 -0.6587, -1.6417 -0.065 -0.6509, -1.6417 -0.0256 -0.5827, -1.6417 1.3968 -1.009, -1.6417 1.4218 -0.9764, -1.6417 1.4375 -0.9384, -1.6417 -0.1043 -0.6614, -1.6417 -0.0487 -0.6384, -1.6417 -0.0361 -0.622, -1.6417 -0.0283 -0.6031, -1.6417 -0.0283 -0.6031
            ]
        }
        coordIndex [
            0,1,2,-1,3,4,5,-1,6,7,8,-1,8,7,9,-1,8,9,5,-1,10,11,12,-1,13,14,15,-1,15,14,16,-1,15,16,17,-1,17,18,15,-1,15,18,19,-1,15,19,20,-1,21,22,15,-1,15,22,23,-1,24,25,26,-1,26,25,27,-1,23,28,15,-1,15,28,27,-1,15,27,29,-1,29,27,25,-1,30,31,32,-1,32,31,33,-1,20,34,15,-1,15,34,35,-1,15,35,21,-1,36,37,38,-1,38,37,39,-1,38,39,40,-1,13,41,6,-1,6,41,42,-1,6,42,43,-1,30,44,31,-1,31,44,45,-1,31,45,46,-1,40,47,38,-1,38,47,48,-1,38,48,49,-1,31,7,33,-1,33,7,6,-1,33,6,50,-1,50,6,43,-1,45,51,46,-1,46,51,52,-1,46,52,38,-1,38,52,53,-1,38,53,36,-1,48,54,55,-1,56,57,58,-1,58,57,59,-1,58,59,60,-1,56,61,57,-1,57,61,62,-1,57,62,63,-1,64,65,48,-1,48,65,66,-1,48,66,54,-1,9,49,5,-1,5,49,48,-1,5,48,3,-1,3,48,55,-1,63,67,57,-1,57,67,68,-1,57,68,10,-1,10,68,69,-1,10,69,64,-1,48,70,64,-1,64,70,71,-1,64,71,10,-1,10,71,72,-1,10,72,11,-1,10,73,74,-1,75,76,57,-1,77,78,79,-1,79,78,80,-1,79,80,10,-1,10,80,81,-1,10,81,73,-1,76,82,57,-1,57,82,83,-1,57,83,2,-1,2,83,84,-1,2,84,0,-1,74,85,10,-1,10,85,86,-1,10,86,57,-1,57,86,87,-1,57,87,75,-1,88,89,90,-1,91,92,6,-1,6,92,10,-1,6,10,13,-1,13,10,12,-1,13,12,14,-1,93,94,95,-1,95,94,96,-1,95,96,97,-1,97,96,90,-1,89,98,90,-1,90,98,99,-1,90,99,100,-1,101,102,103,-1,104,105,106,-1,107,108,109,-1,109,108,110,-1,104,106,111,-1,100,112,90,-1,90,112,113,-1,90,113,97,-1,97,113,109,-1,6,97,91,-1,91,97,109,-1,91,109,114,-1,114,109,110,-1,114,110,115,-1,115,110,116,-1,103,108,101,-1,101,108,107,-1,101,107,117,-1,117,107,10,-1,117,10,118,-1,118,10,92,-1,105,119,106,-1,106,119,120,-1,106,120,121,-1,121,122,106,-1,106,122,123,-1,106,123,90,-1,90,123,124,-1,90,124,88,-1,107,111,10,-1,10,111,106,-1,10,106,79,-1,79,106,125,-1,79,125,97,-1,97,125,126,-1,97,126,95,-1,127,128,129,-1,127,129,130,-1,130,129,131,-1,130,131,132,-1,132,131,133,-1,132,133,134,-1,134,133,135,-1,134,135,136,-1,136,135,137,-1,136,137,138,-1,138,137,139,-1,138,139,140,-1,140,139,141,-1,140,141,142,-1,142,141,2,-1,142,2,1,-1,143,144,145,-1,145,144,146,-1,145,146,147,-1,147,146,148,-1,147,148,149,-1,149,148,150,-1,149,150,151,-1,151,150,152,-1,151,152,153,-1,153,152,154,-1,153,154,155,-1,155,154,156,-1,155,156,157,-1,157,156,158,-1,159,160,161,-1,159,161,162,-1,160,163,161,-1,161,163,164,-1,161,164,165,-1,165,166,161,-1,161,166,167,-1,161,167,168,-1,168,169,161,-1,161,169,170,-1,161,170,171,-1,172,77,79,-1,162,161,173,-1,173,161,174,-1,173,174,175,-1,175,174,176,-1,175,176,177,-1,177,176,178,-1,177,178,179,-1,179,178,180,-1,179,180,181,-1,181,180,182,-1,181,182,183,-1,183,182,184,-1,183,184,185,-1,185,184,172,-1,185,172,186,-1,186,172,79,-1,186,79,97,-1,187,188,189,-1,189,188,190,-1,190,188,191,-1,190,191,192,-1,192,191,193,-1,192,193,194,-1,194,193,195,-1,194,195,196,-1,196,195,197,-1,196,197,198,-1,198,197,199,-1,198,199,200,-1,200,199,201,-1,200,201,202,-1,202,201,203,-1,202,203,204,-1,204,203,205,-1,204,205,206,-1,128,127,205,-1,205,127,207,-1,208,209,210,-1,211,212,206,-1,206,212,213,-1,206,213,214,-1,210,209,215,-1,209,216,215,-1,215,216,217,-1,215,217,214,-1,207,218,205,-1,205,218,219,-1,205,219,220,-1,221,222,223,-1,220,224,205,-1,205,224,225,-1,205,225,206,-1,206,225,226,-1,206,226,211,-1,223,222,227,-1,228,229,206,-1,206,229,230,-1,206,230,231,-1,227,222,210,-1,210,222,232,-1,210,232,233,-1,234,235,214,-1,214,235,236,-1,214,236,237,-1,237,238,214,-1,214,238,239,-1,214,239,206,-1,206,239,240,-1,206,240,241,-1,241,242,206,-1,206,242,243,-1,206,243,244,-1,223,245,246,-1,233,247,210,-1,210,247,248,-1,210,248,208,-1,246,249,223,-1,223,249,250,-1,223,250,221,-1,217,251,214,-1,214,251,252,-1,214,252,234,-1,234,252,253,-1,234,253,254,-1,244,161,206,-1,206,161,171,-1,206,171,228,-1,206,255,256,-1,256,255,257,-1,258,259,260,-1,260,259,261,-1,260,261,262,-1,231,263,206,-1,206,263,264,-1,206,264,255,-1,255,264,259,-1,255,259,265,-1,265,259,258,-1,266,267,268,-1,269,270,271,-1,257,272,256,-1,256,272,266,-1,256,266,273,-1,273,266,268,-1,254,253,271,-1,271,253,274,-1,271,274,269,-1,275,276,270,-1,270,276,277,-1,270,277,271,-1,278,279,280,-1,280,279,281,-1,280,281,282,-1,282,281,283,-1,282,283,284,-1,284,283,285,-1,284,285,286,-1,256,287,206,-1,206,287,288,-1,206,288,204,-1,204,288,289,-1,204,289,202,-1,202,289,290,-1,202,290,200,-1,200,290,291,-1,200,291,198,-1,198,291,292,-1,285,293,286,-1,286,293,294,-1,286,294,295,-1,295,294,296,-1,295,296,297,-1,297,296,298,-1,297,298,299,-1,299,298,300,-1,299,300,301,-1,301,300,189,-1,301,189,302,-1,302,189,190,-1,302,190,303,-1,303,190,192,-1,303,192,304,-1,304,192,194,-1,304,194,292,-1,292,194,196,-1,292,196,198,-1,305,306,307,-1,307,306,308,-1,307,308,309,-1,309,308,310,-1,309,310,311,-1,311,310,312,-1,311,312,313,-1,314,315,316,-1,316,315,317,-1,316,317,318,-1,318,317,319,-1,318,319,320,-1,320,319,321,-1,320,321,322,-1,322,321,323,-1,322,323,324,-1,324,323,325,-1,324,325,326,-1,326,325,327,-1,326,327,328,-1,328,327,329,-1,328,329,305,-1,305,329,330,-1,305,330,306,-1,312,59,313,-1,313,59,57,-1,313,57,144,-1,144,57,2,-1,144,2,146,-1,146,2,141,-1,146,141,148,-1,148,141,139,-1,148,139,150,-1,139,137,150,-1,150,137,135,-1,150,135,152,-1,152,135,133,-1,152,133,154,-1,154,133,131,-1,154,131,156,-1,156,131,129,-1,156,129,158,-1,158,129,128,-1,158,128,331,-1,331,128,205,-1,331,205,332,-1,332,205,203,-1,332,203,333,-1,333,203,201,-1,333,201,334,-1,201,199,334,-1,334,199,197,-1,334,197,335,-1,335,197,195,-1,335,195,336,-1,336,195,193,-1,336,193,337,-1,337,193,191,-1,337,191,338,-1,338,191,188,-1,338,188,339,-1,339,188,187,-1,339,187,340,-1,340,187,341,-1,340,341,342,-1,342,341,343,-1,342,343,314,-1,314,343,344,-1,314,344,315,-1,345,346,347,-1,347,346,348,-1,347,348,349,-1,349,350,347,-1,347,350,351,-1,347,351,352,-1,352,353,347,-1,347,353,354,-1,347,354,355,-1,355,356,347,-1,347,356,357,-1,347,357,358,-1,359,360,361,-1,361,360,362,-1,361,362,363,-1,363,362,364,-1,363,364,365,-1,365,364,366,-1,365,366,367,-1,367,366,368,-1,367,368,369,-1,369,368,370,-1,369,370,371,-1,371,370,358,-1,371,358,372,-1,372,358,357,-1,360,359,373,-1,373,359,374,-1,375,376,377,-1,377,376,378,-1,377,378,379,-1,313,144,380,-1,374,359,381,-1,381,359,382,-1,381,382,377,-1,377,382,383,-1,377,383,375,-1,380,384,313,-1,313,384,385,-1,313,385,386,-1,387,388,382,-1,382,388,389,-1,382,389,383,-1,390,391,144,-1,144,391,392,-1,144,392,380,-1,144,393,390,-1,390,393,394,-1,390,394,395,-1,143,396,144,-1,144,396,397,-1,144,397,393,-1,395,398,390,-1,390,398,399,-1,390,399,400,-1,400,399,401,-1,401,399,402,-1,401,402,378,-1,378,402,403,-1,378,403,379,-1,301,302,339,-1,339,302,338,-1,288,331,289,-1,289,331,332,-1,289,332,290,-1,290,332,333,-1,290,333,291,-1,291,333,334,-1,291,334,292,-1,292,334,335,-1,292,335,304,-1,304,335,336,-1,304,336,303,-1,303,336,337,-1,303,337,302,-1,302,337,338,-1,404,405,406,-1,157,158,407,-1,407,158,331,-1,405,408,409,-1,410,411,288,-1,412,413,414,-1,414,415,408,-1,408,415,416,-1,408,416,409,-1,409,417,405,-1,405,417,418,-1,405,418,419,-1,414,420,288,-1,288,420,421,-1,288,421,422,-1,423,424,331,-1,331,424,425,-1,331,425,407,-1,426,427,288,-1,406,405,428,-1,422,429,288,-1,288,429,430,-1,288,430,331,-1,331,430,431,-1,331,431,423,-1,426,288,432,-1,427,433,288,-1,288,433,434,-1,288,434,435,-1,412,414,436,-1,436,414,288,-1,436,288,437,-1,413,438,414,-1,414,438,439,-1,414,439,440,-1,411,441,288,-1,288,441,442,-1,288,442,437,-1,419,443,405,-1,405,443,444,-1,405,444,428,-1,404,406,445,-1,445,406,446,-1,445,446,447,-1,448,449,287,-1,287,449,450,-1,287,450,288,-1,347,410,345,-1,345,410,288,-1,345,288,451,-1,451,288,435,-1,440,452,414,-1,414,452,453,-1,414,453,415,-1,447,454,445,-1,445,454,455,-1,445,455,456,-1,457,458,459,-1,460,461,462,-1,462,461,432,-1,462,432,463,-1,288,450,432,-1,432,450,464,-1,432,464,463,-1,440,465,452,-1,452,465,466,-1,452,466,467,-1,467,466,468,-1,448,287,459,-1,459,287,469,-1,459,469,457,-1,470,471,472,-1,468,466,472,-1,472,466,473,-1,472,473,470,-1,402,399,86,-1,86,399,87,-1,157,127,155,-1,155,127,130,-1,155,130,153,-1,153,130,132,-1,153,132,151,-1,0,396,1,-1,1,396,143,-1,1,143,142,-1,142,143,145,-1,142,145,140,-1,140,145,147,-1,140,147,138,-1,138,147,149,-1,138,149,136,-1,136,149,151,-1,136,151,134,-1,134,151,132,-1,161,347,174,-1,174,347,358,-1,174,358,176,-1,176,358,370,-1,176,370,178,-1,178,370,368,-1,178,368,180,-1,180,368,366,-1,373,78,360,-1,360,78,77,-1,360,77,362,-1,362,77,172,-1,362,172,364,-1,364,172,184,-1,364,184,366,-1,366,184,182,-1,366,182,180,-1,419,418,248,-1,248,418,208,-1,210,215,405,-1,405,215,408,-1,254,271,465,-1,465,271,466,-1,274,253,467,-1,467,253,452,-1,372,173,371,-1,371,173,175,-1,371,175,369,-1,369,175,177,-1,369,177,367,-1,474,475,476,-1,476,475,477,-1,476,477,478,-1,478,477,479,-1,478,479,480,-1,480,479,481,-1,480,481,482,-1,482,481,483,-1,177,179,367,-1,367,179,181,-1,367,181,365,-1,365,181,183,-1,365,183,363,-1,363,183,185,-1,363,185,361,-1,361,185,186,-1,361,186,359,-1,186,97,359,-1,359,97,6,-1,359,6,382,-1,382,6,8,-1,382,8,484,-1,484,8,485,-1,484,485,486,-1,486,485,487,-1,486,487,483,-1,483,487,488,-1,483,488,482,-1,257,255,449,-1,449,255,450,-1,259,264,432,-1,432,264,426,-1,426,264,427,-1,427,264,263,-1,427,263,433,-1,433,263,231,-1,433,231,434,-1,434,231,230,-1,434,230,435,-1,435,230,229,-1,435,229,451,-1,451,229,228,-1,451,228,345,-1,345,228,171,-1,352,164,353,-1,353,164,163,-1,353,163,354,-1,354,163,160,-1,354,160,355,-1,355,160,159,-1,355,159,356,-1,356,159,162,-1,356,162,357,-1,357,162,173,-1,357,173,372,-1,345,171,346,-1,346,171,170,-1,346,170,348,-1,348,170,169,-1,348,169,349,-1,349,169,168,-1,349,168,350,-1,350,168,167,-1,350,167,351,-1,351,167,166,-1,351,166,352,-1,352,166,165,-1,352,165,164,-1,78,373,80,-1,80,373,374,-1,80,374,81,-1,81,374,381,-1,81,381,73,-1,73,381,377,-1,73,377,74,-1,74,377,379,-1,74,379,85,-1,85,379,403,-1,85,403,86,-1,86,403,402,-1,396,0,397,-1,397,0,84,-1,397,84,393,-1,393,84,83,-1,393,83,394,-1,394,83,82,-1,394,82,395,-1,395,82,76,-1,395,76,398,-1,398,76,75,-1,398,75,399,-1,399,75,87,-1,254,465,234,-1,234,465,440,-1,234,440,235,-1,235,440,439,-1,235,439,236,-1,236,439,438,-1,236,438,237,-1,237,438,413,-1,237,413,238,-1,238,413,412,-1,238,412,239,-1,239,412,436,-1,239,436,240,-1,240,436,437,-1,240,437,241,-1,241,437,442,-1,241,442,242,-1,242,442,441,-1,242,441,243,-1,243,441,411,-1,243,411,244,-1,244,411,410,-1,244,410,161,-1,161,410,347,-1,274,467,468,-1,274,468,269,-1,269,468,472,-1,269,472,270,-1,270,472,471,-1,270,471,275,-1,275,471,470,-1,275,470,276,-1,276,470,473,-1,276,473,277,-1,277,473,466,-1,277,466,271,-1,452,253,453,-1,453,253,252,-1,453,252,415,-1,415,252,251,-1,415,251,416,-1,416,251,217,-1,416,217,409,-1,409,217,216,-1,409,216,417,-1,417,216,209,-1,417,209,418,-1,418,209,208,-1,127,157,207,-1,207,157,407,-1,207,407,218,-1,218,407,425,-1,218,425,219,-1,219,425,424,-1,219,424,220,-1,220,424,423,-1,220,423,224,-1,224,423,431,-1,224,431,225,-1,225,431,430,-1,408,215,414,-1,414,215,214,-1,414,214,420,-1,420,214,213,-1,420,213,421,-1,421,213,212,-1,421,212,422,-1,422,212,211,-1,422,211,429,-1,429,211,226,-1,429,226,430,-1,430,226,225,-1,287,256,273,-1,287,273,469,-1,469,273,268,-1,469,268,457,-1,457,268,267,-1,457,267,458,-1,458,267,266,-1,458,266,459,-1,459,266,272,-1,459,272,448,-1,448,272,257,-1,448,257,449,-1,259,432,461,-1,259,461,261,-1,261,461,460,-1,261,460,262,-1,262,460,462,-1,262,462,260,-1,260,462,463,-1,260,463,258,-1,258,463,464,-1,258,464,265,-1,265,464,450,-1,265,450,255,-1,447,250,249,-1,447,249,454,-1,454,249,246,-1,454,246,455,-1,455,246,245,-1,455,245,456,-1,456,245,223,-1,456,223,445,-1,445,223,227,-1,445,227,404,-1,404,227,210,-1,404,210,405,-1,250,447,446,-1,250,446,221,-1,221,446,406,-1,221,406,222,-1,222,406,428,-1,222,428,232,-1,232,428,444,-1,232,444,233,-1,233,444,443,-1,233,443,247,-1,247,443,419,-1,247,419,248,-1,60,59,312,-1,60,312,489,-1,489,312,310,-1,489,310,490,-1,490,310,308,-1,490,308,491,-1,491,308,306,-1,491,306,492,-1,492,306,330,-1,492,330,493,-1,493,330,329,-1,493,329,494,-1,494,329,327,-1,494,327,495,-1,495,327,325,-1,495,325,496,-1,497,324,498,-1,498,324,326,-1,498,326,499,-1,499,326,328,-1,499,328,500,-1,500,328,305,-1,500,305,501,-1,501,305,307,-1,501,307,502,-1,502,307,309,-1,502,309,503,-1,503,309,311,-1,503,311,386,-1,386,311,313,-1,5,4,504,-1,505,506,507,-1,507,506,508,-1,507,508,509,-1,509,510,507,-1,507,510,511,-1,507,511,512,-1,512,513,507,-1,507,513,514,-1,507,514,515,-1,515,516,507,-1,507,516,517,-1,507,517,518,-1,518,517,474,-1,474,476,518,-1,518,476,478,-1,518,478,519,-1,519,478,480,-1,519,480,520,-1,520,480,482,-1,520,482,521,-1,521,482,488,-1,521,488,522,-1,522,488,487,-1,522,487,523,-1,523,487,485,-1,523,485,504,-1,504,485,8,-1,504,8,5,-1,281,323,321,-1,281,321,283,-1,283,321,319,-1,283,319,285,-1,285,319,317,-1,285,317,293,-1,293,317,315,-1,293,315,294,-1,294,315,344,-1,294,344,296,-1,296,344,343,-1,296,343,298,-1,298,343,341,-1,298,341,300,-1,300,341,187,-1,300,187,189,-1,496,325,524,-1,524,325,323,-1,281,525,526,-1,525,527,528,-1,529,530,531,-1,531,530,532,-1,531,532,533,-1,534,281,535,-1,535,281,536,-1,537,538,281,-1,281,538,539,-1,281,539,540,-1,526,541,281,-1,281,541,542,-1,281,542,323,-1,323,542,543,-1,323,543,544,-1,544,545,323,-1,323,545,546,-1,323,546,524,-1,532,547,533,-1,533,547,548,-1,533,548,549,-1,550,551,281,-1,281,551,552,-1,281,552,536,-1,540,553,281,-1,281,553,554,-1,281,554,525,-1,525,554,555,-1,525,555,527,-1,528,556,525,-1,525,556,557,-1,525,557,558,-1,507,537,505,-1,505,537,281,-1,505,281,559,-1,559,281,534,-1,560,561,562,-1,563,564,279,-1,560,562,565,-1,531,566,529,-1,529,566,558,-1,529,558,567,-1,567,558,557,-1,567,557,568,-1,561,569,562,-1,562,569,570,-1,562,570,571,-1,572,573,549,-1,549,573,574,-1,549,574,533,-1,575,576,577,-1,578,579,580,-1,580,579,550,-1,580,550,581,-1,557,582,568,-1,568,582,583,-1,568,583,584,-1,584,583,585,-1,572,549,562,-1,562,549,586,-1,562,586,565,-1,279,564,281,-1,281,564,587,-1,281,587,550,-1,550,587,588,-1,550,588,581,-1,589,590,591,-1,563,279,577,-1,577,279,592,-1,577,592,575,-1,585,583,591,-1,591,583,593,-1,591,593,589,-1,594,595,596,-1,597,475,596,-1,596,475,598,-1,596,598,594,-1,595,599,596,-1,596,599,600,-1,596,600,601,-1,601,602,596,-1,596,602,603,-1,596,603,604,-1,604,605,596,-1,596,605,606,-1,596,606,607,-1,387,382,608,-1,608,382,484,-1,608,484,609,-1,609,484,486,-1,609,486,610,-1,610,486,483,-1,610,483,611,-1,611,483,481,-1,611,481,612,-1,612,481,479,-1,612,479,597,-1,597,479,477,-1,597,477,475,-1,301,339,299,-1,299,339,340,-1,299,340,297,-1,297,340,342,-1,297,342,295,-1,295,342,314,-1,295,314,286,-1,286,314,316,-1,286,316,284,-1,284,316,318,-1,284,318,282,-1,282,318,320,-1,282,320,280,-1,280,320,322,-1,324,497,322,-1,322,497,613,-1,614,615,280,-1,616,617,618,-1,618,617,619,-1,620,621,615,-1,613,622,322,-1,322,622,623,-1,322,623,624,-1,624,625,322,-1,322,625,626,-1,322,626,280,-1,280,626,627,-1,280,627,614,-1,628,629,630,-1,631,632,280,-1,280,632,633,-1,633,634,280,-1,280,634,635,-1,280,635,636,-1,617,637,619,-1,619,637,638,-1,619,638,639,-1,639,638,640,-1,639,640,641,-1,641,640,642,-1,643,644,645,-1,621,646,615,-1,615,646,647,-1,615,647,280,-1,280,647,648,-1,280,648,649,-1,649,650,280,-1,280,650,651,-1,280,651,652,-1,616,618,653,-1,653,618,654,-1,653,654,655,-1,656,657,658,-1,658,657,659,-1,659,660,658,-1,658,660,661,-1,658,661,662,-1,645,644,636,-1,663,664,665,-1,655,666,653,-1,653,666,658,-1,653,658,667,-1,667,658,662,-1,642,630,641,-1,641,630,629,-1,641,629,615,-1,615,629,668,-1,615,668,620,-1,652,596,280,-1,280,596,607,-1,280,607,631,-1,663,665,645,-1,645,665,669,-1,645,669,643,-1,636,644,280,-1,280,644,670,-1,280,670,278,-1,278,670,671,-1,278,671,672,-1,673,674,675,-1,676,677,672,-1,672,677,678,-1,672,678,278,-1,628,630,675,-1,675,630,679,-1,675,679,673,-1,680,681,674,-1,674,681,682,-1,674,682,675,-1,400,401,68,-1,68,401,69,-1,496,497,495,-1,495,497,498,-1,495,498,494,-1,494,498,499,-1,494,499,493,-1,493,499,500,-1,493,500,492,-1,492,500,501,-1,385,58,386,-1,386,58,60,-1,386,60,503,-1,503,60,489,-1,503,489,502,-1,502,489,490,-1,502,490,501,-1,501,490,491,-1,501,491,492,-1,596,507,597,-1,597,507,518,-1,597,518,612,-1,612,518,519,-1,612,519,611,-1,3,388,4,-1,4,388,387,-1,4,387,504,-1,504,387,608,-1,504,608,523,-1,523,608,609,-1,523,609,522,-1,522,609,610,-1,522,610,521,-1,521,610,611,-1,521,611,520,-1,520,611,519,-1,616,653,548,-1,548,653,549,-1,531,533,619,-1,619,533,618,-1,583,582,675,-1,675,582,628,-1,568,584,630,-1,630,584,679,-1,587,564,644,-1,644,564,670,-1,551,550,636,-1,636,550,645,-1,607,505,631,-1,631,505,559,-1,631,559,632,-1,632,559,534,-1,632,534,633,-1,633,534,535,-1,633,535,634,-1,634,535,536,-1,634,536,635,-1,635,536,552,-1,635,552,636,-1,636,552,551,-1,505,607,506,-1,506,607,606,-1,506,606,508,-1,508,606,605,-1,508,605,509,-1,509,605,604,-1,509,604,510,-1,510,604,603,-1,510,603,511,-1,511,603,602,-1,511,602,512,-1,512,602,601,-1,512,601,513,-1,513,601,600,-1,513,600,514,-1,514,600,599,-1,514,599,515,-1,515,599,595,-1,515,595,516,-1,516,595,594,-1,516,594,517,-1,517,594,598,-1,517,598,474,-1,474,598,475,-1,69,401,64,-1,64,401,378,-1,64,378,65,-1,65,378,376,-1,65,376,66,-1,66,376,375,-1,66,375,54,-1,54,375,383,-1,54,383,55,-1,55,383,389,-1,55,389,3,-1,3,389,388,-1,400,68,390,-1,390,68,67,-1,390,67,391,-1,391,67,63,-1,391,63,392,-1,392,63,62,-1,392,62,380,-1,380,62,61,-1,380,61,384,-1,384,61,56,-1,384,56,385,-1,385,56,58,-1,554,647,555,-1,555,647,646,-1,555,646,527,-1,527,646,621,-1,527,621,528,-1,528,621,620,-1,528,620,556,-1,556,620,668,-1,556,668,557,-1,557,668,629,-1,557,629,582,-1,582,629,628,-1,507,596,537,-1,537,596,652,-1,537,652,538,-1,538,652,651,-1,538,651,539,-1,539,651,650,-1,539,650,540,-1,540,650,649,-1,540,649,553,-1,553,649,648,-1,553,648,554,-1,554,648,647,-1,583,675,682,-1,583,682,593,-1,593,682,681,-1,593,681,589,-1,589,681,680,-1,589,680,590,-1,590,680,674,-1,590,674,591,-1,591,674,673,-1,591,673,585,-1,585,673,679,-1,585,679,584,-1,616,548,617,-1,617,548,547,-1,617,547,637,-1,637,547,532,-1,637,532,638,-1,638,532,530,-1,638,530,640,-1,640,530,529,-1,640,529,642,-1,642,529,567,-1,642,567,630,-1,630,567,568,-1,542,626,543,-1,543,626,625,-1,543,625,544,-1,544,625,624,-1,544,624,545,-1,545,624,623,-1,545,623,546,-1,546,623,622,-1,546,622,524,-1,524,622,613,-1,524,613,496,-1,496,613,497,-1,626,542,627,-1,627,542,541,-1,627,541,614,-1,614,541,526,-1,614,526,615,-1,615,526,525,-1,615,525,641,-1,641,525,558,-1,641,558,639,-1,639,558,566,-1,639,566,619,-1,619,566,531,-1,670,564,563,-1,670,563,671,-1,671,563,577,-1,671,577,672,-1,672,577,576,-1,672,576,676,-1,676,576,575,-1,676,575,677,-1,677,575,592,-1,677,592,678,-1,678,592,279,-1,678,279,278,-1,587,644,643,-1,587,643,588,-1,588,643,669,-1,588,669,581,-1,581,669,665,-1,581,665,580,-1,580,665,664,-1,580,664,578,-1,578,664,663,-1,578,663,579,-1,579,663,645,-1,579,645,550,-1,618,533,574,-1,618,574,654,-1,654,574,573,-1,654,573,655,-1,655,573,572,-1,655,572,666,-1,666,572,562,-1,666,562,658,-1,658,562,571,-1,658,571,656,-1,656,571,570,-1,656,570,657,-1,549,653,667,-1,549,667,586,-1,586,667,662,-1,586,662,565,-1,565,662,661,-1,565,661,560,-1,560,661,660,-1,560,660,561,-1,561,660,659,-1,561,659,569,-1,569,659,657,-1,569,657,570,-1,
        ]
    }
}
Shape{
    appearance Appearance {
        material  Material 	{
            diffuseColor 1.0 1.0 1.0
            specularColor 0.8784313725490196 0.8784313725490196 0.8784313725490196
            ambientIntensity 0.2
            transparency 0
            shininess 0.5
        }
    }
    geometry IndexedFaceSet {
        ccw TRUE
        solid FALSE
        coord DEF co Coordinate {
            point [
                0.6674 0.2718 -0.6142, 0.821 0.6655 -0.6142, 0.6674 0.2718 -0.622, 0.821 0.6655 -0.622, 0.7634 0.6655 -0.6142, 0.7634 0.6655 -0.622, 0.7236 0.555 -0.6142, 0.7236 0.555 -0.622, 0.5609 0.555 -0.6142, 0.5609 0.555 -0.622, 0.5233 0.6655 -0.6142, 0.5233 0.6655 -0.622, 0.4657 0.6655 -0.6142, 0.4657 0.6655 -0.622, 0.6146 0.2718 -0.6142, 0.6146 0.2718 -0.622, 0.5742 0.5118 -0.6142, 0.6329 0.3474 -0.6142, 0.6367 0.3337 -0.6142, 0.6392 0.3198 -0.6142, 0.6405 0.3198 -0.6142, 0.6431 0.3337 -0.6142, 0.7059 0.5118 -0.6142, 0.6466 0.3474 -0.6142, 0.5742 0.5118 -0.622, 0.7059 0.5118 -0.622, 0.6329 0.3474 -0.622, 0.6367 0.3337 -0.622, 0.6392 0.3198 -0.622, 0.6405 0.3198 -0.622, 0.6431 0.3337 -0.622, 0.6466 0.3474 -0.622, 0.2271 0.6655 -0.6142, 0.12 0.6655 -0.6142, 0.2271 0.6655 -0.622, 0.12 0.6655 -0.622, 0.12 0.2718 -0.6142, 0.12 0.2718 -0.622, 0.2311 0.2718 -0.6142, 0.2311 0.2718 -0.622, 0.4369 0.4637 -0.6142, 0.4369 0.4637 -0.622, 0.4347 0.4305 -0.622, 0.4347 0.4305 -0.6142, 0.4249 0.3915 -0.622, 0.4249 0.3915 -0.6142, 0.4074 0.3572 -0.622, 0.4074 0.3572 -0.6142, 0.3807 0.3262 -0.622, 0.3807 0.3262 -0.6142, 0.3758 0.3217 -0.622, 0.3758 0.3217 -0.6142, 0.3323 0.2931 -0.622, 0.3323 0.2931 -0.6142, 0.2862 0.2774 -0.622, 0.2862 0.2774 -0.6142, 0.2761 0.6612 -0.622, 0.2761 0.6612 -0.6142, 0.3215 0.6476 -0.622, 0.3215 0.6476 -0.6142, 0.3625 0.6236 -0.622, 0.3625 0.6236 -0.6142, 0.3948 0.5926 -0.622, 0.3948 0.5926 -0.6142, 0.4174 0.5573 -0.622, 0.4174 0.5573 -0.6142, 0.4314 0.5162 -0.622, 0.4314 0.5162 -0.6142, 0.3578 0.3701 -0.6142, 0.3387 0.3498 -0.6142, 0.3099 0.3312 -0.6142, 0.2773 0.3199 -0.6142, 0.2309 0.315 -0.6142, 0.1728 0.315 -0.6142, 0.1728 0.6223 -0.6142, 0.2287 0.6223 -0.6142, 0.2703 0.6184 -0.6142, 0.3035 0.608 -0.6142, 0.3303 0.5921 -0.6142, 0.3524 0.5702 -0.6142, 0.369 0.5431 -0.6142, 0.3805 0.506 -0.6142, 0.3841 0.4648 -0.6142, 0.3808 0.4256 -0.6142, 0.3715 0.3943 -0.6142, 0.2309 0.315 -0.622, 0.1728 0.315 -0.622, 0.2773 0.3199 -0.622, 0.3099 0.3312 -0.622, 0.3387 0.3498 -0.622, 0.3578 0.3701 -0.622, 0.3715 0.3943 -0.622, 0.3808 0.4256 -0.622, 0.3841 0.4648 -0.622, 0.3805 0.506 -0.622, 0.369 0.5431 -0.622, 0.3524 0.5702 -0.622, 0.3303 0.5921 -0.622, 0.3035 0.608 -0.622, 0.2703 0.6184 -0.622, 0.2287 0.6223 -0.622, 0.1728 0.6223 -0.622, 0.0432 0.6223 -0.6142, 0.0432 0.6655 -0.6142, 0.0432 0.6223 -0.622, 0.0432 0.6655 -0.622, -0.168 0.6655 -0.6142, -0.168 0.6655 -0.622, -0.168 0.2718 -0.6142, -0.168 0.2718 -0.622, 0.0336 0.2718 -0.6142, 0.0336 0.2718 -0.622, 0.0336 0.315 -0.6142, 0.0336 0.315 -0.622, -0.1152 0.315 -0.6142, -0.1152 0.315 -0.622, -0.1152 0.4446 -0.6142, -0.1152 0.4446 -0.622, 0.024 0.4446 -0.6142, 0.024 0.4446 -0.622, 0.024 0.4878 -0.6142, 0.024 0.4878 -0.622, -0.1152 0.4878 -0.6142, -0.1152 0.4878 -0.622, -0.1152 0.6223 -0.6142, -0.1152 0.6223 -0.622, -0.2449 0.6019 -0.6142, -0.2449 0.6451 -0.6142, -0.2449 0.6019 -0.622, -0.2449 0.6451 -0.622, -0.3532 0.6703 -0.6142, -0.3532 0.6703 -0.622, -0.3424 0.6701 -0.622, -0.3424 0.6701 -0.6142, -0.2868 0.6623 -0.622, -0.2868 0.6623 -0.6142, -0.5377 0.476 -0.6142, -0.5377 0.476 -0.622, -0.534 0.5214 -0.622, -0.534 0.5214 -0.6142, -0.5222 0.5631 -0.622, -0.5222 0.5631 -0.6142, -0.5012 0.6006 -0.622, -0.5012 0.6006 -0.6142, -0.4717 0.6318 -0.622, -0.4717 0.6318 -0.6142, -0.44 0.652 -0.622, -0.44 0.652 -0.6142, -0.4017 0.6652 -0.622, -0.4017 0.6652 -0.6142, -0.3375 0.267 -0.6142, -0.3375 0.267 -0.622, -0.3782 0.2704 -0.6142, -0.366 0.2694 -0.622, -0.3782 0.2704 -0.622, -0.4221 0.2834 -0.622, -0.4221 0.2834 -0.6142, -0.4594 0.3053 -0.622, -0.4594 0.3053 -0.6142, -0.4946 0.3396 -0.622, -0.4946 0.3396 -0.6142, -0.5175 0.3765 -0.622, -0.5175 0.3765 -0.6142, -0.5325 0.422 -0.622, -0.5325 0.422 -0.6142, -0.3027 0.2694 -0.622, -0.2904 0.2702 -0.6142, -0.2904 0.2702 -0.622, -0.2449 0.2826 -0.6142, -0.2449 0.2826 -0.622, -0.2449 0.3354 -0.6142, -0.2449 0.3354 -0.622, -0.3371 0.3102 -0.6142, -0.3371 0.3102 -0.622, -0.2892 0.3164 -0.622, -0.2892 0.3164 -0.6142, -0.4849 0.4728 -0.6142, -0.4849 0.4728 -0.622, -0.483 0.4422 -0.622, -0.483 0.4422 -0.6142, -0.4726 0.4 -0.622, -0.4726 0.4 -0.6142, -0.4563 0.3696 -0.622, -0.4563 0.3696 -0.6142, -0.4325 0.3434 -0.622, -0.4325 0.3434 -0.6142, -0.4053 0.3252 -0.622, -0.4053 0.3252 -0.6142, -0.3758 0.3145 -0.622, -0.3758 0.3145 -0.6142, -0.3459 0.6271 -0.6142, -0.3459 0.6271 -0.622, -0.3828 0.6229 -0.622, -0.3828 0.6229 -0.6142, -0.4115 0.6123 -0.622, -0.4115 0.6123 -0.6142, -0.4356 0.596 -0.622, -0.4356 0.596 -0.6142, -0.4539 0.5767 -0.622, -0.4539 0.5767 -0.6142, -0.4702 0.5494 -0.622, -0.4702 0.5494 -0.6142, -0.4809 0.5154 -0.622, -0.4809 0.5154 -0.6142, -0.2519 0.6058 -0.622, -0.2519 0.6058 -0.6142, -0.2937 0.6213 -0.622, -0.2937 0.6213 -0.6142, -0.5713 0.6223 -0.6142, -0.5713 0.6655 -0.6142, -0.5713 0.6223 -0.622, -0.5713 0.6655 -0.622, -0.773 0.6655 -0.6142, -0.773 0.6655 -0.622, -0.773 0.2718 -0.6142, -0.773 0.2718 -0.622, -0.7202 0.2718 -0.6142, -0.7202 0.2718 -0.622, -0.7202 0.6223 -0.6142, -0.7202 0.6223 -0.622, -0.7202 0.6223 -0.622
            ]
        }
        coordIndex [
            0,1,2,-1,2,1,3,-1,1,4,3,-1,3,4,5,-1,4,6,5,-1,5,6,7,-1,6,8,7,-1,7,8,9,-1,8,10,9,-1,9,10,11,-1,10,12,11,-1,11,12,13,-1,12,14,13,-1,13,14,15,-1,14,0,15,-1,15,0,2,-1,16,17,14,-1,12,10,8,-1,17,18,14,-1,14,18,19,-1,14,19,0,-1,0,19,20,-1,0,20,21,-1,14,12,16,-1,16,12,8,-1,16,8,22,-1,22,8,6,-1,21,23,0,-1,0,23,22,-1,0,22,1,-1,1,22,6,-1,1,6,4,-1,16,22,24,-1,24,22,25,-1,17,16,26,-1,26,16,24,-1,17,26,27,-1,17,27,18,-1,18,27,28,-1,18,28,19,-1,20,19,29,-1,29,19,28,-1,20,29,30,-1,20,30,21,-1,21,30,31,-1,21,31,23,-1,22,23,25,-1,25,23,31,-1,32,33,34,-1,34,33,35,-1,33,36,35,-1,35,36,37,-1,36,38,37,-1,37,38,39,-1,40,41,42,-1,40,42,43,-1,43,42,44,-1,43,44,45,-1,45,44,46,-1,45,46,47,-1,47,46,48,-1,47,48,49,-1,49,48,50,-1,49,50,51,-1,51,50,52,-1,51,52,53,-1,53,52,54,-1,53,54,55,-1,55,54,39,-1,55,39,38,-1,32,34,56,-1,32,56,57,-1,57,56,58,-1,57,58,59,-1,59,58,60,-1,59,60,61,-1,61,60,62,-1,61,62,63,-1,63,62,64,-1,63,64,65,-1,65,64,66,-1,65,66,67,-1,67,66,41,-1,67,41,40,-1,45,47,68,-1,68,47,49,-1,68,49,69,-1,69,49,51,-1,69,51,70,-1,70,51,53,-1,70,53,71,-1,71,53,55,-1,71,55,72,-1,72,55,38,-1,72,38,73,-1,73,38,36,-1,73,36,74,-1,74,36,33,-1,74,33,75,-1,75,33,32,-1,75,32,76,-1,76,32,57,-1,76,57,77,-1,77,57,59,-1,77,59,78,-1,78,59,61,-1,78,61,79,-1,79,61,63,-1,79,63,80,-1,80,63,65,-1,80,65,81,-1,81,65,67,-1,81,67,82,-1,82,67,40,-1,82,40,83,-1,83,40,43,-1,83,43,84,-1,84,43,45,-1,84,45,68,-1,72,73,85,-1,85,73,86,-1,72,85,87,-1,72,87,71,-1,71,87,88,-1,71,88,70,-1,70,88,89,-1,70,89,69,-1,69,89,90,-1,69,90,68,-1,68,90,91,-1,68,91,84,-1,84,91,92,-1,84,92,83,-1,83,92,93,-1,83,93,82,-1,82,93,94,-1,82,94,81,-1,81,94,95,-1,81,95,80,-1,80,95,96,-1,80,96,79,-1,79,96,97,-1,79,97,78,-1,78,97,98,-1,78,98,77,-1,77,98,99,-1,77,99,76,-1,76,99,100,-1,76,100,75,-1,74,75,101,-1,101,75,100,-1,73,74,86,-1,86,74,101,-1,102,103,104,-1,104,103,105,-1,103,106,105,-1,105,106,107,-1,106,108,107,-1,107,108,109,-1,108,110,109,-1,109,110,111,-1,110,112,111,-1,111,112,113,-1,112,114,113,-1,113,114,115,-1,114,116,115,-1,115,116,117,-1,116,118,117,-1,117,118,119,-1,118,120,119,-1,119,120,121,-1,120,122,121,-1,121,122,123,-1,122,124,123,-1,123,124,125,-1,124,102,125,-1,125,102,104,-1,106,103,102,-1,102,124,106,-1,106,124,122,-1,106,122,108,-1,112,110,114,-1,114,110,108,-1,114,108,116,-1,116,108,122,-1,116,122,118,-1,118,122,120,-1,126,127,128,-1,128,127,129,-1,130,131,132,-1,130,132,133,-1,133,132,134,-1,133,134,135,-1,135,134,129,-1,135,129,127,-1,136,137,138,-1,136,138,139,-1,139,138,140,-1,139,140,141,-1,141,140,142,-1,141,142,143,-1,143,142,144,-1,143,144,145,-1,145,144,146,-1,145,146,147,-1,147,146,148,-1,147,148,149,-1,149,148,131,-1,149,131,130,-1,150,151,152,-1,152,151,153,-1,153,154,152,-1,152,154,155,-1,152,155,156,-1,156,155,157,-1,156,157,158,-1,158,157,159,-1,158,159,160,-1,160,159,161,-1,160,161,162,-1,162,161,163,-1,162,163,164,-1,164,163,137,-1,164,137,136,-1,151,150,165,-1,165,150,166,-1,165,166,167,-1,167,166,168,-1,167,168,169,-1,168,170,169,-1,169,170,171,-1,172,173,174,-1,172,174,175,-1,175,174,171,-1,175,171,170,-1,176,177,178,-1,176,178,179,-1,179,178,180,-1,179,180,181,-1,181,180,182,-1,181,182,183,-1,183,182,184,-1,183,184,185,-1,185,184,186,-1,185,186,187,-1,187,186,188,-1,187,188,189,-1,189,188,173,-1,189,173,172,-1,190,191,192,-1,190,192,193,-1,193,192,194,-1,193,194,195,-1,195,194,196,-1,195,196,197,-1,197,196,198,-1,197,198,199,-1,199,198,200,-1,199,200,201,-1,201,200,202,-1,201,202,203,-1,203,202,177,-1,203,177,176,-1,126,128,204,-1,126,204,205,-1,205,204,206,-1,205,206,207,-1,207,206,191,-1,207,191,190,-1,193,130,190,-1,190,130,133,-1,190,133,207,-1,207,133,135,-1,207,135,205,-1,205,135,127,-1,205,127,126,-1,170,168,175,-1,175,168,166,-1,175,166,172,-1,172,166,150,-1,172,150,189,-1,189,150,152,-1,189,152,187,-1,187,152,156,-1,187,156,185,-1,185,156,158,-1,185,158,183,-1,183,158,160,-1,183,160,181,-1,181,160,162,-1,181,162,179,-1,179,162,164,-1,179,164,176,-1,176,164,136,-1,176,136,203,-1,203,136,139,-1,203,139,201,-1,201,139,141,-1,201,141,199,-1,199,141,143,-1,199,143,197,-1,197,143,145,-1,197,145,195,-1,195,145,147,-1,195,147,193,-1,193,147,149,-1,193,149,130,-1,208,209,210,-1,210,209,211,-1,209,212,211,-1,211,212,213,-1,212,214,213,-1,213,214,215,-1,214,216,215,-1,215,216,217,-1,216,218,217,-1,217,218,219,-1,218,208,219,-1,219,208,210,-1,216,214,218,-1,218,214,212,-1,218,212,208,-1,208,212,209,-1,
        ]
    }
}
Shape{
    appearance Appearance {
        material  Material 	{
            diffuseColor 0.6666666666666666 0.6666666666666666 0.6666666666666666
            specularColor 0.4666666666666667 0.4666666666666667 0.4666666666666667
            ambientIntensity 0.2
            transparency 0
            shininess 0.5
        }
    }
    geometry IndexedFaceSet {
        ccw TRUE
        solid FALSE
        coord DEF co Coordinate {
            point [
                0.5742 0.5118 -0.622, 0.7059 0.5118 -0.622, 0.6329 0.3474 -0.622, 0.6466 0.3474 -0.622, 0.6367 0.3337 -0.622, 0.6431 0.3337 -0.622, 0.6392 0.3198 -0.622, 0.6405 0.3198 -0.622, 0.1728 0.315 -0.622, 0.1728 0.6223 -0.622, 0.2309 0.315 -0.622, 0.2287 0.6223 -0.622, 0.2703 0.6184 -0.622, 0.3841 0.4648 -0.622, 0.3808 0.4256 -0.622, 0.3715 0.3943 -0.622, 0.2773 0.3199 -0.622, 0.3035 0.608 -0.622, 0.3303 0.5921 -0.622, 0.3524 0.5702 -0.622, 0.369 0.5431 -0.622, 0.3805 0.506 -0.622, 0.3578 0.3701 -0.622, 0.3387 0.3498 -0.622, 0.3099 0.3312 -0.622, 0.3099 0.3312 -0.622
            ]
        }
        coordIndex [
            0,1,2,-1,2,1,3,-1,2,3,4,-1,4,3,5,-1,4,5,6,-1,6,5,7,-1,8,9,10,-1,10,9,11,-1,10,11,12,-1,13,14,10,-1,10,14,15,-1,10,15,16,-1,12,17,10,-1,10,17,18,-1,10,18,19,-1,19,20,10,-1,10,20,21,-1,10,21,13,-1,22,23,15,-1,15,23,24,-1,15,24,16,-1,
        ]
    }
}
Shape{
    appearance Appearance {
        material  Material 	{
            diffuseColor 0.20784313725490197 0.20784313725490197 0.20784313725490197
            specularColor 0.01568627450980392 0.01568627450980392 0.01568627450980392
            ambientIntensity 0.2
            transparency 0
            shininess 0.5
        }
    }
    geometry IndexedFaceSet {
        ccw TRUE
        solid FALSE
        coord DEF co Coordinate {
            point [
                1.378 0.4587 0.1378, 1.378 -0.7752 0.1378, 1.378 0.4587 -0.1378, 1.378 -0.7752 -0.1378, -1.2152 -1.0571 0.1378, 1.2152 -1.0571 0.1378, -1.378 -0.7752 0.1378, -1.378 0.4587 0.1378, -1.378 0.4587 -0.1378, -1.378 -0.7752 -0.1378, 1.2152 -1.0571 -0.1378, -1.2152 -1.0571 -0.1378, 1.1811 -1.1161 -0.0787, 1.1811 -1.1161 0.0787, -1.1811 -1.1161 -0.0787, -1.1811 -1.1161 0.0787, 1.5692 0.4587 0.2751, 1.5294 0.4587 0.3386, 1.5294 0.4587 -0.3386, 1.5692 0.4587 -0.2751, 1.594 0.4587 0.2044, 1.3422 0.4587 0.4562, 1.2677 0.4587 0.4646, 1.594 0.4587 -0.2044, 1.6024 0.4587 -0.1299, 1.6024 0.4587 0.1299, -1.5294 0.4587 -0.3386, -1.4764 0.4587 -0.3916, -1.4129 0.4587 -0.4314, -1.3422 0.4587 -0.4562, -1.2677 0.4587 -0.4646, 1.2677 0.4587 -0.4646, 1.3422 0.4587 -0.4562, -1.6024 0.4587 -0.1299, -1.6024 0.4587 0.1299, -1.594 0.4587 -0.2044, -1.5692 0.4587 -0.2751, -1.3422 0.4587 0.4562, -1.4129 0.4587 0.4314, -1.4764 0.4587 0.3916, -1.5294 0.4587 0.3386, 1.4129 0.4587 -0.4314, 1.4764 0.4587 -0.3916, -1.5692 0.4587 0.2751, -1.594 0.4587 0.2044, -1.2677 0.4587 0.4646, 1.4764 0.4587 0.3916, 1.4129 0.4587 0.4314, -1.6417 0.498 -0.1299, -1.6417 0.8524 -0.1299, -1.6324 0.8524 -0.2131, -1.6324 0.498 -0.2131, -1.6047 0.8524 -0.2922, -1.6047 0.498 -0.2922, -1.5601 0.8524 -0.3631, -1.5601 0.498 -0.3631, -1.5009 0.8524 -0.4223, -1.5009 0.498 -0.4223, -1.43 0.8524 -0.4669, -1.43 0.498 -0.4669, -1.3509 0.8524 -0.4946, -1.3509 0.498 -0.4946, -1.2677 0.8524 -0.5039, -1.2677 0.498 -0.5039, 1.2677 0.498 -0.5039, 1.2677 0.8524 -0.5039, 1.3509 0.8524 -0.4946, 1.3509 0.498 -0.4946, 1.43 0.8524 -0.4669, 1.43 0.498 -0.4669, 1.5009 0.8524 -0.4223, 1.5009 0.498 -0.4223, 1.5601 0.8524 -0.3631, 1.5601 0.498 -0.3631, 1.6047 0.8524 -0.2922, 1.6047 0.498 -0.2922, 1.6324 0.8524 -0.2131, 1.6324 0.498 -0.2131, 1.6417 0.8524 -0.1299, 1.6417 0.498 -0.1299, 1.6417 1.4232 -0.622, 1.3248 1.4232 -0.622, 1.6417 1.4232 0.1299, 1.3248 1.4232 -0.6024, 1.6324 1.4232 0.2131, 1.1673 1.4232 -0.6024, 1.6047 1.4232 0.2922, 0.8524 1.4232 -0.6024, 0.8524 1.4232 -0.622, 0.7283 1.4232 -0.622, 0.7283 1.4232 -0.6024, 0.6496 1.4232 -0.6024, -1.2677 1.4232 0.5039, 1.2677 1.4232 0.5039, 1.3509 1.4232 0.4946, 1.43 1.4232 0.4669, 1.5009 1.4232 0.4223, 1.5601 1.4232 0.3631, 1.0098 1.4232 -0.6024, 1.0098 1.4232 -0.622, 1.1673 1.4232 -0.622, 0.4528 1.4232 -0.6024, 0.4528 1.4232 -0.622, 0.3346 1.4232 -0.622, 0.3346 1.4232 -0.6024, 0.2559 1.4232 -0.6024, 0.5315 1.4232 -0.6024, 0.5315 1.4232 -0.622, 0.6496 1.4232 -0.622, 0.0591 1.4232 -0.6024, 0.0591 1.4232 -0.622, -0.0591 1.4232 -0.622, -0.0591 1.4232 -0.6024, 0.1378 1.4232 -0.6024, 0.1378 1.4232 -0.622, 0.2559 1.4232 -0.622, -0.1378 1.4232 -0.622, -0.2559 1.4232 -0.622, -0.1378 1.4232 -0.6024, -0.2559 1.4232 -0.6024, -0.3346 1.4232 -0.622, -0.4528 1.4232 -0.622, -0.3346 1.4232 -0.6024, -0.4528 1.4232 -0.6024, -1.3509 1.4232 0.4946, -1.43 1.4232 0.4669, -1.5009 1.4232 0.4223, -0.5315 1.4232 -0.622, -0.6496 1.4232 -0.622, -0.5315 1.4232 -0.6024, -0.6496 1.4232 -0.6024, -0.7283 1.4232 -0.622, -0.8524 1.4232 -0.622, -0.7283 1.4232 -0.6024, -0.8524 1.4232 -0.6024, -1.5601 1.4232 0.3631, -1.6047 1.4232 0.2922, -1.0098 1.4232 -0.6024, -1.6417 1.4232 0.1299, -1.6324 1.4232 0.2131, -1.3248 1.4232 -0.622, -1.6417 1.4232 -0.622, -1.3248 1.4232 -0.6024, -1.1673 1.4232 -0.6024, -1.1673 1.4232 -0.622, -1.0098 1.4232 -0.622, 0.1378 1.3248 -0.622, -0.6496 1.3248 -0.622, -0.5315 1.3248 -0.622, -1.1064 0.9345 -0.622, 0.2559 1.3248 -0.622, 0.3346 1.3248 -0.622, 0.7283 1.3248 -0.622, 0.4528 1.3248 -0.622, 0.5315 1.3248 -0.622, 0.6496 1.3248 -0.622, 0.8524 1.3248 -0.622, 1.2015 1.0991 -0.622, 1.1811 1.1148 -0.622, 1.1673 1.3248 -0.622, -0.0591 1.3248 -0.622, 0.0591 1.3248 -0.622, -1.6417 0.8524 -0.622, -1.3248 1.3248 -0.622, -1.0827 1.1148 -0.622, -1.1064 1.1246 -0.622, -1.0098 1.3248 -0.622, -1.1319 1.128 -0.622, 1.3248 1.3248 -0.622, -1.0623 0.9599 -0.622, -1.0467 0.9803 -0.622, 1.1574 1.1246 -0.622, 1.1319 1.128 -0.622, 1.0098 1.3248 -0.622, -1.0827 0.9443 -0.622, -1.0623 1.0991 -0.622, -0.8524 1.3248 -0.622, -1.0467 1.0787 -0.622, -0.7283 1.3248 -0.622, -1.0368 1.055 -0.622, -0.4528 1.3248 -0.622, 1.1064 1.1246 -0.622, 1.0827 1.1148 -0.622, -0.3346 1.3248 -0.622, -0.2559 1.3248 -0.622, -1.0368 1.0041 -0.622, -1.0335 1.0295 -0.622, -0.1378 1.3248 -0.622, -1.1811 1.1148 -0.622, -1.1574 1.1246 -0.622, -1.1673 1.3248 -0.622, 1.0623 0.9599 -0.622, 1.0827 0.9443 -0.622, 1.0623 1.0991 -0.622, 1.0467 1.0787 -0.622, 1.0368 1.055 -0.622, -1.1319 0.9311 -0.622, -1.2015 1.0991 -0.622, -1.2171 1.0787 -0.622, -1.227 1.055 -0.622, -1.2303 1.0295 -0.622, -1.227 1.0041 -0.622, -1.2171 0.9803 -0.622, -1.2015 0.9599 -0.622, 1.227 1.0041 -0.622, 1.2303 1.0295 -0.622, 1.6417 0.8524 -0.622, 1.227 1.055 -0.622, 1.1064 0.9345 -0.622, 1.1319 0.9311 -0.622, 1.1574 0.9345 -0.622, 1.1811 0.9443 -0.622, 1.2015 0.9599 -0.622, 1.2171 0.9803 -0.622, 1.2171 1.0787 -0.622, -1.1811 0.9443 -0.622, -1.1574 0.9345 -0.622, 1.0335 1.0295 -0.622, 1.0368 1.0041 -0.622, 1.0467 0.9803 -0.622, 1.6417 0.498 0.1299, 1.6324 0.498 0.2131, 1.6047 0.498 0.2922, 1.5601 0.498 0.3631, 1.5009 0.498 0.4223, 1.43 0.498 0.4669, 1.3509 0.498 0.4946, 1.2677 0.498 0.5039, -1.2677 0.498 0.5039, -1.3509 0.498 0.4946, -1.43 0.498 0.4669, -1.5009 0.498 0.4223, -1.5601 0.498 0.3631, -1.6047 0.498 0.2922, -1.6324 0.498 0.2131, -1.6417 0.498 0.1299, -1.6417 0.498 0.1299
            ]
        }
        coordIndex [
            0,1,2,-1,2,1,3,-1,4,5,6,-1,6,5,1,-1,6,1,7,-1,7,1,0,-1,8,9,7,-1,7,9,6,-1,8,2,3,-1,10,11,3,-1,3,11,9,-1,3,9,8,-1,12,13,14,-1,14,13,15,-1,6,9,4,-1,4,9,11,-1,4,11,15,-1,15,11,14,-1,13,12,5,-1,5,12,10,-1,5,10,1,-1,1,10,3,-1,10,12,11,-1,11,12,14,-1,4,15,5,-1,5,15,13,-1,16,17,0,-1,2,18,19,-1,16,0,20,-1,21,22,0,-1,19,23,2,-1,2,23,24,-1,2,24,0,-1,0,24,25,-1,0,25,20,-1,26,27,8,-1,8,27,28,-1,28,29,8,-1,8,29,30,-1,8,30,2,-1,2,30,31,-1,2,31,32,-1,33,8,34,-1,34,8,7,-1,33,35,8,-1,8,35,36,-1,8,36,26,-1,37,38,7,-1,7,38,39,-1,7,39,40,-1,32,41,2,-1,2,41,42,-1,2,42,18,-1,40,43,7,-1,7,43,44,-1,7,44,34,-1,0,22,7,-1,7,22,45,-1,7,45,37,-1,17,46,0,-1,0,46,47,-1,0,47,21,-1,48,49,50,-1,48,50,51,-1,51,50,52,-1,51,52,53,-1,53,52,54,-1,53,54,55,-1,55,54,56,-1,55,56,57,-1,57,56,58,-1,57,58,59,-1,59,58,60,-1,59,60,61,-1,61,60,62,-1,61,62,63,-1,63,62,64,-1,64,62,65,-1,64,65,66,-1,64,66,67,-1,67,66,68,-1,67,68,69,-1,69,68,70,-1,69,70,71,-1,71,70,72,-1,71,72,73,-1,73,72,74,-1,73,74,75,-1,75,74,76,-1,75,76,77,-1,77,76,78,-1,77,78,79,-1,80,81,82,-1,82,81,83,-1,82,83,84,-1,84,83,85,-1,84,85,86,-1,87,88,89,-1,90,91,92,-1,92,93,85,-1,85,93,94,-1,85,94,95,-1,95,96,85,-1,85,96,97,-1,85,97,86,-1,89,90,87,-1,87,90,92,-1,87,92,98,-1,98,92,85,-1,98,85,99,-1,99,85,100,-1,101,102,103,-1,104,105,92,-1,103,104,101,-1,101,104,92,-1,101,92,106,-1,106,92,91,-1,106,91,107,-1,107,91,108,-1,109,110,111,-1,111,112,109,-1,109,112,92,-1,109,92,113,-1,113,92,105,-1,113,105,114,-1,114,105,115,-1,116,117,118,-1,118,117,119,-1,120,121,122,-1,122,121,123,-1,112,118,92,-1,92,118,119,-1,92,119,124,-1,124,119,122,-1,124,122,125,-1,125,122,123,-1,125,123,126,-1,127,128,129,-1,129,128,130,-1,131,132,133,-1,133,132,134,-1,123,129,126,-1,126,129,130,-1,126,130,135,-1,135,130,136,-1,134,137,138,-1,130,133,136,-1,136,133,134,-1,136,134,139,-1,139,134,138,-1,140,141,142,-1,142,141,138,-1,142,138,143,-1,143,138,137,-1,143,137,144,-1,144,137,145,-1,146,114,115,-1,128,127,147,-1,147,127,148,-1,149,150,151,-1,152,89,88,-1,103,102,151,-1,151,102,153,-1,151,153,149,-1,149,153,154,-1,107,108,154,-1,154,108,155,-1,154,155,149,-1,149,155,152,-1,149,152,156,-1,156,152,88,-1,157,158,159,-1,111,110,160,-1,160,110,161,-1,141,140,162,-1,162,140,163,-1,164,165,166,-1,166,165,167,-1,166,167,145,-1,168,81,80,-1,169,170,161,-1,158,171,159,-1,159,171,172,-1,159,172,100,-1,100,172,173,-1,100,173,99,-1,115,150,146,-1,146,150,149,-1,146,149,161,-1,161,149,174,-1,161,174,169,-1,164,166,175,-1,175,166,176,-1,175,176,177,-1,132,131,176,-1,176,131,178,-1,176,178,177,-1,177,178,147,-1,177,147,179,-1,179,147,148,-1,179,148,180,-1,172,181,173,-1,173,181,182,-1,173,182,156,-1,121,120,180,-1,180,120,183,-1,180,183,179,-1,179,183,184,-1,170,185,161,-1,161,185,186,-1,161,186,160,-1,160,186,179,-1,160,179,187,-1,187,179,184,-1,187,184,116,-1,116,184,117,-1,188,163,189,-1,189,163,190,-1,189,190,167,-1,167,190,144,-1,167,144,145,-1,162,191,192,-1,182,193,156,-1,156,193,194,-1,156,194,149,-1,149,194,195,-1,149,195,196,-1,188,197,163,-1,163,197,198,-1,163,198,162,-1,162,198,199,-1,162,199,200,-1,200,201,162,-1,162,201,202,-1,162,202,203,-1,204,205,206,-1,206,205,207,-1,192,208,162,-1,162,208,209,-1,162,209,206,-1,206,209,210,-1,206,210,211,-1,211,212,206,-1,206,212,213,-1,206,213,204,-1,80,206,168,-1,168,206,207,-1,168,207,159,-1,159,207,214,-1,159,214,157,-1,203,215,162,-1,162,215,216,-1,162,216,196,-1,195,217,196,-1,196,217,218,-1,196,218,162,-1,162,218,219,-1,162,219,191,-1,206,80,78,-1,78,80,82,-1,78,82,79,-1,79,82,220,-1,220,82,84,-1,220,84,221,-1,221,84,86,-1,221,86,222,-1,222,86,97,-1,222,97,223,-1,223,97,96,-1,223,96,224,-1,224,96,95,-1,224,95,225,-1,225,95,94,-1,225,94,226,-1,226,94,93,-1,226,93,227,-1,227,93,228,-1,228,93,92,-1,228,92,124,-1,228,124,229,-1,229,124,125,-1,229,125,230,-1,230,125,126,-1,230,126,231,-1,231,126,135,-1,231,135,232,-1,232,135,136,-1,232,136,233,-1,233,136,139,-1,233,139,234,-1,234,139,138,-1,234,138,235,-1,48,235,49,-1,49,235,138,-1,49,138,162,-1,162,138,141,-1,49,162,50,-1,50,162,52,-1,74,206,76,-1,76,206,78,-1,60,58,162,-1,74,72,206,-1,206,72,70,-1,206,70,68,-1,58,56,162,-1,162,56,54,-1,162,54,52,-1,68,66,206,-1,206,66,65,-1,206,65,162,-1,162,65,62,-1,162,62,60,-1,45,228,229,-1,45,229,37,-1,37,229,230,-1,37,230,38,-1,38,230,231,-1,38,231,39,-1,39,231,232,-1,39,232,40,-1,40,232,233,-1,40,233,43,-1,43,233,234,-1,43,234,44,-1,44,234,235,-1,44,235,34,-1,48,33,235,-1,235,33,34,-1,22,227,45,-1,45,227,228,-1,33,48,51,-1,33,51,35,-1,35,51,53,-1,35,53,36,-1,36,53,55,-1,36,55,26,-1,26,55,57,-1,26,57,27,-1,27,57,59,-1,27,59,28,-1,28,59,61,-1,28,61,29,-1,29,61,63,-1,29,63,30,-1,25,220,221,-1,25,221,20,-1,20,221,222,-1,20,222,16,-1,16,222,223,-1,16,223,17,-1,17,223,224,-1,17,224,46,-1,46,224,225,-1,46,225,47,-1,47,225,226,-1,47,226,21,-1,21,226,227,-1,21,227,22,-1,64,31,63,-1,63,31,30,-1,24,79,25,-1,25,79,220,-1,31,64,67,-1,31,67,32,-1,32,67,69,-1,32,69,41,-1,41,69,71,-1,41,71,42,-1,42,71,73,-1,42,73,18,-1,18,73,75,-1,18,75,19,-1,19,75,77,-1,19,77,23,-1,23,77,79,-1,23,79,24,-1,
        ]
    }
}
Shape{
    appearance Appearance {
        material  Material 	{
            diffuseColor 0.8274509803921568 0.6666666666666666 0.12941176470588237
            specularColor 0.8274509803921568 0.6666666666666666 0.12941176470588237
            ambientIntensity 0.2
            transparency 0
            shininess 0.5
        }
    }
    geometry IndexedFaceSet {
        ccw TRUE
        solid FALSE
        coord DEF co Coordinate {
            point [
                0.1378 1.5807 -0.6024, 0.0591 1.5807 -0.6024, 0.1378 1.4232 -0.6024, 0.0591 1.4232 -0.6024, 0.0591 1.3248 -0.622, 0.0591 1.3248 -0.6614, 0.1378 1.3248 -0.622, 0.1378 1.3248 -0.6614, 0.1378 1.5807 -0.6614, 0.0591 1.5807 -0.6614, 0.1378 1.4232 -0.622, 0.0591 1.4232 -0.622, 0.3346 1.5807 -0.6024, 0.2559 1.5807 -0.6024, 0.3346 1.4232 -0.6024, 0.2559 1.4232 -0.6024, 0.2559 1.3248 -0.622, 0.2559 1.3248 -0.6614, 0.3346 1.3248 -0.622, 0.3346 1.3248 -0.6614, 0.3346 1.5807 -0.6614, 0.2559 1.5807 -0.6614, 0.3346 1.4232 -0.622, 0.2559 1.4232 -0.622, 0.5315 1.5807 -0.6024, 0.4528 1.5807 -0.6024, 0.5315 1.4232 -0.6024, 0.4528 1.4232 -0.6024, 0.4528 1.3248 -0.622, 0.4528 1.3248 -0.6614, 0.5315 1.3248 -0.622, 0.5315 1.3248 -0.6614, 0.5315 1.5807 -0.6614, 0.4528 1.5807 -0.6614, 0.5315 1.4232 -0.622, 0.4528 1.4232 -0.622, 0.7283 1.5807 -0.6024, 0.6496 1.5807 -0.6024, 0.7283 1.4232 -0.6024, 0.6496 1.4232 -0.6024, 0.6496 1.3248 -0.622, 0.6496 1.3248 -0.6614, 0.7283 1.3248 -0.622, 0.7283 1.3248 -0.6614, 0.7283 1.5807 -0.6614, 0.6496 1.5807 -0.6614, 0.7283 1.4232 -0.622, 0.6496 1.4232 -0.622, 1.0098 1.5807 -0.6024, 0.8524 1.5807 -0.6024, 1.0098 1.4232 -0.6024, 0.8524 1.4232 -0.6024, 0.8524 1.3248 -0.622, 0.8524 1.3248 -0.6614, 1.0098 1.3248 -0.622, 1.0098 1.3248 -0.6614, 1.0098 1.5807 -0.6614, 0.8524 1.5807 -0.6614, 1.0098 1.4232 -0.622, 0.8524 1.4232 -0.622, 1.3248 1.5807 -0.6024, 1.1673 1.5807 -0.6024, 1.3248 1.4232 -0.6024, 1.1673 1.4232 -0.6024, 1.1673 1.3248 -0.622, 1.1673 1.3248 -0.6614, 1.3248 1.3248 -0.622, 1.3248 1.3248 -0.6614, 1.3248 1.5807 -0.6614, 1.1673 1.5807 -0.6614, 1.3248 1.4232 -0.622, 1.1673 1.4232 -0.622, -0.0591 1.4232 -0.6024, -0.0591 1.5807 -0.6024, -0.1378 1.4232 -0.6024, -0.1378 1.5807 -0.6024, -0.1378 1.5807 -0.6614, -0.0591 1.5807 -0.6614, -0.1378 1.3248 -0.6614, -0.0591 1.3248 -0.6614, -0.1378 1.3248 -0.622, -0.0591 1.3248 -0.622, -0.1378 1.4232 -0.622, -0.0591 1.4232 -0.622, -0.2559 1.4232 -0.6024, -0.2559 1.5807 -0.6024, -0.3346 1.4232 -0.6024, -0.3346 1.5807 -0.6024, -0.3346 1.5807 -0.6614, -0.2559 1.5807 -0.6614, -0.3346 1.3248 -0.6614, -0.2559 1.3248 -0.6614, -0.3346 1.3248 -0.622, -0.2559 1.3248 -0.622, -0.3346 1.4232 -0.622, -0.2559 1.4232 -0.622, -0.4528 1.4232 -0.6024, -0.4528 1.5807 -0.6024, -0.5315 1.4232 -0.6024, -0.5315 1.5807 -0.6024, -0.5315 1.5807 -0.6614, -0.4528 1.5807 -0.6614, -0.5315 1.3248 -0.6614, -0.4528 1.3248 -0.6614, -0.5315 1.3248 -0.622, -0.4528 1.3248 -0.622, -0.5315 1.4232 -0.622, -0.4528 1.4232 -0.622, -0.6496 1.4232 -0.6024, -0.6496 1.5807 -0.6024, -0.7283 1.4232 -0.6024, -0.7283 1.5807 -0.6024, -0.7283 1.5807 -0.6614, -0.6496 1.5807 -0.6614, -0.7283 1.3248 -0.6614, -0.6496 1.3248 -0.6614, -0.7283 1.3248 -0.622, -0.6496 1.3248 -0.622, -0.7283 1.4232 -0.622, -0.6496 1.4232 -0.622, -0.8524 1.4232 -0.6024, -0.8524 1.5807 -0.6024, -1.0098 1.4232 -0.6024, -1.0098 1.5807 -0.6024, -1.0098 1.5807 -0.6614, -0.8524 1.5807 -0.6614, -1.0098 1.3248 -0.6614, -0.8524 1.3248 -0.6614, -1.0098 1.3248 -0.622, -0.8524 1.3248 -0.622, -1.0098 1.4232 -0.622, -0.8524 1.4232 -0.622, -1.1673 1.4232 -0.6024, -1.1673 1.5807 -0.6024, -1.3248 1.4232 -0.6024, -1.3248 1.5807 -0.6024, -1.3248 1.5807 -0.6614, -1.1673 1.5807 -0.6614, -1.3248 1.3248 -0.6614, -1.1673 1.3248 -0.6614, -1.3248 1.3248 -0.622, -1.1673 1.3248 -0.622, -1.3248 1.4232 -0.622, -1.1673 1.4232 -0.622, -1.1673 1.4232 -0.622
            ]
        }
        coordIndex [
            0,1,2,-1,2,1,3,-1,4,5,6,-1,6,5,7,-1,8,7,9,-1,9,7,5,-1,0,8,1,-1,1,8,9,-1,6,7,10,-1,10,7,8,-1,10,8,2,-1,2,8,0,-1,5,4,11,-1,3,1,11,-1,11,1,9,-1,11,9,5,-1,12,13,14,-1,14,13,15,-1,16,17,18,-1,18,17,19,-1,20,19,21,-1,21,19,17,-1,12,20,13,-1,13,20,21,-1,18,19,22,-1,22,19,20,-1,22,20,14,-1,14,20,12,-1,17,16,23,-1,15,13,23,-1,23,13,21,-1,23,21,17,-1,24,25,26,-1,26,25,27,-1,28,29,30,-1,30,29,31,-1,32,31,33,-1,33,31,29,-1,24,32,25,-1,25,32,33,-1,30,31,34,-1,34,31,32,-1,34,32,26,-1,26,32,24,-1,29,28,35,-1,27,25,35,-1,35,25,33,-1,35,33,29,-1,36,37,38,-1,38,37,39,-1,40,41,42,-1,42,41,43,-1,44,43,45,-1,45,43,41,-1,36,44,37,-1,37,44,45,-1,42,43,46,-1,46,43,44,-1,46,44,38,-1,38,44,36,-1,41,40,47,-1,39,37,47,-1,47,37,45,-1,47,45,41,-1,48,49,50,-1,50,49,51,-1,52,53,54,-1,54,53,55,-1,56,55,57,-1,57,55,53,-1,48,56,49,-1,49,56,57,-1,54,55,58,-1,58,55,56,-1,58,56,50,-1,50,56,48,-1,53,52,59,-1,51,49,59,-1,59,49,57,-1,59,57,53,-1,60,61,62,-1,62,61,63,-1,64,65,66,-1,66,65,67,-1,68,67,69,-1,69,67,65,-1,60,68,61,-1,61,68,69,-1,66,67,70,-1,70,67,68,-1,70,68,62,-1,62,68,60,-1,65,64,71,-1,63,61,71,-1,71,61,69,-1,71,69,65,-1,72,73,74,-1,74,73,75,-1,76,75,77,-1,77,75,73,-1,78,76,79,-1,79,76,77,-1,78,79,80,-1,80,79,81,-1,78,80,82,-1,74,75,82,-1,82,75,76,-1,82,76,78,-1,81,79,83,-1,83,79,77,-1,83,77,72,-1,72,77,73,-1,84,85,86,-1,86,85,87,-1,88,87,89,-1,89,87,85,-1,90,88,91,-1,91,88,89,-1,90,91,92,-1,92,91,93,-1,90,92,94,-1,86,87,94,-1,94,87,88,-1,94,88,90,-1,93,91,95,-1,95,91,89,-1,95,89,84,-1,84,89,85,-1,96,97,98,-1,98,97,99,-1,100,99,101,-1,101,99,97,-1,102,100,103,-1,103,100,101,-1,102,103,104,-1,104,103,105,-1,102,104,106,-1,98,99,106,-1,106,99,100,-1,106,100,102,-1,105,103,107,-1,107,103,101,-1,107,101,96,-1,96,101,97,-1,108,109,110,-1,110,109,111,-1,112,111,113,-1,113,111,109,-1,114,112,115,-1,115,112,113,-1,114,115,116,-1,116,115,117,-1,114,116,118,-1,110,111,118,-1,118,111,112,-1,118,112,114,-1,117,115,119,-1,119,115,113,-1,119,113,108,-1,108,113,109,-1,120,121,122,-1,122,121,123,-1,124,123,125,-1,125,123,121,-1,126,124,127,-1,127,124,125,-1,126,127,128,-1,128,127,129,-1,126,128,130,-1,122,123,130,-1,130,123,124,-1,130,124,126,-1,129,127,131,-1,131,127,125,-1,131,125,120,-1,120,125,121,-1,132,133,134,-1,134,133,135,-1,136,135,137,-1,137,135,133,-1,138,136,139,-1,139,136,137,-1,138,139,140,-1,140,139,141,-1,138,140,142,-1,134,135,142,-1,142,135,136,-1,142,136,138,-1,141,139,143,-1,143,139,137,-1,143,137,132,-1,132,137,133,-1,
        ]
    }
}
Shape{
    appearance Appearance {
        material  Material 	{
            diffuseColor 0.20784313725490197 0.20784313725490197 0.20784313725490197
            specularColor 0.01568627450980392 0.01568627450980392 0.01568627450980392
            ambientIntensity 0.2
            transparency 0
            shininess 0.5
        }
    }
    geometry IndexedFaceSet {
        ccw TRUE
        solid FALSE
        coord DEF co Coordinate {
            point [
                -1.2303 1.0295 -0.622, -1.227 1.0041 -0.878, -1.227 1.0041 -0.622, -1.2171 0.9803 -0.878, -1.2171 0.9803 -0.622, -1.2015 0.9599 -0.878, -1.2015 0.9599 -0.622, -1.1811 0.9443 -0.878, -1.1811 0.9443 -0.622, -1.1574 0.9345 -0.878, -1.1574 0.9345 -0.622, -1.1319 0.9311 -0.878, -1.1319 0.9311 -0.622, -1.1064 0.9345 -0.878, -1.1064 0.9345 -0.622, -1.0827 0.9443 -0.878, -1.0827 0.9443 -0.622, -1.0623 0.9599 -0.878, -1.0623 0.9599 -0.622, -1.0467 0.9803 -0.878, -1.0467 0.9803 -0.622, -1.0368 1.0041 -0.878, -1.0368 1.0041 -0.622, -1.0335 1.0295 -0.878, -1.0335 1.0295 -0.622, -1.0368 1.055 -0.878, -1.0368 1.055 -0.622, -1.0467 1.0787 -0.878, -1.0467 1.0787 -0.622, -1.0623 1.0991 -0.878, -1.0623 1.0991 -0.622, -1.0827 1.1148 -0.878, -1.0827 1.1148 -0.622, -1.1064 1.1246 -0.878, -1.1064 1.1246 -0.622, -1.1319 1.128 -0.878, -1.1319 1.128 -0.622, -1.1574 1.1246 -0.878, -1.1574 1.1246 -0.622, -1.1811 1.1148 -0.878, -1.1811 1.1148 -0.622, -1.2015 1.0991 -0.878, -1.2015 1.0991 -0.622, -1.2171 1.0787 -0.878, -1.2171 1.0787 -0.622, -1.227 1.055 -0.878, -1.227 1.055 -0.622, -1.2303 1.0295 -0.878, -1.1614 1.0807 -0.9173, -1.1472 1.0866 -0.9173, -1.1319 1.0295 -0.9173, -1.1319 1.0886 -0.9173, -1.1166 1.0866 -0.9173, -1.1889 1.0448 -0.9173, -1.183 1.0591 -0.9173, -1.1736 1.0713 -0.9173, -1.183 1.0 -0.9173, -1.1889 1.0142 -0.9173, -1.1909 1.0295 -0.9173, -1.1472 0.9725 -0.9173, -1.1614 0.9784 -0.9173, -1.1736 0.9878 -0.9173, -1.1024 0.9784 -0.9173, -1.1166 0.9725 -0.9173, -1.1319 0.9705 -0.9173, -1.0748 1.0142 -0.9173, -1.0807 1.0 -0.9173, -1.0901 0.9878 -0.9173, -1.0807 1.0591 -0.9173, -1.0748 1.0448 -0.9173, -1.0728 1.0295 -0.9173, -1.1024 1.0807 -0.9173, -1.0901 1.0713 -0.9173, 1.2303 1.0295 -0.622, 1.227 1.055 -0.878, 1.227 1.055 -0.622, 1.2171 1.0787 -0.878, 1.2171 1.0787 -0.622, 1.2015 1.0991 -0.878, 1.2015 1.0991 -0.622, 1.1811 1.1148 -0.878, 1.1811 1.1148 -0.622, 1.1574 1.1246 -0.878, 1.1574 1.1246 -0.622, 1.1319 1.128 -0.878, 1.1319 1.128 -0.622, 1.1064 1.1246 -0.878, 1.1064 1.1246 -0.622, 1.0827 1.1148 -0.878, 1.0827 1.1148 -0.622, 1.0623 1.0991 -0.878, 1.0623 1.0991 -0.622, 1.0467 1.0787 -0.878, 1.0467 1.0787 -0.622, 1.0368 1.055 -0.878, 1.0368 1.055 -0.622, 1.0335 1.0295 -0.878, 1.0335 1.0295 -0.622, 1.0368 1.0041 -0.878, 1.0368 1.0041 -0.622, 1.0467 0.9803 -0.878, 1.0467 0.9803 -0.622, 1.0623 0.9599 -0.878, 1.0623 0.9599 -0.622, 1.0827 0.9443 -0.878, 1.0827 0.9443 -0.622, 1.1064 0.9345 -0.878, 1.1064 0.9345 -0.622, 1.1319 0.9311 -0.878, 1.1319 0.9311 -0.622, 1.1574 0.9345 -0.878, 1.1574 0.9345 -0.622, 1.1811 0.9443 -0.878, 1.1811 0.9443 -0.622, 1.2015 0.9599 -0.878, 1.2015 0.9599 -0.622, 1.2171 0.9803 -0.878, 1.2171 0.9803 -0.622, 1.227 1.0041 -0.878, 1.227 1.0041 -0.622, 1.2303 1.0295 -0.878, 1.1024 1.0807 -0.9173, 1.1166 1.0866 -0.9173, 1.1319 1.0295 -0.9173, 1.1319 1.0886 -0.9173, 1.1472 1.0866 -0.9173, 1.0748 1.0448 -0.9173, 1.0807 1.0591 -0.9173, 1.0901 1.0713 -0.9173, 1.0807 1.0 -0.9173, 1.0748 1.0142 -0.9173, 1.0728 1.0295 -0.9173, 1.1166 0.9725 -0.9173, 1.1024 0.9784 -0.9173, 1.0901 0.9878 -0.9173, 1.1614 0.9784 -0.9173, 1.1472 0.9725 -0.9173, 1.1319 0.9705 -0.9173, 1.1889 1.0142 -0.9173, 1.183 1.0 -0.9173, 1.1736 0.9878 -0.9173, 1.183 1.0591 -0.9173, 1.1889 1.0448 -0.9173, 1.1909 1.0295 -0.9173, 1.1614 1.0807 -0.9173, 1.1736 1.0713 -0.9173, 1.1736 1.0713 -0.9173
            ]
        }
        coordIndex [
            0,1,2,-1,2,1,3,-1,2,3,4,-1,4,3,5,-1,4,5,6,-1,6,5,7,-1,6,7,8,-1,8,7,9,-1,8,9,10,-1,10,9,11,-1,10,11,12,-1,12,11,13,-1,12,13,14,-1,14,13,15,-1,14,15,16,-1,16,15,17,-1,16,17,18,-1,18,17,19,-1,18,19,20,-1,20,19,21,-1,20,21,22,-1,22,21,23,-1,22,23,24,-1,24,23,25,-1,24,25,26,-1,26,25,27,-1,26,27,28,-1,28,27,29,-1,28,29,30,-1,30,29,31,-1,30,31,32,-1,32,31,33,-1,32,33,34,-1,34,33,35,-1,34,35,36,-1,36,35,37,-1,36,37,38,-1,38,37,39,-1,38,39,40,-1,40,39,41,-1,40,41,42,-1,42,41,43,-1,42,43,44,-1,44,43,45,-1,44,45,46,-1,46,45,47,-1,46,47,0,-1,0,47,1,-1,48,49,50,-1,50,49,51,-1,50,51,52,-1,53,54,50,-1,50,54,55,-1,50,55,48,-1,56,57,50,-1,50,57,58,-1,50,58,53,-1,59,60,50,-1,50,60,61,-1,50,61,56,-1,62,63,50,-1,50,63,64,-1,50,64,59,-1,65,66,50,-1,50,66,67,-1,50,67,62,-1,68,69,50,-1,50,69,70,-1,50,70,65,-1,52,71,50,-1,50,71,72,-1,50,72,68,-1,11,63,13,-1,13,63,62,-1,13,62,15,-1,15,62,67,-1,15,67,17,-1,17,67,66,-1,17,66,19,-1,19,66,65,-1,19,65,21,-1,21,65,70,-1,21,70,23,-1,23,70,69,-1,23,69,25,-1,25,69,68,-1,25,68,27,-1,27,68,72,-1,27,72,29,-1,29,72,71,-1,29,71,31,-1,31,71,52,-1,31,52,33,-1,33,52,51,-1,33,51,35,-1,35,51,49,-1,35,49,37,-1,37,49,48,-1,37,48,39,-1,39,48,55,-1,39,55,41,-1,41,55,54,-1,41,54,43,-1,43,54,53,-1,43,53,45,-1,45,53,58,-1,45,58,47,-1,47,58,57,-1,47,57,1,-1,1,57,56,-1,1,56,3,-1,3,56,61,-1,3,61,5,-1,5,61,60,-1,5,60,7,-1,7,60,59,-1,7,59,9,-1,9,59,64,-1,9,64,11,-1,11,64,63,-1,73,74,75,-1,75,74,76,-1,75,76,77,-1,77,76,78,-1,77,78,79,-1,79,78,80,-1,79,80,81,-1,81,80,82,-1,81,82,83,-1,83,82,84,-1,83,84,85,-1,85,84,86,-1,85,86,87,-1,87,86,88,-1,87,88,89,-1,89,88,90,-1,89,90,91,-1,91,90,92,-1,91,92,93,-1,93,92,94,-1,93,94,95,-1,95,94,96,-1,95,96,97,-1,97,96,98,-1,97,98,99,-1,99,98,100,-1,99,100,101,-1,101,100,102,-1,101,102,103,-1,103,102,104,-1,103,104,105,-1,105,104,106,-1,105,106,107,-1,107,106,108,-1,107,108,109,-1,109,108,110,-1,109,110,111,-1,111,110,112,-1,111,112,113,-1,113,112,114,-1,113,114,115,-1,115,114,116,-1,115,116,117,-1,117,116,118,-1,117,118,119,-1,119,118,120,-1,119,120,73,-1,73,120,74,-1,121,122,123,-1,123,122,124,-1,123,124,125,-1,126,127,123,-1,123,127,128,-1,123,128,121,-1,129,130,123,-1,123,130,131,-1,123,131,126,-1,132,133,123,-1,123,133,134,-1,123,134,129,-1,135,136,123,-1,123,136,137,-1,123,137,132,-1,138,139,123,-1,123,139,140,-1,123,140,135,-1,141,142,123,-1,123,142,143,-1,123,143,138,-1,125,144,123,-1,123,144,145,-1,123,145,141,-1,108,136,110,-1,110,136,135,-1,110,135,112,-1,112,135,140,-1,112,140,114,-1,114,140,139,-1,114,139,116,-1,116,139,138,-1,116,138,118,-1,118,138,143,-1,118,143,120,-1,120,143,142,-1,120,142,74,-1,74,142,141,-1,74,141,76,-1,76,141,145,-1,76,145,78,-1,78,145,144,-1,78,144,80,-1,80,144,125,-1,80,125,82,-1,82,125,124,-1,82,124,84,-1,84,124,122,-1,84,122,86,-1,86,122,121,-1,86,121,88,-1,88,121,128,-1,88,128,90,-1,90,128,127,-1,90,127,92,-1,92,127,126,-1,92,126,94,-1,94,126,131,-1,94,131,96,-1,96,131,130,-1,96,130,98,-1,98,130,129,-1,98,129,100,-1,100,129,134,-1,100,134,102,-1,102,134,133,-1,102,133,104,-1,104,133,132,-1,104,132,106,-1,106,132,137,-1,106,137,108,-1,108,137,136,-1,
        ]
    }
}