%TF.GenerationSoftware,KiCad,Pcbnew,9.0.7*%
%TF.CreationDate,2026-03-29T20:38:49+02:00*%
%TF.ProjectId,IoT_Environmental_Monitoring_Device_Power,496f545f-456e-4766-9972-6f6e6d656e74,rev?*%
%TF.SameCoordinates,Original*%
%TF.FileFunction,Copper,L3,Inr*%
%TF.FilePolarity,Positive*%
%FSLAX46Y46*%
G04 Gerber Fmt 4.6, Leading zero omitted, Abs format (unit mm)*
G04 Created by KiCad (PCBNEW 9.0.7) date 2026-03-29 20:38:49*
%MOMM*%
%LPD*%
G01*
G04 APERTURE LIST*
%TA.AperFunction,ComponentPad*%
%ADD10C,0.650000*%
%TD*%
%TA.AperFunction,ComponentPad*%
%ADD11O,2.100000X1.000000*%
%TD*%
%TA.AperFunction,ComponentPad*%
%ADD12O,1.800000X1.000000*%
%TD*%
%TA.AperFunction,ViaPad*%
%ADD13C,0.650000*%
%TD*%
%TA.AperFunction,ViaPad*%
%ADD14C,0.450000*%
%TD*%
%TA.AperFunction,Conductor*%
%ADD15C,0.200000*%
%TD*%
G04 APERTURE END LIST*
D10*
%TO.N,*%
%TO.C,USB1*%
X64840800Y-46944800D03*
X64840800Y-52724800D03*
D11*
%TO.N,GND*%
X65340800Y-45514800D03*
D12*
X61190800Y-45514800D03*
X61190800Y-54154800D03*
D11*
X65340800Y-54154800D03*
%TD*%
D13*
%TO.N,+5V*%
X89283800Y-45966000D03*
X89789000Y-64312800D03*
X89283800Y-46990000D03*
D14*
X90776800Y-66022201D03*
D13*
X89283800Y-44881800D03*
X89789000Y-65227200D03*
X89789000Y-66167000D03*
D14*
X90776799Y-64396602D03*
%TO.N,VSYS*%
X88404800Y-57818001D03*
X71501000Y-55600600D03*
D13*
X77317600Y-59385200D03*
D14*
X71935400Y-56087000D03*
D13*
X71691200Y-53797200D03*
X83464400Y-57556400D03*
D14*
X88414601Y-56522600D03*
D13*
X76555600Y-59385200D03*
D14*
X71475600Y-54584600D03*
D13*
X87503000Y-56515000D03*
X87477600Y-57658000D03*
X82524600Y-57556400D03*
X84404200Y-57556400D03*
X76530200Y-60121800D03*
X77292200Y-60121800D03*
X85344000Y-57556400D03*
D14*
X71935400Y-55096400D03*
D13*
%TO.N,VBUS*%
X67868800Y-47066200D03*
X67792600Y-52578000D03*
D14*
X70478800Y-56109800D03*
D13*
X67081400Y-51866800D03*
X68218200Y-55261800D03*
X67868800Y-47777400D03*
X67792600Y-51866800D03*
X67081400Y-52578000D03*
X67157600Y-47066200D03*
D14*
X69488200Y-55703400D03*
D13*
X67157600Y-47777400D03*
%TO.N,+3.3V*%
X85293200Y-44881800D03*
D14*
X75996800Y-47472600D03*
D13*
X74086200Y-64621400D03*
X85283800Y-45935900D03*
X76555600Y-66297799D03*
X74086200Y-66297799D03*
X74086200Y-65455800D03*
X85293200Y-46990000D03*
X75361800Y-66297799D03*
D14*
%TO.N,/PWRON*%
X75107800Y-51790600D03*
X77114400Y-57632600D03*
%TO.N,/5V_EN*%
X91694000Y-59131200D03*
X69427400Y-41579800D03*
%TO.N,/IRQ*%
X63423800Y-58318400D03*
X76022200Y-45716002D03*
%TO.N,Net-(U1-SDA)*%
X78486000Y-47498000D03*
X67183000Y-56972200D03*
%TO.N,Net-(U1-SCK)*%
X67691000Y-57505600D03*
X77241400Y-47447200D03*
%TO.N,/NTC*%
X78384400Y-56946800D03*
X90519000Y-50247800D03*
%TO.N,GND*%
X79527400Y-62506600D03*
D13*
X88925400Y-48666400D03*
D14*
X71424800Y-39420800D03*
D13*
X70281800Y-59029600D03*
D14*
X87376000Y-62839600D03*
X88500000Y-42000000D03*
X90500000Y-43000000D03*
X61000000Y-60500000D03*
X90000000Y-42000000D03*
X61000000Y-49000000D03*
X70000000Y-64000000D03*
X86000000Y-43000000D03*
X94000000Y-48000000D03*
X68500000Y-64500000D03*
X74523600Y-57886600D03*
X78000000Y-41000000D03*
X98500000Y-54000000D03*
X94000000Y-45000000D03*
D13*
X88376800Y-62509400D03*
D14*
X78500000Y-61000000D03*
X94000000Y-43500000D03*
X61000000Y-58500000D03*
X70000000Y-45000000D03*
X72542400Y-39344600D03*
X67000000Y-45000000D03*
X75978201Y-55858400D03*
X86156800Y-39319200D03*
X78500000Y-52500000D03*
D13*
X89509600Y-62661800D03*
D14*
X97000000Y-46500000D03*
X80500000Y-63000000D03*
X95500000Y-48000000D03*
X73500000Y-41000000D03*
X80500000Y-60000000D03*
X80500000Y-61000000D03*
X98500000Y-51000000D03*
X70789800Y-60731400D03*
D13*
X87655400Y-50344600D03*
D14*
X98500000Y-52500000D03*
X77500000Y-51500000D03*
X92000000Y-43000000D03*
X80000000Y-43000000D03*
X98500000Y-59000000D03*
D13*
X71307400Y-61290200D03*
D14*
X62000000Y-59500000D03*
X80000000Y-46000000D03*
X98500000Y-45000000D03*
X62000000Y-61500000D03*
X89000000Y-43000000D03*
X79527400Y-63506599D03*
X71831200Y-59613800D03*
X64500000Y-60500000D03*
X84000000Y-42000000D03*
X72000000Y-41000000D03*
X94000000Y-57000000D03*
X77000000Y-52500000D03*
X63000000Y-60500000D03*
D13*
X88036400Y-48666400D03*
D14*
X69488200Y-54743400D03*
X61000000Y-51000000D03*
X78500000Y-43000000D03*
X98500000Y-49500000D03*
X97000000Y-45000000D03*
X98500000Y-61000000D03*
X80500000Y-59000000D03*
X73000000Y-52500000D03*
X94000000Y-55500000D03*
X61000000Y-53000000D03*
X71500000Y-47000000D03*
X71500000Y-48000000D03*
X92326799Y-64396602D03*
X85753200Y-55168800D03*
X80500000Y-62000000D03*
X84753200Y-55168800D03*
X72000000Y-52500000D03*
X74000000Y-51500000D03*
X87000000Y-42000000D03*
D13*
X70281800Y-61290200D03*
D14*
X84074000Y-40970200D03*
D13*
X88376800Y-60325000D03*
D14*
X73500000Y-52000000D03*
X98500000Y-55500000D03*
X69500000Y-46000000D03*
X79527400Y-61506600D03*
D13*
X87630000Y-49555400D03*
X70281800Y-60187200D03*
D14*
X70478800Y-55149800D03*
X84500000Y-43000000D03*
D13*
X89509600Y-50344600D03*
D14*
X68000000Y-45000000D03*
X72895400Y-55096400D03*
X83000000Y-67000000D03*
X82500000Y-39000000D03*
X83000000Y-43000000D03*
D13*
X72313800Y-60187200D03*
D14*
X81500000Y-48500000D03*
X82753200Y-55168800D03*
X70000000Y-65500000D03*
X73900000Y-48000000D03*
X80000000Y-44500000D03*
X88766400Y-55168800D03*
X70789800Y-59613800D03*
X87766400Y-55168800D03*
X95500000Y-46500000D03*
X63000000Y-47500000D03*
X70000000Y-67000000D03*
X78500000Y-62000000D03*
X82500000Y-42000000D03*
X75406400Y-58334600D03*
X66500000Y-44000000D03*
X67000000Y-65500000D03*
X86753200Y-55168800D03*
X85000000Y-67000000D03*
X87500000Y-41000000D03*
X73900000Y-49200000D03*
X73900000Y-46700000D03*
X67081400Y-46126400D03*
X82000000Y-47500000D03*
X76000000Y-51500000D03*
X68503800Y-39954200D03*
X68218200Y-53711800D03*
X68500000Y-66500000D03*
X79527400Y-60493401D03*
X72523200Y-64621400D03*
D13*
X72313800Y-61290200D03*
D14*
X67000000Y-64000000D03*
X64414400Y-57861200D03*
X61000000Y-47000000D03*
X92000000Y-43500000D03*
X83000000Y-41000000D03*
X88500000Y-39000000D03*
D13*
X87198200Y-48666400D03*
D14*
X79527400Y-59493401D03*
X72536200Y-66297799D03*
X93000000Y-60500000D03*
X65500000Y-62000000D03*
X81500000Y-44500000D03*
X94000000Y-59000000D03*
D13*
X89560400Y-49555400D03*
X88573600Y-49555400D03*
X71307400Y-59029600D03*
D14*
X62000000Y-51000000D03*
X66954400Y-53416200D03*
X80000000Y-48500000D03*
X69000000Y-45000000D03*
X69875400Y-51155600D03*
X68500000Y-46000000D03*
X81500000Y-46000000D03*
X65557400Y-56159400D03*
X95500000Y-45000000D03*
X73000000Y-51500000D03*
X69900800Y-49250600D03*
X72500000Y-52000000D03*
X71500000Y-52000000D03*
X68000000Y-42000000D03*
X71831200Y-60731400D03*
X80753200Y-55168800D03*
D13*
X71307400Y-60187200D03*
D14*
X81500000Y-43000000D03*
X62000000Y-53000000D03*
X66500000Y-42000000D03*
X81753200Y-55168800D03*
X75000000Y-41000000D03*
D13*
X67081400Y-61163200D03*
D14*
X87500000Y-43000000D03*
X80500000Y-47500000D03*
X83753200Y-55168800D03*
X62000000Y-49000000D03*
D13*
X72313800Y-59029600D03*
D14*
X72895400Y-56087000D03*
X93500000Y-39000000D03*
X76500000Y-41000000D03*
X63000000Y-46500000D03*
X67000000Y-67000000D03*
X74500000Y-52500000D03*
X94000000Y-46500000D03*
X66500000Y-39000000D03*
X92500000Y-67000000D03*
X64000000Y-59500000D03*
X98500000Y-46500000D03*
X78500000Y-51000000D03*
%TD*%
D15*
%TO.N,+3.3V*%
X75996800Y-47472600D02*
X75996800Y-47040800D01*
X75996800Y-47040800D02*
X76428600Y-46609000D01*
X84912200Y-46609000D02*
X85293200Y-46990000D01*
X76428600Y-46609000D02*
X84912200Y-46609000D01*
%TD*%
%TA.AperFunction,Conductor*%
%TO.N,+3.3V*%
G36*
X86223277Y-43631485D02*
G01*
X86243919Y-43648119D01*
X86501481Y-43905681D01*
X86534966Y-43967004D01*
X86537800Y-43993362D01*
X86537800Y-50647600D01*
X87299800Y-51384200D01*
X90347238Y-51384200D01*
X90414277Y-51403885D01*
X90434919Y-51420519D01*
X93257881Y-54243481D01*
X93291366Y-54304804D01*
X93294200Y-54331162D01*
X93294200Y-58927438D01*
X93274515Y-58994477D01*
X93257881Y-59015119D01*
X90663519Y-61609481D01*
X90602196Y-61642966D01*
X90575838Y-61645800D01*
X87147400Y-61645800D01*
X84800235Y-63982099D01*
X81697284Y-67070684D01*
X81635883Y-67104027D01*
X81609806Y-67106800D01*
X73711362Y-67106800D01*
X73644323Y-67087115D01*
X73623681Y-67070481D01*
X73366119Y-66812919D01*
X73332634Y-66751596D01*
X73329800Y-66725238D01*
X73329800Y-64259434D01*
X73349485Y-64192395D01*
X73362393Y-64175644D01*
X73572341Y-63946610D01*
X73632152Y-63910493D01*
X73663748Y-63906400D01*
X79235650Y-63906400D01*
X79297648Y-63923011D01*
X79343864Y-63949694D01*
X79464799Y-63982099D01*
X79464801Y-63982099D01*
X79589999Y-63982099D01*
X79590001Y-63982099D01*
X79710936Y-63949694D01*
X79757151Y-63923011D01*
X79819150Y-63906400D01*
X81153000Y-63906400D01*
X84810166Y-60249234D01*
X87801300Y-60249234D01*
X87801300Y-60400766D01*
X87811116Y-60437399D01*
X87840519Y-60547136D01*
X87849448Y-60562601D01*
X87916285Y-60678365D01*
X88023435Y-60785515D01*
X88154665Y-60861281D01*
X88301034Y-60900500D01*
X88301036Y-60900500D01*
X88452564Y-60900500D01*
X88452566Y-60900500D01*
X88598935Y-60861281D01*
X88730165Y-60785515D01*
X88837315Y-60678365D01*
X88913081Y-60547135D01*
X88952300Y-60400766D01*
X88952300Y-60249234D01*
X88913081Y-60102865D01*
X88837315Y-59971635D01*
X88730165Y-59864485D01*
X88646991Y-59816464D01*
X88598936Y-59788719D01*
X88514892Y-59766200D01*
X88452566Y-59749500D01*
X88301034Y-59749500D01*
X88154663Y-59788719D01*
X88023435Y-59864485D01*
X88023432Y-59864487D01*
X87916287Y-59971632D01*
X87916285Y-59971635D01*
X87840519Y-60102863D01*
X87815144Y-60197566D01*
X87801300Y-60249234D01*
X84810166Y-60249234D01*
X85990801Y-59068599D01*
X91218500Y-59068599D01*
X91218500Y-59193801D01*
X91250905Y-59314736D01*
X91313505Y-59423164D01*
X91402036Y-59511695D01*
X91510464Y-59574295D01*
X91631399Y-59606700D01*
X91631401Y-59606700D01*
X91756599Y-59606700D01*
X91756601Y-59606700D01*
X91877536Y-59574295D01*
X91985964Y-59511695D01*
X92074495Y-59423164D01*
X92137095Y-59314736D01*
X92169500Y-59193801D01*
X92169500Y-59068599D01*
X92137095Y-58947664D01*
X92074495Y-58839236D01*
X91985964Y-58750705D01*
X91877536Y-58688105D01*
X91877537Y-58688105D01*
X91837224Y-58677303D01*
X91756601Y-58655700D01*
X91631399Y-58655700D01*
X91550775Y-58677303D01*
X91510463Y-58688105D01*
X91402037Y-58750704D01*
X91402034Y-58750706D01*
X91313506Y-58839234D01*
X91313504Y-58839237D01*
X91250905Y-58947663D01*
X91250905Y-58947664D01*
X91218500Y-59068599D01*
X85990801Y-59068599D01*
X86222081Y-58837319D01*
X86283404Y-58803834D01*
X86309762Y-58801000D01*
X89738200Y-58801000D01*
X90703399Y-57810401D01*
X90703400Y-57810401D01*
X90703400Y-54863999D01*
X89585800Y-53721000D01*
X86258962Y-53721000D01*
X86191923Y-53701315D01*
X86171281Y-53684681D01*
X84262719Y-51776119D01*
X84229234Y-51714796D01*
X84226400Y-51688438D01*
X84226400Y-43967962D01*
X84246085Y-43900923D01*
X84262719Y-43880281D01*
X84494881Y-43648119D01*
X84556204Y-43614634D01*
X84582562Y-43611800D01*
X86156238Y-43611800D01*
X86223277Y-43631485D01*
G37*
%TD.AperFunction*%
%TD*%
%TA.AperFunction,Conductor*%
%TO.N,GND*%
G36*
X88434694Y-60009223D02*
G01*
X88484548Y-60022581D01*
X88514451Y-60034968D01*
X88559147Y-60060774D01*
X88584827Y-60080479D01*
X88621321Y-60116973D01*
X88641027Y-60142654D01*
X88666828Y-60187343D01*
X88679215Y-60217247D01*
X88692574Y-60267100D01*
X88696800Y-60299196D01*
X88696800Y-60350802D01*
X88692574Y-60382898D01*
X88679215Y-60432751D01*
X88666830Y-60462650D01*
X88666828Y-60462655D01*
X88641027Y-60507344D01*
X88621321Y-60533025D01*
X88584825Y-60569521D01*
X88559144Y-60589227D01*
X88514455Y-60615028D01*
X88484551Y-60627415D01*
X88434698Y-60640774D01*
X88402602Y-60645000D01*
X88350997Y-60645000D01*
X88318902Y-60640774D01*
X88269048Y-60627415D01*
X88239143Y-60615028D01*
X88194454Y-60589227D01*
X88168773Y-60569521D01*
X88132279Y-60533027D01*
X88112573Y-60507346D01*
X88086768Y-60462650D01*
X88074380Y-60432742D01*
X88061025Y-60382898D01*
X88056800Y-60350806D01*
X88056800Y-60299191D01*
X88061023Y-60267105D01*
X88074382Y-60217246D01*
X88086769Y-60187344D01*
X88099670Y-60164999D01*
X88112571Y-60142654D01*
X88132275Y-60116976D01*
X88168771Y-60080479D01*
X88194453Y-60060772D01*
X88239147Y-60034968D01*
X88269056Y-60022580D01*
X88318901Y-60009225D01*
X88350992Y-60005000D01*
X88402607Y-60005000D01*
X88434694Y-60009223D01*
G37*
%TD.AperFunction*%
%TA.AperFunction,Conductor*%
G36*
X70523530Y-54934025D02*
G01*
X70547950Y-54940568D01*
X70585640Y-54950666D01*
X70593740Y-54953137D01*
X70600056Y-54955303D01*
X70600068Y-54955306D01*
X70600073Y-54955308D01*
X70600072Y-54955308D01*
X70629854Y-54963478D01*
X70631905Y-54964020D01*
X70634268Y-54964646D01*
X70721736Y-54969333D01*
X70727106Y-54971227D01*
X70732747Y-54970417D01*
X70759693Y-54982723D01*
X70787625Y-54992576D01*
X70791120Y-54997075D01*
X70796303Y-54999442D01*
X70812318Y-55024363D01*
X70830489Y-55047753D01*
X70831803Y-55054681D01*
X70834077Y-55058220D01*
X70839100Y-55093155D01*
X70839100Y-55205168D01*
X70819415Y-55272207D01*
X70766611Y-55317962D01*
X70715863Y-55326727D01*
X70715885Y-55329134D01*
X70709788Y-55329189D01*
X70709787Y-55329189D01*
X70709786Y-55329189D01*
X70698489Y-55330404D01*
X70640316Y-55336660D01*
X70638929Y-55336911D01*
X70638459Y-55336860D01*
X70635917Y-55337134D01*
X70635857Y-55336580D01*
X70632919Y-55336264D01*
X70596207Y-55346101D01*
X70523531Y-55365575D01*
X70491437Y-55369800D01*
X70466162Y-55369800D01*
X70434068Y-55365574D01*
X70409648Y-55359030D01*
X70379748Y-55346645D01*
X70357854Y-55334005D01*
X70332171Y-55314298D01*
X70314300Y-55296427D01*
X70294594Y-55270747D01*
X70281952Y-55248850D01*
X70269569Y-55218954D01*
X70255364Y-55165941D01*
X70253536Y-55158102D01*
X70248013Y-55130336D01*
X70254242Y-55060750D01*
X70295319Y-55006885D01*
X70297823Y-55005009D01*
X70297829Y-55005007D01*
X70319705Y-54988629D01*
X70332005Y-54980516D01*
X70379744Y-54952955D01*
X70409650Y-54940568D01*
X70434070Y-54934025D01*
X70466162Y-54929800D01*
X70491438Y-54929800D01*
X70523530Y-54934025D01*
G37*
%TD.AperFunction*%
%TA.AperFunction,Conductor*%
G36*
X98004042Y-38075765D02*
G01*
X98027909Y-38077329D01*
X98243102Y-38091433D01*
X98259165Y-38093548D01*
X98490136Y-38139492D01*
X98505779Y-38143683D01*
X98728787Y-38219384D01*
X98743754Y-38225584D01*
X98948419Y-38326513D01*
X98954960Y-38329739D01*
X98969006Y-38337849D01*
X99164802Y-38468675D01*
X99177671Y-38478549D01*
X99354716Y-38633814D01*
X99366185Y-38645283D01*
X99521450Y-38822328D01*
X99531324Y-38835197D01*
X99662150Y-39030993D01*
X99670260Y-39045039D01*
X99774412Y-39256238D01*
X99780617Y-39271220D01*
X99853291Y-39485310D01*
X99856311Y-39494204D01*
X99860509Y-39509872D01*
X99906449Y-39740825D01*
X99908567Y-39756906D01*
X99924235Y-39995956D01*
X99924500Y-40004066D01*
X99924500Y-65995933D01*
X99924235Y-66004042D01*
X99924235Y-66004043D01*
X99908567Y-66243093D01*
X99906449Y-66259174D01*
X99860509Y-66490127D01*
X99856311Y-66505795D01*
X99780619Y-66728776D01*
X99774412Y-66743761D01*
X99670260Y-66954960D01*
X99662150Y-66969006D01*
X99531324Y-67164802D01*
X99521450Y-67177671D01*
X99366185Y-67354716D01*
X99354716Y-67366185D01*
X99177671Y-67521450D01*
X99164802Y-67531324D01*
X98969006Y-67662150D01*
X98954960Y-67670260D01*
X98743761Y-67774412D01*
X98728776Y-67780619D01*
X98505795Y-67856311D01*
X98490127Y-67860509D01*
X98259174Y-67906449D01*
X98243093Y-67908567D01*
X98004043Y-67924235D01*
X97995933Y-67924500D01*
X62004067Y-67924500D01*
X61995957Y-67924235D01*
X61756906Y-67908567D01*
X61740825Y-67906449D01*
X61509872Y-67860509D01*
X61494210Y-67856312D01*
X61271220Y-67780617D01*
X61256238Y-67774412D01*
X61045039Y-67670260D01*
X61030993Y-67662150D01*
X60835197Y-67531324D01*
X60822328Y-67521450D01*
X60645283Y-67366185D01*
X60633814Y-67354716D01*
X60478549Y-67177671D01*
X60468675Y-67164802D01*
X60337849Y-66969006D01*
X60329739Y-66954960D01*
X60289834Y-66874041D01*
X60225584Y-66743754D01*
X60219384Y-66728787D01*
X60143683Y-66505779D01*
X60139492Y-66490136D01*
X60093548Y-66259165D01*
X60091433Y-66243102D01*
X60075765Y-66004042D01*
X60075500Y-65995933D01*
X60075500Y-64796438D01*
X61467700Y-64796438D01*
X61467700Y-65048361D01*
X61507110Y-65297185D01*
X61584960Y-65536783D01*
X61627189Y-65619661D01*
X61693089Y-65748997D01*
X61699332Y-65761248D01*
X61847401Y-65965049D01*
X61847405Y-65965054D01*
X62025545Y-66143194D01*
X62025550Y-66143198D01*
X62203317Y-66272352D01*
X62229355Y-66291270D01*
X62372384Y-66364147D01*
X62453816Y-66405639D01*
X62453818Y-66405639D01*
X62453821Y-66405641D01*
X62693415Y-66483490D01*
X62942238Y-66522900D01*
X62942239Y-66522900D01*
X63194161Y-66522900D01*
X63194162Y-66522900D01*
X63442985Y-66483490D01*
X63682579Y-66405641D01*
X63907045Y-66291270D01*
X64110856Y-66143193D01*
X64288993Y-65965056D01*
X64437070Y-65761245D01*
X64551441Y-65536779D01*
X64629290Y-65297185D01*
X64668700Y-65048362D01*
X64668700Y-64796438D01*
X64629290Y-64547615D01*
X64551441Y-64308021D01*
X64551439Y-64308018D01*
X64551439Y-64308016D01*
X64492119Y-64191595D01*
X64437070Y-64083555D01*
X64418152Y-64057517D01*
X64288998Y-63879750D01*
X64288994Y-63879745D01*
X64110854Y-63701605D01*
X64110849Y-63701601D01*
X63907048Y-63553532D01*
X63907047Y-63553531D01*
X63907045Y-63553530D01*
X63836947Y-63517813D01*
X63682583Y-63439160D01*
X63442985Y-63361310D01*
X63278014Y-63335181D01*
X63194162Y-63321900D01*
X62942238Y-63321900D01*
X62858386Y-63335181D01*
X62693414Y-63361310D01*
X62453816Y-63439160D01*
X62229351Y-63553532D01*
X62025550Y-63701601D01*
X62025545Y-63701605D01*
X61847405Y-63879745D01*
X61847401Y-63879750D01*
X61699332Y-64083551D01*
X61584960Y-64308016D01*
X61507110Y-64547614D01*
X61467700Y-64796438D01*
X60075500Y-64796438D01*
X60075500Y-58255799D01*
X62948300Y-58255799D01*
X62948300Y-58381001D01*
X62980705Y-58501936D01*
X63043305Y-58610364D01*
X63131836Y-58698895D01*
X63240264Y-58761495D01*
X63361199Y-58793900D01*
X63361201Y-58793900D01*
X63486399Y-58793900D01*
X63486401Y-58793900D01*
X63607336Y-58761495D01*
X63715764Y-58698895D01*
X63804295Y-58610364D01*
X63866895Y-58501936D01*
X63899300Y-58381001D01*
X63899300Y-58255799D01*
X63866895Y-58134864D01*
X63804295Y-58026436D01*
X63715764Y-57937905D01*
X63607336Y-57875305D01*
X63607337Y-57875305D01*
X63541399Y-57857637D01*
X63486401Y-57842900D01*
X63361199Y-57842900D01*
X63306201Y-57857637D01*
X63240263Y-57875305D01*
X63131837Y-57937904D01*
X63131834Y-57937906D01*
X63043306Y-58026434D01*
X63043304Y-58026437D01*
X62980705Y-58134863D01*
X62978269Y-58143955D01*
X62948300Y-58255799D01*
X60075500Y-58255799D01*
X60075500Y-46869034D01*
X64265300Y-46869034D01*
X64265300Y-47020565D01*
X64304519Y-47166936D01*
X64342402Y-47232550D01*
X64380285Y-47298165D01*
X64487435Y-47405315D01*
X64539542Y-47435399D01*
X64608151Y-47475011D01*
X64656367Y-47525578D01*
X64669589Y-47594185D01*
X64668890Y-47600038D01*
X64666900Y-47613882D01*
X64666900Y-52055725D01*
X64667785Y-52076965D01*
X64667869Y-52077973D01*
X64667834Y-52078142D01*
X64667893Y-52079556D01*
X64667541Y-52079570D01*
X64653819Y-52146416D01*
X64606298Y-52195657D01*
X64487441Y-52264280D01*
X64487432Y-52264287D01*
X64380287Y-52371432D01*
X64380285Y-52371435D01*
X64304519Y-52502663D01*
X64265300Y-52649034D01*
X64265300Y-52800565D01*
X64304519Y-52946936D01*
X64330379Y-52991726D01*
X64380285Y-53078165D01*
X64487435Y-53185315D01*
X64618665Y-53261081D01*
X64765034Y-53300300D01*
X64794224Y-53300300D01*
X64861263Y-53319985D01*
X64907018Y-53372789D01*
X64914900Y-53395781D01*
X64918849Y-53412494D01*
X64918852Y-53412500D01*
X64968178Y-53499122D01*
X64968180Y-53499125D01*
X64968182Y-53499128D01*
X64974824Y-53506793D01*
X65013933Y-53551928D01*
X65013936Y-53551931D01*
X65013937Y-53551932D01*
X65046711Y-53583557D01*
X65105958Y-53614549D01*
X65135046Y-53629765D01*
X65202085Y-53649450D01*
X65202089Y-53649450D01*
X65202091Y-53649451D01*
X65213722Y-53651123D01*
X65274070Y-53659800D01*
X65927341Y-53659800D01*
X65951524Y-53662181D01*
X66023215Y-53676441D01*
X66046460Y-53683493D01*
X66113990Y-53711464D01*
X66135420Y-53722919D01*
X66144062Y-53728693D01*
X66194590Y-53754837D01*
X66245833Y-53774472D01*
X66274068Y-53783451D01*
X66274072Y-53783451D01*
X66276550Y-53783904D01*
X66278359Y-53784814D01*
X66281590Y-53785842D01*
X66281425Y-53786358D01*
X66338961Y-53815315D01*
X66374482Y-53875482D01*
X66377774Y-53916935D01*
X66371867Y-53982957D01*
X66375759Y-54055572D01*
X66383417Y-54094065D01*
X66385800Y-54118258D01*
X66385800Y-54191341D01*
X66383417Y-54215534D01*
X66369159Y-54287207D01*
X66362103Y-54310466D01*
X66334137Y-54377983D01*
X66322678Y-54399422D01*
X66282074Y-54460190D01*
X66266653Y-54478980D01*
X66214980Y-54530653D01*
X66196189Y-54546074D01*
X66135419Y-54586679D01*
X66113981Y-54598138D01*
X66046473Y-54626100D01*
X66023227Y-54633153D01*
X66012430Y-54635302D01*
X66012417Y-54635305D01*
X65951531Y-54647417D01*
X65927338Y-54649800D01*
X65059858Y-54649800D01*
X65055301Y-54649881D01*
X65050741Y-54649963D01*
X65041895Y-54650279D01*
X65041892Y-54650279D01*
X64961730Y-54666225D01*
X64896267Y-54690641D01*
X64855181Y-54710297D01*
X64850571Y-54714439D01*
X64781019Y-54776911D01*
X64739136Y-54832858D01*
X64715204Y-54871601D01*
X64688831Y-54967738D01*
X64688830Y-54967745D01*
X64683847Y-55037421D01*
X64683846Y-55037444D01*
X64684659Y-55082966D01*
X64684660Y-55082975D01*
X64709422Y-55162052D01*
X64714449Y-55178106D01*
X64714451Y-55178110D01*
X64714452Y-55178112D01*
X64747930Y-55239423D01*
X64747935Y-55239431D01*
X64791511Y-55297642D01*
X64791527Y-55297660D01*
X65132268Y-55638400D01*
X65322115Y-55828247D01*
X65342465Y-55846526D01*
X65342471Y-55846531D01*
X65342479Y-55846538D01*
X65363100Y-55863155D01*
X65363102Y-55863156D01*
X65363107Y-55863160D01*
X65451438Y-55909365D01*
X65518477Y-55929050D01*
X65574305Y-55937076D01*
X65588752Y-55940040D01*
X65626551Y-55950169D01*
X65656452Y-55962554D01*
X65678343Y-55975192D01*
X65704027Y-55994900D01*
X65721898Y-56012771D01*
X65741606Y-56038455D01*
X65754244Y-56060346D01*
X65766629Y-56090246D01*
X65774320Y-56118946D01*
X65778368Y-56144402D01*
X65778864Y-56153658D01*
X65778865Y-56153667D01*
X65781697Y-56180010D01*
X65781698Y-56180012D01*
X65811486Y-56275141D01*
X65811490Y-56275151D01*
X65844968Y-56336461D01*
X65844973Y-56336469D01*
X65888549Y-56394680D01*
X65888565Y-56394698D01*
X66203710Y-56709842D01*
X66203732Y-56709863D01*
X66224629Y-56728579D01*
X66224636Y-56728585D01*
X66224641Y-56728589D01*
X66245887Y-56745609D01*
X66246462Y-56746069D01*
X66335064Y-56791765D01*
X66402213Y-56811061D01*
X66402212Y-56811061D01*
X66402216Y-56811062D01*
X66474258Y-56820996D01*
X66582782Y-56820368D01*
X66649934Y-56839664D01*
X66695994Y-56892202D01*
X66707500Y-56944366D01*
X66707500Y-57034801D01*
X66739905Y-57155736D01*
X66802505Y-57264164D01*
X66891036Y-57352695D01*
X66999464Y-57415295D01*
X67120399Y-57447700D01*
X67120403Y-57447700D01*
X67123594Y-57448555D01*
X67183254Y-57484920D01*
X67213783Y-57547767D01*
X67215470Y-57567974D01*
X67215499Y-57568198D01*
X67215500Y-57568201D01*
X67247905Y-57689136D01*
X67310505Y-57797564D01*
X67399036Y-57886095D01*
X67507464Y-57948695D01*
X67628399Y-57981100D01*
X67628401Y-57981100D01*
X67753599Y-57981100D01*
X67753601Y-57981100D01*
X67874536Y-57948695D01*
X67982964Y-57886095D01*
X68071495Y-57797564D01*
X68134095Y-57689136D01*
X68166500Y-57568201D01*
X68166500Y-57442999D01*
X68134095Y-57322064D01*
X68071495Y-57213636D01*
X67982964Y-57125105D01*
X67874536Y-57062505D01*
X67852565Y-57056617D01*
X67792907Y-57020253D01*
X67762379Y-56957406D01*
X67770674Y-56888030D01*
X67815160Y-56834153D01*
X67881712Y-56812879D01*
X67883905Y-56812846D01*
X70714385Y-56796486D01*
X70781535Y-56815783D01*
X70827595Y-56868321D01*
X70838812Y-56919180D01*
X70839055Y-56919174D01*
X70839088Y-56920433D01*
X70839100Y-56920484D01*
X70839100Y-56920839D01*
X70840563Y-56948134D01*
X70840567Y-56948188D01*
X70843397Y-56974510D01*
X70843398Y-56974512D01*
X70873186Y-57069641D01*
X70873190Y-57069651D01*
X70906668Y-57130961D01*
X70906673Y-57130969D01*
X70950249Y-57189180D01*
X70950253Y-57189185D01*
X71055415Y-57294347D01*
X71075765Y-57312626D01*
X71096407Y-57329260D01*
X71096419Y-57329269D01*
X71096421Y-57329271D01*
X71100536Y-57331867D01*
X71108689Y-57337476D01*
X71111218Y-57339369D01*
X71111235Y-57339381D01*
X71111236Y-57339382D01*
X71118614Y-57344703D01*
X71118617Y-57344704D01*
X71118618Y-57344705D01*
X71162235Y-57363691D01*
X71184762Y-57375472D01*
X71187358Y-57376234D01*
X71187776Y-57374808D01*
X71210025Y-57384493D01*
X71226777Y-57388136D01*
X71235344Y-57390324D01*
X71251768Y-57395148D01*
X71251772Y-57395148D01*
X71251777Y-57395150D01*
X71323762Y-57405500D01*
X72436006Y-57405500D01*
X72503045Y-57425185D01*
X72523687Y-57441819D01*
X74155581Y-59073713D01*
X74189066Y-59135036D01*
X74191900Y-59161394D01*
X74191900Y-60121239D01*
X74193363Y-60148534D01*
X74193367Y-60148588D01*
X74196197Y-60174910D01*
X74196198Y-60174912D01*
X74225986Y-60270041D01*
X74225990Y-60270051D01*
X74259468Y-60331361D01*
X74259473Y-60331369D01*
X74303049Y-60389580D01*
X74303065Y-60389598D01*
X74434949Y-60521481D01*
X74560615Y-60647147D01*
X74580965Y-60665426D01*
X74580971Y-60665431D01*
X74580979Y-60665438D01*
X74601600Y-60682055D01*
X74601602Y-60682056D01*
X74601607Y-60682060D01*
X74689938Y-60728265D01*
X74756977Y-60747950D01*
X74756981Y-60747950D01*
X74756983Y-60747951D01*
X74768614Y-60749623D01*
X74828962Y-60758300D01*
X74828963Y-60758300D01*
X77245459Y-60758300D01*
X77246732Y-60758252D01*
X77264572Y-60757584D01*
X77283074Y-60756196D01*
X77371718Y-60733077D01*
X77435070Y-60703609D01*
X77481657Y-60673207D01*
X77507101Y-60661847D01*
X77506829Y-60661189D01*
X77514328Y-60658082D01*
X77514335Y-60658081D01*
X77645565Y-60582315D01*
X77752715Y-60475165D01*
X77785783Y-60417886D01*
X77811317Y-60386743D01*
X79868468Y-58578942D01*
X79931816Y-58549476D01*
X79949955Y-58548089D01*
X85867216Y-58531135D01*
X85934310Y-58550627D01*
X85980216Y-58603300D01*
X85990358Y-58672429D01*
X85961515Y-58736068D01*
X85955251Y-58742815D01*
X85595831Y-59102237D01*
X81083487Y-63614581D01*
X81022164Y-63648066D01*
X80995806Y-63650900D01*
X79819150Y-63650900D01*
X79788387Y-63654949D01*
X79753031Y-63659603D01*
X79691029Y-63676215D01*
X79691018Y-63676219D01*
X79629405Y-63701739D01*
X79629389Y-63701747D01*
X79626451Y-63703444D01*
X79596552Y-63715829D01*
X79596547Y-63715831D01*
X79572134Y-63722373D01*
X79540038Y-63726599D01*
X79514764Y-63726599D01*
X79482667Y-63722373D01*
X79458247Y-63715829D01*
X79428347Y-63703444D01*
X79425403Y-63701744D01*
X79425397Y-63701741D01*
X79413636Y-63696869D01*
X79363771Y-63676216D01*
X79363766Y-63676214D01*
X79363762Y-63676213D01*
X79301790Y-63659609D01*
X79301776Y-63659605D01*
X79301773Y-63659605D01*
X79301771Y-63659604D01*
X79301768Y-63659604D01*
X79235651Y-63650900D01*
X79235650Y-63650900D01*
X73663748Y-63650900D01*
X73639876Y-63652439D01*
X73630921Y-63653017D01*
X73599340Y-63657108D01*
X73593830Y-63657883D01*
X73500083Y-63691774D01*
X73500080Y-63691775D01*
X73500079Y-63691776D01*
X73440268Y-63727893D01*
X73440267Y-63727894D01*
X73383997Y-63773962D01*
X73174048Y-64002997D01*
X73160005Y-64019695D01*
X73147101Y-64036441D01*
X73104335Y-64120409D01*
X73104334Y-64120411D01*
X73084650Y-64187447D01*
X73084648Y-64187455D01*
X73074300Y-64259432D01*
X73074300Y-66725239D01*
X73075763Y-66752534D01*
X73075767Y-66752588D01*
X73078597Y-66778910D01*
X73078598Y-66778912D01*
X73108386Y-66874041D01*
X73108390Y-66874051D01*
X73141868Y-66935361D01*
X73141873Y-66935369D01*
X73185449Y-66993580D01*
X73185465Y-66993598D01*
X73347428Y-67155560D01*
X73443015Y-67251147D01*
X73463365Y-67269426D01*
X73463371Y-67269431D01*
X73463379Y-67269438D01*
X73484000Y-67286055D01*
X73484002Y-67286056D01*
X73484007Y-67286060D01*
X73572338Y-67332265D01*
X73639377Y-67351950D01*
X73639381Y-67351950D01*
X73639383Y-67351951D01*
X73651014Y-67353623D01*
X73711362Y-67362300D01*
X73711363Y-67362300D01*
X81609807Y-67362300D01*
X81612807Y-67362140D01*
X81636823Y-67360868D01*
X81662900Y-67358095D01*
X81757811Y-67328557D01*
X81819212Y-67295214D01*
X81877530Y-67251768D01*
X82141998Y-66988524D01*
X85186860Y-63957760D01*
X86282300Y-63957760D01*
X86282300Y-66522039D01*
X86283763Y-66549334D01*
X86283767Y-66549388D01*
X86286597Y-66575710D01*
X86286598Y-66575712D01*
X86316386Y-66670841D01*
X86316390Y-66670851D01*
X86349868Y-66732161D01*
X86349873Y-66732169D01*
X86393449Y-66790380D01*
X86393453Y-66790385D01*
X86524015Y-66920947D01*
X86544365Y-66939226D01*
X86565007Y-66955860D01*
X86565019Y-66955869D01*
X86565021Y-66955871D01*
X86569136Y-66958467D01*
X86577289Y-66964076D01*
X86579818Y-66965969D01*
X86579835Y-66965981D01*
X86579836Y-66965982D01*
X86587214Y-66971303D01*
X86587217Y-66971304D01*
X86587218Y-66971305D01*
X86630835Y-66990291D01*
X86653362Y-67002072D01*
X86655958Y-67002834D01*
X86656376Y-67001408D01*
X86678625Y-67011093D01*
X86695377Y-67014736D01*
X86703944Y-67016924D01*
X86720368Y-67021748D01*
X86720372Y-67021748D01*
X86720377Y-67021750D01*
X86792362Y-67032100D01*
X86792364Y-67032100D01*
X92008327Y-67032100D01*
X92008328Y-67032100D01*
X92068566Y-67024897D01*
X92125387Y-67011112D01*
X92157281Y-67001126D01*
X92241465Y-66947728D01*
X92292032Y-66899512D01*
X92297300Y-66892811D01*
X92307083Y-66881788D01*
X92353376Y-66835495D01*
X92379049Y-66815796D01*
X92400945Y-66803153D01*
X92430848Y-66790768D01*
X92446438Y-66786591D01*
X92455274Y-66784224D01*
X92487362Y-66780000D01*
X92512637Y-66780000D01*
X92544730Y-66784224D01*
X92622199Y-66804983D01*
X92682250Y-66813617D01*
X92740702Y-66815008D01*
X92774092Y-66813616D01*
X92869228Y-66783827D01*
X92930551Y-66750342D01*
X92988769Y-66706761D01*
X93946547Y-65748984D01*
X93964826Y-65728634D01*
X93981460Y-65707992D01*
X94027665Y-65619661D01*
X94047350Y-65552622D01*
X94057700Y-65480637D01*
X94057700Y-64821838D01*
X95351300Y-64821838D01*
X95351300Y-65073761D01*
X95390710Y-65322585D01*
X95468560Y-65562183D01*
X95542854Y-65707992D01*
X95563747Y-65748997D01*
X95582932Y-65786648D01*
X95731001Y-65990449D01*
X95731005Y-65990454D01*
X95909145Y-66168594D01*
X95909150Y-66168598D01*
X96022840Y-66251198D01*
X96112955Y-66316670D01*
X96255984Y-66389547D01*
X96337416Y-66431039D01*
X96337418Y-66431039D01*
X96337421Y-66431041D01*
X96577015Y-66508890D01*
X96825838Y-66548300D01*
X96825839Y-66548300D01*
X97077761Y-66548300D01*
X97077762Y-66548300D01*
X97326585Y-66508890D01*
X97566179Y-66431041D01*
X97790645Y-66316670D01*
X97994456Y-66168593D01*
X98172593Y-65990456D01*
X98320670Y-65786645D01*
X98435041Y-65562179D01*
X98512890Y-65322585D01*
X98552300Y-65073762D01*
X98552300Y-64821838D01*
X98512890Y-64573015D01*
X98435041Y-64333421D01*
X98435039Y-64333418D01*
X98435039Y-64333416D01*
X98362777Y-64191595D01*
X98320670Y-64108955D01*
X98301752Y-64082917D01*
X98172598Y-63905150D01*
X98172594Y-63905145D01*
X97994454Y-63727005D01*
X97994449Y-63727001D01*
X97790648Y-63578932D01*
X97790647Y-63578931D01*
X97790645Y-63578930D01*
X97720547Y-63543213D01*
X97566183Y-63464560D01*
X97326585Y-63386710D01*
X97257690Y-63375798D01*
X97077762Y-63347300D01*
X96825838Y-63347300D01*
X96737383Y-63361310D01*
X96577014Y-63386710D01*
X96337416Y-63464560D01*
X96112951Y-63578932D01*
X95909150Y-63727001D01*
X95909145Y-63727005D01*
X95731005Y-63905145D01*
X95731001Y-63905150D01*
X95582932Y-64108951D01*
X95468560Y-64333416D01*
X95390710Y-64573014D01*
X95351300Y-64821838D01*
X94057700Y-64821838D01*
X94057700Y-63885793D01*
X94077385Y-63818754D01*
X94094019Y-63798112D01*
X94570231Y-63321900D01*
X97477147Y-60414985D01*
X97495426Y-60394635D01*
X97512060Y-60373993D01*
X97558265Y-60285662D01*
X97577950Y-60218623D01*
X97588300Y-60146638D01*
X97588300Y-52299162D01*
X97586836Y-52271848D01*
X97584002Y-52245490D01*
X97554213Y-52150356D01*
X97520728Y-52089033D01*
X97515885Y-52082564D01*
X97477150Y-52030819D01*
X97477149Y-52030818D01*
X97477147Y-52030815D01*
X97477142Y-52030810D01*
X97477134Y-52030801D01*
X90614219Y-45167886D01*
X90580734Y-45106563D01*
X90577900Y-45080205D01*
X90577900Y-44145760D01*
X90577745Y-44142886D01*
X90576436Y-44118448D01*
X90573602Y-44092090D01*
X90543813Y-43996956D01*
X90541849Y-43993360D01*
X90510331Y-43935638D01*
X90510326Y-43935630D01*
X90466750Y-43877419D01*
X90466749Y-43877418D01*
X90466747Y-43877415D01*
X90466742Y-43877410D01*
X90466734Y-43877401D01*
X90285399Y-43696067D01*
X90285396Y-43696064D01*
X90285385Y-43696053D01*
X90265035Y-43677774D01*
X90265029Y-43677769D01*
X90265020Y-43677761D01*
X90244399Y-43661144D01*
X90244396Y-43661142D01*
X90244393Y-43661140D01*
X90156062Y-43614935D01*
X90156059Y-43614934D01*
X90089024Y-43595250D01*
X90089016Y-43595248D01*
X90017039Y-43584900D01*
X90017038Y-43584900D01*
X88722762Y-43584900D01*
X88722761Y-43584900D01*
X88695465Y-43586363D01*
X88695460Y-43586363D01*
X88695448Y-43586364D01*
X88695440Y-43586364D01*
X88695411Y-43586367D01*
X88669089Y-43589197D01*
X88669087Y-43589198D01*
X88573958Y-43618986D01*
X88573948Y-43618990D01*
X88512638Y-43652468D01*
X88512630Y-43652473D01*
X88454419Y-43696049D01*
X88454402Y-43696064D01*
X88400067Y-43750400D01*
X88400036Y-43750433D01*
X88385195Y-43766955D01*
X88385176Y-43766976D01*
X88381774Y-43770765D01*
X88376679Y-43777086D01*
X88376619Y-43777159D01*
X88365144Y-43791400D01*
X88361804Y-43796497D01*
X88361557Y-43796335D01*
X88356910Y-43803707D01*
X88355015Y-43806238D01*
X88349700Y-43813608D01*
X88349699Y-43813611D01*
X88330773Y-43857087D01*
X88318954Y-43879676D01*
X88318191Y-43882272D01*
X88319626Y-43882693D01*
X88311735Y-43900821D01*
X88311733Y-43900822D01*
X88309911Y-43905008D01*
X88309910Y-43905013D01*
X88306299Y-43921606D01*
X88304416Y-43929119D01*
X88304024Y-43930499D01*
X88304009Y-43930522D01*
X88303741Y-43931435D01*
X88303721Y-43931547D01*
X88299249Y-43946775D01*
X88299247Y-43946787D01*
X88288900Y-44018759D01*
X88288900Y-47370439D01*
X88290363Y-47397734D01*
X88290367Y-47397788D01*
X88293197Y-47424110D01*
X88293198Y-47424112D01*
X88322986Y-47519241D01*
X88322990Y-47519251D01*
X88356468Y-47580561D01*
X88356473Y-47580569D01*
X88400049Y-47638780D01*
X88400065Y-47638798D01*
X90367332Y-49606064D01*
X90400817Y-49667387D01*
X90395833Y-49737079D01*
X90353961Y-49793012D01*
X90341651Y-49801132D01*
X90227039Y-49867302D01*
X90227034Y-49867306D01*
X90138506Y-49955834D01*
X90138504Y-49955837D01*
X90075905Y-50064263D01*
X90075905Y-50064264D01*
X90043500Y-50185199D01*
X90043500Y-50310401D01*
X90075905Y-50431336D01*
X90138505Y-50539764D01*
X90227036Y-50628295D01*
X90335464Y-50690895D01*
X90456399Y-50723300D01*
X90456401Y-50723300D01*
X90581599Y-50723300D01*
X90581601Y-50723300D01*
X90702536Y-50690895D01*
X90810964Y-50628295D01*
X90899495Y-50539764D01*
X90962095Y-50431336D01*
X90962095Y-50431332D01*
X90965666Y-50425149D01*
X91016233Y-50376933D01*
X91084839Y-50363709D01*
X91149705Y-50389676D01*
X91160735Y-50399467D01*
X94424781Y-53663513D01*
X94458266Y-53724836D01*
X94461100Y-53751194D01*
X94461100Y-59532806D01*
X94441415Y-59599845D01*
X94424781Y-59620487D01*
X90710087Y-63335181D01*
X90648764Y-63368666D01*
X90622406Y-63371500D01*
X86868561Y-63371500D01*
X86841265Y-63372963D01*
X86841260Y-63372963D01*
X86841248Y-63372964D01*
X86841240Y-63372964D01*
X86841211Y-63372967D01*
X86814889Y-63375797D01*
X86814887Y-63375798D01*
X86719758Y-63405586D01*
X86719748Y-63405590D01*
X86658438Y-63439068D01*
X86658430Y-63439073D01*
X86600219Y-63482649D01*
X86600201Y-63482665D01*
X86393467Y-63689400D01*
X86393438Y-63689431D01*
X86375161Y-63709779D01*
X86358544Y-63730400D01*
X86312334Y-63818740D01*
X86292650Y-63885775D01*
X86292648Y-63885783D01*
X86282300Y-63957760D01*
X85186860Y-63957760D01*
X85279600Y-63865449D01*
X87216600Y-61937416D01*
X87278001Y-61904073D01*
X87304078Y-61901300D01*
X90575839Y-61901300D01*
X90577275Y-61901222D01*
X90603152Y-61899836D01*
X90629510Y-61897002D01*
X90724644Y-61867213D01*
X90785967Y-61833728D01*
X90844185Y-61790147D01*
X93438547Y-59195785D01*
X93456826Y-59175435D01*
X93473460Y-59154793D01*
X93519665Y-59066462D01*
X93539350Y-58999423D01*
X93549700Y-58927438D01*
X93549700Y-54331162D01*
X93548236Y-54303848D01*
X93545402Y-54277490D01*
X93515613Y-54182356D01*
X93482128Y-54121033D01*
X93438547Y-54062815D01*
X93438542Y-54062810D01*
X93438534Y-54062801D01*
X90615598Y-51239866D01*
X90615585Y-51239853D01*
X90595235Y-51221574D01*
X90595229Y-51221569D01*
X90595220Y-51221561D01*
X90574599Y-51204944D01*
X90574596Y-51204942D01*
X90574593Y-51204940D01*
X90486262Y-51158735D01*
X90486259Y-51158734D01*
X90419224Y-51139050D01*
X90419216Y-51139048D01*
X90347239Y-51128700D01*
X90347238Y-51128700D01*
X87453240Y-51128700D01*
X87386201Y-51109015D01*
X87367057Y-51093854D01*
X86831117Y-50575777D01*
X86796598Y-50515030D01*
X86793300Y-50486623D01*
X86793300Y-43993360D01*
X86793145Y-43990486D01*
X86791836Y-43966048D01*
X86789002Y-43939690D01*
X86759213Y-43844556D01*
X86732882Y-43796335D01*
X86725731Y-43783238D01*
X86725726Y-43783230D01*
X86682150Y-43725019D01*
X86682149Y-43725018D01*
X86682147Y-43725015D01*
X86682142Y-43725010D01*
X86682134Y-43725001D01*
X86424599Y-43467467D01*
X86424597Y-43467465D01*
X86424585Y-43467453D01*
X86404235Y-43449174D01*
X86404229Y-43449169D01*
X86404220Y-43449161D01*
X86383599Y-43432544D01*
X86383596Y-43432542D01*
X86383593Y-43432540D01*
X86295262Y-43386335D01*
X86295259Y-43386334D01*
X86228224Y-43366650D01*
X86228216Y-43366648D01*
X86156239Y-43356300D01*
X86156238Y-43356300D01*
X84582562Y-43356300D01*
X84582561Y-43356300D01*
X84555265Y-43357763D01*
X84555260Y-43357763D01*
X84555248Y-43357764D01*
X84555240Y-43357764D01*
X84555211Y-43357767D01*
X84528889Y-43360597D01*
X84528887Y-43360598D01*
X84433758Y-43390386D01*
X84433748Y-43390390D01*
X84372438Y-43423868D01*
X84372430Y-43423873D01*
X84314219Y-43467449D01*
X84314201Y-43467465D01*
X84082067Y-43699600D01*
X84082038Y-43699631D01*
X84063761Y-43719979D01*
X84047144Y-43740600D01*
X84047140Y-43740605D01*
X84047140Y-43740607D01*
X84014133Y-43803707D01*
X84000934Y-43828940D01*
X83981250Y-43895975D01*
X83981248Y-43895983D01*
X83970900Y-43967960D01*
X83970900Y-46134500D01*
X83951215Y-46201539D01*
X83898411Y-46247294D01*
X83846900Y-46258500D01*
X76451523Y-46258500D01*
X76384484Y-46238815D01*
X76338729Y-46186011D01*
X76328785Y-46116853D01*
X76357810Y-46053297D01*
X76363842Y-46046819D01*
X76402695Y-46007966D01*
X76465295Y-45899538D01*
X76497700Y-45778603D01*
X76497700Y-45653401D01*
X76465295Y-45532466D01*
X76402695Y-45424038D01*
X76314164Y-45335507D01*
X76205736Y-45272907D01*
X76205737Y-45272907D01*
X76165424Y-45262105D01*
X76084801Y-45240502D01*
X75959599Y-45240502D01*
X75878975Y-45262105D01*
X75838663Y-45272907D01*
X75730237Y-45335506D01*
X75730234Y-45335508D01*
X75641706Y-45424036D01*
X75641704Y-45424039D01*
X75579105Y-45532465D01*
X75579105Y-45532466D01*
X75546700Y-45653401D01*
X75546700Y-45778603D01*
X75579105Y-45899538D01*
X75641705Y-46007966D01*
X75730236Y-46096497D01*
X75838664Y-46159097D01*
X75959599Y-46191502D01*
X75959601Y-46191502D01*
X76051055Y-46191502D01*
X76118094Y-46211187D01*
X76163849Y-46263991D01*
X76173793Y-46333149D01*
X76144768Y-46396705D01*
X76138736Y-46403183D01*
X75716331Y-46825586D01*
X75716327Y-46825591D01*
X75677806Y-46892313D01*
X75677806Y-46892314D01*
X75670186Y-46905510D01*
X75646300Y-46994656D01*
X75646300Y-47099453D01*
X75626615Y-47166492D01*
X75620677Y-47174938D01*
X75616305Y-47180634D01*
X75553705Y-47289063D01*
X75551266Y-47298165D01*
X75521300Y-47409999D01*
X75521300Y-47535201D01*
X75553705Y-47656136D01*
X75616305Y-47764564D01*
X75704836Y-47853095D01*
X75813264Y-47915695D01*
X75934199Y-47948100D01*
X75934201Y-47948100D01*
X76059399Y-47948100D01*
X76059401Y-47948100D01*
X76180336Y-47915695D01*
X76288764Y-47853095D01*
X76377295Y-47764564D01*
X76439895Y-47656136D01*
X76472300Y-47535201D01*
X76472300Y-47409999D01*
X76439895Y-47289064D01*
X76415844Y-47247407D01*
X76409278Y-47220340D01*
X76399549Y-47194254D01*
X76401157Y-47186862D01*
X76399373Y-47179508D01*
X76408482Y-47153189D01*
X76414401Y-47125982D01*
X76420907Y-47117289D01*
X76422226Y-47113481D01*
X76435541Y-47097739D01*
X76537464Y-46995816D01*
X76598785Y-46962334D01*
X76625143Y-46959500D01*
X76759651Y-46959500D01*
X76826690Y-46979185D01*
X76872445Y-47031989D01*
X76882389Y-47101147D01*
X76863041Y-47147084D01*
X76864969Y-47148197D01*
X76798305Y-47263663D01*
X76789060Y-47298165D01*
X76765900Y-47384599D01*
X76765900Y-47509801D01*
X76798305Y-47630736D01*
X76860905Y-47739164D01*
X76949436Y-47827695D01*
X77057864Y-47890295D01*
X77178799Y-47922700D01*
X77178801Y-47922700D01*
X77303999Y-47922700D01*
X77304001Y-47922700D01*
X77424936Y-47890295D01*
X77533364Y-47827695D01*
X77621895Y-47739164D01*
X77684495Y-47630736D01*
X77716900Y-47509801D01*
X77716900Y-47384599D01*
X77684495Y-47263664D01*
X77621895Y-47155236D01*
X77621894Y-47155235D01*
X77617831Y-47148197D01*
X77620095Y-47146889D01*
X77599578Y-47093810D01*
X77613621Y-47025366D01*
X77662438Y-46975379D01*
X77723149Y-46959500D01*
X78052679Y-46959500D01*
X78119718Y-46979185D01*
X78165473Y-47031989D01*
X78175417Y-47101147D01*
X78146392Y-47164703D01*
X78140360Y-47171181D01*
X78105506Y-47206034D01*
X78105504Y-47206037D01*
X78042905Y-47314463D01*
X78042905Y-47314464D01*
X78010500Y-47435399D01*
X78010500Y-47560601D01*
X78042905Y-47681536D01*
X78105505Y-47789964D01*
X78194036Y-47878495D01*
X78302464Y-47941095D01*
X78423399Y-47973500D01*
X78423401Y-47973500D01*
X78548599Y-47973500D01*
X78548601Y-47973500D01*
X78669536Y-47941095D01*
X78777964Y-47878495D01*
X78866495Y-47789964D01*
X78929095Y-47681536D01*
X78961500Y-47560601D01*
X78961500Y-47435399D01*
X78929095Y-47314464D01*
X78866495Y-47206036D01*
X78831640Y-47171181D01*
X78798155Y-47109858D01*
X78803139Y-47040166D01*
X78845011Y-46984233D01*
X78910475Y-46959816D01*
X78919321Y-46959500D01*
X83846900Y-46959500D01*
X83913939Y-46979185D01*
X83959694Y-47031989D01*
X83970900Y-47083500D01*
X83970900Y-51688439D01*
X83972363Y-51715734D01*
X83972367Y-51715788D01*
X83975197Y-51742110D01*
X83975198Y-51742112D01*
X84004986Y-51837241D01*
X84004990Y-51837251D01*
X84038468Y-51898561D01*
X84038473Y-51898569D01*
X84082049Y-51956780D01*
X84082065Y-51956798D01*
X85037807Y-52912539D01*
X85990615Y-53865347D01*
X86010965Y-53883626D01*
X86010971Y-53883631D01*
X86010979Y-53883638D01*
X86031600Y-53900255D01*
X86031602Y-53900256D01*
X86031607Y-53900260D01*
X86119938Y-53946465D01*
X86186977Y-53966150D01*
X86186981Y-53966150D01*
X86186983Y-53966151D01*
X86198614Y-53967823D01*
X86258962Y-53976500D01*
X89426102Y-53976500D01*
X89493141Y-53996185D01*
X89514762Y-54013808D01*
X90412562Y-54932011D01*
X90445355Y-54993706D01*
X90447900Y-55018701D01*
X90447900Y-57656084D01*
X90428215Y-57723123D01*
X90412713Y-57742619D01*
X89666924Y-58508035D01*
X89606040Y-58542314D01*
X89578111Y-58545500D01*
X88964345Y-58545500D01*
X88897306Y-58525815D01*
X88851551Y-58473011D01*
X88841607Y-58403853D01*
X88854470Y-58364024D01*
X88854712Y-58363562D01*
X88896865Y-58282979D01*
X88916550Y-58215940D01*
X88926900Y-58143955D01*
X88926900Y-56156400D01*
X88921061Y-56102087D01*
X88909855Y-56050576D01*
X88902619Y-56024202D01*
X88896110Y-56012771D01*
X88853294Y-55937581D01*
X88853290Y-55937576D01*
X88853288Y-55937572D01*
X88816415Y-55895018D01*
X88807536Y-55884771D01*
X88774759Y-55853143D01*
X88729441Y-55829437D01*
X88686424Y-55806935D01*
X88686423Y-55806934D01*
X88686422Y-55806934D01*
X88686422Y-55806933D01*
X88619390Y-55787251D01*
X88619378Y-55787248D01*
X88547401Y-55776900D01*
X88547400Y-55776900D01*
X80195596Y-55776900D01*
X80128557Y-55757215D01*
X80117376Y-55749117D01*
X80085640Y-55723317D01*
X76725541Y-52991726D01*
X76714249Y-52983058D01*
X76703074Y-52974964D01*
X76703075Y-52974964D01*
X76625178Y-52936734D01*
X76558142Y-52917050D01*
X76558134Y-52917048D01*
X76486157Y-52906700D01*
X76486156Y-52906700D01*
X71280238Y-52906700D01*
X71213199Y-52887015D01*
X71167444Y-52834211D01*
X71156238Y-52782891D01*
X71154616Y-51727999D01*
X74632300Y-51727999D01*
X74632300Y-51853201D01*
X74664705Y-51974136D01*
X74727305Y-52082564D01*
X74815836Y-52171095D01*
X74924264Y-52233695D01*
X75045199Y-52266100D01*
X75045201Y-52266100D01*
X75170399Y-52266100D01*
X75170401Y-52266100D01*
X75291336Y-52233695D01*
X75399764Y-52171095D01*
X75488295Y-52082564D01*
X75550895Y-51974136D01*
X75583300Y-51853201D01*
X75583300Y-51727999D01*
X75550895Y-51607064D01*
X75488295Y-51498636D01*
X75399764Y-51410105D01*
X75291336Y-51347505D01*
X75291337Y-51347505D01*
X75232143Y-51331644D01*
X75170401Y-51315100D01*
X75045199Y-51315100D01*
X74983457Y-51331644D01*
X74924263Y-51347505D01*
X74815837Y-51410104D01*
X74815834Y-51410106D01*
X74727306Y-51498634D01*
X74727304Y-51498637D01*
X74664705Y-51607063D01*
X74664705Y-51607064D01*
X74632300Y-51727999D01*
X71154616Y-51727999D01*
X71154604Y-51720062D01*
X71147090Y-46834015D01*
X71146174Y-46825586D01*
X71141208Y-46779903D01*
X71130002Y-46728583D01*
X71122809Y-46702402D01*
X71073478Y-46615772D01*
X71042187Y-46579661D01*
X71027726Y-46562971D01*
X70994949Y-46531343D01*
X70942905Y-46504119D01*
X70906614Y-46485135D01*
X70906613Y-46485134D01*
X70906612Y-46485134D01*
X70906612Y-46485133D01*
X70839580Y-46465451D01*
X70839568Y-46465448D01*
X70767591Y-46455100D01*
X70767590Y-46455100D01*
X65535447Y-46455100D01*
X65535446Y-46455100D01*
X65520274Y-46455551D01*
X65520257Y-46455551D01*
X65520257Y-46455552D01*
X65505532Y-46456429D01*
X65505528Y-46456429D01*
X65505527Y-46456430D01*
X65420133Y-46476609D01*
X65355918Y-46504111D01*
X65355902Y-46504119D01*
X65344888Y-46510049D01*
X65276528Y-46524495D01*
X65211210Y-46499690D01*
X65198427Y-46488547D01*
X65194167Y-46484287D01*
X65194165Y-46484285D01*
X65128550Y-46446402D01*
X65062936Y-46408519D01*
X64989750Y-46388909D01*
X64916566Y-46369300D01*
X64765034Y-46369300D01*
X64618663Y-46408519D01*
X64487435Y-46484285D01*
X64487432Y-46484287D01*
X64380287Y-46591432D01*
X64380285Y-46591435D01*
X64304519Y-46722663D01*
X64265300Y-46869034D01*
X60075500Y-46869034D01*
X60075500Y-40945838D01*
X61467700Y-40945838D01*
X61467700Y-41197762D01*
X61481967Y-41287837D01*
X61507110Y-41446585D01*
X61584960Y-41686183D01*
X61699332Y-41910648D01*
X61847401Y-42114449D01*
X61847405Y-42114454D01*
X62025545Y-42292594D01*
X62025550Y-42292598D01*
X62194391Y-42415267D01*
X62229355Y-42440670D01*
X62372384Y-42513547D01*
X62453816Y-42555039D01*
X62453818Y-42555039D01*
X62453821Y-42555041D01*
X62693415Y-42632890D01*
X62942238Y-42672300D01*
X62942239Y-42672300D01*
X63194161Y-42672300D01*
X63194162Y-42672300D01*
X63442985Y-42632890D01*
X63682579Y-42555041D01*
X63907045Y-42440670D01*
X64110856Y-42292593D01*
X64288993Y-42114456D01*
X64437070Y-41910645D01*
X64551441Y-41686179D01*
X64606346Y-41517199D01*
X68951900Y-41517199D01*
X68951900Y-41642401D01*
X68984305Y-41763336D01*
X69046905Y-41871764D01*
X69135436Y-41960295D01*
X69243864Y-42022895D01*
X69364799Y-42055300D01*
X69364801Y-42055300D01*
X69489999Y-42055300D01*
X69490001Y-42055300D01*
X69610936Y-42022895D01*
X69719364Y-41960295D01*
X69807895Y-41871764D01*
X69870495Y-41763336D01*
X69902900Y-41642401D01*
X69902900Y-41517199D01*
X69870495Y-41396264D01*
X69807895Y-41287836D01*
X69719364Y-41199305D01*
X69610936Y-41136705D01*
X69610937Y-41136705D01*
X69570624Y-41125903D01*
X69490001Y-41104300D01*
X69364799Y-41104300D01*
X69284175Y-41125903D01*
X69243863Y-41136705D01*
X69135437Y-41199304D01*
X69135434Y-41199306D01*
X69046906Y-41287834D01*
X69046904Y-41287837D01*
X68984305Y-41396263D01*
X68984305Y-41396264D01*
X68951900Y-41517199D01*
X64606346Y-41517199D01*
X64629290Y-41446585D01*
X64668700Y-41197762D01*
X64668700Y-40945838D01*
X64664677Y-40920438D01*
X95351300Y-40920438D01*
X95351300Y-41172362D01*
X95369590Y-41287837D01*
X95390710Y-41421185D01*
X95468560Y-41660783D01*
X95582932Y-41885248D01*
X95731001Y-42089049D01*
X95731005Y-42089054D01*
X95909145Y-42267194D01*
X95909150Y-42267198D01*
X96086917Y-42396352D01*
X96112955Y-42415270D01*
X96255984Y-42488147D01*
X96337416Y-42529639D01*
X96337418Y-42529639D01*
X96337421Y-42529641D01*
X96577015Y-42607490D01*
X96825838Y-42646900D01*
X96825839Y-42646900D01*
X97077761Y-42646900D01*
X97077762Y-42646900D01*
X97326585Y-42607490D01*
X97566179Y-42529641D01*
X97790645Y-42415270D01*
X97994456Y-42267193D01*
X98172593Y-42089056D01*
X98320670Y-41885245D01*
X98435041Y-41660779D01*
X98512890Y-41421185D01*
X98552300Y-41172362D01*
X98552300Y-40920438D01*
X98512890Y-40671615D01*
X98435041Y-40432021D01*
X98435039Y-40432018D01*
X98435039Y-40432016D01*
X98393547Y-40350584D01*
X98320670Y-40207555D01*
X98301752Y-40181517D01*
X98172598Y-40003750D01*
X98172594Y-40003745D01*
X97994454Y-39825605D01*
X97994449Y-39825601D01*
X97790648Y-39677532D01*
X97790647Y-39677531D01*
X97790645Y-39677530D01*
X97720547Y-39641813D01*
X97566183Y-39563160D01*
X97326585Y-39485310D01*
X97238130Y-39471300D01*
X97077762Y-39445900D01*
X96825838Y-39445900D01*
X96701426Y-39465605D01*
X96577014Y-39485310D01*
X96337416Y-39563160D01*
X96112951Y-39677532D01*
X95909150Y-39825601D01*
X95909145Y-39825605D01*
X95731005Y-40003745D01*
X95731001Y-40003750D01*
X95582932Y-40207551D01*
X95468560Y-40432016D01*
X95390710Y-40671614D01*
X95390710Y-40671615D01*
X95351300Y-40920438D01*
X64664677Y-40920438D01*
X64629290Y-40697015D01*
X64551441Y-40457421D01*
X64551439Y-40457418D01*
X64551439Y-40457416D01*
X64509947Y-40375984D01*
X64437070Y-40232955D01*
X64418152Y-40206917D01*
X64288998Y-40029150D01*
X64288994Y-40029145D01*
X64110854Y-39851005D01*
X64110849Y-39851001D01*
X63907048Y-39702932D01*
X63907047Y-39702931D01*
X63907045Y-39702930D01*
X63836947Y-39667213D01*
X63682583Y-39588560D01*
X63442985Y-39510710D01*
X63338771Y-39494204D01*
X63194162Y-39471300D01*
X62942238Y-39471300D01*
X62853783Y-39485310D01*
X62693414Y-39510710D01*
X62453816Y-39588560D01*
X62229351Y-39702932D01*
X62025550Y-39851001D01*
X62025545Y-39851005D01*
X61847405Y-40029145D01*
X61847401Y-40029150D01*
X61699332Y-40232951D01*
X61584960Y-40457416D01*
X61515363Y-40671614D01*
X61507110Y-40697015D01*
X61467700Y-40945838D01*
X60075500Y-40945838D01*
X60075500Y-40004066D01*
X60075765Y-39995957D01*
X60085265Y-39851005D01*
X60091433Y-39756893D01*
X60093548Y-39740836D01*
X60139493Y-39509859D01*
X60143682Y-39494224D01*
X60219386Y-39271206D01*
X60225581Y-39256251D01*
X60329742Y-39045033D01*
X60337849Y-39030993D01*
X60468675Y-38835197D01*
X60478540Y-38822339D01*
X60633819Y-38645277D01*
X60645277Y-38633819D01*
X60822339Y-38478540D01*
X60835192Y-38468678D01*
X61030993Y-38337849D01*
X61045033Y-38329742D01*
X61256251Y-38225581D01*
X61271206Y-38219386D01*
X61494224Y-38143682D01*
X61509859Y-38139493D01*
X61740836Y-38093548D01*
X61756895Y-38091433D01*
X61973904Y-38077210D01*
X61995958Y-38075765D01*
X62004067Y-38075500D01*
X62024531Y-38075500D01*
X97975469Y-38075500D01*
X97995933Y-38075500D01*
X98004042Y-38075765D01*
G37*
%TD.AperFunction*%
%TD*%
%TA.AperFunction,Conductor*%
%TO.N,VBUS*%
G36*
X70834629Y-46730285D02*
G01*
X70880384Y-46783089D01*
X70891590Y-46834409D01*
X70901157Y-53055292D01*
X70887035Y-53112954D01*
X70869134Y-53147177D01*
X70849450Y-53214213D01*
X70849448Y-53214221D01*
X70839100Y-53286198D01*
X70839100Y-54594344D01*
X70819415Y-54661383D01*
X70766611Y-54707138D01*
X70697453Y-54717082D01*
X70667649Y-54708906D01*
X70662337Y-54706705D01*
X70611484Y-54693079D01*
X70541401Y-54674300D01*
X70416199Y-54674300D01*
X70346116Y-54693079D01*
X70295263Y-54706705D01*
X70186837Y-54769304D01*
X70186834Y-54769306D01*
X70175381Y-54780760D01*
X70114058Y-54814245D01*
X70044366Y-54809261D01*
X69988433Y-54767389D01*
X69964016Y-54701925D01*
X69963700Y-54693079D01*
X69963700Y-54680800D01*
X69963700Y-54680799D01*
X69931295Y-54559864D01*
X69868695Y-54451436D01*
X69780164Y-54362905D01*
X69671736Y-54300305D01*
X69671737Y-54300305D01*
X69631424Y-54289503D01*
X69550801Y-54267900D01*
X69425599Y-54267900D01*
X69344975Y-54289503D01*
X69304663Y-54300305D01*
X69196237Y-54362904D01*
X69196234Y-54362906D01*
X69107706Y-54451434D01*
X69107704Y-54451437D01*
X69045105Y-54559863D01*
X69045105Y-54559864D01*
X69012700Y-54680799D01*
X69012700Y-54806001D01*
X69045105Y-54926936D01*
X69107705Y-55035364D01*
X69196236Y-55123895D01*
X69304664Y-55186495D01*
X69425599Y-55218900D01*
X69425601Y-55218900D01*
X69550799Y-55218900D01*
X69550801Y-55218900D01*
X69671736Y-55186495D01*
X69780164Y-55123895D01*
X69791619Y-55112440D01*
X69852942Y-55078955D01*
X69922634Y-55083939D01*
X69978567Y-55125811D01*
X70002984Y-55191275D01*
X70003300Y-55200121D01*
X70003300Y-55212401D01*
X70035705Y-55333336D01*
X70098305Y-55441764D01*
X70186836Y-55530295D01*
X70295264Y-55592895D01*
X70416199Y-55625300D01*
X70416201Y-55625300D01*
X70541399Y-55625300D01*
X70541401Y-55625300D01*
X70662336Y-55592895D01*
X70662348Y-55592887D01*
X70667641Y-55590696D01*
X70737110Y-55583224D01*
X70799591Y-55614496D01*
X70835247Y-55674583D01*
X70839100Y-55705255D01*
X70839100Y-56416976D01*
X70819415Y-56484015D01*
X70766611Y-56529770D01*
X70715817Y-56540974D01*
X67453699Y-56559829D01*
X67390986Y-56543220D01*
X67366541Y-56529108D01*
X67366536Y-56529105D01*
X67245601Y-56496700D01*
X67120399Y-56496700D01*
X67013751Y-56525276D01*
X66999460Y-56529106D01*
X66969552Y-56546373D01*
X66908272Y-56562982D01*
X66472781Y-56565500D01*
X66405629Y-56546203D01*
X66384383Y-56529183D01*
X66069219Y-56214019D01*
X66035734Y-56152696D01*
X66032900Y-56126338D01*
X66032900Y-56096800D01*
X66023952Y-56063406D01*
X66000495Y-55975864D01*
X65937895Y-55867436D01*
X65849364Y-55778905D01*
X65740936Y-55716305D01*
X65740937Y-55716305D01*
X65699698Y-55705255D01*
X65620001Y-55683900D01*
X65590462Y-55683900D01*
X65523423Y-55664215D01*
X65502781Y-55647581D01*
X64972181Y-55116981D01*
X64938696Y-55055658D01*
X64943680Y-54985966D01*
X64985552Y-54930033D01*
X65051016Y-54905616D01*
X65059862Y-54905300D01*
X65964720Y-54905300D01*
X66062262Y-54885896D01*
X66109713Y-54876458D01*
X66246295Y-54819884D01*
X66369216Y-54737751D01*
X66473751Y-54633216D01*
X66555884Y-54510295D01*
X66612458Y-54373713D01*
X66641300Y-54228718D01*
X66641300Y-54080882D01*
X66641300Y-54080879D01*
X66626350Y-54005725D01*
X66632577Y-53936134D01*
X66675439Y-53880956D01*
X66741329Y-53857711D01*
X66780058Y-53861758D01*
X66891799Y-53891700D01*
X66891800Y-53891700D01*
X67016999Y-53891700D01*
X67017001Y-53891700D01*
X67137936Y-53859295D01*
X67246364Y-53796695D01*
X67334895Y-53708164D01*
X67368938Y-53649199D01*
X67742700Y-53649199D01*
X67742700Y-53774401D01*
X67775105Y-53895336D01*
X67837705Y-54003764D01*
X67926236Y-54092295D01*
X68034664Y-54154895D01*
X68155599Y-54187300D01*
X68155601Y-54187300D01*
X68280799Y-54187300D01*
X68280801Y-54187300D01*
X68401736Y-54154895D01*
X68510164Y-54092295D01*
X68598695Y-54003764D01*
X68661295Y-53895336D01*
X68693700Y-53774401D01*
X68693700Y-53649199D01*
X68661295Y-53528264D01*
X68598695Y-53419836D01*
X68510164Y-53331305D01*
X68401736Y-53268705D01*
X68401737Y-53268705D01*
X68361424Y-53257903D01*
X68280801Y-53236300D01*
X68155599Y-53236300D01*
X68074975Y-53257903D01*
X68034663Y-53268705D01*
X67926237Y-53331304D01*
X67926234Y-53331306D01*
X67837706Y-53419834D01*
X67837704Y-53419837D01*
X67775105Y-53528263D01*
X67775105Y-53528264D01*
X67742700Y-53649199D01*
X67368938Y-53649199D01*
X67397495Y-53599736D01*
X67429900Y-53478801D01*
X67429900Y-53353599D01*
X67397495Y-53232664D01*
X67334895Y-53124236D01*
X67246364Y-53035705D01*
X67137936Y-52973105D01*
X67137937Y-52973105D01*
X67097624Y-52962303D01*
X67017001Y-52940700D01*
X66891799Y-52940700D01*
X66811175Y-52962303D01*
X66770863Y-52973105D01*
X66662437Y-53035704D01*
X66662434Y-53035706D01*
X66573906Y-53124234D01*
X66573904Y-53124237D01*
X66511305Y-53232663D01*
X66503269Y-53262653D01*
X66484874Y-53331306D01*
X66478900Y-53353600D01*
X66478900Y-53413149D01*
X66459215Y-53480188D01*
X66406411Y-53525943D01*
X66337253Y-53535887D01*
X66286010Y-53516252D01*
X66246299Y-53489718D01*
X66246288Y-53489712D01*
X66109717Y-53433143D01*
X66109707Y-53433140D01*
X65964720Y-53404300D01*
X65964718Y-53404300D01*
X65274070Y-53404300D01*
X65207031Y-53384615D01*
X65161276Y-53331811D01*
X65151332Y-53262653D01*
X65180357Y-53199097D01*
X65188644Y-53191288D01*
X65188418Y-53191062D01*
X65232304Y-53147176D01*
X65301315Y-53078165D01*
X65377081Y-52946935D01*
X65416300Y-52800566D01*
X65416300Y-52649034D01*
X65377081Y-52502665D01*
X65301315Y-52371435D01*
X65194165Y-52264285D01*
X65062935Y-52188519D01*
X65014304Y-52175488D01*
X64954645Y-52139123D01*
X64924117Y-52076276D01*
X64922400Y-52055714D01*
X64922400Y-51092999D01*
X69399900Y-51092999D01*
X69399900Y-51218201D01*
X69432305Y-51339136D01*
X69494905Y-51447564D01*
X69583436Y-51536095D01*
X69691864Y-51598695D01*
X69812799Y-51631100D01*
X69812801Y-51631100D01*
X69937999Y-51631100D01*
X69938001Y-51631100D01*
X70058936Y-51598695D01*
X70167364Y-51536095D01*
X70255895Y-51447564D01*
X70318495Y-51339136D01*
X70350900Y-51218201D01*
X70350900Y-51092999D01*
X70318495Y-50972064D01*
X70255895Y-50863636D01*
X70167364Y-50775105D01*
X70058936Y-50712505D01*
X70058937Y-50712505D01*
X70018624Y-50701703D01*
X69938001Y-50680100D01*
X69812799Y-50680100D01*
X69732175Y-50701703D01*
X69691863Y-50712505D01*
X69583437Y-50775104D01*
X69583434Y-50775106D01*
X69494906Y-50863634D01*
X69494904Y-50863637D01*
X69432305Y-50972063D01*
X69432305Y-50972064D01*
X69399900Y-51092999D01*
X64922400Y-51092999D01*
X64922400Y-49187999D01*
X69425300Y-49187999D01*
X69425300Y-49313201D01*
X69457705Y-49434136D01*
X69520305Y-49542564D01*
X69608836Y-49631095D01*
X69717264Y-49693695D01*
X69838199Y-49726100D01*
X69838201Y-49726100D01*
X69963399Y-49726100D01*
X69963401Y-49726100D01*
X70084336Y-49693695D01*
X70192764Y-49631095D01*
X70281295Y-49542564D01*
X70343895Y-49434136D01*
X70376300Y-49313201D01*
X70376300Y-49187999D01*
X70343895Y-49067064D01*
X70281295Y-48958636D01*
X70192764Y-48870105D01*
X70084336Y-48807505D01*
X70084337Y-48807505D01*
X70044024Y-48796703D01*
X69963401Y-48775100D01*
X69838199Y-48775100D01*
X69757575Y-48796703D01*
X69717263Y-48807505D01*
X69608837Y-48870104D01*
X69608834Y-48870106D01*
X69520306Y-48958634D01*
X69520304Y-48958637D01*
X69457705Y-49067063D01*
X69457705Y-49067064D01*
X69425300Y-49187999D01*
X64922400Y-49187999D01*
X64922400Y-47613885D01*
X64942085Y-47546846D01*
X64994889Y-47501091D01*
X65014307Y-47494110D01*
X65062935Y-47481081D01*
X65194165Y-47405315D01*
X65301315Y-47298165D01*
X65377081Y-47166935D01*
X65416300Y-47020566D01*
X65416300Y-46869034D01*
X65415673Y-46866694D01*
X65415721Y-46864644D01*
X65415239Y-46860978D01*
X65415810Y-46860902D01*
X65417334Y-46796847D01*
X65456495Y-46738984D01*
X65520722Y-46711477D01*
X65535447Y-46710600D01*
X70767590Y-46710600D01*
X70834629Y-46730285D01*
G37*
%TD.AperFunction*%
%TD*%
%TA.AperFunction,Conductor*%
%TO.N,+5V*%
G36*
X90084077Y-43860085D02*
G01*
X90104719Y-43876719D01*
X90286081Y-44058081D01*
X90319566Y-44119404D01*
X90322400Y-44145762D01*
X90322400Y-45237400D01*
X97296481Y-52211481D01*
X97329966Y-52272804D01*
X97332800Y-52299162D01*
X97332800Y-60146638D01*
X97313115Y-60213677D01*
X97296481Y-60234319D01*
X93802200Y-63728599D01*
X93802200Y-65480637D01*
X93782515Y-65547676D01*
X93765881Y-65568318D01*
X92808103Y-66526095D01*
X92746780Y-66559580D01*
X92688328Y-66558189D01*
X92680641Y-66556129D01*
X92562601Y-66524500D01*
X92437399Y-66524500D01*
X92356775Y-66546103D01*
X92316463Y-66556905D01*
X92208037Y-66619504D01*
X92208034Y-66619506D01*
X92119506Y-66708034D01*
X92119504Y-66708037D01*
X92115716Y-66714599D01*
X92065149Y-66762815D01*
X92008328Y-66776600D01*
X86792362Y-66776600D01*
X86762921Y-66767955D01*
X86732935Y-66761432D01*
X86727919Y-66757677D01*
X86725323Y-66756915D01*
X86704681Y-66740281D01*
X86574119Y-66609719D01*
X86540634Y-66548396D01*
X86537800Y-66522038D01*
X86537800Y-64334001D01*
X91851299Y-64334001D01*
X91851299Y-64459203D01*
X91883704Y-64580138D01*
X91946304Y-64688566D01*
X92034835Y-64777097D01*
X92143263Y-64839697D01*
X92264198Y-64872102D01*
X92264200Y-64872102D01*
X92389398Y-64872102D01*
X92389400Y-64872102D01*
X92510335Y-64839697D01*
X92618763Y-64777097D01*
X92707294Y-64688566D01*
X92769894Y-64580138D01*
X92802299Y-64459203D01*
X92802299Y-64334001D01*
X92769894Y-64213066D01*
X92707294Y-64104638D01*
X92618763Y-64016107D01*
X92510335Y-63953507D01*
X92510336Y-63953507D01*
X92470023Y-63942705D01*
X92389400Y-63921102D01*
X92264198Y-63921102D01*
X92183574Y-63942705D01*
X92143262Y-63953507D01*
X92034836Y-64016106D01*
X92034833Y-64016108D01*
X91946305Y-64104636D01*
X91946303Y-64104639D01*
X91883704Y-64213065D01*
X91883704Y-64213066D01*
X91851299Y-64334001D01*
X86537800Y-64334001D01*
X86537800Y-63957762D01*
X86557485Y-63890723D01*
X86574119Y-63870081D01*
X86780881Y-63663319D01*
X86842204Y-63629834D01*
X86868562Y-63627000D01*
X90779600Y-63627000D01*
X94716600Y-59690000D01*
X94716600Y-53594000D01*
X88580719Y-47458119D01*
X88547234Y-47396796D01*
X88544400Y-47370438D01*
X88544400Y-44018762D01*
X88553044Y-43989321D01*
X88559568Y-43959335D01*
X88563322Y-43954319D01*
X88564085Y-43951723D01*
X88580719Y-43931081D01*
X88635081Y-43876719D01*
X88696404Y-43843234D01*
X88722762Y-43840400D01*
X90017038Y-43840400D01*
X90084077Y-43860085D01*
G37*
%TD.AperFunction*%
%TD*%
%TA.AperFunction,Conductor*%
%TO.N,VSYS*%
G36*
X76553195Y-53181885D02*
G01*
X76564371Y-53189980D01*
X80060800Y-56032400D01*
X88547400Y-56032400D01*
X88614439Y-56052085D01*
X88660194Y-56104889D01*
X88671400Y-56156400D01*
X88671400Y-58143955D01*
X88651715Y-58210994D01*
X88598911Y-58256749D01*
X88547755Y-58267954D01*
X79806802Y-58292999D01*
X79806798Y-58293000D01*
X77327312Y-60471944D01*
X77263960Y-60501412D01*
X77245458Y-60502800D01*
X74828962Y-60502800D01*
X74761923Y-60483115D01*
X74741281Y-60466481D01*
X74483719Y-60208919D01*
X74450234Y-60147596D01*
X74447400Y-60121238D01*
X74447400Y-59004200D01*
X73267199Y-57823999D01*
X74048100Y-57823999D01*
X74048100Y-57949201D01*
X74080505Y-58070136D01*
X74143105Y-58178564D01*
X74231636Y-58267095D01*
X74340064Y-58329695D01*
X74460999Y-58362100D01*
X74461001Y-58362100D01*
X74586199Y-58362100D01*
X74586201Y-58362100D01*
X74707136Y-58329695D01*
X74746119Y-58307188D01*
X74814016Y-58290716D01*
X74880043Y-58313568D01*
X74923234Y-58368489D01*
X74928699Y-58389377D01*
X74928797Y-58389351D01*
X74930900Y-58397199D01*
X74930900Y-58397201D01*
X74963305Y-58518136D01*
X75025905Y-58626564D01*
X75114436Y-58715095D01*
X75222864Y-58777695D01*
X75343799Y-58810100D01*
X75343801Y-58810100D01*
X75468999Y-58810100D01*
X75469001Y-58810100D01*
X75589936Y-58777695D01*
X75698364Y-58715095D01*
X75786895Y-58626564D01*
X75849495Y-58518136D01*
X75881900Y-58397201D01*
X75881900Y-58271999D01*
X75849495Y-58151064D01*
X75786895Y-58042636D01*
X75698364Y-57954105D01*
X75589936Y-57891505D01*
X75589937Y-57891505D01*
X75549624Y-57880703D01*
X75469001Y-57859100D01*
X75343799Y-57859100D01*
X75283331Y-57875302D01*
X75222862Y-57891505D01*
X75222859Y-57891507D01*
X75183880Y-57914011D01*
X75115979Y-57930482D01*
X75049953Y-57907629D01*
X75006763Y-57852707D01*
X75001300Y-57831822D01*
X75001203Y-57831849D01*
X74996993Y-57816136D01*
X74966695Y-57703064D01*
X74920972Y-57623869D01*
X74920972Y-57623867D01*
X74904099Y-57594642D01*
X74904096Y-57594638D01*
X74904095Y-57594636D01*
X74879458Y-57569999D01*
X76638900Y-57569999D01*
X76638900Y-57695201D01*
X76671305Y-57816136D01*
X76733905Y-57924564D01*
X76822436Y-58013095D01*
X76930864Y-58075695D01*
X77051799Y-58108100D01*
X77051801Y-58108100D01*
X77176999Y-58108100D01*
X77177001Y-58108100D01*
X77297936Y-58075695D01*
X77406364Y-58013095D01*
X77494895Y-57924564D01*
X77557495Y-57816136D01*
X77589900Y-57695201D01*
X77589900Y-57569999D01*
X77557495Y-57449064D01*
X77494895Y-57340636D01*
X77406364Y-57252105D01*
X77297936Y-57189505D01*
X77297937Y-57189505D01*
X77257624Y-57178703D01*
X77177001Y-57157100D01*
X77051799Y-57157100D01*
X76971175Y-57178703D01*
X76930863Y-57189505D01*
X76822437Y-57252104D01*
X76822434Y-57252106D01*
X76733906Y-57340634D01*
X76733904Y-57340637D01*
X76671305Y-57449063D01*
X76671305Y-57449064D01*
X76638900Y-57569999D01*
X74879458Y-57569999D01*
X74815564Y-57506105D01*
X74707136Y-57443505D01*
X74707137Y-57443505D01*
X74666824Y-57432703D01*
X74586201Y-57411100D01*
X74460999Y-57411100D01*
X74380375Y-57432703D01*
X74340063Y-57443505D01*
X74231637Y-57506104D01*
X74231634Y-57506106D01*
X74143106Y-57594634D01*
X74143104Y-57594637D01*
X74080505Y-57703063D01*
X74080505Y-57703064D01*
X74048100Y-57823999D01*
X73267199Y-57823999D01*
X72593200Y-57150000D01*
X71323762Y-57150000D01*
X71294321Y-57141355D01*
X71264335Y-57134832D01*
X71259319Y-57131077D01*
X71256723Y-57130315D01*
X71236081Y-57113681D01*
X71130919Y-57008519D01*
X71097434Y-56947196D01*
X71094600Y-56920838D01*
X71094600Y-56884199D01*
X77908900Y-56884199D01*
X77908900Y-57009401D01*
X77941305Y-57130336D01*
X78003905Y-57238764D01*
X78092436Y-57327295D01*
X78200864Y-57389895D01*
X78321799Y-57422300D01*
X78321801Y-57422300D01*
X78446999Y-57422300D01*
X78447001Y-57422300D01*
X78567936Y-57389895D01*
X78676364Y-57327295D01*
X78764895Y-57238764D01*
X78827495Y-57130336D01*
X78859900Y-57009401D01*
X78859900Y-56884199D01*
X78827495Y-56763264D01*
X78764895Y-56654836D01*
X78676364Y-56566305D01*
X78567936Y-56503705D01*
X78567937Y-56503705D01*
X78527624Y-56492903D01*
X78447001Y-56471300D01*
X78321799Y-56471300D01*
X78241175Y-56492903D01*
X78200863Y-56503705D01*
X78092437Y-56566304D01*
X78092434Y-56566306D01*
X78003906Y-56654834D01*
X78003904Y-56654837D01*
X77941305Y-56763263D01*
X77941305Y-56763264D01*
X77908900Y-56884199D01*
X71094600Y-56884199D01*
X71094600Y-55033799D01*
X72419900Y-55033799D01*
X72419900Y-55159001D01*
X72452305Y-55279936D01*
X72514905Y-55388364D01*
X72603436Y-55476895D01*
X72616281Y-55484311D01*
X72616283Y-55484312D01*
X72664499Y-55534879D01*
X72677723Y-55603486D01*
X72651755Y-55668351D01*
X72616283Y-55699088D01*
X72603437Y-55706504D01*
X72603434Y-55706506D01*
X72514906Y-55795034D01*
X72514904Y-55795037D01*
X72452305Y-55903463D01*
X72452305Y-55903464D01*
X72419900Y-56024399D01*
X72419900Y-56149601D01*
X72452305Y-56270536D01*
X72514905Y-56378964D01*
X72603436Y-56467495D01*
X72711864Y-56530095D01*
X72832799Y-56562500D01*
X72832801Y-56562500D01*
X72957999Y-56562500D01*
X72958001Y-56562500D01*
X73078936Y-56530095D01*
X73187364Y-56467495D01*
X73275895Y-56378964D01*
X73338495Y-56270536D01*
X73370900Y-56149601D01*
X73370900Y-56024399D01*
X73338495Y-55903464D01*
X73276336Y-55795799D01*
X75502701Y-55795799D01*
X75502701Y-55921001D01*
X75535106Y-56041936D01*
X75597706Y-56150364D01*
X75686237Y-56238895D01*
X75794665Y-56301495D01*
X75915600Y-56333900D01*
X75915602Y-56333900D01*
X76040800Y-56333900D01*
X76040802Y-56333900D01*
X76161737Y-56301495D01*
X76270165Y-56238895D01*
X76358696Y-56150364D01*
X76421296Y-56041936D01*
X76453701Y-55921001D01*
X76453701Y-55795799D01*
X76421296Y-55674864D01*
X76358696Y-55566436D01*
X76270165Y-55477905D01*
X76161737Y-55415305D01*
X76161738Y-55415305D01*
X76121425Y-55404503D01*
X76040802Y-55382900D01*
X75915600Y-55382900D01*
X75834976Y-55404503D01*
X75794664Y-55415305D01*
X75686238Y-55477904D01*
X75686235Y-55477906D01*
X75597707Y-55566434D01*
X75597705Y-55566437D01*
X75535106Y-55674863D01*
X75535106Y-55674864D01*
X75502701Y-55795799D01*
X73276336Y-55795799D01*
X73275895Y-55795036D01*
X73187364Y-55706505D01*
X73187363Y-55706504D01*
X73181668Y-55703216D01*
X73174516Y-55699087D01*
X73126301Y-55648523D01*
X73113076Y-55579917D01*
X73139042Y-55515051D01*
X73174516Y-55484312D01*
X73187364Y-55476895D01*
X73275895Y-55388364D01*
X73338495Y-55279936D01*
X73370900Y-55159001D01*
X73370900Y-55033799D01*
X73338495Y-54912864D01*
X73275895Y-54804436D01*
X73187364Y-54715905D01*
X73078936Y-54653305D01*
X73078937Y-54653305D01*
X73038624Y-54642503D01*
X72958001Y-54620900D01*
X72832799Y-54620900D01*
X72752175Y-54642503D01*
X72711863Y-54653305D01*
X72603437Y-54715904D01*
X72603434Y-54715906D01*
X72514906Y-54804434D01*
X72514904Y-54804437D01*
X72452305Y-54912863D01*
X72452305Y-54912864D01*
X72419900Y-55033799D01*
X71094600Y-55033799D01*
X71094600Y-53286200D01*
X71114285Y-53219161D01*
X71167089Y-53173406D01*
X71218600Y-53162200D01*
X76486156Y-53162200D01*
X76553195Y-53181885D01*
G37*
%TD.AperFunction*%
%TD*%
M02*
