%TF.GenerationSoftware,KiCad,Pcbnew,9.0.7*%
%TF.CreationDate,2026-03-29T20:38:49+02:00*%
%TF.ProjectId,IoT_Environmental_Monitoring_Device_Power,496f545f-456e-4766-9972-6f6e6d656e74,rev?*%
%TF.SameCoordinates,Original*%
%TF.FileFunction,Copper,L1,Top*%
%TF.FilePolarity,Positive*%
%FSLAX46Y46*%
G04 Gerber Fmt 4.6, Leading zero omitted, Abs format (unit mm)*
G04 Created by KiCad (PCBNEW 9.0.7) date 2026-03-29 20:38:49*
%MOMM*%
%LPD*%
G01*
G04 APERTURE LIST*
G04 Aperture macros list*
%AMRoundRect*
0 Rectangle with rounded corners*
0 $1 Rounding radius*
0 $2 $3 $4 $5 $6 $7 $8 $9 X,Y pos of 4 corners*
0 Add a 4 corners polygon primitive as box body*
4,1,4,$2,$3,$4,$5,$6,$7,$8,$9,$2,$3,0*
0 Add four circle primitives for the rounded corners*
1,1,$1+$1,$2,$3*
1,1,$1+$1,$4,$5*
1,1,$1+$1,$6,$7*
1,1,$1+$1,$8,$9*
0 Add four rect primitives between the rounded corners*
20,1,$1+$1,$2,$3,$4,$5,0*
20,1,$1+$1,$4,$5,$6,$7,0*
20,1,$1+$1,$6,$7,$8,$9,0*
20,1,$1+$1,$8,$9,$2,$3,0*%
G04 Aperture macros list end*
%TA.AperFunction,SMDPad,CuDef*%
%ADD10RoundRect,0.140000X-0.170000X0.140000X-0.170000X-0.140000X0.170000X-0.140000X0.170000X0.140000X0*%
%TD*%
%TA.AperFunction,SMDPad,CuDef*%
%ADD11RoundRect,0.135000X0.185000X-0.135000X0.185000X0.135000X-0.185000X0.135000X-0.185000X-0.135000X0*%
%TD*%
%TA.AperFunction,SMDPad,CuDef*%
%ADD12R,1.000000X3.500000*%
%TD*%
%TA.AperFunction,SMDPad,CuDef*%
%ADD13R,1.800000X3.700000*%
%TD*%
%TA.AperFunction,SMDPad,CuDef*%
%ADD14RoundRect,0.140000X-0.140000X-0.170000X0.140000X-0.170000X0.140000X0.170000X-0.140000X0.170000X0*%
%TD*%
%TA.AperFunction,SMDPad,CuDef*%
%ADD15RoundRect,0.225000X-0.250000X0.225000X-0.250000X-0.225000X0.250000X-0.225000X0.250000X0.225000X0*%
%TD*%
%TA.AperFunction,SMDPad,CuDef*%
%ADD16RoundRect,0.135000X0.135000X0.185000X-0.135000X0.185000X-0.135000X-0.185000X0.135000X-0.185000X0*%
%TD*%
%TA.AperFunction,SMDPad,CuDef*%
%ADD17RoundRect,0.225000X0.250000X-0.225000X0.250000X0.225000X-0.250000X0.225000X-0.250000X-0.225000X0*%
%TD*%
%TA.AperFunction,SMDPad,CuDef*%
%ADD18RoundRect,0.225000X-0.225000X-0.250000X0.225000X-0.250000X0.225000X0.250000X-0.225000X0.250000X0*%
%TD*%
%TA.AperFunction,SMDPad,CuDef*%
%ADD19RoundRect,0.135000X-0.135000X-0.185000X0.135000X-0.185000X0.135000X0.185000X-0.135000X0.185000X0*%
%TD*%
%TA.AperFunction,SMDPad,CuDef*%
%ADD20R,0.600000X1.700000*%
%TD*%
%TA.AperFunction,SMDPad,CuDef*%
%ADD21R,1.000000X2.700000*%
%TD*%
%TA.AperFunction,SMDPad,CuDef*%
%ADD22R,3.400000X1.500000*%
%TD*%
%TA.AperFunction,SMDPad,CuDef*%
%ADD23R,3.500000X1.000000*%
%TD*%
%TA.AperFunction,SMDPad,CuDef*%
%ADD24RoundRect,0.140000X0.170000X-0.140000X0.170000X0.140000X-0.170000X0.140000X-0.170000X-0.140000X0*%
%TD*%
%TA.AperFunction,SMDPad,CuDef*%
%ADD25R,1.070000X0.530000*%
%TD*%
%TA.AperFunction,SMDPad,CuDef*%
%ADD26O,0.800000X0.200000*%
%TD*%
%TA.AperFunction,SMDPad,CuDef*%
%ADD27O,0.200000X0.800000*%
%TD*%
%TA.AperFunction,SMDPad,CuDef*%
%ADD28R,3.400000X3.400000*%
%TD*%
%TA.AperFunction,SMDPad,CuDef*%
%ADD29R,2.160000X1.630000*%
%TD*%
%TA.AperFunction,SMDPad,CuDef*%
%ADD30R,0.530000X1.070000*%
%TD*%
%TA.AperFunction,SMDPad,CuDef*%
%ADD31RoundRect,0.225000X0.225000X0.250000X-0.225000X0.250000X-0.225000X-0.250000X0.225000X-0.250000X0*%
%TD*%
%TA.AperFunction,SMDPad,CuDef*%
%ADD32R,1.100000X0.600000*%
%TD*%
%TA.AperFunction,ComponentPad*%
%ADD33C,0.650000*%
%TD*%
%TA.AperFunction,ComponentPad*%
%ADD34O,2.100000X1.000000*%
%TD*%
%TA.AperFunction,ComponentPad*%
%ADD35O,1.800000X1.000000*%
%TD*%
%TA.AperFunction,SMDPad,CuDef*%
%ADD36R,1.150000X0.600000*%
%TD*%
%TA.AperFunction,SMDPad,CuDef*%
%ADD37R,1.150000X0.300000*%
%TD*%
%TA.AperFunction,SMDPad,CuDef*%
%ADD38RoundRect,0.135000X-0.185000X0.135000X-0.185000X-0.135000X0.185000X-0.135000X0.185000X0.135000X0*%
%TD*%
%TA.AperFunction,SMDPad,CuDef*%
%ADD39RoundRect,0.250000X1.000000X0.650000X-1.000000X0.650000X-1.000000X-0.650000X1.000000X-0.650000X0*%
%TD*%
%TA.AperFunction,SMDPad,CuDef*%
%ADD40RoundRect,0.249999X-1.800001X0.450001X-1.800001X-0.450001X1.800001X-0.450001X1.800001X0.450001X0*%
%TD*%
%TA.AperFunction,SMDPad,CuDef*%
%ADD41RoundRect,0.150000X-0.512500X-0.150000X0.512500X-0.150000X0.512500X0.150000X-0.512500X0.150000X0*%
%TD*%
%TA.AperFunction,ViaPad*%
%ADD42C,0.650000*%
%TD*%
%TA.AperFunction,ViaPad*%
%ADD43C,0.450000*%
%TD*%
%TA.AperFunction,Conductor*%
%ADD44C,0.400000*%
%TD*%
%TA.AperFunction,Conductor*%
%ADD45C,0.300000*%
%TD*%
%TA.AperFunction,Conductor*%
%ADD46C,0.250000*%
%TD*%
%TA.AperFunction,Conductor*%
%ADD47C,0.200000*%
%TD*%
%TA.AperFunction,Conductor*%
%ADD48C,0.600000*%
%TD*%
%TA.AperFunction,Conductor*%
%ADD49C,1.000000*%
%TD*%
G04 APERTURE END LIST*
D10*
%TO.P,C16,1*%
%TO.N,Net-(U2-VCC)*%
X80568800Y-51285200D03*
%TO.P,C16,2*%
%TO.N,/BAT-*%
X80568800Y-52245200D03*
%TD*%
D11*
%TO.P,R8,1*%
%TO.N,/BAT+*%
X79527400Y-52300599D03*
%TO.P,R8,2*%
%TO.N,Net-(U2-VCC)*%
X79527400Y-51280601D03*
%TD*%
D12*
%TO.P,U5,1,1*%
%TO.N,+5V*%
X89283800Y-45966000D03*
%TO.P,U5,2,2*%
%TO.N,GND*%
X87283800Y-45966000D03*
%TO.P,U5,3,3*%
%TO.N,+3.3V*%
X85283800Y-45966000D03*
%TO.P,U5,4,4*%
%TO.N,GND*%
X83283800Y-45966000D03*
D13*
%TO.P,U5,5,5*%
X80933800Y-39986000D03*
%TO.P,U5,6,6*%
X91633800Y-39986000D03*
%TD*%
D14*
%TO.P,C14,1*%
%TO.N,VSYS*%
X71935400Y-55096400D03*
%TO.P,C14,2*%
%TO.N,GND*%
X72895400Y-55096400D03*
%TD*%
D15*
%TO.P,C8,1*%
%TO.N,Net-(U1-VREF)*%
X67075200Y-58791800D03*
%TO.P,C8,2*%
%TO.N,GND*%
X67075200Y-60341800D03*
%TD*%
D16*
%TO.P,R7,1*%
%TO.N,Net-(U2-VM)*%
X82704399Y-49301400D03*
%TO.P,R7,2*%
%TO.N,GND*%
X81684401Y-49301400D03*
%TD*%
D17*
%TO.P,C5,1*%
%TO.N,VBUS*%
X68218200Y-55261800D03*
%TO.P,C5,2*%
%TO.N,GND*%
X68218200Y-53711800D03*
%TD*%
D18*
%TO.P,C2,1*%
%TO.N,VSYS*%
X71691200Y-53797200D03*
%TO.P,C2,2*%
%TO.N,GND*%
X73241200Y-53797200D03*
%TD*%
D19*
%TO.P,R4,1*%
%TO.N,+5V*%
X90760402Y-62923401D03*
%TO.P,R4,2*%
%TO.N,Net-(U3-FB)*%
X91780400Y-62923401D03*
%TD*%
D18*
%TO.P,C10,1*%
%TO.N,VSYS*%
X88414601Y-56522600D03*
%TO.P,C10,2*%
%TO.N,GND*%
X89964601Y-56522600D03*
%TD*%
D11*
%TO.P,R9,1*%
%TO.N,+3.3V*%
X76022200Y-46736000D03*
%TO.P,R9,2*%
%TO.N,/IRQ*%
X76022200Y-45716002D03*
%TD*%
D20*
%TO.P,CN1,1,1*%
%TO.N,/SDA*%
X76927400Y-42794000D03*
%TO.P,CN1,2,2*%
%TO.N,/SCK*%
X75677400Y-42794000D03*
%TO.P,CN1,3,3*%
%TO.N,/IRQ*%
X74427400Y-42794000D03*
%TO.P,CN1,4,4*%
%TO.N,/PWRON*%
X73177400Y-42794000D03*
%TO.P,CN1,5,5*%
%TO.N,/D+*%
X71927400Y-42794000D03*
%TO.P,CN1,6,6*%
%TO.N,/D-*%
X70677400Y-42794000D03*
%TO.P,CN1,7,7*%
%TO.N,/5V_EN*%
X69427400Y-42794000D03*
D21*
%TO.P,CN1,8,8*%
%TO.N,GND*%
X78777400Y-39494000D03*
%TO.P,CN1,9,9*%
X67577400Y-39494000D03*
%TD*%
D18*
%TO.P,C1,1*%
%TO.N,+5V*%
X90776799Y-64396602D03*
%TO.P,C1,2*%
%TO.N,GND*%
X92326799Y-64396602D03*
%TD*%
D22*
%TO.P,U7,0,0*%
%TO.N,GND*%
X98121600Y-47817800D03*
X98121600Y-56677800D03*
D23*
%TO.P,U7,1,1*%
%TO.N,/BAT+*%
X92581600Y-54247800D03*
%TO.P,U7,2,2*%
%TO.N,/BAT-*%
X92581600Y-52247800D03*
%TO.P,U7,3,3*%
%TO.N,/NTC*%
X92581600Y-50247800D03*
%TD*%
D19*
%TO.P,R5,1*%
%TO.N,Net-(U3-FB)*%
X90762401Y-61729601D03*
%TO.P,R5,2*%
%TO.N,GND*%
X91782399Y-61729601D03*
%TD*%
D18*
%TO.P,C11,1*%
%TO.N,/BAT+*%
X74428201Y-55858400D03*
%TO.P,C11,2*%
%TO.N,GND*%
X75978201Y-55858400D03*
%TD*%
D24*
%TO.P,C4,1*%
%TO.N,VBUS*%
X69488200Y-55703400D03*
%TO.P,C4,2*%
%TO.N,GND*%
X69488200Y-54743400D03*
%TD*%
D25*
%TO.P,U2,1,OD*%
%TO.N,Net-(Q1-G1)*%
X84284200Y-52232901D03*
%TO.P,U2,2,VM*%
%TO.N,Net-(U2-VM)*%
X84284200Y-51282901D03*
%TO.P,U2,3,OC*%
%TO.N,Net-(Q1-G2)*%
X84284200Y-50332901D03*
%TO.P,U2,4,TD*%
%TO.N,unconnected-(U2-TD-Pad4)*%
X81984200Y-50332901D03*
%TO.P,U2,5,VCC*%
%TO.N,Net-(U2-VCC)*%
X81984200Y-51282901D03*
%TO.P,U2,6,GND*%
%TO.N,/BAT-*%
X81984200Y-52232901D03*
%TD*%
D11*
%TO.P,R10,1*%
%TO.N,Net-(U1-SDA)*%
X78486000Y-46736000D03*
%TO.P,R10,2*%
%TO.N,/SDA*%
X78486000Y-45716002D03*
%TD*%
D26*
%TO.P,U1,1,CHGLED*%
%TO.N,Net-(U1-CHGLED)*%
X68807400Y-58387200D03*
%TO.P,U1,2,VREF*%
%TO.N,Net-(U1-VREF)*%
X68807401Y-58787200D03*
%TO.P,U1,3,GND*%
%TO.N,GND*%
X68807400Y-59187200D03*
%TO.P,U1,4,FB3*%
%TO.N,unconnected-(U1-FB3-Pad4)*%
X68807400Y-59587200D03*
%TO.P,U1,5,LX3*%
%TO.N,unconnected-(U1-LX3-Pad5)*%
X68807400Y-59987201D03*
%TO.P,U1,6,VIN3*%
%TO.N,unconnected-(U1-VIN3-Pad6)*%
X68807400Y-60387199D03*
%TO.P,U1,7,VIN4*%
%TO.N,unconnected-(U1-VIN4-Pad7)*%
X68807400Y-60787200D03*
%TO.P,U1,8,LX4*%
%TO.N,unconnected-(U1-LX4-Pad8)*%
X68807400Y-61187200D03*
%TO.P,U1,9,FB4*%
%TO.N,unconnected-(U1-FB4-Pad9)*%
X68807401Y-61587200D03*
%TO.P,U1,10,CPULDOS*%
%TO.N,unconnected-(U1-CPULDOS-Pad10)*%
X68807400Y-61987200D03*
D27*
%TO.P,U1,11,DLDO2/DC4SW*%
%TO.N,unconnected-(U1-DLDO2{slash}DC4SW-Pad11)*%
X69507400Y-62687200D03*
%TO.P,U1,12,BLDO1*%
%TO.N,unconnected-(U1-BLDO1-Pad12)*%
X69907400Y-62687199D03*
%TO.P,U1,13,BLDOIN*%
%TO.N,unconnected-(U1-BLDOIN-Pad13)*%
X70307400Y-62687200D03*
%TO.P,U1,14,BLDO2*%
%TO.N,unconnected-(U1-BLDO2-Pad14)*%
X70707400Y-62687200D03*
%TO.P,U1,15,ALDO4*%
%TO.N,unconnected-(U1-ALDO4-Pad15)*%
X71107401Y-62687200D03*
%TO.P,U1,16,ALDO3*%
%TO.N,unconnected-(U1-ALDO3-Pad16)*%
X71507399Y-62687200D03*
%TO.P,U1,17,ALDOIN*%
%TO.N,unconnected-(U1-ALDOIN-Pad17)*%
X71907400Y-62687200D03*
%TO.P,U1,18,ALDO1*%
%TO.N,unconnected-(U1-ALDO1-Pad18)*%
X72307400Y-62687200D03*
%TO.P,U1,19,ALDO2*%
%TO.N,unconnected-(U1-ALDO2-Pad19)*%
X72707400Y-62687199D03*
%TO.P,U1,20,DLDO1/DC1SW*%
%TO.N,unconnected-(U1-DLDO1{slash}DC1SW-Pad20)*%
X73107400Y-62687200D03*
D26*
%TO.P,U1,21,FB1*%
%TO.N,+3.3V*%
X73807400Y-61987200D03*
%TO.P,U1,22,LX1*%
%TO.N,Net-(U1-LX1)*%
X73807399Y-61587200D03*
%TO.P,U1,23,VIN1*%
%TO.N,VSYS*%
X73807400Y-61187200D03*
%TO.P,U1,24,VIN2*%
%TO.N,unconnected-(U1-VIN2-Pad24)*%
X73807400Y-60787200D03*
%TO.P,U1,25,LX2*%
%TO.N,unconnected-(U1-LX2-Pad25)*%
X73807400Y-60387199D03*
%TO.P,U1,26,FB2*%
%TO.N,unconnected-(U1-FB2-Pad26)*%
X73807400Y-59987201D03*
%TO.P,U1,27,VBACKUP*%
%TO.N,unconnected-(U1-VBACKUP-Pad27)*%
X73807400Y-59587200D03*
%TO.P,U1,28,VRTC*%
%TO.N,unconnected-(U1-VRTC-Pad28)*%
X73807400Y-59187200D03*
%TO.P,U1,29,PWROK*%
%TO.N,unconnected-(U1-PWROK-Pad29)*%
X73807399Y-58787200D03*
%TO.P,U1,30,PWRON*%
%TO.N,/PWRON*%
X73807400Y-58387200D03*
D27*
%TO.P,U1,31,TS*%
%TO.N,/NTC*%
X73107400Y-57687200D03*
%TO.P,U1,32,GPIO1/FB5/RTC/LDO2*%
%TO.N,unconnected-(U1-GPIO1{slash}FB5{slash}RTC{slash}LDO2-Pad32)*%
X72707400Y-57687201D03*
%TO.P,U1,33,BAT*%
%TO.N,/BAT+*%
X72307400Y-57687200D03*
%TO.P,U1,34,VSYS*%
%TO.N,VSYS*%
X71907400Y-57687200D03*
%TO.P,U1,35,SW*%
%TO.N,unconnected-(U1-SW-Pad35)*%
X71507399Y-57687200D03*
%TO.P,U1,36,VMID*%
%TO.N,VSYS*%
X71107401Y-57687200D03*
%TO.P,U1,37,VBUS*%
%TO.N,VBUS*%
X70707400Y-57687200D03*
%TO.P,U1,38,IRQ*%
%TO.N,/IRQ*%
X70307400Y-57687200D03*
%TO.P,U1,39,SDA*%
%TO.N,Net-(U1-SDA)*%
X69907400Y-57687201D03*
%TO.P,U1,40,SCK*%
%TO.N,Net-(U1-SCK)*%
X69507400Y-57687200D03*
D28*
%TO.P,U1,41,EP*%
%TO.N,GND*%
X71307400Y-60187200D03*
%TD*%
D29*
%TO.P,L3,1,1*%
%TO.N,Net-(U1-LX1)*%
X76346201Y-62284600D03*
%TO.P,L3,2,2*%
%TO.N,+3.3V*%
X76346201Y-64624600D03*
%TD*%
D30*
%TO.P,U3,1,SW*%
%TO.N,Net-(D2-A)*%
X87426800Y-61431200D03*
%TO.P,U3,2,GND*%
%TO.N,GND*%
X88376800Y-61431200D03*
%TO.P,U3,3,FB*%
%TO.N,Net-(U3-FB)*%
X89326800Y-61431200D03*
%TO.P,U3,4,EN*%
%TO.N,/5V_EN*%
X89326800Y-59131200D03*
%TO.P,U3,5,IN*%
%TO.N,VSYS*%
X88376800Y-59131200D03*
%TO.P,U3,6,NC*%
%TO.N,unconnected-(U3-NC-Pad6)*%
X87426800Y-59131200D03*
%TD*%
D31*
%TO.P,C7,1*%
%TO.N,+3.3V*%
X74086200Y-66297799D03*
%TO.P,C7,2*%
%TO.N,GND*%
X72536200Y-66297799D03*
%TD*%
D32*
%TO.P,Q1,1,S1*%
%TO.N,/BAT-*%
X88573600Y-52244600D03*
%TO.P,Q1,2,D1/D2*%
%TO.N,Net-(Q1-D1{slash}D2-Pad2)*%
X88573600Y-51294600D03*
%TO.P,Q1,3,S2*%
%TO.N,GND*%
X88573600Y-50344600D03*
%TO.P,Q1,4,G2*%
%TO.N,Net-(Q1-G2)*%
X85873600Y-50344600D03*
%TO.P,Q1,5,D1/D2*%
%TO.N,Net-(Q1-D1{slash}D2-Pad2)*%
X85873600Y-51294600D03*
%TO.P,Q1,6,G1*%
%TO.N,Net-(Q1-G1)*%
X85873600Y-52244600D03*
%TD*%
D31*
%TO.P,C6,1*%
%TO.N,+3.3V*%
X74073200Y-64621400D03*
%TO.P,C6,2*%
%TO.N,GND*%
X72523200Y-64621400D03*
%TD*%
D11*
%TO.P,R11,1*%
%TO.N,Net-(U1-SCK)*%
X77254100Y-46736000D03*
%TO.P,R11,2*%
%TO.N,/SCK*%
X77254100Y-45716002D03*
%TD*%
D33*
%TO.P,USB1,*%
%TO.N,*%
X64840800Y-46944800D03*
X64840800Y-52724800D03*
D34*
%TO.P,USB1,1,EH*%
%TO.N,GND*%
X65340800Y-45514800D03*
D35*
%TO.P,USB1,2,EH*%
X61190800Y-45514800D03*
%TO.P,USB1,3,EH*%
X61190800Y-54154800D03*
D34*
%TO.P,USB1,4,EH*%
X65340800Y-54154800D03*
D36*
%TO.P,USB1,A1B12,GND*%
X65910800Y-46634800D03*
%TO.P,USB1,A4B9,VBUS*%
%TO.N,VBUS*%
X65910800Y-47434800D03*
D37*
%TO.P,USB1,A5,CC1*%
%TO.N,Net-(USB1-CC1)*%
X65910800Y-48584801D03*
%TO.P,USB1,A6,Dp1*%
%TO.N,/+*%
X65910800Y-49584800D03*
%TO.P,USB1,A7,Dn1*%
%TO.N,/-*%
X65910800Y-50084800D03*
%TO.P,USB1,A8,SBU1*%
%TO.N,unconnected-(USB1-SBU1-PadA8)*%
X65910800Y-51084799D03*
D36*
%TO.P,USB1,B1A12,GND*%
%TO.N,GND*%
X65910800Y-53034800D03*
%TO.P,USB1,B4A9,VBUS*%
%TO.N,VBUS*%
X65910800Y-52234800D03*
D37*
%TO.P,USB1,B5,CC2*%
%TO.N,Net-(USB1-CC2)*%
X65910800Y-51584800D03*
%TO.P,USB1,B6,Dp2*%
%TO.N,/+*%
X65910800Y-50584800D03*
%TO.P,USB1,B7,Dn2*%
%TO.N,/-*%
X65910800Y-49084800D03*
%TO.P,USB1,B8,SBU2*%
%TO.N,unconnected-(USB1-SBU2-PadB8)*%
X65910800Y-48084800D03*
%TD*%
D17*
%TO.P,C3,1*%
%TO.N,VSYS*%
X75406400Y-59884600D03*
%TO.P,C3,2*%
%TO.N,GND*%
X75406400Y-58334600D03*
%TD*%
D18*
%TO.P,C18,1*%
%TO.N,+5V*%
X90776800Y-66022201D03*
%TO.P,C18,2*%
%TO.N,GND*%
X92326800Y-66022201D03*
%TD*%
D19*
%TO.P,R13,1*%
%TO.N,Net-(USB1-CC2)*%
X63929801Y-56134000D03*
%TO.P,R13,2*%
%TO.N,GND*%
X64949799Y-56134000D03*
%TD*%
%TO.P,R14,1*%
%TO.N,Net-(USB1-CC1)*%
X63929801Y-57226200D03*
%TO.P,R14,2*%
%TO.N,GND*%
X64949799Y-57226200D03*
%TD*%
D38*
%TO.P,R3,1*%
%TO.N,/5V_EN*%
X90738998Y-59136802D03*
%TO.P,R3,2*%
%TO.N,GND*%
X90738998Y-60156800D03*
%TD*%
D39*
%TO.P,D2,1,K*%
%TO.N,+5V*%
X87938401Y-65031601D03*
%TO.P,D2,2,A*%
%TO.N,Net-(D2-A)*%
X83938399Y-65031601D03*
%TD*%
D40*
%TO.P,L1,1*%
%TO.N,VSYS*%
X83957200Y-58881000D03*
%TO.P,L1,2*%
%TO.N,Net-(D2-A)*%
X83957200Y-61581000D03*
%TD*%
D14*
%TO.P,C9,1*%
%TO.N,VSYS*%
X88404800Y-57818001D03*
%TO.P,C9,2*%
%TO.N,GND*%
X89364800Y-57818001D03*
%TD*%
D24*
%TO.P,C13,1*%
%TO.N,VBUS*%
X70478800Y-56109800D03*
%TO.P,C13,2*%
%TO.N,GND*%
X70478800Y-55149800D03*
%TD*%
D41*
%TO.P,U4,1,I/O1*%
%TO.N,/-*%
X68763300Y-48870701D03*
%TO.P,U4,2,GND*%
%TO.N,GND*%
X68763300Y-49820700D03*
%TO.P,U4,3,I/O2*%
%TO.N,/+*%
X68763300Y-50770699D03*
%TO.P,U4,4,I/O2*%
%TO.N,/D+*%
X71038300Y-50770699D03*
%TO.P,U4,5,VBUS*%
%TO.N,GND*%
X71038300Y-49820700D03*
%TO.P,U4,6,I/O1*%
%TO.N,/D-*%
X71038300Y-48870701D03*
%TD*%
D14*
%TO.P,C15,1*%
%TO.N,VSYS*%
X71935400Y-56087000D03*
%TO.P,C15,2*%
%TO.N,GND*%
X72895400Y-56087000D03*
%TD*%
D42*
%TO.N,+5V*%
X89283800Y-45966000D03*
X89789000Y-64312800D03*
X89283800Y-46990000D03*
D43*
X90776800Y-66022201D03*
D42*
X89283800Y-44881800D03*
X89789000Y-65227200D03*
X89789000Y-66167000D03*
D43*
X90776799Y-64396602D03*
%TO.N,VSYS*%
X88404800Y-57818001D03*
X71501000Y-55600600D03*
D42*
X77317600Y-59385200D03*
D43*
X71935400Y-56087000D03*
D42*
X71691200Y-53797200D03*
X83464400Y-57556400D03*
D43*
X88414601Y-56522600D03*
D42*
X76555600Y-59385200D03*
D43*
X71475600Y-54584600D03*
D42*
X87503000Y-56515000D03*
X87477600Y-57658000D03*
X82524600Y-57556400D03*
X84404200Y-57556400D03*
X76530200Y-60121800D03*
X77292200Y-60121800D03*
X85344000Y-57556400D03*
D43*
X71935400Y-55096400D03*
D42*
%TO.N,VBUS*%
X67868800Y-47066200D03*
X67792600Y-52578000D03*
D43*
X70478800Y-56109800D03*
D42*
X67081400Y-51866800D03*
X68218200Y-55261800D03*
X67868800Y-47777400D03*
X67792600Y-51866800D03*
X67081400Y-52578000D03*
X67157600Y-47066200D03*
D43*
X69488200Y-55703400D03*
D42*
X67157600Y-47777400D03*
%TO.N,+3.3V*%
X85293200Y-44881800D03*
D43*
X75996800Y-47472600D03*
D42*
X74086200Y-64621400D03*
X85283800Y-45935900D03*
X76555600Y-66297799D03*
X74086200Y-66297799D03*
X74086200Y-65455800D03*
X85293200Y-46990000D03*
X75361800Y-66297799D03*
D43*
%TO.N,/PWRON*%
X75107800Y-51790600D03*
X77114400Y-57632600D03*
%TO.N,/5V_EN*%
X91694000Y-59131200D03*
X69427400Y-41579800D03*
%TO.N,/IRQ*%
X63423800Y-58318400D03*
X76022200Y-45716002D03*
%TO.N,Net-(U1-SDA)*%
X78486000Y-47498000D03*
X67183000Y-56972200D03*
%TO.N,Net-(U1-SCK)*%
X67691000Y-57505600D03*
X77241400Y-47447200D03*
%TO.N,/NTC*%
X78384400Y-56946800D03*
X90519000Y-50247800D03*
%TO.N,GND*%
X79527400Y-62506600D03*
D42*
X88925400Y-48666400D03*
D43*
X71424800Y-39420800D03*
D42*
X70281800Y-59029600D03*
D43*
X87376000Y-62839600D03*
X88500000Y-42000000D03*
X90500000Y-43000000D03*
X61000000Y-60500000D03*
X90000000Y-42000000D03*
X61000000Y-49000000D03*
X70000000Y-64000000D03*
X86000000Y-43000000D03*
X94000000Y-48000000D03*
X68500000Y-64500000D03*
X74523600Y-57886600D03*
X78000000Y-41000000D03*
X98500000Y-54000000D03*
X94000000Y-45000000D03*
D42*
X88376800Y-62509400D03*
D43*
X78500000Y-61000000D03*
X94000000Y-43500000D03*
X61000000Y-58500000D03*
X70000000Y-45000000D03*
X72542400Y-39344600D03*
X67000000Y-45000000D03*
X75978201Y-55858400D03*
X86156800Y-39319200D03*
X78500000Y-52500000D03*
D42*
X89509600Y-62661800D03*
D43*
X97000000Y-46500000D03*
X80500000Y-63000000D03*
X95500000Y-48000000D03*
X73500000Y-41000000D03*
X80500000Y-60000000D03*
X80500000Y-61000000D03*
X98500000Y-51000000D03*
X70789800Y-60731400D03*
D42*
X87655400Y-50344600D03*
D43*
X98500000Y-52500000D03*
X77500000Y-51500000D03*
X92000000Y-43000000D03*
X80000000Y-43000000D03*
X98500000Y-59000000D03*
D42*
X71307400Y-61290200D03*
D43*
X62000000Y-59500000D03*
X80000000Y-46000000D03*
X98500000Y-45000000D03*
X62000000Y-61500000D03*
X89000000Y-43000000D03*
X79527400Y-63506599D03*
X71831200Y-59613800D03*
X64500000Y-60500000D03*
X84000000Y-42000000D03*
X72000000Y-41000000D03*
X94000000Y-57000000D03*
X77000000Y-52500000D03*
X63000000Y-60500000D03*
D42*
X88036400Y-48666400D03*
D43*
X69488200Y-54743400D03*
X61000000Y-51000000D03*
X78500000Y-43000000D03*
X98500000Y-49500000D03*
X97000000Y-45000000D03*
X98500000Y-61000000D03*
X80500000Y-59000000D03*
X73000000Y-52500000D03*
X94000000Y-55500000D03*
X61000000Y-53000000D03*
X71500000Y-47000000D03*
X71500000Y-48000000D03*
X92326799Y-64396602D03*
X85753200Y-55168800D03*
X80500000Y-62000000D03*
X84753200Y-55168800D03*
X72000000Y-52500000D03*
X74000000Y-51500000D03*
X87000000Y-42000000D03*
D42*
X70281800Y-61290200D03*
D43*
X84074000Y-40970200D03*
D42*
X88376800Y-60325000D03*
D43*
X73500000Y-52000000D03*
X98500000Y-55500000D03*
X69500000Y-46000000D03*
X79527400Y-61506600D03*
D42*
X87630000Y-49555400D03*
X70281800Y-60187200D03*
D43*
X70478800Y-55149800D03*
X84500000Y-43000000D03*
D42*
X89509600Y-50344600D03*
D43*
X68000000Y-45000000D03*
X72895400Y-55096400D03*
X83000000Y-67000000D03*
X82500000Y-39000000D03*
X83000000Y-43000000D03*
D42*
X72313800Y-60187200D03*
D43*
X81500000Y-48500000D03*
X82753200Y-55168800D03*
X70000000Y-65500000D03*
X73900000Y-48000000D03*
X80000000Y-44500000D03*
X88766400Y-55168800D03*
X70789800Y-59613800D03*
X87766400Y-55168800D03*
X95500000Y-46500000D03*
X63000000Y-47500000D03*
X70000000Y-67000000D03*
X78500000Y-62000000D03*
X82500000Y-42000000D03*
X75406400Y-58334600D03*
X66500000Y-44000000D03*
X67000000Y-65500000D03*
X86753200Y-55168800D03*
X85000000Y-67000000D03*
X87500000Y-41000000D03*
X73900000Y-49200000D03*
X73900000Y-46700000D03*
X67081400Y-46126400D03*
X82000000Y-47500000D03*
X76000000Y-51500000D03*
X68503800Y-39954200D03*
X68218200Y-53711800D03*
X68500000Y-66500000D03*
X79527400Y-60493401D03*
X72523200Y-64621400D03*
D42*
X72313800Y-61290200D03*
D43*
X67000000Y-64000000D03*
X64414400Y-57861200D03*
X61000000Y-47000000D03*
X92000000Y-43500000D03*
X83000000Y-41000000D03*
X88500000Y-39000000D03*
D42*
X87198200Y-48666400D03*
D43*
X79527400Y-59493401D03*
X72536200Y-66297799D03*
X93000000Y-60500000D03*
X65500000Y-62000000D03*
X81500000Y-44500000D03*
X94000000Y-59000000D03*
D42*
X89560400Y-49555400D03*
X88573600Y-49555400D03*
X71307400Y-59029600D03*
D43*
X62000000Y-51000000D03*
X66954400Y-53416200D03*
X80000000Y-48500000D03*
X69000000Y-45000000D03*
X69875400Y-51155600D03*
X68500000Y-46000000D03*
X81500000Y-46000000D03*
X65557400Y-56159400D03*
X95500000Y-45000000D03*
X73000000Y-51500000D03*
X69900800Y-49250600D03*
X72500000Y-52000000D03*
X71500000Y-52000000D03*
X68000000Y-42000000D03*
X71831200Y-60731400D03*
X80753200Y-55168800D03*
D42*
X71307400Y-60187200D03*
D43*
X81500000Y-43000000D03*
X62000000Y-53000000D03*
X66500000Y-42000000D03*
X81753200Y-55168800D03*
X75000000Y-41000000D03*
D42*
X67081400Y-61163200D03*
D43*
X87500000Y-43000000D03*
X80500000Y-47500000D03*
X83753200Y-55168800D03*
X62000000Y-49000000D03*
D42*
X72313800Y-59029600D03*
D43*
X72895400Y-56087000D03*
X93500000Y-39000000D03*
X76500000Y-41000000D03*
X63000000Y-46500000D03*
X67000000Y-67000000D03*
X74500000Y-52500000D03*
X94000000Y-46500000D03*
X66500000Y-39000000D03*
X92500000Y-67000000D03*
X64000000Y-59500000D03*
X98500000Y-46500000D03*
X78500000Y-51000000D03*
%TD*%
D44*
%TO.N,+5V*%
X90760402Y-62923401D02*
X90760402Y-64380205D01*
X90760402Y-64380205D02*
X90776799Y-64396602D01*
D45*
%TO.N,VSYS*%
X71107401Y-57162599D02*
X71107401Y-57687200D01*
X73807400Y-61187200D02*
X74203789Y-61187200D01*
X74550400Y-61187200D02*
X74853800Y-60883800D01*
X73807400Y-61187200D02*
X74550400Y-61187200D01*
X71907400Y-57200800D02*
X71907400Y-57023000D01*
X71323200Y-56946800D02*
X71653400Y-56946800D01*
X71297800Y-56972200D02*
X71107401Y-57162599D01*
D46*
X71120000Y-57699799D02*
X71107401Y-57687200D01*
D45*
X71653400Y-56946800D02*
X71907400Y-57200800D01*
X71935400Y-56995000D02*
X71935400Y-56087000D01*
X74203789Y-61187200D02*
X74676000Y-60714989D01*
X71907400Y-57023000D02*
X71935400Y-56995000D01*
X71297800Y-56972200D02*
X71323200Y-56946800D01*
X71907400Y-57200800D02*
X71907400Y-57687200D01*
%TO.N,VBUS*%
X70707400Y-57687200D02*
X70707400Y-57194600D01*
X70707400Y-56848999D02*
X70707400Y-57687200D01*
X70707400Y-57194600D02*
X69646800Y-56134000D01*
D47*
%TO.N,+3.3V*%
X76022200Y-46736000D02*
X76022200Y-47447200D01*
X76022200Y-47447200D02*
X75996800Y-47472600D01*
D45*
%TO.N,Net-(U1-VREF)*%
X67079800Y-58787200D02*
X67075200Y-58791800D01*
X68807401Y-58787200D02*
X67079800Y-58787200D01*
%TO.N,/BAT+*%
X72307400Y-57181800D02*
X72614801Y-56874399D01*
D48*
X72764801Y-56874400D02*
X73412200Y-56874400D01*
X72764800Y-56874399D02*
X72764801Y-56874400D01*
D49*
X75563801Y-54247800D02*
X74428201Y-55383400D01*
D48*
X72614801Y-56874399D02*
X72764800Y-56874399D01*
D49*
X79527400Y-54247800D02*
X75563801Y-54247800D01*
D44*
X79527400Y-52300599D02*
X79527400Y-54247800D01*
D48*
X73412200Y-56874400D02*
X74428200Y-55858400D01*
D45*
X72307400Y-57687200D02*
X72307400Y-57181800D01*
D49*
X74428201Y-55383400D02*
X74428201Y-55858400D01*
X92581600Y-54247800D02*
X79527400Y-54247800D01*
D47*
%TO.N,/PWRON*%
X73807400Y-58387200D02*
X73807400Y-57891600D01*
X73177400Y-44399200D02*
X73177400Y-42794000D01*
X74193400Y-57505600D02*
X74345800Y-57353200D01*
X76835000Y-57353200D02*
X77114400Y-57632600D01*
X74498200Y-51181000D02*
X74498200Y-45720000D01*
X75107800Y-51790600D02*
X74498200Y-51181000D01*
X73807400Y-57891600D02*
X74193400Y-57505600D01*
X74345800Y-57353200D02*
X76835000Y-57353200D01*
X74498200Y-45720000D02*
X73177400Y-44399200D01*
D45*
%TO.N,Net-(U1-LX1)*%
X73807399Y-61587200D02*
X75648800Y-61587200D01*
X75648800Y-61587200D02*
X76346201Y-62284600D01*
D44*
%TO.N,Net-(Q1-D1{slash}D2-Pad2)*%
X85873600Y-51294600D02*
X88573600Y-51294600D01*
D47*
%TO.N,Net-(Q1-G1)*%
X85873600Y-52244600D02*
X84295899Y-52244600D01*
X84295899Y-52244600D02*
X84284200Y-52232901D01*
%TO.N,/BAT-*%
X82204901Y-52232901D02*
X83032600Y-53060600D01*
X81984200Y-52232901D02*
X82204901Y-52232901D01*
D44*
X80568800Y-52245200D02*
X81971901Y-52245200D01*
D47*
X83032600Y-53060600D02*
X87477600Y-53060600D01*
D44*
X92578400Y-52244600D02*
X92581600Y-52247800D01*
X81971901Y-52245200D02*
X81984200Y-52232901D01*
D47*
X88293600Y-52244600D02*
X88573600Y-52244600D01*
X87477600Y-53060600D02*
X88138000Y-53060600D01*
%TO.N,Net-(Q1-G2)*%
X85873600Y-50344600D02*
X84295899Y-50344600D01*
X84295899Y-50344600D02*
X84284200Y-50332901D01*
%TO.N,/5V_EN*%
X90744600Y-59131200D02*
X90738998Y-59136802D01*
X91694000Y-59131200D02*
X90744600Y-59131200D01*
X69427400Y-42794000D02*
X69427400Y-41579800D01*
X90739000Y-59136802D02*
X89332402Y-59136802D01*
X89332402Y-59136802D02*
X89326800Y-59131200D01*
%TO.N,Net-(U3-FB)*%
X90144600Y-61722000D02*
X90754800Y-61722000D01*
X90762401Y-61831801D02*
X90762401Y-61729601D01*
X91780400Y-62923401D02*
X91780400Y-62849800D01*
X89326800Y-61431200D02*
X89853800Y-61431200D01*
X90754800Y-61722000D02*
X90762401Y-61729601D01*
X91780400Y-62849800D02*
X90762401Y-61831801D01*
X89853800Y-61431200D02*
X90144600Y-61722000D01*
%TO.N,Net-(U2-VM)*%
X82704399Y-49379599D02*
X82704399Y-49301400D01*
X83388501Y-51282901D02*
X83159600Y-51054000D01*
X83159600Y-49834800D02*
X82704399Y-49379599D01*
X84284200Y-51282901D02*
X83388501Y-51282901D01*
X83159600Y-51054000D02*
X83159600Y-49834800D01*
D45*
%TO.N,Net-(U2-VCC)*%
X81981901Y-51285200D02*
X81984200Y-51282901D01*
X80568800Y-51285200D02*
X81981901Y-51285200D01*
X79527400Y-51280601D02*
X80564201Y-51280601D01*
X80564201Y-51280601D02*
X80568800Y-51285200D01*
D47*
%TO.N,/IRQ*%
X69605278Y-56591200D02*
X67665600Y-56591200D01*
X70307400Y-57293322D02*
X69605278Y-56591200D01*
X76022200Y-45716002D02*
X74427400Y-44121202D01*
X74427400Y-44121202D02*
X74427400Y-42794000D01*
X70307400Y-57687200D02*
X70307400Y-57293322D01*
X67665600Y-56591200D02*
X67513200Y-56438800D01*
X65709800Y-57912000D02*
X65303400Y-58318400D01*
X65303400Y-58318400D02*
X63423800Y-58318400D01*
X67513200Y-56438800D02*
X66294000Y-56438800D01*
X65709800Y-57023000D02*
X65709800Y-57912000D01*
X66294000Y-56438800D02*
X65709800Y-57023000D01*
%TO.N,/SDA*%
X78486000Y-45716002D02*
X78482002Y-45716002D01*
X76927400Y-44161400D02*
X76927400Y-42794000D01*
X78482002Y-45716002D02*
X76927400Y-44161400D01*
%TO.N,Net-(U1-SDA)*%
X69560600Y-56972200D02*
X69907400Y-57319000D01*
X67183000Y-56972200D02*
X69560600Y-56972200D01*
X78486000Y-47498000D02*
X78486000Y-46736000D01*
X69907400Y-57319000D02*
X69907401Y-57687200D01*
%TO.N,/SCK*%
X77254100Y-45716002D02*
X75677400Y-44139302D01*
X75677400Y-44139302D02*
X75677400Y-42794000D01*
%TO.N,Net-(U1-SCK)*%
X69507400Y-57687200D02*
X69507400Y-57401600D01*
X77241400Y-47447200D02*
X77241400Y-46748700D01*
X69484400Y-57378600D02*
X67818000Y-57378600D01*
X77241400Y-46748700D02*
X77254100Y-46736000D01*
X67818000Y-57378600D02*
X67691000Y-57505600D01*
X69507400Y-57401600D02*
X69484400Y-57378600D01*
%TO.N,/NTC*%
X74244200Y-56946800D02*
X73503800Y-57687200D01*
X78384400Y-56946800D02*
X74244200Y-56946800D01*
X90519000Y-50247800D02*
X92581600Y-50247800D01*
X73503800Y-57687200D02*
X73107400Y-57687200D01*
%TO.N,/-*%
X67056000Y-49860200D02*
X67056000Y-49084800D01*
X65910800Y-50084800D02*
X66831400Y-50084800D01*
X67056000Y-49084800D02*
X68549201Y-49084800D01*
X66831400Y-50084800D02*
X67056000Y-49860200D01*
X65910800Y-49084800D02*
X67056000Y-49084800D01*
X68549201Y-49084800D02*
X68763300Y-48870701D01*
%TO.N,/+*%
X65910800Y-50584800D02*
X68577401Y-50584800D01*
X65910800Y-50584800D02*
X64961200Y-50584800D01*
X64744600Y-50368200D02*
X64744600Y-49809400D01*
X64961200Y-50584800D02*
X64744600Y-50368200D01*
X64969200Y-49584800D02*
X65910800Y-49584800D01*
X68577401Y-50584800D02*
X68763300Y-50770699D01*
X64744600Y-49809400D02*
X64969200Y-49584800D01*
%TO.N,Net-(USB1-CC2)*%
X63929801Y-56134000D02*
X63929801Y-56055801D01*
X63601600Y-52044600D02*
X64061400Y-51584800D01*
X63929801Y-56055801D02*
X63601600Y-55727600D01*
X63601600Y-55727600D02*
X63601600Y-52044600D01*
X64061400Y-51584800D02*
X65910800Y-51584800D01*
%TO.N,Net-(USB1-CC1)*%
X63929801Y-57224201D02*
X63119000Y-56413400D01*
X63929801Y-57226200D02*
X63929801Y-57224201D01*
X63708599Y-48584801D02*
X65910800Y-48584801D01*
X63119000Y-56413400D02*
X63119000Y-49174400D01*
X63119000Y-49174400D02*
X63708599Y-48584801D01*
%TO.N,GND*%
X72895400Y-56087000D02*
X73046600Y-56087000D01*
D48*
X65910800Y-45514800D02*
X65340800Y-45514800D01*
D44*
X88376800Y-61431200D02*
X88376800Y-60325000D01*
D47*
X73046600Y-56087000D02*
X73482200Y-55651400D01*
X68216600Y-59187200D02*
X67075201Y-60328600D01*
D44*
X88376800Y-61431200D02*
X88376800Y-62509400D01*
D47*
X67075201Y-60328600D02*
X67075201Y-60341800D01*
D48*
X65910800Y-46634800D02*
X65910800Y-45514800D01*
X65910800Y-53034800D02*
X65910800Y-54154800D01*
D47*
X68807400Y-59187199D02*
X68216600Y-59187200D01*
D48*
X65910800Y-54154800D02*
X65340800Y-54154800D01*
D47*
%TO.N,/D-*%
X72125799Y-49595700D02*
X71400800Y-48870701D01*
X71815183Y-45495189D02*
X71877281Y-45433090D01*
X72901600Y-49284402D02*
X72590302Y-49595700D01*
X72216693Y-45433090D02*
X72301546Y-45517944D01*
X71077400Y-44293798D02*
X71453018Y-44669416D01*
X72301546Y-45517944D02*
X72901600Y-46117998D01*
X72901600Y-46896877D02*
X72901600Y-49284402D01*
X71400800Y-48870701D02*
X71038300Y-48870701D01*
X70677400Y-43347000D02*
X71077400Y-43747000D01*
X72590302Y-49595700D02*
X72125799Y-49595700D01*
X71390919Y-45410337D02*
X71475771Y-45495189D01*
X71077400Y-43747000D02*
X71077400Y-44293798D01*
X70677400Y-42794000D02*
X70677400Y-43347000D01*
X71453018Y-45008827D02*
X71390919Y-45070925D01*
X72901600Y-46117998D02*
X72901600Y-46896877D01*
X71877281Y-45433090D02*
G75*
G02*
X72216693Y-45433090I169706J-169704D01*
G01*
X71390919Y-45070925D02*
G75*
G03*
X71390950Y-45410306I169681J-169675D01*
G01*
X71453018Y-44669416D02*
G75*
G02*
X71452997Y-45008806I-169718J-169684D01*
G01*
X71475771Y-45495189D02*
G75*
G03*
X71815183Y-45495189I169706J169704D01*
G01*
%TO.N,/D+*%
X71527400Y-44107402D02*
X71527400Y-43737800D01*
X71400800Y-50770699D02*
X72125799Y-50045700D01*
X71038300Y-50770699D02*
X71400800Y-50770699D01*
X73351600Y-45931602D02*
X71527400Y-44107402D01*
X72776698Y-50045700D02*
X73351600Y-49470798D01*
X72125799Y-50045700D02*
X72776698Y-50045700D01*
X73351600Y-49470798D02*
X73351600Y-45931602D01*
X71927400Y-43337800D02*
X71927400Y-42794000D01*
X71527400Y-43737800D02*
X71927400Y-43337800D01*
%TD*%
%TA.AperFunction,Conductor*%
%TO.N,VSYS*%
G36*
X74914768Y-58973085D02*
G01*
X74922039Y-58978132D01*
X74926174Y-58981228D01*
X75054286Y-59029012D01*
X75110915Y-59035100D01*
X75701884Y-59035099D01*
X75758514Y-59029012D01*
X75886626Y-58981228D01*
X75890759Y-58978133D01*
X75956223Y-58953716D01*
X75965071Y-58953400D01*
X77596438Y-58953400D01*
X77663477Y-58973085D01*
X77684119Y-58989719D01*
X77890881Y-59196481D01*
X77924366Y-59257804D01*
X77927200Y-59284162D01*
X77927200Y-60299038D01*
X77918555Y-60328478D01*
X77912032Y-60358465D01*
X77908277Y-60363480D01*
X77907515Y-60366077D01*
X77890881Y-60386719D01*
X77734919Y-60542681D01*
X77673596Y-60576166D01*
X77647238Y-60579000D01*
X75361799Y-60579000D01*
X74813188Y-61148712D01*
X74785562Y-61164479D01*
X74758803Y-61181677D01*
X74754298Y-61182324D01*
X74752507Y-61183347D01*
X74723868Y-61186700D01*
X74496245Y-61186700D01*
X74429206Y-61167015D01*
X74383451Y-61114211D01*
X74373507Y-61045053D01*
X74388858Y-61000699D01*
X74434014Y-60922488D01*
X74457900Y-60833344D01*
X74457900Y-60741056D01*
X74450353Y-60712892D01*
X74446147Y-60682908D01*
X74443163Y-60506824D01*
X74447368Y-60472647D01*
X74457900Y-60433343D01*
X74457900Y-60341055D01*
X74443115Y-60285877D01*
X74438910Y-60255898D01*
X74436786Y-60130625D01*
X74440991Y-60096448D01*
X74457900Y-60033345D01*
X74457900Y-59941057D01*
X74435876Y-59858864D01*
X74431672Y-59828892D01*
X74430410Y-59754424D01*
X74434616Y-59720239D01*
X74457900Y-59633344D01*
X74457900Y-59541056D01*
X74434014Y-59451912D01*
X74434011Y-59451907D01*
X74433932Y-59451715D01*
X74433831Y-59451231D01*
X74431910Y-59444060D01*
X74432009Y-59444033D01*
X74430125Y-59441208D01*
X74424511Y-59406364D01*
X74423955Y-59373579D01*
X74432164Y-59330408D01*
X74431910Y-59330340D01*
X74432831Y-59326901D01*
X74433379Y-59324021D01*
X74434013Y-59322489D01*
X74434014Y-59322488D01*
X74451558Y-59257012D01*
X74487226Y-59197991D01*
X74716577Y-58986284D01*
X74741938Y-58973724D01*
X74765748Y-58958423D01*
X74775736Y-58956986D01*
X74779189Y-58955277D01*
X74800683Y-58953400D01*
X74847729Y-58953400D01*
X74914768Y-58973085D01*
G37*
%TD.AperFunction*%
%TD*%
%TA.AperFunction,Conductor*%
%TO.N,+5V*%
G36*
X91179839Y-63697485D02*
G01*
X91225594Y-63750289D01*
X91236800Y-63801800D01*
X91236800Y-66627200D01*
X91217115Y-66694239D01*
X91164311Y-66739994D01*
X91112800Y-66751200D01*
X86712600Y-66751200D01*
X86645561Y-66731515D01*
X86599806Y-66678711D01*
X86588600Y-66627200D01*
X86588600Y-63801800D01*
X86608285Y-63734761D01*
X86661089Y-63689006D01*
X86712600Y-63677800D01*
X91112800Y-63677800D01*
X91179839Y-63697485D01*
G37*
%TD.AperFunction*%
%TD*%
%TA.AperFunction,Conductor*%
%TO.N,VSYS*%
G36*
X72232412Y-53207285D02*
G01*
X72278167Y-53260089D01*
X72289368Y-53310622D01*
X72295085Y-54036657D01*
X72313261Y-56345071D01*
X72294105Y-56412263D01*
X72276947Y-56433727D01*
X72174295Y-56536380D01*
X72174289Y-56536387D01*
X72101818Y-56661910D01*
X72101817Y-56661914D01*
X72064301Y-56801924D01*
X72064301Y-56801925D01*
X72064301Y-56801926D01*
X72064301Y-56807144D01*
X72045341Y-56873043D01*
X72037894Y-56884912D01*
X71986920Y-56935887D01*
X71934193Y-57027212D01*
X71934193Y-57027213D01*
X71923438Y-57067351D01*
X71913529Y-57083146D01*
X71900769Y-57094447D01*
X71891899Y-57109001D01*
X71875158Y-57117132D01*
X71861227Y-57129473D01*
X71844382Y-57132082D01*
X71829051Y-57139530D01*
X71810572Y-57137320D01*
X71792181Y-57140170D01*
X71776599Y-57133258D01*
X71759676Y-57131235D01*
X71736166Y-57115323D01*
X71728312Y-57111839D01*
X71727337Y-57110358D01*
X71722604Y-57106726D01*
X71642692Y-57060588D01*
X71642689Y-57060587D01*
X71642688Y-57060586D01*
X71642687Y-57060586D01*
X71553543Y-57036700D01*
X71461255Y-57036700D01*
X71461253Y-57036700D01*
X71366266Y-57062151D01*
X71351017Y-57062279D01*
X71339210Y-57066274D01*
X71304100Y-57062674D01*
X71239326Y-57046481D01*
X71179063Y-57011125D01*
X71147480Y-56948801D01*
X71145400Y-56926183D01*
X71145400Y-53311600D01*
X71165085Y-53244561D01*
X71217889Y-53198806D01*
X71269400Y-53187600D01*
X72165373Y-53187600D01*
X72232412Y-53207285D01*
G37*
%TD.AperFunction*%
%TD*%
%TA.AperFunction,Conductor*%
%TO.N,VBUS*%
G36*
X68113077Y-46730285D02*
G01*
X68133719Y-46746919D01*
X68365881Y-46979081D01*
X68399366Y-47040404D01*
X68402200Y-47066762D01*
X68402200Y-47726038D01*
X68382515Y-47793077D01*
X68365881Y-47813719D01*
X68057519Y-48122081D01*
X67996196Y-48155566D01*
X67969838Y-48158400D01*
X66980362Y-48158400D01*
X66950921Y-48149755D01*
X66920935Y-48143232D01*
X66915919Y-48139477D01*
X66913323Y-48138715D01*
X66892681Y-48122081D01*
X66772619Y-48002019D01*
X66739134Y-47940696D01*
X66736300Y-47914338D01*
X66736300Y-47910126D01*
X66725873Y-47857706D01*
X66725873Y-47809324D01*
X66735800Y-47759423D01*
X66735800Y-47559800D01*
X66034800Y-47559800D01*
X66026114Y-47557249D01*
X66017153Y-47558538D01*
X65993112Y-47547559D01*
X65967761Y-47540115D01*
X65961833Y-47533274D01*
X65953597Y-47529513D01*
X65939307Y-47507278D01*
X65922006Y-47487311D01*
X65919718Y-47476796D01*
X65915823Y-47470735D01*
X65910800Y-47435800D01*
X65910800Y-47433800D01*
X65930485Y-47366761D01*
X65983289Y-47321006D01*
X66034800Y-47309800D01*
X66735800Y-47309800D01*
X66735800Y-47110176D01*
X66725873Y-47060275D01*
X66725842Y-47059660D01*
X66725698Y-47059380D01*
X66725706Y-47056949D01*
X66724068Y-47024123D01*
X66724664Y-47017970D01*
X66736300Y-46959474D01*
X66736300Y-46897869D01*
X66736878Y-46891904D01*
X66747762Y-46864824D01*
X66755985Y-46836823D01*
X66762037Y-46829312D01*
X66762936Y-46827076D01*
X66765046Y-46825577D01*
X66772614Y-46816185D01*
X66841882Y-46746918D01*
X66903206Y-46713434D01*
X66929563Y-46710600D01*
X68046038Y-46710600D01*
X68113077Y-46730285D01*
G37*
%TD.AperFunction*%
%TD*%
%TA.AperFunction,Conductor*%
%TO.N,Net-(D2-A)*%
G36*
X87634040Y-60911086D02*
G01*
X87679795Y-60963890D01*
X87691001Y-61015401D01*
X87691000Y-62160838D01*
X87682356Y-62190275D01*
X87675833Y-62220264D01*
X87672077Y-62225280D01*
X87671315Y-62227878D01*
X87654682Y-62248518D01*
X87600320Y-62302881D01*
X87538997Y-62336367D01*
X87512638Y-62339201D01*
X86090800Y-62339201D01*
X85811400Y-62567801D01*
X85811400Y-62567802D01*
X85811400Y-65746456D01*
X85803742Y-65772535D01*
X85799534Y-65799389D01*
X85792915Y-65809407D01*
X85791715Y-65813495D01*
X85780078Y-65828837D01*
X85675934Y-65946001D01*
X85645195Y-65980582D01*
X85585944Y-66017610D01*
X85552516Y-66022201D01*
X81871400Y-66022201D01*
X81804361Y-66002516D01*
X81758606Y-65949712D01*
X81747400Y-65898201D01*
X81747400Y-61015401D01*
X81767085Y-60948362D01*
X81819889Y-60902607D01*
X81871400Y-60891401D01*
X87567001Y-60891401D01*
X87634040Y-60911086D01*
G37*
%TD.AperFunction*%
%TD*%
%TA.AperFunction,Conductor*%
%TO.N,/BAT-*%
G36*
X94074756Y-51175285D02*
G01*
X94091824Y-51188484D01*
X94170188Y-51260819D01*
X94346507Y-51423576D01*
X94382416Y-51483511D01*
X94386400Y-51514691D01*
X94386400Y-52933038D01*
X94377755Y-52962478D01*
X94371232Y-52992465D01*
X94367477Y-52997480D01*
X94366715Y-53000077D01*
X94350081Y-53020719D01*
X94244919Y-53125881D01*
X94183596Y-53159366D01*
X94157238Y-53162200D01*
X88214636Y-53162200D01*
X88147597Y-53142515D01*
X88103727Y-53093654D01*
X88067260Y-53020719D01*
X88056939Y-53000077D01*
X88049491Y-52985182D01*
X88036400Y-52929728D01*
X88036400Y-51969100D01*
X88056085Y-51902061D01*
X88108889Y-51856306D01*
X88160400Y-51845100D01*
X89148276Y-51845100D01*
X89148277Y-51845099D01*
X89221340Y-51830566D01*
X89304201Y-51775201D01*
X89313131Y-51761835D01*
X89328546Y-51743053D01*
X89331799Y-51739800D01*
X89331800Y-51739800D01*
X89879681Y-51191919D01*
X89941004Y-51158434D01*
X89967362Y-51155600D01*
X94007717Y-51155600D01*
X94074756Y-51175285D01*
G37*
%TD.AperFunction*%
%TD*%
%TA.AperFunction,Conductor*%
%TO.N,VBUS*%
G36*
X68595677Y-54604285D02*
G01*
X68616319Y-54620919D01*
X68902629Y-54907229D01*
X68936114Y-54968552D01*
X68937421Y-54975513D01*
X68942181Y-55005571D01*
X68942181Y-55005572D01*
X68942183Y-55005575D01*
X68998341Y-55115791D01*
X68998343Y-55115793D01*
X68998345Y-55115796D01*
X69085803Y-55203254D01*
X69085805Y-55203255D01*
X69085809Y-55203259D01*
X69196025Y-55259417D01*
X69196026Y-55259417D01*
X69196028Y-55259418D01*
X69231147Y-55264979D01*
X69287465Y-55273900D01*
X69688934Y-55273899D01*
X69701392Y-55271925D01*
X69720788Y-55270400D01*
X69749943Y-55270400D01*
X69816982Y-55290085D01*
X69835029Y-55304198D01*
X69902439Y-55367786D01*
X69925745Y-55404608D01*
X69928353Y-55403280D01*
X69932782Y-55411973D01*
X69932783Y-55411975D01*
X69988941Y-55522191D01*
X69988943Y-55522193D01*
X69988945Y-55522196D01*
X70076403Y-55609654D01*
X70076405Y-55609655D01*
X70076409Y-55609659D01*
X70186625Y-55665817D01*
X70186626Y-55665817D01*
X70186628Y-55665818D01*
X70221747Y-55671379D01*
X70278065Y-55680300D01*
X70679534Y-55680299D01*
X70679537Y-55680299D01*
X70707793Y-55675823D01*
X70722601Y-55673478D01*
X70791895Y-55682432D01*
X70845347Y-55727428D01*
X70865987Y-55794179D01*
X70866000Y-55795951D01*
X70866000Y-56786245D01*
X70846315Y-56853284D01*
X70842462Y-56858932D01*
X70836670Y-56866936D01*
X70786921Y-56916686D01*
X70734194Y-57008011D01*
X70733955Y-57008901D01*
X70728852Y-57015955D01*
X70706064Y-57033598D01*
X70685209Y-57053484D01*
X70678782Y-57054722D01*
X70673607Y-57058730D01*
X70644894Y-57061253D01*
X70616602Y-57066706D01*
X70610526Y-57064273D01*
X70604005Y-57064847D01*
X70578489Y-57051448D01*
X70551737Y-57040738D01*
X70542527Y-57032563D01*
X70542146Y-57032363D01*
X70541987Y-57032084D01*
X70540709Y-57030949D01*
X69820491Y-56310731D01*
X69820486Y-56310727D01*
X69740568Y-56264587D01*
X69740567Y-56264586D01*
X69740566Y-56264586D01*
X69651422Y-56240700D01*
X69651421Y-56240700D01*
X67862144Y-56240700D01*
X67795105Y-56221015D01*
X67793493Y-56219962D01*
X67783203Y-56213121D01*
X67728412Y-56158330D01*
X67648488Y-56112186D01*
X67619829Y-56104506D01*
X67602903Y-56093254D01*
X67595416Y-56084337D01*
X67583873Y-56077673D01*
X67320919Y-55814719D01*
X67287434Y-55753396D01*
X67284600Y-55727038D01*
X67284600Y-54864562D01*
X67304285Y-54797523D01*
X67320919Y-54776881D01*
X67476881Y-54620919D01*
X67538204Y-54587434D01*
X67564562Y-54584600D01*
X68528638Y-54584600D01*
X68595677Y-54604285D01*
G37*
%TD.AperFunction*%
%TD*%
%TA.AperFunction,Conductor*%
%TO.N,VSYS*%
G36*
X88722677Y-56059686D02*
G01*
X88743319Y-56076320D01*
X88797681Y-56130682D01*
X88831166Y-56192005D01*
X88834000Y-56218363D01*
X88834000Y-56983355D01*
X88826534Y-57025732D01*
X88732399Y-57284597D01*
X88732399Y-59548201D01*
X88712714Y-59615240D01*
X88659910Y-59660995D01*
X88608399Y-59672201D01*
X88145200Y-59672201D01*
X88078161Y-59652516D01*
X88032406Y-59599712D01*
X88021200Y-59548201D01*
X88021200Y-58605403D01*
X88011000Y-58064400D01*
X88010999Y-58064399D01*
X86649602Y-58089799D01*
X86649599Y-58089800D01*
X86344800Y-58369199D01*
X86344800Y-59392238D01*
X86336155Y-59421678D01*
X86329632Y-59451665D01*
X86325877Y-59456680D01*
X86325115Y-59459277D01*
X86308485Y-59479914D01*
X86240199Y-59548201D01*
X86177917Y-59610483D01*
X86116594Y-59643967D01*
X86090236Y-59646801D01*
X81846000Y-59646801D01*
X81778961Y-59627116D01*
X81733206Y-59574312D01*
X81722000Y-59522801D01*
X81722000Y-57234363D01*
X81741685Y-57167324D01*
X81758319Y-57146682D01*
X82828681Y-56076320D01*
X82890004Y-56042835D01*
X82916362Y-56040001D01*
X88655638Y-56040001D01*
X88722677Y-56059686D01*
G37*
%TD.AperFunction*%
%TD*%
%TA.AperFunction,Conductor*%
%TO.N,GND*%
G36*
X71726380Y-58299618D02*
G01*
X71736635Y-58299130D01*
X71769396Y-58312246D01*
X71772112Y-58313814D01*
X71861256Y-58337700D01*
X71861258Y-58337700D01*
X71953542Y-58337700D01*
X71953544Y-58337700D01*
X72042688Y-58313814D01*
X72045392Y-58312253D01*
X72045397Y-58312250D01*
X72047973Y-58311624D01*
X72050199Y-58310703D01*
X72050342Y-58311049D01*
X72113296Y-58295775D01*
X72164550Y-58310825D01*
X72164601Y-58310703D01*
X72165736Y-58311173D01*
X72169403Y-58312250D01*
X72169406Y-58312252D01*
X72172112Y-58313814D01*
X72261256Y-58337700D01*
X72261258Y-58337700D01*
X72353542Y-58337700D01*
X72353544Y-58337700D01*
X72442688Y-58313814D01*
X72445392Y-58312252D01*
X72447965Y-58311628D01*
X72450199Y-58310703D01*
X72450343Y-58311051D01*
X72513290Y-58295775D01*
X72564554Y-58310826D01*
X72564605Y-58310705D01*
X72565731Y-58311171D01*
X72569398Y-58312248D01*
X72572112Y-58313815D01*
X72661256Y-58337701D01*
X72661258Y-58337701D01*
X72753542Y-58337701D01*
X72753544Y-58337701D01*
X72842688Y-58313815D01*
X72845391Y-58312254D01*
X72847963Y-58311629D01*
X72850199Y-58310704D01*
X72850343Y-58311052D01*
X72913287Y-58295775D01*
X72943972Y-58301151D01*
X72957310Y-58305267D01*
X72972112Y-58313814D01*
X73061256Y-58337700D01*
X73062382Y-58337700D01*
X73072014Y-58340673D01*
X73099276Y-58358729D01*
X73127196Y-58375747D01*
X73128456Y-58378055D01*
X73130266Y-58379254D01*
X73135064Y-58390156D01*
X73155217Y-58427063D01*
X73180787Y-58522492D01*
X73180788Y-58522493D01*
X73182353Y-58525204D01*
X73182977Y-58527780D01*
X73183898Y-58530002D01*
X73183551Y-58530145D01*
X73198822Y-58593105D01*
X73183775Y-58644352D01*
X73183896Y-58644402D01*
X73183432Y-58645520D01*
X73182356Y-58649188D01*
X73180789Y-58651901D01*
X73180785Y-58651912D01*
X73156899Y-58741056D01*
X73156899Y-58833344D01*
X73172565Y-58891812D01*
X73180786Y-58922490D01*
X73180786Y-58922491D01*
X73182354Y-58925207D01*
X73182979Y-58927787D01*
X73183897Y-58930002D01*
X73183551Y-58930145D01*
X73198822Y-58993108D01*
X73183776Y-59044352D01*
X73183897Y-59044402D01*
X73183433Y-59045520D01*
X73182356Y-59049191D01*
X73180788Y-59051905D01*
X73180786Y-59051912D01*
X73156900Y-59141056D01*
X73156900Y-59233343D01*
X73180786Y-59322490D01*
X73182352Y-59325201D01*
X73182977Y-59327779D01*
X73183898Y-59330002D01*
X73183551Y-59330145D01*
X73198823Y-59393102D01*
X73183776Y-59444347D01*
X73183898Y-59444398D01*
X73183429Y-59445529D01*
X73182352Y-59449199D01*
X73180786Y-59451909D01*
X73156900Y-59541056D01*
X73156900Y-59633343D01*
X73180786Y-59722490D01*
X73182352Y-59725201D01*
X73182977Y-59727779D01*
X73183898Y-59730002D01*
X73183551Y-59730145D01*
X73198823Y-59793102D01*
X73183776Y-59844353D01*
X73183897Y-59844403D01*
X73183433Y-59845521D01*
X73182357Y-59849189D01*
X73180790Y-59851902D01*
X73180786Y-59851913D01*
X73156900Y-59941057D01*
X73156900Y-60033344D01*
X73180787Y-60122491D01*
X73180788Y-60122494D01*
X73182353Y-60125205D01*
X73182977Y-60127781D01*
X73183898Y-60130003D01*
X73183551Y-60130146D01*
X73198822Y-60193106D01*
X73183776Y-60244346D01*
X73183898Y-60244397D01*
X73183430Y-60245526D01*
X73182353Y-60249195D01*
X73180788Y-60251905D01*
X73180787Y-60251908D01*
X73156900Y-60341055D01*
X73156900Y-60433342D01*
X73180786Y-60522489D01*
X73182352Y-60525200D01*
X73182977Y-60527778D01*
X73183898Y-60530001D01*
X73183551Y-60530144D01*
X73198823Y-60593101D01*
X73183776Y-60644352D01*
X73183897Y-60644402D01*
X73183433Y-60645520D01*
X73182357Y-60649188D01*
X73180790Y-60651901D01*
X73180786Y-60651912D01*
X73156900Y-60741056D01*
X73156900Y-60833343D01*
X73180786Y-60922490D01*
X73182352Y-60925201D01*
X73182977Y-60927779D01*
X73183898Y-60930002D01*
X73183551Y-60930145D01*
X73198823Y-60993102D01*
X73183776Y-61044347D01*
X73183898Y-61044398D01*
X73183429Y-61045529D01*
X73182352Y-61049199D01*
X73180786Y-61051909D01*
X73164093Y-61114211D01*
X73156900Y-61141056D01*
X73156900Y-61233344D01*
X73179527Y-61317790D01*
X73180787Y-61322490D01*
X73180788Y-61322493D01*
X73182353Y-61325204D01*
X73182977Y-61327780D01*
X73183898Y-61330002D01*
X73183551Y-61330145D01*
X73198822Y-61393105D01*
X73183775Y-61444352D01*
X73183896Y-61444402D01*
X73183432Y-61445520D01*
X73182356Y-61449188D01*
X73180789Y-61451901D01*
X73180785Y-61451912D01*
X73156899Y-61541056D01*
X73156899Y-61633344D01*
X73180784Y-61722486D01*
X73180786Y-61722490D01*
X73180786Y-61722491D01*
X73182354Y-61725207D01*
X73182979Y-61727787D01*
X73183897Y-61730002D01*
X73183551Y-61730145D01*
X73198822Y-61793108D01*
X73193447Y-61823772D01*
X73189328Y-61837116D01*
X73180786Y-61851912D01*
X73156900Y-61941056D01*
X73156900Y-61942177D01*
X73153926Y-61951813D01*
X73135878Y-61979062D01*
X73118851Y-62006997D01*
X73116541Y-62008257D01*
X73115345Y-62010065D01*
X73104452Y-62014859D01*
X73067536Y-62035017D01*
X72972110Y-62060586D01*
X72972105Y-62060588D01*
X72969391Y-62062156D01*
X72966813Y-62062781D01*
X72964602Y-62063697D01*
X72964459Y-62063351D01*
X72901490Y-62078622D01*
X72850251Y-62063576D01*
X72850202Y-62063697D01*
X72849081Y-62063233D01*
X72845407Y-62062154D01*
X72842691Y-62060586D01*
X72842688Y-62060585D01*
X72753544Y-62036699D01*
X72661256Y-62036699D01*
X72572112Y-62060585D01*
X72572101Y-62060589D01*
X72569388Y-62062156D01*
X72566811Y-62062780D01*
X72564602Y-62063696D01*
X72564459Y-62063351D01*
X72501486Y-62078622D01*
X72450252Y-62063576D01*
X72450202Y-62063698D01*
X72449073Y-62063230D01*
X72445404Y-62062153D01*
X72442693Y-62060588D01*
X72442690Y-62060587D01*
X72442689Y-62060586D01*
X72442688Y-62060586D01*
X72353544Y-62036700D01*
X72261256Y-62036700D01*
X72172109Y-62060586D01*
X72169399Y-62062152D01*
X72166820Y-62062777D01*
X72164598Y-62063698D01*
X72164454Y-62063351D01*
X72101498Y-62078623D01*
X72050252Y-62063576D01*
X72050202Y-62063698D01*
X72049070Y-62063229D01*
X72045401Y-62062152D01*
X72042690Y-62060586D01*
X71983258Y-62044662D01*
X71953544Y-62036700D01*
X71861256Y-62036700D01*
X71772112Y-62060586D01*
X71772101Y-62060590D01*
X71769388Y-62062157D01*
X71766811Y-62062781D01*
X71764602Y-62063697D01*
X71764459Y-62063352D01*
X71701486Y-62078623D01*
X71650251Y-62063576D01*
X71650201Y-62063698D01*
X71649071Y-62063230D01*
X71645400Y-62062152D01*
X71642689Y-62060586D01*
X71583257Y-62044662D01*
X71553543Y-62036700D01*
X71461255Y-62036700D01*
X71372111Y-62060586D01*
X71372110Y-62060586D01*
X71372108Y-62060587D01*
X71372105Y-62060588D01*
X71369395Y-62062153D01*
X71366818Y-62062777D01*
X71364597Y-62063698D01*
X71364453Y-62063351D01*
X71301494Y-62078622D01*
X71250253Y-62063576D01*
X71250203Y-62063698D01*
X71249073Y-62063230D01*
X71245405Y-62062153D01*
X71242694Y-62060588D01*
X71242691Y-62060587D01*
X71242690Y-62060586D01*
X71242689Y-62060586D01*
X71153545Y-62036700D01*
X71061257Y-62036700D01*
X70972113Y-62060586D01*
X70972102Y-62060590D01*
X70969389Y-62062157D01*
X70966812Y-62062781D01*
X70964603Y-62063697D01*
X70964460Y-62063352D01*
X70901487Y-62078623D01*
X70850252Y-62063576D01*
X70850202Y-62063698D01*
X70849072Y-62063230D01*
X70845401Y-62062152D01*
X70842690Y-62060586D01*
X70783258Y-62044662D01*
X70753544Y-62036700D01*
X70661256Y-62036700D01*
X70572109Y-62060586D01*
X70569399Y-62062152D01*
X70566820Y-62062777D01*
X70564598Y-62063698D01*
X70564454Y-62063351D01*
X70501498Y-62078623D01*
X70450252Y-62063576D01*
X70450202Y-62063698D01*
X70449070Y-62063229D01*
X70445401Y-62062152D01*
X70442690Y-62060586D01*
X70383258Y-62044662D01*
X70353544Y-62036700D01*
X70261256Y-62036700D01*
X70172112Y-62060586D01*
X70172105Y-62060588D01*
X70169391Y-62062156D01*
X70166813Y-62062781D01*
X70164602Y-62063697D01*
X70164459Y-62063351D01*
X70101490Y-62078622D01*
X70050251Y-62063576D01*
X70050202Y-62063697D01*
X70049081Y-62063233D01*
X70045407Y-62062154D01*
X70042691Y-62060586D01*
X70042688Y-62060585D01*
X69953544Y-62036699D01*
X69861256Y-62036699D01*
X69772112Y-62060585D01*
X69772101Y-62060589D01*
X69769388Y-62062156D01*
X69766811Y-62062780D01*
X69764602Y-62063696D01*
X69764459Y-62063351D01*
X69701486Y-62078622D01*
X69670828Y-62073247D01*
X69657483Y-62069128D01*
X69642688Y-62060586D01*
X69553544Y-62036700D01*
X69552421Y-62036700D01*
X69542786Y-62033726D01*
X69515521Y-62015668D01*
X69487603Y-61998651D01*
X69486343Y-61996344D01*
X69484534Y-61995146D01*
X69479734Y-61984240D01*
X69459582Y-61947335D01*
X69435275Y-61856619D01*
X69434014Y-61851912D01*
X69432451Y-61849206D01*
X69431826Y-61846631D01*
X69430902Y-61844398D01*
X69431250Y-61844253D01*
X69415975Y-61781308D01*
X69431027Y-61730050D01*
X69430904Y-61729999D01*
X69431378Y-61728852D01*
X69432453Y-61725191D01*
X69434015Y-61722488D01*
X69457901Y-61633344D01*
X69457901Y-61541056D01*
X69434015Y-61451912D01*
X69432448Y-61449198D01*
X69431823Y-61446621D01*
X69430905Y-61444405D01*
X69431250Y-61444261D01*
X69415975Y-61381301D01*
X69431026Y-61330049D01*
X69430903Y-61329999D01*
X69431377Y-61328853D01*
X69432453Y-61325191D01*
X69434014Y-61322488D01*
X69457900Y-61233344D01*
X69457900Y-61141056D01*
X69434014Y-61051912D01*
X69432450Y-61049203D01*
X69431824Y-61046626D01*
X69430903Y-61044401D01*
X69431249Y-61044257D01*
X69415975Y-60981304D01*
X69431025Y-60930049D01*
X69430903Y-60929999D01*
X69431373Y-60928863D01*
X69432450Y-60925197D01*
X69432761Y-60924657D01*
X69434014Y-60922488D01*
X69457900Y-60833344D01*
X69457900Y-60741056D01*
X69434014Y-60651912D01*
X69432447Y-60649198D01*
X69431822Y-60646621D01*
X69430904Y-60644405D01*
X69431249Y-60644261D01*
X69415974Y-60581301D01*
X69431026Y-60530048D01*
X69430903Y-60529998D01*
X69431377Y-60528852D01*
X69432452Y-60525190D01*
X69434014Y-60522487D01*
X69457900Y-60433343D01*
X69457900Y-60341055D01*
X69434014Y-60251911D01*
X69432452Y-60249206D01*
X69431828Y-60246633D01*
X69430903Y-60244400D01*
X69431251Y-60244255D01*
X69415975Y-60181309D01*
X69431026Y-60130051D01*
X69430903Y-60130000D01*
X69431377Y-60128853D01*
X69432453Y-60125192D01*
X69434014Y-60122489D01*
X69457900Y-60033345D01*
X69457900Y-59941057D01*
X69434014Y-59851913D01*
X69432447Y-59849199D01*
X69431822Y-59846622D01*
X69430904Y-59844406D01*
X69431249Y-59844262D01*
X69415974Y-59781302D01*
X69431026Y-59730049D01*
X69430903Y-59729999D01*
X69431377Y-59728853D01*
X69432452Y-59725191D01*
X69434014Y-59722488D01*
X69457900Y-59633344D01*
X69457900Y-59541056D01*
X69434014Y-59451912D01*
X69433420Y-59450884D01*
X69432160Y-59448701D01*
X69431419Y-59445650D01*
X69430904Y-59444405D01*
X69431098Y-59444324D01*
X69415686Y-59380801D01*
X69430636Y-59329892D01*
X69430436Y-59329809D01*
X69431209Y-59327941D01*
X69432164Y-59324691D01*
X69433547Y-59322294D01*
X69457399Y-59233277D01*
X69457400Y-59233276D01*
X69457400Y-59141124D01*
X69457399Y-59141122D01*
X69433547Y-59052106D01*
X69432161Y-59049704D01*
X69431606Y-59047418D01*
X69430437Y-59044595D01*
X69430877Y-59044412D01*
X69415686Y-58981805D01*
X69432162Y-58925697D01*
X69434015Y-58922488D01*
X69457901Y-58833344D01*
X69457901Y-58741056D01*
X69434015Y-58651912D01*
X69432448Y-58649198D01*
X69431823Y-58646621D01*
X69430905Y-58644405D01*
X69431250Y-58644261D01*
X69415975Y-58581301D01*
X69421351Y-58550627D01*
X69425467Y-58537290D01*
X69434014Y-58522488D01*
X69457900Y-58433344D01*
X69457900Y-58432216D01*
X69460873Y-58422585D01*
X69478929Y-58395322D01*
X69495947Y-58367403D01*
X69498255Y-58366142D01*
X69499454Y-58364333D01*
X69510358Y-58359534D01*
X69547264Y-58339382D01*
X69553541Y-58337700D01*
X69553544Y-58337700D01*
X69642688Y-58313814D01*
X69645392Y-58312252D01*
X69647965Y-58311628D01*
X69650199Y-58310703D01*
X69650343Y-58311051D01*
X69713290Y-58295775D01*
X69764554Y-58310826D01*
X69764605Y-58310705D01*
X69765731Y-58311171D01*
X69769398Y-58312248D01*
X69772112Y-58313815D01*
X69861256Y-58337701D01*
X69861258Y-58337701D01*
X69953542Y-58337701D01*
X69953544Y-58337701D01*
X70042688Y-58313815D01*
X70045391Y-58312254D01*
X70047963Y-58311629D01*
X70050199Y-58310704D01*
X70050343Y-58311052D01*
X70113287Y-58295775D01*
X70164547Y-58310825D01*
X70164598Y-58310702D01*
X70165743Y-58311176D01*
X70169406Y-58312251D01*
X70172112Y-58313814D01*
X70261256Y-58337700D01*
X70261258Y-58337700D01*
X70353542Y-58337700D01*
X70353544Y-58337700D01*
X70442688Y-58313814D01*
X70445392Y-58312253D01*
X70445397Y-58312250D01*
X70447973Y-58311624D01*
X70450199Y-58310703D01*
X70450342Y-58311049D01*
X70513296Y-58295775D01*
X70564550Y-58310825D01*
X70564601Y-58310703D01*
X70565736Y-58311173D01*
X70569403Y-58312250D01*
X70569406Y-58312252D01*
X70572112Y-58313814D01*
X70661256Y-58337700D01*
X70661258Y-58337700D01*
X70753542Y-58337700D01*
X70753544Y-58337700D01*
X70842688Y-58313814D01*
X70845391Y-58312253D01*
X70847963Y-58311628D01*
X70850199Y-58310703D01*
X70850343Y-58311051D01*
X70913287Y-58295774D01*
X70964555Y-58310825D01*
X70964606Y-58310704D01*
X70965733Y-58311170D01*
X70969399Y-58312247D01*
X70972113Y-58313814D01*
X71061257Y-58337700D01*
X71061259Y-58337700D01*
X71153543Y-58337700D01*
X71153545Y-58337700D01*
X71242689Y-58313814D01*
X71245393Y-58312252D01*
X71247966Y-58311628D01*
X71250200Y-58310703D01*
X71250344Y-58311051D01*
X71313291Y-58295775D01*
X71364548Y-58310826D01*
X71364600Y-58310703D01*
X71365746Y-58311177D01*
X71369406Y-58312252D01*
X71372111Y-58313814D01*
X71461255Y-58337700D01*
X71461257Y-58337700D01*
X71553541Y-58337700D01*
X71553543Y-58337700D01*
X71642687Y-58313814D01*
X71645390Y-58312253D01*
X71647962Y-58311628D01*
X71650198Y-58310703D01*
X71650342Y-58311051D01*
X71657059Y-58309420D01*
X71666845Y-58302453D01*
X71690386Y-58301332D01*
X71713286Y-58295774D01*
X71726380Y-58299618D01*
G37*
%TD.AperFunction*%
%TA.AperFunction,Conductor*%
G36*
X66770439Y-38095185D02*
G01*
X66816194Y-38147989D01*
X66827400Y-38199500D01*
X66827400Y-39369000D01*
X68327400Y-39369000D01*
X68327400Y-38199500D01*
X68347085Y-38132461D01*
X68399889Y-38086706D01*
X68451400Y-38075500D01*
X77903400Y-38075500D01*
X77970439Y-38095185D01*
X78016194Y-38147989D01*
X78027400Y-38199500D01*
X78027400Y-39369000D01*
X79527400Y-39369000D01*
X79527400Y-38199500D01*
X79529950Y-38190814D01*
X79528662Y-38181853D01*
X79539640Y-38157812D01*
X79547085Y-38132461D01*
X79553925Y-38126533D01*
X79557687Y-38118297D01*
X79579921Y-38104007D01*
X79599889Y-38086706D01*
X79610403Y-38084418D01*
X79616465Y-38080523D01*
X79651400Y-38075500D01*
X79659800Y-38075500D01*
X79726839Y-38095185D01*
X79772594Y-38147989D01*
X79783800Y-38199500D01*
X79783800Y-39861000D01*
X82083800Y-39861000D01*
X82083800Y-38199500D01*
X82103485Y-38132461D01*
X82156289Y-38086706D01*
X82207800Y-38075500D01*
X90359800Y-38075500D01*
X90426839Y-38095185D01*
X90472594Y-38147989D01*
X90483800Y-38199500D01*
X90483800Y-39861000D01*
X92783800Y-39861000D01*
X92783800Y-38199500D01*
X92803485Y-38132461D01*
X92856289Y-38086706D01*
X92907800Y-38075500D01*
X97975469Y-38075500D01*
X97995933Y-38075500D01*
X98004042Y-38075765D01*
X98027909Y-38077329D01*
X98243102Y-38091433D01*
X98259165Y-38093548D01*
X98490136Y-38139492D01*
X98505779Y-38143683D01*
X98728787Y-38219384D01*
X98743754Y-38225584D01*
X98948419Y-38326513D01*
X98954960Y-38329739D01*
X98969006Y-38337849D01*
X99164802Y-38468675D01*
X99177671Y-38478549D01*
X99354716Y-38633814D01*
X99366185Y-38645283D01*
X99521450Y-38822328D01*
X99531324Y-38835197D01*
X99662150Y-39030993D01*
X99670260Y-39045039D01*
X99774412Y-39256238D01*
X99780617Y-39271220D01*
X99853291Y-39485310D01*
X99856311Y-39494204D01*
X99860509Y-39509872D01*
X99906449Y-39740825D01*
X99908567Y-39756906D01*
X99924235Y-39995956D01*
X99924500Y-40004066D01*
X99924500Y-46693800D01*
X99904815Y-46760839D01*
X99852011Y-46806594D01*
X99800500Y-46817800D01*
X98246600Y-46817800D01*
X98246600Y-48817800D01*
X99800500Y-48817800D01*
X99867539Y-48837485D01*
X99913294Y-48890289D01*
X99924500Y-48941800D01*
X99924500Y-55553800D01*
X99904815Y-55620839D01*
X99852011Y-55666594D01*
X99800500Y-55677800D01*
X98246600Y-55677800D01*
X98246600Y-57677800D01*
X99800500Y-57677800D01*
X99867539Y-57697485D01*
X99913294Y-57750289D01*
X99924500Y-57801800D01*
X99924500Y-65995933D01*
X99924235Y-66004042D01*
X99924235Y-66004043D01*
X99908567Y-66243093D01*
X99906449Y-66259174D01*
X99860509Y-66490127D01*
X99856311Y-66505793D01*
X99850505Y-66522900D01*
X99780619Y-66728776D01*
X99774412Y-66743761D01*
X99670260Y-66954960D01*
X99662150Y-66969006D01*
X99531324Y-67164802D01*
X99521450Y-67177671D01*
X99366185Y-67354716D01*
X99354716Y-67366185D01*
X99177671Y-67521450D01*
X99164802Y-67531324D01*
X98969006Y-67662150D01*
X98954960Y-67670260D01*
X98743761Y-67774412D01*
X98728776Y-67780619D01*
X98505795Y-67856311D01*
X98490127Y-67860509D01*
X98259174Y-67906449D01*
X98243093Y-67908567D01*
X98004043Y-67924235D01*
X97995933Y-67924500D01*
X62004067Y-67924500D01*
X61995957Y-67924235D01*
X61756906Y-67908567D01*
X61740825Y-67906449D01*
X61509872Y-67860509D01*
X61494210Y-67856312D01*
X61271220Y-67780617D01*
X61256238Y-67774412D01*
X61045039Y-67670260D01*
X61030993Y-67662150D01*
X60835197Y-67531324D01*
X60822328Y-67521450D01*
X60645283Y-67366185D01*
X60633814Y-67354716D01*
X60478549Y-67177671D01*
X60468675Y-67164802D01*
X60337849Y-66969006D01*
X60329739Y-66954960D01*
X60302058Y-66898828D01*
X60225584Y-66743754D01*
X60219384Y-66728787D01*
X60173371Y-66593238D01*
X71836201Y-66593238D01*
X71842281Y-66649806D01*
X71890013Y-66777780D01*
X71890015Y-66777783D01*
X71971870Y-66887128D01*
X72081215Y-66968983D01*
X72081216Y-66968984D01*
X72209191Y-67016716D01*
X72209194Y-67016717D01*
X72265755Y-67022798D01*
X72411199Y-67022798D01*
X72411200Y-67022797D01*
X72411200Y-66422799D01*
X71836201Y-66422799D01*
X71836201Y-66593238D01*
X60173371Y-66593238D01*
X60143683Y-66505779D01*
X60139492Y-66490136D01*
X60093548Y-66259165D01*
X60091433Y-66243102D01*
X60075765Y-66004042D01*
X60075500Y-65995933D01*
X60075500Y-64796438D01*
X61467700Y-64796438D01*
X61467700Y-65048362D01*
X61504976Y-65283711D01*
X61507110Y-65297185D01*
X61584960Y-65536783D01*
X61699332Y-65761248D01*
X61847401Y-65965049D01*
X61847405Y-65965054D01*
X62025545Y-66143194D01*
X62025550Y-66143198D01*
X62196430Y-66267349D01*
X62229355Y-66291270D01*
X62372384Y-66364147D01*
X62453816Y-66405639D01*
X62453818Y-66405639D01*
X62453821Y-66405641D01*
X62693415Y-66483490D01*
X62942238Y-66522900D01*
X62942239Y-66522900D01*
X63194161Y-66522900D01*
X63194162Y-66522900D01*
X63442985Y-66483490D01*
X63682579Y-66405641D01*
X63907045Y-66291270D01*
X63934782Y-66271118D01*
X63934784Y-66271117D01*
X64110849Y-66143198D01*
X64110847Y-66143198D01*
X64110856Y-66143193D01*
X64288993Y-65965056D01*
X64437070Y-65761245D01*
X64551441Y-65536779D01*
X64629290Y-65297185D01*
X64668700Y-65048362D01*
X64668700Y-64916839D01*
X71823201Y-64916839D01*
X71829281Y-64973407D01*
X71877013Y-65101381D01*
X71877015Y-65101384D01*
X71958870Y-65210729D01*
X72068215Y-65292584D01*
X72068216Y-65292585D01*
X72196185Y-65340315D01*
X72197865Y-65340712D01*
X72199035Y-65341378D01*
X72203461Y-65343029D01*
X72203193Y-65343745D01*
X72258584Y-65375280D01*
X72290976Y-65437188D01*
X72284756Y-65506780D01*
X72241899Y-65561962D01*
X72212695Y-65577574D01*
X72081217Y-65626613D01*
X72081215Y-65626614D01*
X71971870Y-65708469D01*
X71890015Y-65817814D01*
X71890014Y-65817815D01*
X71842283Y-65945788D01*
X71836200Y-66002370D01*
X71836200Y-66172799D01*
X72411200Y-66172799D01*
X72411200Y-65572799D01*
X72379181Y-65540781D01*
X72365608Y-65515925D01*
X72349366Y-65492731D01*
X72349085Y-65485664D01*
X72345696Y-65479458D01*
X72347715Y-65451214D01*
X72346591Y-65422917D01*
X72350194Y-65416559D01*
X72350680Y-65409766D01*
X72364536Y-65391255D01*
X72379181Y-65365418D01*
X72398200Y-65346399D01*
X72398200Y-64746400D01*
X71823201Y-64746400D01*
X71823201Y-64916839D01*
X64668700Y-64916839D01*
X64668700Y-64796438D01*
X64629290Y-64547615D01*
X64557273Y-64325971D01*
X71823200Y-64325971D01*
X71823200Y-64496400D01*
X72398200Y-64496400D01*
X72398200Y-63896400D01*
X72252766Y-63896400D01*
X72252759Y-63896401D01*
X72196192Y-63902481D01*
X72068218Y-63950213D01*
X72068215Y-63950215D01*
X71958870Y-64032070D01*
X71877015Y-64141415D01*
X71877014Y-64141416D01*
X71829283Y-64269389D01*
X71823200Y-64325971D01*
X64557273Y-64325971D01*
X64551441Y-64308021D01*
X64551439Y-64308018D01*
X64551439Y-64308016D01*
X64509947Y-64226584D01*
X64437070Y-64083555D01*
X64339809Y-63949686D01*
X64288998Y-63879750D01*
X64288994Y-63879745D01*
X64110854Y-63701605D01*
X64110849Y-63701601D01*
X63907048Y-63553532D01*
X63907047Y-63553531D01*
X63907045Y-63553530D01*
X63799127Y-63498543D01*
X63682583Y-63439160D01*
X63442985Y-63361310D01*
X63293912Y-63337699D01*
X63194162Y-63321900D01*
X62942238Y-63321900D01*
X62856372Y-63335500D01*
X62693414Y-63361310D01*
X62453816Y-63439160D01*
X62229351Y-63553532D01*
X62025550Y-63701601D01*
X62025545Y-63701605D01*
X61847405Y-63879745D01*
X61847401Y-63879750D01*
X61699332Y-64083551D01*
X61584960Y-64308016D01*
X61515562Y-64521602D01*
X61507110Y-64547615D01*
X61467700Y-64796438D01*
X60075500Y-64796438D01*
X60075500Y-60612239D01*
X66350201Y-60612239D01*
X66356281Y-60668807D01*
X66404013Y-60796781D01*
X66404015Y-60796784D01*
X66485870Y-60906129D01*
X66595215Y-60987984D01*
X66595216Y-60987985D01*
X66723191Y-61035717D01*
X66723194Y-61035718D01*
X66779755Y-61041799D01*
X66950199Y-61041799D01*
X67200200Y-61041799D01*
X67370633Y-61041799D01*
X67370639Y-61041798D01*
X67427207Y-61035718D01*
X67555181Y-60987986D01*
X67555184Y-60987984D01*
X67664529Y-60906129D01*
X67746384Y-60796784D01*
X67746385Y-60796783D01*
X67794116Y-60668810D01*
X67800199Y-60612228D01*
X67800200Y-60612227D01*
X67800200Y-60466800D01*
X67200200Y-60466800D01*
X67200200Y-61041799D01*
X66950199Y-61041799D01*
X66950200Y-61041798D01*
X66950200Y-60466800D01*
X66350201Y-60466800D01*
X66350201Y-60612239D01*
X60075500Y-60612239D01*
X60075500Y-54799523D01*
X60095185Y-54732484D01*
X60147989Y-54686729D01*
X60217147Y-54676785D01*
X60280703Y-54705810D01*
X60287181Y-54711842D01*
X60312699Y-54737360D01*
X60312703Y-54737363D01*
X60435535Y-54819437D01*
X60435545Y-54819442D01*
X60572032Y-54875977D01*
X60572040Y-54875979D01*
X60716926Y-54904799D01*
X60716929Y-54904800D01*
X61065800Y-54904800D01*
X61065800Y-54454800D01*
X61315800Y-54454800D01*
X61315800Y-54904800D01*
X61664671Y-54904800D01*
X61664673Y-54904799D01*
X61809559Y-54875979D01*
X61809567Y-54875977D01*
X61946054Y-54819442D01*
X61946064Y-54819437D01*
X62068896Y-54737363D01*
X62068900Y-54737360D01*
X62173360Y-54632900D01*
X62173363Y-54632896D01*
X62255437Y-54510064D01*
X62255442Y-54510054D01*
X62311977Y-54373567D01*
X62311979Y-54373559D01*
X62330629Y-54279800D01*
X61865041Y-54279800D01*
X61870355Y-54270596D01*
X61890799Y-54194296D01*
X61890799Y-54115304D01*
X61870355Y-54039004D01*
X61865041Y-54029800D01*
X62330629Y-54029800D01*
X62330629Y-54029799D01*
X62311979Y-53936040D01*
X62311977Y-53936032D01*
X62255442Y-53799545D01*
X62255437Y-53799535D01*
X62173363Y-53676703D01*
X62173360Y-53676699D01*
X62068900Y-53572239D01*
X62068896Y-53572236D01*
X61946064Y-53490162D01*
X61946054Y-53490157D01*
X61809567Y-53433622D01*
X61809559Y-53433620D01*
X61664672Y-53404800D01*
X61315800Y-53404800D01*
X61315800Y-53854800D01*
X61065800Y-53854800D01*
X61065800Y-53404800D01*
X60716928Y-53404800D01*
X60572040Y-53433620D01*
X60572032Y-53433622D01*
X60435545Y-53490157D01*
X60435535Y-53490162D01*
X60312703Y-53572236D01*
X60312699Y-53572239D01*
X60287181Y-53597758D01*
X60225858Y-53631243D01*
X60156166Y-53626259D01*
X60100233Y-53584387D01*
X60075816Y-53518923D01*
X60075500Y-53510077D01*
X60075500Y-49128256D01*
X62768500Y-49128256D01*
X62768500Y-56459543D01*
X62791406Y-56545032D01*
X62791415Y-56545063D01*
X62792386Y-56548689D01*
X62838527Y-56628608D01*
X62838531Y-56628613D01*
X63372982Y-57163064D01*
X63406467Y-57224387D01*
X63409301Y-57250745D01*
X63409301Y-57447782D01*
X63420219Y-57522718D01*
X63420219Y-57522719D01*
X63420220Y-57522721D01*
X63476722Y-57638299D01*
X63482694Y-57646663D01*
X63479370Y-57649036D01*
X63503126Y-57692542D01*
X63498142Y-57762234D01*
X63456270Y-57818167D01*
X63390806Y-57842584D01*
X63381960Y-57842900D01*
X63361199Y-57842900D01*
X63280575Y-57864503D01*
X63240263Y-57875305D01*
X63131837Y-57937904D01*
X63131834Y-57937906D01*
X63043306Y-58026434D01*
X63043304Y-58026437D01*
X62980705Y-58134863D01*
X62980705Y-58134864D01*
X62948300Y-58255799D01*
X62948300Y-58381001D01*
X62980705Y-58501936D01*
X63043305Y-58610364D01*
X63131836Y-58698895D01*
X63240264Y-58761495D01*
X63361199Y-58793900D01*
X63361201Y-58793900D01*
X63486399Y-58793900D01*
X63486401Y-58793900D01*
X63607336Y-58761495D01*
X63715764Y-58698895D01*
X63715770Y-58698888D01*
X63721457Y-58694526D01*
X63786625Y-58669330D01*
X63796946Y-58668900D01*
X65349542Y-58668900D01*
X65349544Y-58668900D01*
X65438688Y-58645014D01*
X65518612Y-58598870D01*
X65990269Y-58127212D01*
X66036414Y-58047288D01*
X66044064Y-58018736D01*
X66060300Y-57958144D01*
X66060300Y-57219544D01*
X66079985Y-57152505D01*
X66096619Y-57131863D01*
X66402863Y-56825619D01*
X66429790Y-56810915D01*
X66455609Y-56794323D01*
X66461809Y-56793431D01*
X66464186Y-56792134D01*
X66490544Y-56789300D01*
X66583500Y-56789300D01*
X66650539Y-56808985D01*
X66696294Y-56861789D01*
X66707500Y-56913300D01*
X66707500Y-57034801D01*
X66739905Y-57155736D01*
X66802505Y-57264164D01*
X66891036Y-57352695D01*
X66999464Y-57415295D01*
X67120399Y-57447700D01*
X67120403Y-57447700D01*
X67123594Y-57448555D01*
X67183254Y-57484920D01*
X67213783Y-57547767D01*
X67215470Y-57567974D01*
X67215499Y-57568198D01*
X67240981Y-57663296D01*
X67247905Y-57689136D01*
X67309758Y-57796271D01*
X67310504Y-57797562D01*
X67310506Y-57797565D01*
X67392560Y-57879619D01*
X67426045Y-57940942D01*
X67421061Y-58010634D01*
X67379189Y-58066567D01*
X67313725Y-58090984D01*
X67304879Y-58091300D01*
X66779718Y-58091300D01*
X66779709Y-58091301D01*
X66723085Y-58097387D01*
X66594973Y-58145172D01*
X66485513Y-58227113D01*
X66403573Y-58336571D01*
X66355787Y-58464689D01*
X66349700Y-58521298D01*
X66349700Y-59062281D01*
X66349701Y-59062290D01*
X66355787Y-59118914D01*
X66400924Y-59239926D01*
X66403572Y-59247026D01*
X66485513Y-59356487D01*
X66594974Y-59438428D01*
X66628374Y-59450885D01*
X66684305Y-59492756D01*
X66708722Y-59558220D01*
X66693870Y-59626493D01*
X66644465Y-59675898D01*
X66628372Y-59683247D01*
X66595223Y-59695611D01*
X66595215Y-59695615D01*
X66485870Y-59777470D01*
X66404015Y-59886815D01*
X66404014Y-59886816D01*
X66356283Y-60014789D01*
X66350200Y-60071371D01*
X66350200Y-60216800D01*
X67800199Y-60216800D01*
X67800199Y-60071366D01*
X67800198Y-60071360D01*
X67794118Y-60014792D01*
X67746386Y-59886818D01*
X67746384Y-59886815D01*
X67664529Y-59777470D01*
X67555184Y-59695615D01*
X67555183Y-59695614D01*
X67522027Y-59683248D01*
X67466094Y-59641376D01*
X67441677Y-59575912D01*
X67456529Y-59507639D01*
X67505934Y-59458234D01*
X67522016Y-59450889D01*
X67555426Y-59438428D01*
X67664887Y-59356487D01*
X67746828Y-59247026D01*
X67746828Y-59247025D01*
X67752143Y-59239926D01*
X67754105Y-59241394D01*
X67759082Y-59230497D01*
X67777705Y-59218528D01*
X67793358Y-59202873D01*
X67807804Y-59199185D01*
X67817860Y-59192723D01*
X67852795Y-59187700D01*
X68050039Y-59187700D01*
X68117078Y-59207385D01*
X68162833Y-59260189D01*
X68169814Y-59279606D01*
X68181252Y-59322294D01*
X68182640Y-59324698D01*
X68183194Y-59326984D01*
X68184363Y-59329805D01*
X68183923Y-59329987D01*
X68199113Y-59392598D01*
X68182645Y-59448691D01*
X68180788Y-59451907D01*
X68180786Y-59451912D01*
X68156900Y-59541056D01*
X68156900Y-59633343D01*
X68180786Y-59722490D01*
X68182352Y-59725201D01*
X68182977Y-59727779D01*
X68183898Y-59730002D01*
X68183551Y-59730145D01*
X68198823Y-59793102D01*
X68183776Y-59844353D01*
X68183897Y-59844403D01*
X68183433Y-59845521D01*
X68182357Y-59849189D01*
X68180790Y-59851902D01*
X68180786Y-59851913D01*
X68156900Y-59941057D01*
X68156900Y-60033344D01*
X68180787Y-60122491D01*
X68180788Y-60122494D01*
X68182353Y-60125205D01*
X68182977Y-60127781D01*
X68183898Y-60130003D01*
X68183551Y-60130146D01*
X68198822Y-60193106D01*
X68183776Y-60244346D01*
X68183898Y-60244397D01*
X68183430Y-60245526D01*
X68182353Y-60249195D01*
X68180788Y-60251905D01*
X68180787Y-60251908D01*
X68156900Y-60341055D01*
X68156900Y-60433342D01*
X68180786Y-60522489D01*
X68182352Y-60525200D01*
X68182977Y-60527778D01*
X68183898Y-60530001D01*
X68183551Y-60530144D01*
X68198823Y-60593101D01*
X68183776Y-60644352D01*
X68183897Y-60644402D01*
X68183433Y-60645520D01*
X68182357Y-60649188D01*
X68180790Y-60651901D01*
X68180786Y-60651912D01*
X68156900Y-60741056D01*
X68156900Y-60833343D01*
X68180786Y-60922490D01*
X68182352Y-60925201D01*
X68182977Y-60927779D01*
X68183898Y-60930002D01*
X68183551Y-60930145D01*
X68198823Y-60993102D01*
X68183776Y-61044347D01*
X68183898Y-61044398D01*
X68183429Y-61045529D01*
X68182352Y-61049199D01*
X68180786Y-61051909D01*
X68164093Y-61114211D01*
X68156900Y-61141056D01*
X68156900Y-61233344D01*
X68179527Y-61317790D01*
X68180787Y-61322490D01*
X68180787Y-61322491D01*
X68182355Y-61325207D01*
X68182980Y-61327787D01*
X68183898Y-61330002D01*
X68183552Y-61330145D01*
X68198823Y-61393108D01*
X68183777Y-61444352D01*
X68183898Y-61444402D01*
X68183434Y-61445520D01*
X68182357Y-61449191D01*
X68180789Y-61451905D01*
X68180787Y-61451912D01*
X68156901Y-61541056D01*
X68156901Y-61633344D01*
X68180786Y-61722486D01*
X68180788Y-61722490D01*
X68180789Y-61722493D01*
X68182354Y-61725204D01*
X68182978Y-61727780D01*
X68183899Y-61730002D01*
X68183552Y-61730145D01*
X68198823Y-61793105D01*
X68183776Y-61844352D01*
X68183897Y-61844402D01*
X68183433Y-61845520D01*
X68182357Y-61849188D01*
X68180790Y-61851901D01*
X68180786Y-61851912D01*
X68156900Y-61941056D01*
X68156900Y-62033344D01*
X68178175Y-62112744D01*
X68180787Y-62122490D01*
X68180788Y-62122493D01*
X68226926Y-62202405D01*
X68226929Y-62202409D01*
X68226931Y-62202412D01*
X68292188Y-62267669D01*
X68292191Y-62267670D01*
X68292194Y-62267673D01*
X68372106Y-62313811D01*
X68372107Y-62313811D01*
X68372112Y-62313814D01*
X68461256Y-62337700D01*
X68461258Y-62337700D01*
X69032900Y-62337700D01*
X69099939Y-62357385D01*
X69145694Y-62410189D01*
X69156900Y-62461700D01*
X69156900Y-63033344D01*
X69159167Y-63041806D01*
X69180787Y-63122490D01*
X69180788Y-63122493D01*
X69226926Y-63202405D01*
X69226929Y-63202409D01*
X69226931Y-63202412D01*
X69292188Y-63267669D01*
X69292191Y-63267670D01*
X69292194Y-63267673D01*
X69372106Y-63313811D01*
X69372107Y-63313811D01*
X69372112Y-63313814D01*
X69461256Y-63337700D01*
X69461258Y-63337700D01*
X69553542Y-63337700D01*
X69553544Y-63337700D01*
X69642688Y-63313814D01*
X69645391Y-63312253D01*
X69647963Y-63311628D01*
X69650199Y-63310703D01*
X69650343Y-63311051D01*
X69713287Y-63295774D01*
X69764547Y-63310824D01*
X69764598Y-63310701D01*
X69765743Y-63311175D01*
X69769406Y-63312250D01*
X69772112Y-63313813D01*
X69861256Y-63337699D01*
X69861258Y-63337699D01*
X69953542Y-63337699D01*
X69953544Y-63337699D01*
X70042688Y-63313813D01*
X70045392Y-63312251D01*
X70047965Y-63311627D01*
X70050199Y-63310702D01*
X70050343Y-63311050D01*
X70113290Y-63295774D01*
X70164554Y-63310825D01*
X70164605Y-63310704D01*
X70165731Y-63311170D01*
X70169398Y-63312247D01*
X70172112Y-63313814D01*
X70261256Y-63337700D01*
X70261258Y-63337700D01*
X70353542Y-63337700D01*
X70353544Y-63337700D01*
X70442688Y-63313814D01*
X70445392Y-63312253D01*
X70445397Y-63312250D01*
X70447973Y-63311624D01*
X70450199Y-63310703D01*
X70450342Y-63311049D01*
X70513296Y-63295775D01*
X70564550Y-63310825D01*
X70564601Y-63310703D01*
X70565736Y-63311173D01*
X70569403Y-63312250D01*
X70572108Y-63313812D01*
X70572112Y-63313814D01*
X70661256Y-63337700D01*
X70661258Y-63337700D01*
X70753542Y-63337700D01*
X70753544Y-63337700D01*
X70842688Y-63313814D01*
X70845391Y-63312253D01*
X70847963Y-63311628D01*
X70850199Y-63310703D01*
X70850343Y-63311051D01*
X70913287Y-63295774D01*
X70964555Y-63310825D01*
X70964606Y-63310704D01*
X70965733Y-63311170D01*
X70969399Y-63312247D01*
X70972113Y-63313814D01*
X71061257Y-63337700D01*
X71061259Y-63337700D01*
X71153543Y-63337700D01*
X71153545Y-63337700D01*
X71242689Y-63313814D01*
X71245393Y-63312252D01*
X71247966Y-63311628D01*
X71250200Y-63310703D01*
X71250344Y-63311051D01*
X71313291Y-63295775D01*
X71364548Y-63310826D01*
X71364600Y-63310703D01*
X71365746Y-63311177D01*
X71369406Y-63312252D01*
X71372111Y-63313814D01*
X71461255Y-63337700D01*
X71461257Y-63337700D01*
X71553541Y-63337700D01*
X71553543Y-63337700D01*
X71642687Y-63313814D01*
X71645390Y-63312253D01*
X71647962Y-63311628D01*
X71650198Y-63310703D01*
X71650342Y-63311051D01*
X71713286Y-63295774D01*
X71764554Y-63310825D01*
X71764605Y-63310704D01*
X71765732Y-63311170D01*
X71769398Y-63312247D01*
X71772112Y-63313814D01*
X71861256Y-63337700D01*
X71861258Y-63337700D01*
X71953542Y-63337700D01*
X71953544Y-63337700D01*
X72042688Y-63313814D01*
X72045392Y-63312253D01*
X72045397Y-63312250D01*
X72047973Y-63311624D01*
X72050199Y-63310703D01*
X72050342Y-63311049D01*
X72113296Y-63295775D01*
X72164550Y-63310825D01*
X72164601Y-63310703D01*
X72165736Y-63311173D01*
X72169403Y-63312250D01*
X72172108Y-63313812D01*
X72172112Y-63313814D01*
X72261256Y-63337700D01*
X72261258Y-63337700D01*
X72353542Y-63337700D01*
X72353544Y-63337700D01*
X72442688Y-63313814D01*
X72445391Y-63312253D01*
X72447963Y-63311628D01*
X72450199Y-63310703D01*
X72450343Y-63311051D01*
X72513287Y-63295774D01*
X72564547Y-63310824D01*
X72564598Y-63310701D01*
X72565743Y-63311175D01*
X72569406Y-63312250D01*
X72572112Y-63313813D01*
X72661256Y-63337699D01*
X72661258Y-63337699D01*
X72753542Y-63337699D01*
X72753544Y-63337699D01*
X72842688Y-63313813D01*
X72845392Y-63312251D01*
X72847965Y-63311627D01*
X72850199Y-63310702D01*
X72850343Y-63311050D01*
X72913290Y-63295774D01*
X72944570Y-63301336D01*
X72957580Y-63305424D01*
X72972112Y-63313814D01*
X73054768Y-63335961D01*
X73057271Y-63336748D01*
X73084189Y-63354773D01*
X73111854Y-63371636D01*
X73113051Y-63374100D01*
X73115326Y-63375624D01*
X73128225Y-63405338D01*
X73142383Y-63434483D01*
X73142741Y-63438776D01*
X73143149Y-63439715D01*
X73142931Y-63441049D01*
X73144100Y-63455046D01*
X73144100Y-63833504D01*
X73124415Y-63900543D01*
X73071611Y-63946298D01*
X73002453Y-63956242D01*
X72976766Y-63949686D01*
X72850210Y-63902483D01*
X72793628Y-63896400D01*
X72648200Y-63896400D01*
X72648200Y-65346399D01*
X72680219Y-65378418D01*
X72693788Y-65403269D01*
X72710034Y-65426467D01*
X72710314Y-65433534D01*
X72713704Y-65439741D01*
X72711684Y-65467983D01*
X72712809Y-65496281D01*
X72709224Y-65502377D01*
X72708720Y-65509433D01*
X72680219Y-65553780D01*
X72661200Y-65572799D01*
X72661200Y-67022798D01*
X72806633Y-67022798D01*
X72806639Y-67022797D01*
X72863207Y-67016717D01*
X72991181Y-66968985D01*
X72991184Y-66968983D01*
X73025000Y-66943669D01*
X73090464Y-66919251D01*
X73158737Y-66934102D01*
X73208141Y-66983503D01*
X73211665Y-66989956D01*
X73211673Y-66989969D01*
X73255249Y-67048180D01*
X73255265Y-67048198D01*
X73384739Y-67177671D01*
X73512815Y-67305747D01*
X73533165Y-67324026D01*
X73533171Y-67324031D01*
X73533179Y-67324038D01*
X73553800Y-67340655D01*
X73553802Y-67340656D01*
X73553807Y-67340660D01*
X73642138Y-67386865D01*
X73709177Y-67406550D01*
X73709181Y-67406550D01*
X73709183Y-67406551D01*
X73720814Y-67408223D01*
X73781162Y-67416900D01*
X73781163Y-67416900D01*
X77209039Y-67416900D01*
X77210475Y-67416822D01*
X77236352Y-67415436D01*
X77262710Y-67412602D01*
X77357844Y-67382813D01*
X77419167Y-67349328D01*
X77477385Y-67305747D01*
X77760347Y-67022785D01*
X77778626Y-67002435D01*
X77795260Y-66981793D01*
X77841465Y-66893462D01*
X77861150Y-66826423D01*
X77871500Y-66754438D01*
X77871500Y-63907200D01*
X77865661Y-63852887D01*
X77854455Y-63801376D01*
X77847219Y-63775002D01*
X77831551Y-63747487D01*
X77797894Y-63688381D01*
X77797890Y-63688376D01*
X77797888Y-63688372D01*
X77752133Y-63635568D01*
X77719359Y-63603943D01*
X77631024Y-63557735D01*
X77631023Y-63557734D01*
X77631022Y-63557734D01*
X77631022Y-63557733D01*
X77580129Y-63542790D01*
X77521351Y-63505015D01*
X77492326Y-63441459D01*
X77502270Y-63372301D01*
X77546172Y-63320711D01*
X77606802Y-63280201D01*
X77662167Y-63197340D01*
X77676701Y-63124274D01*
X77676701Y-61444926D01*
X77676701Y-61444923D01*
X77676700Y-61444921D01*
X77662168Y-61371864D01*
X77662167Y-61371860D01*
X77606802Y-61288999D01*
X77523941Y-61233634D01*
X77523940Y-61233633D01*
X77523936Y-61233632D01*
X77450878Y-61219100D01*
X77450875Y-61219100D01*
X75838773Y-61219100D01*
X75806680Y-61214875D01*
X75747356Y-61198979D01*
X75701527Y-61186700D01*
X75701526Y-61186700D01*
X75422862Y-61186700D01*
X75402707Y-61180781D01*
X75381728Y-61179679D01*
X75369854Y-61171135D01*
X75355823Y-61167015D01*
X75342068Y-61151142D01*
X75325014Y-61138870D01*
X75319644Y-61125262D01*
X75310068Y-61114211D01*
X75307078Y-61093419D01*
X75299367Y-61073878D01*
X75302205Y-61059530D01*
X75300124Y-61045053D01*
X75308850Y-61025943D01*
X75310937Y-61015399D01*
X81491900Y-61015399D01*
X81491900Y-65898203D01*
X81497738Y-65952513D01*
X81508943Y-66004019D01*
X81508946Y-66004028D01*
X81516179Y-66030393D01*
X81516183Y-66030404D01*
X81565505Y-66117019D01*
X81565510Y-66117026D01*
X81565512Y-66117029D01*
X81581981Y-66136035D01*
X81611263Y-66169829D01*
X81611266Y-66169832D01*
X81611267Y-66169833D01*
X81644041Y-66201458D01*
X81732376Y-66247666D01*
X81732377Y-66247666D01*
X81732377Y-66247667D01*
X81782505Y-66262385D01*
X81799415Y-66267351D01*
X81799419Y-66267351D01*
X81799421Y-66267352D01*
X81811052Y-66269024D01*
X81871400Y-66277701D01*
X81871401Y-66277701D01*
X85552525Y-66277701D01*
X85583803Y-66275562D01*
X85587280Y-66275325D01*
X85620708Y-66270734D01*
X85628125Y-66269604D01*
X85721349Y-66234280D01*
X85780600Y-66197252D01*
X85836159Y-66150326D01*
X85971042Y-65998581D01*
X85983644Y-65983243D01*
X85995281Y-65967901D01*
X85995282Y-65967898D01*
X85996350Y-65966188D01*
X86002030Y-65956394D01*
X86006087Y-65950252D01*
X86006088Y-65950253D01*
X86012707Y-65940235D01*
X86017603Y-65932529D01*
X86029562Y-65899945D01*
X86036871Y-65885459D01*
X86038071Y-65881371D01*
X86036545Y-65880923D01*
X86051954Y-65838943D01*
X86052331Y-65836537D01*
X86055865Y-65820771D01*
X86056549Y-65818443D01*
X86066900Y-65746456D01*
X86066900Y-63801798D01*
X86333100Y-63801798D01*
X86333100Y-66627202D01*
X86338938Y-66681512D01*
X86350143Y-66733018D01*
X86350146Y-66733027D01*
X86357379Y-66759392D01*
X86357383Y-66759403D01*
X86406705Y-66846018D01*
X86406710Y-66846025D01*
X86406712Y-66846028D01*
X86433180Y-66876574D01*
X86452463Y-66898828D01*
X86452466Y-66898831D01*
X86452467Y-66898832D01*
X86485241Y-66930457D01*
X86573576Y-66976665D01*
X86573577Y-66976665D01*
X86573577Y-66976666D01*
X86618877Y-66989967D01*
X86640615Y-66996350D01*
X86640619Y-66996350D01*
X86640621Y-66996351D01*
X86652252Y-66998023D01*
X86712600Y-67006700D01*
X86712601Y-67006700D01*
X91112800Y-67006700D01*
X91167113Y-67000861D01*
X91218624Y-66989655D01*
X91244998Y-66982419D01*
X91313047Y-66943669D01*
X91331618Y-66933094D01*
X91331619Y-66933092D01*
X91331628Y-66933088D01*
X91384432Y-66887333D01*
X91416057Y-66854559D01*
X91462265Y-66766224D01*
X91464270Y-66759398D01*
X91473261Y-66728776D01*
X91481950Y-66699185D01*
X91492300Y-66627200D01*
X91492300Y-66623186D01*
X91511985Y-66556147D01*
X91564789Y-66510392D01*
X91633947Y-66500448D01*
X91697503Y-66529473D01*
X91715567Y-66548876D01*
X91762468Y-66611529D01*
X91871815Y-66693385D01*
X91871816Y-66693386D01*
X91999791Y-66741118D01*
X91999794Y-66741119D01*
X92056355Y-66747200D01*
X92201799Y-66747200D01*
X92451800Y-66747200D01*
X92597233Y-66747200D01*
X92597239Y-66747199D01*
X92653807Y-66741119D01*
X92781781Y-66693387D01*
X92781784Y-66693385D01*
X92891129Y-66611530D01*
X92972984Y-66502185D01*
X92972985Y-66502184D01*
X93020716Y-66374211D01*
X93026799Y-66317629D01*
X93026800Y-66317628D01*
X93026800Y-66147201D01*
X92451800Y-66147201D01*
X92451800Y-66747200D01*
X92201799Y-66747200D01*
X92201800Y-66747199D01*
X92201800Y-65297200D01*
X92201681Y-65297082D01*
X92168195Y-65235760D01*
X92173179Y-65166068D01*
X92201681Y-65121718D01*
X92201798Y-65121601D01*
X92451799Y-65121601D01*
X92451918Y-65121720D01*
X92485403Y-65183043D01*
X92480419Y-65252735D01*
X92451919Y-65297081D01*
X92451800Y-65297200D01*
X92451800Y-65897201D01*
X93026799Y-65897201D01*
X93026799Y-65726767D01*
X93026798Y-65726761D01*
X93020718Y-65670193D01*
X92972986Y-65542219D01*
X92972984Y-65542216D01*
X92891129Y-65432871D01*
X92781784Y-65351016D01*
X92781783Y-65351015D01*
X92713596Y-65325583D01*
X92657663Y-65283711D01*
X92633246Y-65218247D01*
X92648098Y-65149974D01*
X92697503Y-65100569D01*
X92713597Y-65093219D01*
X92781780Y-65067788D01*
X92781783Y-65067786D01*
X92891128Y-64985931D01*
X92972983Y-64876586D01*
X92972984Y-64876585D01*
X92993404Y-64821838D01*
X95351300Y-64821838D01*
X95351300Y-65073762D01*
X95363371Y-65149974D01*
X95390710Y-65322585D01*
X95468560Y-65562183D01*
X95582932Y-65786648D01*
X95731001Y-65990449D01*
X95731005Y-65990454D01*
X95909145Y-66168594D01*
X95909150Y-66168598D01*
X96050258Y-66271118D01*
X96112955Y-66316670D01*
X96225886Y-66374211D01*
X96337416Y-66431039D01*
X96337418Y-66431039D01*
X96337421Y-66431041D01*
X96577015Y-66508890D01*
X96825838Y-66548300D01*
X96825839Y-66548300D01*
X97077761Y-66548300D01*
X97077762Y-66548300D01*
X97326585Y-66508890D01*
X97566179Y-66431041D01*
X97790645Y-66316670D01*
X97994456Y-66168593D01*
X98172593Y-65990456D01*
X98320670Y-65786645D01*
X98435041Y-65562179D01*
X98512890Y-65322585D01*
X98552300Y-65073762D01*
X98552300Y-64821838D01*
X98512890Y-64573015D01*
X98435041Y-64333421D01*
X98435039Y-64333418D01*
X98435039Y-64333416D01*
X98393547Y-64251984D01*
X98320670Y-64108955D01*
X98205339Y-63950215D01*
X98172598Y-63905150D01*
X98172594Y-63905145D01*
X97994454Y-63727005D01*
X97994449Y-63727001D01*
X97790648Y-63578932D01*
X97790647Y-63578931D01*
X97790645Y-63578930D01*
X97717504Y-63541663D01*
X97566183Y-63464560D01*
X97326585Y-63386710D01*
X97231412Y-63371636D01*
X97077762Y-63347300D01*
X96825838Y-63347300D01*
X96808160Y-63350100D01*
X96577014Y-63386710D01*
X96337416Y-63464560D01*
X96112951Y-63578932D01*
X95909150Y-63727001D01*
X95909145Y-63727005D01*
X95731005Y-63905145D01*
X95731001Y-63905150D01*
X95582932Y-64108951D01*
X95468560Y-64333416D01*
X95407415Y-64521602D01*
X95390710Y-64573015D01*
X95351300Y-64821838D01*
X92993404Y-64821838D01*
X93011384Y-64773632D01*
X93020715Y-64748612D01*
X93026798Y-64692030D01*
X93026799Y-64692029D01*
X93026799Y-64521602D01*
X92451799Y-64521602D01*
X92451799Y-65121601D01*
X92201798Y-65121601D01*
X92201799Y-65121600D01*
X92201799Y-64271602D01*
X92451799Y-64271602D01*
X93026798Y-64271602D01*
X93026798Y-64101168D01*
X93026797Y-64101162D01*
X93020717Y-64044594D01*
X92972985Y-63916620D01*
X92972983Y-63916617D01*
X92891128Y-63807272D01*
X92781783Y-63725417D01*
X92781782Y-63725416D01*
X92653809Y-63677685D01*
X92597227Y-63671602D01*
X92451799Y-63671602D01*
X92451799Y-64271602D01*
X92201799Y-64271602D01*
X92201799Y-63671602D01*
X92177070Y-63671602D01*
X92110031Y-63651917D01*
X92064276Y-63599113D01*
X92054332Y-63529955D01*
X92083357Y-63466399D01*
X92122609Y-63436201D01*
X92142502Y-63426477D01*
X92233476Y-63335503D01*
X92233478Y-63335500D01*
X92278287Y-63243841D01*
X92289982Y-63219919D01*
X92300900Y-63144983D01*
X92300900Y-62701819D01*
X92289982Y-62626883D01*
X92274249Y-62594701D01*
X92233478Y-62511301D01*
X92233476Y-62511298D01*
X92137007Y-62414829D01*
X92103522Y-62353506D01*
X92108506Y-62283814D01*
X92137007Y-62239467D01*
X92235062Y-62141411D01*
X92291495Y-62025975D01*
X92302399Y-61951136D01*
X92302399Y-61854601D01*
X91906399Y-61854601D01*
X91897713Y-61852050D01*
X91888752Y-61853339D01*
X91864711Y-61842360D01*
X91839360Y-61834916D01*
X91833432Y-61828075D01*
X91825196Y-61824314D01*
X91810906Y-61802079D01*
X91793605Y-61782112D01*
X91791317Y-61771597D01*
X91787422Y-61765536D01*
X91782399Y-61730601D01*
X91782399Y-61729601D01*
X91781399Y-61729601D01*
X91714360Y-61709916D01*
X91668605Y-61657112D01*
X91657399Y-61605601D01*
X91657399Y-61604601D01*
X91907399Y-61604601D01*
X92302398Y-61604601D01*
X92302398Y-61508061D01*
X92291495Y-61433226D01*
X92235062Y-61317790D01*
X92144209Y-61226937D01*
X92028773Y-61170504D01*
X91953935Y-61159601D01*
X91907399Y-61159601D01*
X91907399Y-61604601D01*
X91657399Y-61604601D01*
X91657399Y-61159601D01*
X91610864Y-61159601D01*
X91536025Y-61170504D01*
X91420590Y-61226936D01*
X91360433Y-61287093D01*
X91299109Y-61320577D01*
X91229418Y-61315592D01*
X91185071Y-61287092D01*
X91124503Y-61226524D01*
X91124500Y-61226522D01*
X91008922Y-61170020D01*
X91008920Y-61170019D01*
X91008919Y-61170019D01*
X90933983Y-61159101D01*
X90590819Y-61159101D01*
X90515883Y-61170019D01*
X90515881Y-61170019D01*
X90515879Y-61170020D01*
X90400301Y-61226522D01*
X90400297Y-61226525D01*
X90360232Y-61266590D01*
X90298909Y-61300074D01*
X90229217Y-61295089D01*
X90184871Y-61266589D01*
X90069013Y-61150731D01*
X90069012Y-61150730D01*
X89989090Y-61104587D01*
X89989089Y-61104586D01*
X89971086Y-61099762D01*
X89934204Y-61089880D01*
X89874546Y-61053516D01*
X89844017Y-60990669D01*
X89842300Y-60970106D01*
X89842300Y-60871523D01*
X89842299Y-60871521D01*
X89827767Y-60798464D01*
X89827766Y-60798460D01*
X89806696Y-60766926D01*
X89772401Y-60715599D01*
X89690245Y-60660705D01*
X89689539Y-60660233D01*
X89689535Y-60660232D01*
X89616477Y-60645700D01*
X89616474Y-60645700D01*
X89037126Y-60645700D01*
X89037123Y-60645700D01*
X88964064Y-60660232D01*
X88964061Y-60660233D01*
X88920238Y-60689514D01*
X88853560Y-60710390D01*
X88786180Y-60691904D01*
X88782459Y-60689513D01*
X88739343Y-60660704D01*
X88739340Y-60660703D01*
X88666427Y-60646200D01*
X88501800Y-60646200D01*
X88501800Y-62216200D01*
X88666426Y-62216200D01*
X88666428Y-62216199D01*
X88739340Y-62201696D01*
X88739344Y-62201695D01*
X88782458Y-62172887D01*
X88849135Y-62152009D01*
X88916515Y-62170493D01*
X88920239Y-62172886D01*
X88964060Y-62202166D01*
X88964064Y-62202167D01*
X89037121Y-62216699D01*
X89037124Y-62216700D01*
X89037126Y-62216700D01*
X89616476Y-62216700D01*
X89616477Y-62216699D01*
X89689540Y-62202166D01*
X89772401Y-62146801D01*
X89821172Y-62073807D01*
X89874782Y-62029005D01*
X89944107Y-62020296D01*
X89986273Y-62035313D01*
X90009308Y-62048612D01*
X90009309Y-62048612D01*
X90009312Y-62048614D01*
X90098456Y-62072500D01*
X90198089Y-62072500D01*
X90265128Y-62092185D01*
X90288996Y-62112168D01*
X90301448Y-62125590D01*
X90309325Y-62141703D01*
X90400299Y-62232677D01*
X90401195Y-62233115D01*
X90408667Y-62241169D01*
X90423255Y-62270444D01*
X90438926Y-62299143D01*
X90438754Y-62301546D01*
X90439829Y-62303704D01*
X90436275Y-62336204D01*
X90433942Y-62368835D01*
X90432454Y-62371149D01*
X90432235Y-62373160D01*
X90427014Y-62379614D01*
X90405442Y-62413182D01*
X90307323Y-62511301D01*
X90250821Y-62626879D01*
X90250820Y-62626881D01*
X90250820Y-62626883D01*
X90239902Y-62701819D01*
X90239902Y-63144983D01*
X90243128Y-63167124D01*
X90250820Y-63219921D01*
X90262514Y-63243841D01*
X90274272Y-63312714D01*
X90246928Y-63377011D01*
X90189164Y-63416318D01*
X90151113Y-63422300D01*
X86712597Y-63422300D01*
X86658287Y-63428138D01*
X86606781Y-63439343D01*
X86606772Y-63439346D01*
X86580407Y-63446579D01*
X86580396Y-63446583D01*
X86493781Y-63495905D01*
X86493773Y-63495911D01*
X86440971Y-63541663D01*
X86409343Y-63574440D01*
X86363134Y-63662777D01*
X86363133Y-63662777D01*
X86343451Y-63729809D01*
X86343448Y-63729821D01*
X86333100Y-63801798D01*
X86066900Y-63801798D01*
X86066900Y-62747637D01*
X86086585Y-62680598D01*
X86112378Y-62651666D01*
X86147747Y-62622728D01*
X86212098Y-62595513D01*
X86226267Y-62594701D01*
X87512639Y-62594701D01*
X87514075Y-62594623D01*
X87539951Y-62593237D01*
X87559697Y-62591113D01*
X87562721Y-62590951D01*
X87566304Y-62590403D01*
X87566310Y-62590403D01*
X87566312Y-62590403D01*
X87661448Y-62560612D01*
X87722771Y-62527126D01*
X87780987Y-62483545D01*
X87835349Y-62429182D01*
X87853624Y-62408838D01*
X87870257Y-62388198D01*
X87870306Y-62388137D01*
X87870314Y-62388121D01*
X87873614Y-62383077D01*
X87873872Y-62383246D01*
X87878589Y-62375759D01*
X87879041Y-62375154D01*
X87880350Y-62373407D01*
X87885709Y-62365977D01*
X87903004Y-62326238D01*
X87903536Y-62325036D01*
X87905045Y-62321675D01*
X87916487Y-62299788D01*
X87917249Y-62297190D01*
X87916180Y-62296876D01*
X87923004Y-62281680D01*
X87940409Y-62261332D01*
X87954881Y-62238795D01*
X87962778Y-62235184D01*
X87968422Y-62228587D01*
X87994065Y-62220880D01*
X88018425Y-62209743D01*
X88030090Y-62210053D01*
X88035335Y-62208477D01*
X88041930Y-62210368D01*
X88060316Y-62210857D01*
X88087175Y-62216200D01*
X88251800Y-62216200D01*
X88251800Y-60646200D01*
X88087173Y-60646200D01*
X88014259Y-60660703D01*
X88014253Y-60660705D01*
X87971139Y-60689513D01*
X87904461Y-60710390D01*
X87837081Y-60691904D01*
X87833361Y-60689513D01*
X87789542Y-60660235D01*
X87789535Y-60660232D01*
X87716477Y-60645700D01*
X87716474Y-60645700D01*
X87644024Y-60645700D01*
X87626377Y-60644438D01*
X87607605Y-60641739D01*
X87567001Y-60635901D01*
X87567000Y-60635901D01*
X85861951Y-60635901D01*
X85848696Y-60635190D01*
X85805083Y-60630501D01*
X85805074Y-60630500D01*
X82109326Y-60630500D01*
X82109317Y-60630500D01*
X82109316Y-60630501D01*
X82065704Y-60635190D01*
X82052449Y-60635901D01*
X81871397Y-60635901D01*
X81817087Y-60641739D01*
X81765581Y-60652944D01*
X81765572Y-60652947D01*
X81739207Y-60660180D01*
X81739196Y-60660184D01*
X81652581Y-60709506D01*
X81652573Y-60709512D01*
X81599771Y-60755264D01*
X81568143Y-60788041D01*
X81521934Y-60876378D01*
X81521933Y-60876378D01*
X81502251Y-60943410D01*
X81502248Y-60943422D01*
X81491900Y-61015399D01*
X75310937Y-61015399D01*
X75312928Y-61005337D01*
X75327527Y-60985047D01*
X75329149Y-60981497D01*
X75333542Y-60976689D01*
X75433884Y-60872487D01*
X75494564Y-60837852D01*
X75523203Y-60834500D01*
X77647239Y-60834500D01*
X77648675Y-60834422D01*
X77674552Y-60833036D01*
X77700910Y-60830202D01*
X77796044Y-60800413D01*
X77857367Y-60766928D01*
X77915585Y-60723347D01*
X78071547Y-60567385D01*
X78089826Y-60547035D01*
X78106460Y-60526393D01*
X78106489Y-60526357D01*
X78106494Y-60526347D01*
X78109827Y-60521260D01*
X78110081Y-60521426D01*
X78114762Y-60513995D01*
X78116554Y-60511602D01*
X78121906Y-60504181D01*
X78140906Y-60460528D01*
X78152679Y-60438012D01*
X78153441Y-60435415D01*
X78152019Y-60434997D01*
X78161693Y-60412773D01*
X78165331Y-60396045D01*
X78167519Y-60387470D01*
X78172349Y-60371026D01*
X78178487Y-60328339D01*
X90168999Y-60328339D01*
X90179901Y-60403174D01*
X90236334Y-60518610D01*
X90327187Y-60609463D01*
X90442623Y-60665896D01*
X90517462Y-60676799D01*
X90863998Y-60676799D01*
X90960538Y-60676799D01*
X91035372Y-60665896D01*
X91150808Y-60609463D01*
X91241661Y-60518610D01*
X91298094Y-60403174D01*
X91308998Y-60328335D01*
X91308998Y-60281800D01*
X90863998Y-60281800D01*
X90863998Y-60676799D01*
X90517462Y-60676799D01*
X90613998Y-60676798D01*
X90613998Y-60281800D01*
X90168999Y-60281800D01*
X90168999Y-60328339D01*
X78178487Y-60328339D01*
X78182700Y-60299038D01*
X78182700Y-59284162D01*
X78181236Y-59256848D01*
X78178402Y-59230490D01*
X78148613Y-59135356D01*
X78115128Y-59074033D01*
X78106337Y-59062290D01*
X78071550Y-59015819D01*
X78071549Y-59015818D01*
X78071547Y-59015815D01*
X78071542Y-59015810D01*
X78071534Y-59015801D01*
X77864799Y-58809067D01*
X77864785Y-58809053D01*
X77844435Y-58790774D01*
X77844429Y-58790769D01*
X77844420Y-58790761D01*
X77823799Y-58774144D01*
X77823796Y-58774142D01*
X77823793Y-58774140D01*
X77735462Y-58727935D01*
X77735459Y-58727934D01*
X77668424Y-58708250D01*
X77668416Y-58708248D01*
X77596439Y-58697900D01*
X77596438Y-58697900D01*
X76255400Y-58697900D01*
X76188361Y-58678215D01*
X76142606Y-58625411D01*
X76131400Y-58573900D01*
X76131400Y-58459600D01*
X74681401Y-58459600D01*
X74669581Y-58471420D01*
X74608258Y-58504905D01*
X74538566Y-58499921D01*
X74482633Y-58458049D01*
X74458216Y-58392585D01*
X74457900Y-58383739D01*
X74457900Y-58341058D01*
X74457900Y-58341056D01*
X74434014Y-58251912D01*
X74419697Y-58227114D01*
X74387873Y-58171994D01*
X74387870Y-58171991D01*
X74387869Y-58171988D01*
X74322612Y-58106731D01*
X74321954Y-58106351D01*
X74313790Y-58101637D01*
X74296540Y-58083545D01*
X74276524Y-58068562D01*
X74272842Y-58058692D01*
X74265575Y-58051070D01*
X74260844Y-58026523D01*
X74252107Y-58003098D01*
X74254346Y-57992805D01*
X74252353Y-57982463D01*
X74261645Y-57959252D01*
X74266959Y-57934825D01*
X74276558Y-57922000D01*
X74278321Y-57917598D01*
X74288097Y-57906583D01*
X74398405Y-57796274D01*
X74398410Y-57796271D01*
X74408610Y-57786070D01*
X74408612Y-57786070D01*
X74454663Y-57740019D01*
X74515986Y-57706534D01*
X74542344Y-57703700D01*
X74622281Y-57703700D01*
X74689320Y-57723385D01*
X74735075Y-57776189D01*
X74745019Y-57845347D01*
X74736594Y-57870665D01*
X74738314Y-57871307D01*
X74687483Y-58007589D01*
X74681400Y-58064171D01*
X74681400Y-58209600D01*
X76131399Y-58209600D01*
X76131399Y-58064166D01*
X76131398Y-58064160D01*
X76125318Y-58007592D01*
X76074486Y-57871306D01*
X76077959Y-57870010D01*
X76066837Y-57818830D01*
X76091266Y-57753370D01*
X76147208Y-57711510D01*
X76190519Y-57703700D01*
X76546029Y-57703700D01*
X76613068Y-57723385D01*
X76658823Y-57776189D01*
X76665803Y-57795604D01*
X76671304Y-57816133D01*
X76671305Y-57816136D01*
X76733905Y-57924564D01*
X76822436Y-58013095D01*
X76930864Y-58075695D01*
X77051799Y-58108100D01*
X77051801Y-58108100D01*
X77176999Y-58108100D01*
X77177001Y-58108100D01*
X77297936Y-58075695D01*
X77406364Y-58013095D01*
X77494895Y-57924564D01*
X77557495Y-57816136D01*
X77589900Y-57695201D01*
X77589900Y-57569999D01*
X77558655Y-57453393D01*
X77560318Y-57383544D01*
X77599480Y-57325681D01*
X77663708Y-57298177D01*
X77678430Y-57297300D01*
X78011254Y-57297300D01*
X78078293Y-57316985D01*
X78086743Y-57322926D01*
X78092432Y-57327291D01*
X78092436Y-57327295D01*
X78200864Y-57389895D01*
X78321799Y-57422300D01*
X78321801Y-57422300D01*
X78446999Y-57422300D01*
X78447001Y-57422300D01*
X78567936Y-57389895D01*
X78676364Y-57327295D01*
X78764895Y-57238764D01*
X78767437Y-57234361D01*
X81466500Y-57234361D01*
X81466500Y-59522803D01*
X81472338Y-59577113D01*
X81483543Y-59628619D01*
X81483545Y-59628625D01*
X81484840Y-59633344D01*
X81490779Y-59654993D01*
X81490783Y-59655004D01*
X81540105Y-59741619D01*
X81540110Y-59741626D01*
X81540112Y-59741629D01*
X81559440Y-59763935D01*
X81585863Y-59794429D01*
X81585866Y-59794432D01*
X81585867Y-59794433D01*
X81618641Y-59826058D01*
X81706976Y-59872266D01*
X81706977Y-59872266D01*
X81706977Y-59872267D01*
X81756524Y-59886815D01*
X81774015Y-59891951D01*
X81774019Y-59891951D01*
X81774021Y-59891952D01*
X81785652Y-59893624D01*
X81846000Y-59902301D01*
X81846001Y-59902301D01*
X86090237Y-59902301D01*
X86091673Y-59902223D01*
X86117550Y-59900837D01*
X86143908Y-59898003D01*
X86239040Y-59868215D01*
X86300363Y-59834731D01*
X86358583Y-59791148D01*
X86489151Y-59660579D01*
X86507430Y-59640230D01*
X86524060Y-59619593D01*
X86524089Y-59619557D01*
X86524094Y-59619547D01*
X86527427Y-59614460D01*
X86527681Y-59614626D01*
X86532362Y-59607195D01*
X86534154Y-59604802D01*
X86539506Y-59597381D01*
X86558506Y-59553728D01*
X86570279Y-59531212D01*
X86571041Y-59528615D01*
X86569619Y-59528197D01*
X86579293Y-59505973D01*
X86582931Y-59489245D01*
X86585119Y-59480670D01*
X86589949Y-59464226D01*
X86600300Y-59392238D01*
X86600300Y-58536141D01*
X86619985Y-58469102D01*
X86640502Y-58444741D01*
X86716426Y-58375144D01*
X86740649Y-58363252D01*
X86763079Y-58348244D01*
X86775261Y-58346261D01*
X86779141Y-58344357D01*
X86797892Y-58342577D01*
X86803477Y-58342472D01*
X86870866Y-58360912D01*
X86917592Y-58412859D01*
X86928815Y-58481821D01*
X86927388Y-58490642D01*
X86911300Y-58571521D01*
X86911300Y-59690878D01*
X86925832Y-59763935D01*
X86925833Y-59763939D01*
X86944205Y-59791435D01*
X86981199Y-59846801D01*
X87056855Y-59897352D01*
X87064060Y-59902166D01*
X87064064Y-59902167D01*
X87137121Y-59916699D01*
X87137124Y-59916700D01*
X87137126Y-59916700D01*
X87716476Y-59916700D01*
X87716477Y-59916699D01*
X87789535Y-59902167D01*
X87789537Y-59902167D01*
X87789537Y-59902166D01*
X87789540Y-59902166D01*
X87827273Y-59876953D01*
X87840124Y-59872929D01*
X87850763Y-59864666D01*
X87872818Y-59862692D01*
X87893947Y-59856077D01*
X87908452Y-59859504D01*
X87920354Y-59858440D01*
X87953629Y-59870179D01*
X88005586Y-59897357D01*
X88012834Y-59901659D01*
X88014058Y-59902166D01*
X88031697Y-59905674D01*
X88042443Y-59908314D01*
X88073215Y-59917351D01*
X88145200Y-59927701D01*
X88145202Y-59927701D01*
X88608399Y-59927701D01*
X88662712Y-59921862D01*
X88714223Y-59910656D01*
X88740597Y-59903420D01*
X88795694Y-59872045D01*
X88863688Y-59855978D01*
X88925941Y-59876697D01*
X88962065Y-59900833D01*
X88964060Y-59902166D01*
X88964063Y-59902166D01*
X88964064Y-59902167D01*
X89037121Y-59916699D01*
X89037124Y-59916700D01*
X89037126Y-59916700D01*
X89616476Y-59916700D01*
X89616477Y-59916699D01*
X89689540Y-59902166D01*
X89772401Y-59846801D01*
X89827766Y-59763940D01*
X89842300Y-59690874D01*
X89842300Y-59611302D01*
X89844850Y-59602616D01*
X89843562Y-59593655D01*
X89854540Y-59569614D01*
X89861985Y-59544263D01*
X89868825Y-59538335D01*
X89872587Y-59530099D01*
X89894821Y-59515809D01*
X89914789Y-59498508D01*
X89925303Y-59496220D01*
X89931365Y-59492325D01*
X89966300Y-59487302D01*
X90172957Y-59487302D01*
X90239996Y-59506987D01*
X90260638Y-59523621D01*
X90296489Y-59559472D01*
X90329974Y-59620795D01*
X90324990Y-59690487D01*
X90296490Y-59734834D01*
X90236333Y-59794991D01*
X90179901Y-59910425D01*
X90168998Y-59985264D01*
X90168998Y-60031800D01*
X91308997Y-60031800D01*
X91308997Y-59985260D01*
X91298094Y-59910425D01*
X91241661Y-59794989D01*
X91181506Y-59734834D01*
X91177167Y-59726888D01*
X91169920Y-59721463D01*
X91160685Y-59696703D01*
X91148021Y-59673511D01*
X91148666Y-59664481D01*
X91145503Y-59655999D01*
X91151119Y-59630178D01*
X91153005Y-59603819D01*
X91158823Y-59594765D01*
X91160355Y-59587726D01*
X91181506Y-59559472D01*
X91222959Y-59518019D01*
X91284282Y-59484534D01*
X91310640Y-59481700D01*
X91320854Y-59481700D01*
X91345387Y-59488903D01*
X91353974Y-59489518D01*
X91358165Y-59492656D01*
X91387893Y-59501385D01*
X91396343Y-59507326D01*
X91402032Y-59511691D01*
X91402036Y-59511695D01*
X91510464Y-59574295D01*
X91631399Y-59606700D01*
X91631401Y-59606700D01*
X91756599Y-59606700D01*
X91756601Y-59606700D01*
X91877536Y-59574295D01*
X91985964Y-59511695D01*
X92074495Y-59423164D01*
X92137095Y-59314736D01*
X92169500Y-59193801D01*
X92169500Y-59068599D01*
X92137095Y-58947664D01*
X92074495Y-58839236D01*
X91985964Y-58750705D01*
X91877536Y-58688105D01*
X91877537Y-58688105D01*
X91837224Y-58677303D01*
X91756601Y-58655700D01*
X91631399Y-58655700D01*
X91550775Y-58677303D01*
X91510463Y-58688105D01*
X91402037Y-58750704D01*
X91396343Y-58755074D01*
X91375019Y-58763318D01*
X91355789Y-58775677D01*
X91335514Y-58778592D01*
X91331175Y-58780270D01*
X91320854Y-58780700D01*
X91299436Y-58780700D01*
X91232397Y-58761015D01*
X91211759Y-58744385D01*
X91151100Y-58683726D01*
X91151099Y-58683725D01*
X91151097Y-58683723D01*
X91035519Y-58627221D01*
X91035517Y-58627220D01*
X91035516Y-58627220D01*
X90960580Y-58616302D01*
X90517416Y-58616302D01*
X90442480Y-58627220D01*
X90442478Y-58627220D01*
X90442476Y-58627221D01*
X90326898Y-58683723D01*
X90326895Y-58683725D01*
X90260638Y-58749983D01*
X90233710Y-58764686D01*
X90207892Y-58781279D01*
X90201691Y-58782170D01*
X90199315Y-58783468D01*
X90172957Y-58786302D01*
X89966300Y-58786302D01*
X89899261Y-58766617D01*
X89853506Y-58713813D01*
X89842300Y-58662302D01*
X89842300Y-58571523D01*
X89842299Y-58571521D01*
X89827767Y-58498464D01*
X89827766Y-58498460D01*
X89801801Y-58459600D01*
X89772401Y-58415599D01*
X89772399Y-58415598D01*
X89771396Y-58414096D01*
X89750519Y-58347419D01*
X89769004Y-58280039D01*
X89786819Y-58257524D01*
X89824245Y-58220098D01*
X89824248Y-58220094D01*
X89880336Y-58110016D01*
X89894800Y-58018692D01*
X89894800Y-57943001D01*
X89488800Y-57943001D01*
X89480114Y-57940450D01*
X89471153Y-57941739D01*
X89447112Y-57930760D01*
X89421761Y-57923316D01*
X89415833Y-57916475D01*
X89407597Y-57912714D01*
X89393307Y-57890479D01*
X89376006Y-57870512D01*
X89373718Y-57859997D01*
X89369823Y-57853936D01*
X89364800Y-57819001D01*
X89364800Y-57818001D01*
X89363800Y-57818001D01*
X89296761Y-57798316D01*
X89251006Y-57745512D01*
X89239800Y-57694001D01*
X89239800Y-57239405D01*
X89259485Y-57172366D01*
X89312289Y-57126611D01*
X89381447Y-57116667D01*
X89402924Y-57121739D01*
X89404924Y-57122404D01*
X89462328Y-57162235D01*
X89489086Y-57226778D01*
X89489800Y-57240070D01*
X89489800Y-57693001D01*
X89894799Y-57693001D01*
X89894799Y-57617311D01*
X89880334Y-57525983D01*
X89842856Y-57452428D01*
X96171600Y-57452428D01*
X96186103Y-57525340D01*
X96186105Y-57525344D01*
X96241360Y-57608039D01*
X96324055Y-57663294D01*
X96324059Y-57663296D01*
X96396971Y-57677799D01*
X96396974Y-57677800D01*
X97996600Y-57677800D01*
X97996600Y-56802800D01*
X96171600Y-56802800D01*
X96171600Y-57452428D01*
X89842856Y-57452428D01*
X89824247Y-57415906D01*
X89822131Y-57412993D01*
X89820654Y-57408855D01*
X89819818Y-57407213D01*
X89820030Y-57407104D01*
X89798653Y-57347185D01*
X89814480Y-57279132D01*
X89834771Y-57252428D01*
X89839600Y-57247599D01*
X90089601Y-57247599D01*
X90235034Y-57247599D01*
X90235040Y-57247598D01*
X90291608Y-57241518D01*
X90419582Y-57193786D01*
X90419585Y-57193784D01*
X90528930Y-57111929D01*
X90610785Y-57002584D01*
X90610786Y-57002583D01*
X90658517Y-56874610D01*
X90664600Y-56818028D01*
X90664601Y-56818027D01*
X90664601Y-56647600D01*
X90089601Y-56647600D01*
X90089601Y-57247599D01*
X89839600Y-57247599D01*
X89839601Y-57247598D01*
X89839601Y-56397600D01*
X90089601Y-56397600D01*
X90664600Y-56397600D01*
X90664600Y-56227166D01*
X90664599Y-56227160D01*
X90658519Y-56170592D01*
X90610787Y-56042618D01*
X90610785Y-56042616D01*
X90557470Y-55971395D01*
X90557469Y-55971393D01*
X90528932Y-55933271D01*
X90488723Y-55903171D01*
X96171600Y-55903171D01*
X96171600Y-56552800D01*
X97996600Y-56552800D01*
X97996600Y-55677800D01*
X96396973Y-55677800D01*
X96324059Y-55692303D01*
X96324055Y-55692305D01*
X96241360Y-55747560D01*
X96186105Y-55830255D01*
X96186103Y-55830259D01*
X96171600Y-55903171D01*
X90488723Y-55903171D01*
X90419585Y-55851415D01*
X90419584Y-55851414D01*
X90291611Y-55803683D01*
X90235029Y-55797600D01*
X90089601Y-55797600D01*
X90089601Y-56397600D01*
X89839601Y-56397600D01*
X89839601Y-55797600D01*
X89694167Y-55797600D01*
X89694160Y-55797601D01*
X89637593Y-55803681D01*
X89509619Y-55851413D01*
X89509616Y-55851415D01*
X89400271Y-55933270D01*
X89318416Y-56042615D01*
X89318412Y-56042623D01*
X89306048Y-56075772D01*
X89264177Y-56131706D01*
X89198712Y-56156122D01*
X89130439Y-56141270D01*
X89081034Y-56091864D01*
X89073690Y-56075783D01*
X89061229Y-56042374D01*
X88979288Y-55932913D01*
X88979285Y-55932910D01*
X88979282Y-55932907D01*
X88886277Y-55863285D01*
X88886277Y-55863286D01*
X88884498Y-55861954D01*
X88882993Y-55860741D01*
X88882607Y-55860539D01*
X88871298Y-55852073D01*
X88869826Y-55850971D01*
X88857889Y-55846519D01*
X88843752Y-55840214D01*
X88794661Y-55814535D01*
X88727624Y-55794851D01*
X88727616Y-55794849D01*
X88655639Y-55784501D01*
X88655638Y-55784501D01*
X82916362Y-55784501D01*
X82916361Y-55784501D01*
X82889065Y-55785964D01*
X82889060Y-55785964D01*
X82889048Y-55785965D01*
X82889040Y-55785965D01*
X82889011Y-55785968D01*
X82862689Y-55788798D01*
X82862687Y-55788799D01*
X82767558Y-55818587D01*
X82767548Y-55818591D01*
X82706238Y-55852069D01*
X82706230Y-55852074D01*
X82648019Y-55895650D01*
X82648001Y-55895666D01*
X81577666Y-56966002D01*
X81577638Y-56966032D01*
X81559361Y-56986380D01*
X81542744Y-57007001D01*
X81542740Y-57007006D01*
X81542740Y-57007008D01*
X81531924Y-57027686D01*
X81496534Y-57095341D01*
X81476850Y-57162376D01*
X81476848Y-57162384D01*
X81466500Y-57234361D01*
X78767437Y-57234361D01*
X78827495Y-57130336D01*
X78859900Y-57009401D01*
X78859900Y-56884199D01*
X78827495Y-56763264D01*
X78764895Y-56654836D01*
X78676364Y-56566305D01*
X78567936Y-56503705D01*
X78567937Y-56503705D01*
X78527624Y-56492903D01*
X78447001Y-56471300D01*
X78321799Y-56471300D01*
X78241175Y-56492903D01*
X78200863Y-56503705D01*
X78092437Y-56566304D01*
X78086743Y-56570674D01*
X78021575Y-56595870D01*
X78011254Y-56596300D01*
X76679033Y-56596300D01*
X76611994Y-56576615D01*
X76566239Y-56523811D01*
X76556295Y-56454653D01*
X76579766Y-56397989D01*
X76624385Y-56338384D01*
X76624386Y-56338383D01*
X76672117Y-56210410D01*
X76678200Y-56153828D01*
X76678201Y-56153827D01*
X76678201Y-55983400D01*
X76102201Y-55983400D01*
X76093515Y-55980849D01*
X76084554Y-55982138D01*
X76060513Y-55971159D01*
X76035162Y-55963715D01*
X76029234Y-55956874D01*
X76020998Y-55953113D01*
X76006708Y-55930878D01*
X75989407Y-55910911D01*
X75987119Y-55900396D01*
X75983224Y-55894335D01*
X75978201Y-55859400D01*
X75978201Y-55857400D01*
X75997886Y-55790361D01*
X76050690Y-55744606D01*
X76102201Y-55733400D01*
X76678200Y-55733400D01*
X76678200Y-55562966D01*
X76678199Y-55562960D01*
X76672119Y-55506392D01*
X76624387Y-55378418D01*
X76624385Y-55378415D01*
X76542530Y-55269070D01*
X76479074Y-55221567D01*
X76437203Y-55165633D01*
X76432219Y-55095941D01*
X76465704Y-55034618D01*
X76527027Y-55001134D01*
X76553385Y-54998300D01*
X94356276Y-54998300D01*
X94356277Y-54998299D01*
X94429340Y-54983766D01*
X94512201Y-54928401D01*
X94567566Y-54845540D01*
X94582100Y-54772474D01*
X94582100Y-53723126D01*
X94582100Y-53723123D01*
X94582099Y-53723121D01*
X94567567Y-53650064D01*
X94567566Y-53650060D01*
X94547890Y-53620613D01*
X94512201Y-53567199D01*
X94429340Y-53511834D01*
X94429339Y-53511833D01*
X94428160Y-53511046D01*
X94414591Y-53494811D01*
X94397674Y-53482108D01*
X94392636Y-53468540D01*
X94383354Y-53457434D01*
X94380717Y-53436440D01*
X94373353Y-53416607D01*
X94376450Y-53402468D01*
X94374647Y-53388109D01*
X94383776Y-53369025D01*
X94388305Y-53348356D01*
X94400251Y-53334589D01*
X94404801Y-53325081D01*
X94409498Y-53320133D01*
X94415709Y-53313939D01*
X94425585Y-53306547D01*
X94530747Y-53201385D01*
X94549026Y-53181035D01*
X94549113Y-53180925D01*
X94549857Y-53180185D01*
X94550477Y-53179358D01*
X94553175Y-53175885D01*
X94565660Y-53160393D01*
X94565689Y-53160357D01*
X94565694Y-53160347D01*
X94569027Y-53155260D01*
X94569281Y-53155426D01*
X94573962Y-53147995D01*
X94575754Y-53145602D01*
X94581106Y-53138181D01*
X94600106Y-53094528D01*
X94611879Y-53072012D01*
X94612641Y-53069415D01*
X94611219Y-53068997D01*
X94620893Y-53046773D01*
X94624531Y-53030045D01*
X94626719Y-53021470D01*
X94631549Y-53005026D01*
X94641900Y-52933038D01*
X94641900Y-51514691D01*
X94639840Y-51482308D01*
X94635856Y-51451128D01*
X94635157Y-51446067D01*
X94601589Y-51352197D01*
X94565680Y-51292262D01*
X94519808Y-51235834D01*
X94519801Y-51235827D01*
X94439075Y-51161310D01*
X94403166Y-51101374D01*
X94405361Y-51031539D01*
X94444964Y-50973977D01*
X94454261Y-50967114D01*
X94512201Y-50928401D01*
X94567566Y-50845540D01*
X94582100Y-50772474D01*
X94582100Y-49723126D01*
X94582100Y-49723123D01*
X94582099Y-49723121D01*
X94567567Y-49650064D01*
X94567566Y-49650060D01*
X94560318Y-49639213D01*
X94512201Y-49567199D01*
X94452668Y-49527421D01*
X94429339Y-49511833D01*
X94429335Y-49511832D01*
X94356277Y-49497300D01*
X94356274Y-49497300D01*
X90806926Y-49497300D01*
X90806923Y-49497300D01*
X90733864Y-49511832D01*
X90733860Y-49511833D01*
X90650999Y-49567199D01*
X90595633Y-49650060D01*
X90595632Y-49650062D01*
X90591171Y-49672493D01*
X90558785Y-49734403D01*
X90498069Y-49768977D01*
X90469554Y-49772300D01*
X90456399Y-49772300D01*
X90395359Y-49788656D01*
X90335463Y-49804705D01*
X90227037Y-49867304D01*
X90227034Y-49867306D01*
X90138506Y-49955834D01*
X90138504Y-49955837D01*
X90075905Y-50064263D01*
X90075905Y-50064264D01*
X90043500Y-50185199D01*
X90043500Y-50310401D01*
X90075905Y-50431336D01*
X90138505Y-50539764D01*
X90227036Y-50628295D01*
X90297042Y-50668712D01*
X90345258Y-50719279D01*
X90358482Y-50787886D01*
X90332514Y-50852751D01*
X90275601Y-50893280D01*
X90235043Y-50900100D01*
X89967361Y-50900100D01*
X89940065Y-50901563D01*
X89940060Y-50901563D01*
X89940048Y-50901564D01*
X89940040Y-50901564D01*
X89940011Y-50901567D01*
X89913689Y-50904397D01*
X89913687Y-50904398D01*
X89818558Y-50934186D01*
X89818548Y-50934190D01*
X89757238Y-50967668D01*
X89757230Y-50967673D01*
X89699023Y-51011246D01*
X89699012Y-51011256D01*
X89585781Y-51124487D01*
X89524458Y-51157971D01*
X89454766Y-51152987D01*
X89398833Y-51111115D01*
X89374416Y-51045651D01*
X89374100Y-51036805D01*
X89374100Y-50969923D01*
X89374099Y-50969921D01*
X89359567Y-50896864D01*
X89359566Y-50896860D01*
X89348085Y-50879677D01*
X89304201Y-50813999D01*
X89242056Y-50772476D01*
X89221339Y-50758633D01*
X89221335Y-50758632D01*
X89148277Y-50744100D01*
X89148274Y-50744100D01*
X87998926Y-50744100D01*
X87998923Y-50744100D01*
X87925864Y-50758632D01*
X87925860Y-50758634D01*
X87832844Y-50820784D01*
X87830854Y-50817806D01*
X87787893Y-50841266D01*
X87761535Y-50844100D01*
X86790420Y-50844100D01*
X86723381Y-50824415D01*
X86677626Y-50771611D01*
X86667682Y-50702453D01*
X86668802Y-50695910D01*
X86674100Y-50669273D01*
X86674100Y-50019923D01*
X86674099Y-50019921D01*
X86659567Y-49946864D01*
X86659566Y-49946860D01*
X86632495Y-49906345D01*
X86604201Y-49863999D01*
X86534461Y-49817401D01*
X86521339Y-49808633D01*
X86521335Y-49808632D01*
X86448277Y-49794100D01*
X86448274Y-49794100D01*
X85298926Y-49794100D01*
X85298923Y-49794100D01*
X85225864Y-49808632D01*
X85225860Y-49808633D01*
X85173081Y-49843899D01*
X85142999Y-49863999D01*
X85142998Y-49864000D01*
X85132844Y-49870785D01*
X85132096Y-49869666D01*
X85082301Y-49896853D01*
X85012609Y-49891864D01*
X84987064Y-49878789D01*
X84916940Y-49831935D01*
X84916935Y-49831933D01*
X84843877Y-49817401D01*
X84843874Y-49817401D01*
X83724526Y-49817401D01*
X83724521Y-49817401D01*
X83642169Y-49833782D01*
X83572577Y-49827555D01*
X83517400Y-49784692D01*
X83498204Y-49744261D01*
X83486214Y-49699512D01*
X83486211Y-49699506D01*
X83440073Y-49619594D01*
X83440070Y-49619591D01*
X83440069Y-49619588D01*
X83374812Y-49554331D01*
X83261217Y-49440735D01*
X83227733Y-49379412D01*
X83224899Y-49353054D01*
X83224899Y-49079823D01*
X83224899Y-49079818D01*
X83213981Y-49004882D01*
X83191644Y-48959191D01*
X83157477Y-48889300D01*
X83157475Y-48889297D01*
X83066501Y-48798323D01*
X83066498Y-48798321D01*
X82950920Y-48741819D01*
X82950918Y-48741818D01*
X82950917Y-48741818D01*
X82875981Y-48730900D01*
X82532817Y-48730900D01*
X82457881Y-48741818D01*
X82457879Y-48741818D01*
X82457877Y-48741819D01*
X82342299Y-48798321D01*
X82281728Y-48858892D01*
X82220404Y-48892376D01*
X82150713Y-48887391D01*
X82106366Y-48858891D01*
X82046211Y-48798736D01*
X81930775Y-48742303D01*
X81855937Y-48731400D01*
X81809401Y-48731400D01*
X81809401Y-49177400D01*
X81806850Y-49186085D01*
X81808139Y-49195047D01*
X81797160Y-49219087D01*
X81789716Y-49244439D01*
X81782875Y-49250366D01*
X81779114Y-49258603D01*
X81756879Y-49272892D01*
X81736912Y-49290194D01*
X81726397Y-49292481D01*
X81720336Y-49296377D01*
X81685401Y-49301400D01*
X81684401Y-49301400D01*
X81684401Y-49302400D01*
X81664716Y-49369439D01*
X81611912Y-49415194D01*
X81560401Y-49426400D01*
X81164402Y-49426400D01*
X81164402Y-49522939D01*
X81175304Y-49597774D01*
X81231737Y-49713210D01*
X81251606Y-49733079D01*
X81285091Y-49794402D01*
X81280107Y-49864094D01*
X81267028Y-49889649D01*
X81213235Y-49970158D01*
X81213232Y-49970165D01*
X81198700Y-50043222D01*
X81198700Y-50622579D01*
X81213232Y-50695636D01*
X81217454Y-50705830D01*
X81220365Y-50709189D01*
X81223974Y-50734292D01*
X81231551Y-50758494D01*
X81228862Y-50768290D01*
X81230309Y-50778347D01*
X81219772Y-50801419D01*
X81213062Y-50825873D01*
X81205504Y-50832660D01*
X81201284Y-50841903D01*
X81179947Y-50855615D01*
X81161081Y-50872560D01*
X81149487Y-50875190D01*
X81142506Y-50879677D01*
X81107571Y-50884700D01*
X81081913Y-50884700D01*
X81014874Y-50865015D01*
X80994232Y-50848381D01*
X80971196Y-50825345D01*
X80971193Y-50825343D01*
X80971191Y-50825341D01*
X80860975Y-50769183D01*
X80860974Y-50769182D01*
X80860971Y-50769181D01*
X80769535Y-50754700D01*
X80368060Y-50754700D01*
X80368060Y-50754701D01*
X80276629Y-50769181D01*
X80276628Y-50769181D01*
X80166407Y-50825342D01*
X80166403Y-50825345D01*
X80147967Y-50843782D01*
X80121039Y-50858485D01*
X80095221Y-50875078D01*
X80089020Y-50875969D01*
X80086644Y-50877267D01*
X80060286Y-50880101D01*
X80043441Y-50880101D01*
X79976402Y-50860416D01*
X79955760Y-50843782D01*
X79939502Y-50827524D01*
X79939499Y-50827522D01*
X79823921Y-50771020D01*
X79823919Y-50771019D01*
X79823918Y-50771019D01*
X79748982Y-50760101D01*
X79305818Y-50760101D01*
X79230882Y-50771019D01*
X79230880Y-50771019D01*
X79230878Y-50771020D01*
X79115300Y-50827522D01*
X79115297Y-50827524D01*
X79024323Y-50918498D01*
X79024321Y-50918501D01*
X78967819Y-51034079D01*
X78967818Y-51034081D01*
X78967818Y-51034083D01*
X78956900Y-51109019D01*
X78956900Y-51452183D01*
X78967818Y-51527119D01*
X78967818Y-51527120D01*
X78967819Y-51527122D01*
X79024321Y-51642700D01*
X79024323Y-51642703D01*
X79084539Y-51702919D01*
X79118024Y-51764242D01*
X79113040Y-51833934D01*
X79084539Y-51878281D01*
X79024323Y-51938496D01*
X79024321Y-51938499D01*
X78967819Y-52054077D01*
X78967818Y-52054079D01*
X78967818Y-52054081D01*
X78956900Y-52129017D01*
X78956900Y-52472181D01*
X78967818Y-52547117D01*
X78967818Y-52547118D01*
X78967819Y-52547120D01*
X79024321Y-52662698D01*
X79024322Y-52662700D01*
X79040579Y-52678956D01*
X79074066Y-52740278D01*
X79076900Y-52766639D01*
X79076900Y-53373300D01*
X79057215Y-53440339D01*
X79004411Y-53486094D01*
X78952900Y-53497300D01*
X75489881Y-53497300D01*
X75344893Y-53526140D01*
X75344887Y-53526142D01*
X75208309Y-53582714D01*
X75208297Y-53582721D01*
X75159070Y-53615613D01*
X75085389Y-53664844D01*
X75085381Y-53664850D01*
X73845253Y-54904978D01*
X73845247Y-54904985D01*
X73805084Y-54965094D01*
X73805085Y-54965095D01*
X73763114Y-55027908D01*
X73706544Y-55164482D01*
X73706541Y-55164492D01*
X73677701Y-55309479D01*
X73677701Y-55779011D01*
X73669056Y-55808451D01*
X73662533Y-55838438D01*
X73658778Y-55843453D01*
X73658016Y-55846050D01*
X73641382Y-55866692D01*
X73624332Y-55883742D01*
X73563009Y-55917227D01*
X73493317Y-55912243D01*
X73437384Y-55870371D01*
X73414177Y-55815455D01*
X73410935Y-55794983D01*
X73354848Y-55684906D01*
X73349326Y-55679385D01*
X73315839Y-55618063D01*
X73320820Y-55548371D01*
X73349326Y-55504015D01*
X73354848Y-55498493D01*
X73410936Y-55388415D01*
X73425400Y-55297091D01*
X73425400Y-55221400D01*
X73020400Y-55221400D01*
X73020400Y-55963000D01*
X73017849Y-55971685D01*
X73019138Y-55980647D01*
X73008159Y-56004687D01*
X73000715Y-56030039D01*
X72993874Y-56035966D01*
X72990113Y-56044203D01*
X72967878Y-56058492D01*
X72947911Y-56075794D01*
X72937396Y-56078081D01*
X72931335Y-56081977D01*
X72896400Y-56087000D01*
X72894400Y-56087000D01*
X72827361Y-56067315D01*
X72781606Y-56014511D01*
X72770400Y-55963000D01*
X72770400Y-55220400D01*
X72790085Y-55153361D01*
X72842889Y-55107606D01*
X72894400Y-55096400D01*
X72895400Y-55096400D01*
X72895400Y-55095400D01*
X72915085Y-55028361D01*
X72967889Y-54982606D01*
X73019400Y-54971400D01*
X73425399Y-54971400D01*
X73425399Y-54895710D01*
X73410934Y-54804381D01*
X73359020Y-54702495D01*
X73346123Y-54633826D01*
X73372399Y-54569085D01*
X73429505Y-54528828D01*
X73469504Y-54522199D01*
X73511634Y-54522199D01*
X73511640Y-54522198D01*
X73568207Y-54516118D01*
X73696181Y-54468386D01*
X73696184Y-54468384D01*
X73805529Y-54386529D01*
X73887384Y-54277184D01*
X73887385Y-54277183D01*
X73935116Y-54149210D01*
X73941199Y-54092628D01*
X73941200Y-54092627D01*
X73941200Y-53922200D01*
X73365200Y-53922200D01*
X73356514Y-53919649D01*
X73347553Y-53920938D01*
X73323512Y-53909959D01*
X73298161Y-53902515D01*
X73292233Y-53895674D01*
X73283997Y-53891913D01*
X73269707Y-53869678D01*
X73252406Y-53849711D01*
X73250118Y-53839196D01*
X73246223Y-53833135D01*
X73241200Y-53798200D01*
X73241200Y-53797200D01*
X73240200Y-53797200D01*
X73173161Y-53777515D01*
X73127406Y-53724711D01*
X73116200Y-53673200D01*
X73116200Y-53672200D01*
X73366200Y-53672200D01*
X73941199Y-53672200D01*
X73941199Y-53501766D01*
X73941198Y-53501760D01*
X73935118Y-53445192D01*
X73887386Y-53317218D01*
X73887384Y-53317215D01*
X73805529Y-53207870D01*
X73696184Y-53126015D01*
X73696183Y-53126014D01*
X73568210Y-53078283D01*
X73511628Y-53072200D01*
X73366200Y-53072200D01*
X73366200Y-53672200D01*
X73116200Y-53672200D01*
X73116200Y-53072200D01*
X72970766Y-53072200D01*
X72970759Y-53072201D01*
X72914192Y-53078281D01*
X72786218Y-53126013D01*
X72786211Y-53126017D01*
X72691180Y-53197157D01*
X72625716Y-53221574D01*
X72557443Y-53206722D01*
X72509117Y-53159251D01*
X72471261Y-53092772D01*
X72435470Y-53051467D01*
X72425509Y-53039971D01*
X72392732Y-53008343D01*
X72304395Y-52962134D01*
X72304395Y-52962133D01*
X72237363Y-52942451D01*
X72237351Y-52942448D01*
X72165374Y-52932100D01*
X72165373Y-52932100D01*
X71269400Y-52932100D01*
X71269397Y-52932100D01*
X71215087Y-52937938D01*
X71163581Y-52949143D01*
X71163572Y-52949146D01*
X71137207Y-52956379D01*
X71137196Y-52956383D01*
X71050581Y-53005705D01*
X71050573Y-53005711D01*
X70997771Y-53051463D01*
X70966143Y-53084240D01*
X70919934Y-53172577D01*
X70919933Y-53172577D01*
X70900251Y-53239609D01*
X70900248Y-53239621D01*
X70889900Y-53311598D01*
X70889900Y-54507940D01*
X70870215Y-54574979D01*
X70817411Y-54620734D01*
X70748253Y-54630678D01*
X70746503Y-54630414D01*
X70679485Y-54619800D01*
X70603800Y-54619800D01*
X70603800Y-55025800D01*
X70601249Y-55034485D01*
X70602538Y-55043447D01*
X70591559Y-55067487D01*
X70584115Y-55092839D01*
X70577274Y-55098766D01*
X70573513Y-55107003D01*
X70551278Y-55121292D01*
X70531311Y-55138594D01*
X70520796Y-55140881D01*
X70514735Y-55144777D01*
X70479800Y-55149800D01*
X70477800Y-55149800D01*
X70410761Y-55130115D01*
X70365006Y-55077311D01*
X70353800Y-55025800D01*
X70353800Y-54619800D01*
X70353799Y-54619799D01*
X70278110Y-54619800D01*
X70183573Y-54634773D01*
X70114280Y-54625817D01*
X70060829Y-54580820D01*
X70041703Y-54531695D01*
X70033734Y-54481382D01*
X69977647Y-54371306D01*
X69977644Y-54371301D01*
X69890298Y-54283955D01*
X69890293Y-54283951D01*
X69780215Y-54227863D01*
X69688891Y-54213400D01*
X69613200Y-54213400D01*
X69613200Y-54619400D01*
X69610649Y-54628085D01*
X69611938Y-54637047D01*
X69600959Y-54661087D01*
X69593515Y-54686439D01*
X69586674Y-54692366D01*
X69582913Y-54700603D01*
X69560678Y-54714892D01*
X69540711Y-54732194D01*
X69530196Y-54734481D01*
X69524135Y-54738377D01*
X69489200Y-54743400D01*
X69487200Y-54743400D01*
X69420161Y-54723715D01*
X69374406Y-54670911D01*
X69363200Y-54619400D01*
X69363200Y-54213400D01*
X69363199Y-54213399D01*
X69287511Y-54213400D01*
X69196182Y-54227865D01*
X69077412Y-54288382D01*
X69076354Y-54286305D01*
X69023333Y-54305215D01*
X68955281Y-54289379D01*
X68906594Y-54239266D01*
X68892728Y-54170786D01*
X68900090Y-54138082D01*
X68937116Y-54038810D01*
X68943199Y-53982228D01*
X68943200Y-53982227D01*
X68943200Y-53836800D01*
X67493201Y-53836800D01*
X67493201Y-53982239D01*
X67499281Y-54038807D01*
X67547014Y-54166785D01*
X67547022Y-54166798D01*
X67547025Y-54166812D01*
X67550114Y-54175094D01*
X67548923Y-54175538D01*
X67561874Y-54235071D01*
X67537457Y-54300536D01*
X67481523Y-54342407D01*
X67475245Y-54344559D01*
X67415755Y-54363187D01*
X67415748Y-54363190D01*
X67354438Y-54396668D01*
X67354430Y-54396673D01*
X67296219Y-54440249D01*
X67296209Y-54440258D01*
X67140248Y-54596220D01*
X67140238Y-54596231D01*
X67121961Y-54616579D01*
X67105344Y-54637200D01*
X67059134Y-54725540D01*
X67039450Y-54792575D01*
X67039448Y-54792583D01*
X67029100Y-54864560D01*
X67029100Y-55727039D01*
X67030563Y-55754334D01*
X67030567Y-55754388D01*
X67033397Y-55780710D01*
X67033398Y-55780712D01*
X67063186Y-55875841D01*
X67063192Y-55875856D01*
X67079037Y-55904874D01*
X67093889Y-55973147D01*
X67069472Y-56038611D01*
X67013538Y-56080482D01*
X66970205Y-56088300D01*
X66247854Y-56088300D01*
X66196934Y-56101944D01*
X66196933Y-56101943D01*
X66158716Y-56112184D01*
X66158709Y-56112187D01*
X66078791Y-56158327D01*
X66078786Y-56158331D01*
X65651641Y-56585476D01*
X65590318Y-56618961D01*
X65520626Y-56613977D01*
X65464693Y-56572105D01*
X65440276Y-56506641D01*
X65452561Y-56443332D01*
X65458895Y-56430375D01*
X65469799Y-56355535D01*
X65469799Y-56259000D01*
X65074799Y-56259000D01*
X65074799Y-57102200D01*
X65072248Y-57110885D01*
X65073537Y-57119847D01*
X65062558Y-57143887D01*
X65055114Y-57169239D01*
X65048273Y-57175166D01*
X65044512Y-57183403D01*
X65022277Y-57197692D01*
X65002310Y-57214994D01*
X64991795Y-57217281D01*
X64985734Y-57221177D01*
X64950799Y-57226200D01*
X64948799Y-57226200D01*
X64881760Y-57206515D01*
X64836005Y-57153711D01*
X64824799Y-57102200D01*
X64824799Y-56009000D01*
X65074799Y-56009000D01*
X65469798Y-56009000D01*
X65469798Y-55912460D01*
X65458895Y-55837625D01*
X65402462Y-55722189D01*
X65311609Y-55631336D01*
X65196173Y-55574903D01*
X65121335Y-55564000D01*
X65074799Y-55564000D01*
X65074799Y-56009000D01*
X64824799Y-56009000D01*
X64824799Y-55564000D01*
X64778264Y-55564000D01*
X64703425Y-55574903D01*
X64587990Y-55631335D01*
X64527833Y-55691492D01*
X64466509Y-55724976D01*
X64396818Y-55719991D01*
X64352471Y-55691491D01*
X64291903Y-55630923D01*
X64291900Y-55630921D01*
X64176322Y-55574419D01*
X64176320Y-55574418D01*
X64176319Y-55574418D01*
X64101383Y-55563500D01*
X64101378Y-55563500D01*
X64076100Y-55563500D01*
X64009061Y-55543815D01*
X63963306Y-55491011D01*
X63952100Y-55439500D01*
X63952100Y-54658334D01*
X63971785Y-54591295D01*
X64024589Y-54545540D01*
X64093747Y-54535596D01*
X64157303Y-54564621D01*
X64179203Y-54589444D01*
X64208238Y-54632899D01*
X64312699Y-54737360D01*
X64312703Y-54737363D01*
X64435535Y-54819437D01*
X64435545Y-54819442D01*
X64572032Y-54875977D01*
X64572040Y-54875979D01*
X64716926Y-54904799D01*
X64716929Y-54904800D01*
X65215800Y-54904800D01*
X65215800Y-54454800D01*
X65465800Y-54454800D01*
X65465800Y-54904800D01*
X65964671Y-54904800D01*
X65964673Y-54904799D01*
X66109559Y-54875979D01*
X66109567Y-54875977D01*
X66246054Y-54819442D01*
X66246064Y-54819437D01*
X66368896Y-54737363D01*
X66368900Y-54737360D01*
X66473360Y-54632900D01*
X66473363Y-54632896D01*
X66555437Y-54510064D01*
X66555442Y-54510054D01*
X66611977Y-54373567D01*
X66611979Y-54373559D01*
X66630629Y-54279800D01*
X66165041Y-54279800D01*
X66170355Y-54270596D01*
X66190799Y-54194296D01*
X66190799Y-54115304D01*
X66170355Y-54039004D01*
X66165041Y-54029800D01*
X66630629Y-54029800D01*
X66630629Y-54029799D01*
X66611979Y-53936040D01*
X66611977Y-53936032D01*
X66555442Y-53799545D01*
X66555438Y-53799537D01*
X66525460Y-53754671D01*
X66504583Y-53687993D01*
X66523068Y-53620613D01*
X66575047Y-53573924D01*
X66581113Y-53571219D01*
X66583345Y-53570294D01*
X66666039Y-53515039D01*
X66721294Y-53432344D01*
X66721296Y-53432340D01*
X66735799Y-53359428D01*
X66735800Y-53359426D01*
X66735800Y-53306926D01*
X66755485Y-53239887D01*
X66808289Y-53194132D01*
X66875032Y-53183865D01*
X66884279Y-53185009D01*
X66912722Y-53192979D01*
X66920745Y-53194031D01*
X66953963Y-53196200D01*
X66974685Y-53196200D01*
X66982271Y-53197139D01*
X66985807Y-53198670D01*
X66999131Y-53200424D01*
X67011284Y-53203681D01*
X67011298Y-53203683D01*
X67011299Y-53203684D01*
X67044171Y-53210216D01*
X67046579Y-53210531D01*
X67052268Y-53211278D01*
X67068863Y-53212906D01*
X67084985Y-53213958D01*
X67099983Y-53214446D01*
X67101618Y-53214500D01*
X67384203Y-53214500D01*
X67451242Y-53234185D01*
X67496997Y-53286989D01*
X67506941Y-53356147D01*
X67500387Y-53381829D01*
X67499283Y-53384788D01*
X67493200Y-53441371D01*
X67493200Y-53586800D01*
X68943199Y-53586800D01*
X68943199Y-53441366D01*
X68943198Y-53441360D01*
X68937118Y-53384792D01*
X68889386Y-53256818D01*
X68889384Y-53256815D01*
X68807529Y-53147470D01*
X68698184Y-53065615D01*
X68698177Y-53065611D01*
X68571411Y-53018329D01*
X68515477Y-52976458D01*
X68491061Y-52910993D01*
X68505913Y-52842720D01*
X68527063Y-52814468D01*
X68546547Y-52794985D01*
X68564826Y-52774635D01*
X68581460Y-52753993D01*
X68627665Y-52665662D01*
X68647350Y-52598623D01*
X68657700Y-52526638D01*
X68657700Y-51867362D01*
X68656236Y-51840048D01*
X68653402Y-51813690D01*
X68623613Y-51718556D01*
X68607434Y-51688927D01*
X68590131Y-51657238D01*
X68590126Y-51657230D01*
X68546550Y-51599019D01*
X68546549Y-51599018D01*
X68546547Y-51599015D01*
X68546542Y-51599010D01*
X68546534Y-51599001D01*
X68480412Y-51532879D01*
X68446927Y-51471556D01*
X68451911Y-51401864D01*
X68493783Y-51345931D01*
X68559247Y-51321514D01*
X68568093Y-51321198D01*
X69307317Y-51321198D01*
X69307318Y-51321198D01*
X69401104Y-51306345D01*
X69514142Y-51248749D01*
X69603850Y-51159041D01*
X69661446Y-51046003D01*
X69661446Y-51046001D01*
X69661447Y-51046000D01*
X69676299Y-50952223D01*
X69676300Y-50952218D01*
X69676299Y-50589181D01*
X69661446Y-50495395D01*
X69603850Y-50382357D01*
X69603845Y-50382352D01*
X69598111Y-50374458D01*
X69599350Y-50373557D01*
X69571036Y-50321704D01*
X69576020Y-50252012D01*
X69598417Y-50217163D01*
X69597702Y-50216644D01*
X69603439Y-50208746D01*
X69660966Y-50095844D01*
X69675800Y-50002184D01*
X69675800Y-49945700D01*
X67850801Y-49945700D01*
X67850801Y-50002179D01*
X67864852Y-50090904D01*
X67855896Y-50160198D01*
X67810898Y-50213649D01*
X67744147Y-50234287D01*
X67742378Y-50234300D01*
X67459509Y-50234300D01*
X67392470Y-50214615D01*
X67346715Y-50161811D01*
X67336771Y-50092653D01*
X67352120Y-50048303D01*
X67382614Y-49995488D01*
X67385179Y-49985916D01*
X67389421Y-49970087D01*
X67398957Y-49934494D01*
X67406500Y-49906344D01*
X67406500Y-49559300D01*
X67409050Y-49550614D01*
X67407762Y-49541653D01*
X67418740Y-49517612D01*
X67426185Y-49492261D01*
X67433025Y-49486333D01*
X67436787Y-49478097D01*
X67459021Y-49463807D01*
X67478989Y-49446506D01*
X67489503Y-49444218D01*
X67495565Y-49440323D01*
X67530500Y-49435300D01*
X67737912Y-49435300D01*
X67804951Y-49454985D01*
X67850706Y-49507789D01*
X67860650Y-49576947D01*
X67860385Y-49578698D01*
X67850800Y-49639213D01*
X67850800Y-49695700D01*
X69675799Y-49695700D01*
X69675799Y-49639220D01*
X69660964Y-49545550D01*
X69660962Y-49545544D01*
X69603443Y-49432658D01*
X69597702Y-49424756D01*
X69599074Y-49423759D01*
X69571036Y-49372411D01*
X69576020Y-49302719D01*
X69598727Y-49267389D01*
X69598111Y-49266942D01*
X69603842Y-49259050D01*
X69603850Y-49259043D01*
X69661446Y-49146005D01*
X69661446Y-49146003D01*
X69661447Y-49146002D01*
X69676299Y-49052225D01*
X69676300Y-49052220D01*
X69676299Y-48689183D01*
X69661446Y-48595397D01*
X69603850Y-48482359D01*
X69603846Y-48482355D01*
X69603845Y-48482353D01*
X69514147Y-48392655D01*
X69514144Y-48392653D01*
X69514142Y-48392651D01*
X69416954Y-48343131D01*
X69401101Y-48335053D01*
X69307324Y-48320201D01*
X68520092Y-48320201D01*
X68453053Y-48300516D01*
X68407298Y-48247712D01*
X68397354Y-48178554D01*
X68426379Y-48114998D01*
X68432384Y-48108547D01*
X68546547Y-47994385D01*
X68564826Y-47974035D01*
X68581460Y-47953393D01*
X68627665Y-47865062D01*
X68647350Y-47798023D01*
X68657700Y-47726038D01*
X68657700Y-47066762D01*
X68656236Y-47039448D01*
X68655272Y-47030483D01*
X68653402Y-47013089D01*
X68653401Y-47013087D01*
X68639989Y-46970255D01*
X68623613Y-46917956D01*
X68617948Y-46907582D01*
X68590131Y-46856638D01*
X68590126Y-46856630D01*
X68546550Y-46798419D01*
X68546549Y-46798418D01*
X68546547Y-46798415D01*
X68546542Y-46798410D01*
X68546534Y-46798401D01*
X68314399Y-46566267D01*
X68314385Y-46566253D01*
X68294035Y-46547974D01*
X68294029Y-46547969D01*
X68294020Y-46547961D01*
X68273399Y-46531344D01*
X68273396Y-46531342D01*
X68273393Y-46531340D01*
X68185062Y-46485135D01*
X68182174Y-46484287D01*
X68118024Y-46465450D01*
X68118016Y-46465448D01*
X68046039Y-46455100D01*
X68046038Y-46455100D01*
X66929563Y-46455100D01*
X66929562Y-46455100D01*
X66902265Y-46456563D01*
X66902261Y-46456563D01*
X66902248Y-46456564D01*
X66875891Y-46459398D01*
X66875890Y-46459398D01*
X66873055Y-46459703D01*
X66804296Y-46447297D01*
X66753158Y-46399687D01*
X66735800Y-46336413D01*
X66735800Y-46310173D01*
X66735799Y-46310171D01*
X66721296Y-46237259D01*
X66721294Y-46237255D01*
X66666039Y-46154560D01*
X66583343Y-46099304D01*
X66581105Y-46098377D01*
X66576978Y-46095051D01*
X66573190Y-46092520D01*
X66573416Y-46092180D01*
X66526704Y-46054534D01*
X66504642Y-45988239D01*
X66521924Y-45920540D01*
X66525461Y-45914927D01*
X66555437Y-45870064D01*
X66555442Y-45870054D01*
X66611977Y-45733567D01*
X66611979Y-45733559D01*
X66630629Y-45639800D01*
X66165041Y-45639800D01*
X66170355Y-45630596D01*
X66190799Y-45554296D01*
X66190799Y-45475304D01*
X66170355Y-45399004D01*
X66165041Y-45389800D01*
X66630629Y-45389800D01*
X66630629Y-45389799D01*
X66611979Y-45296040D01*
X66611977Y-45296032D01*
X66555442Y-45159545D01*
X66555437Y-45159535D01*
X66473363Y-45036703D01*
X66473360Y-45036699D01*
X66368900Y-44932239D01*
X66368896Y-44932236D01*
X66246064Y-44850162D01*
X66246054Y-44850157D01*
X66109567Y-44793622D01*
X66109559Y-44793620D01*
X65964672Y-44764800D01*
X65465800Y-44764800D01*
X65465800Y-45214800D01*
X65215800Y-45214800D01*
X65215800Y-44764800D01*
X64716928Y-44764800D01*
X64572040Y-44793620D01*
X64572032Y-44793622D01*
X64435545Y-44850157D01*
X64435535Y-44850162D01*
X64312703Y-44932236D01*
X64312699Y-44932239D01*
X64208239Y-45036699D01*
X64208236Y-45036703D01*
X64126162Y-45159535D01*
X64126157Y-45159545D01*
X64069622Y-45296032D01*
X64069620Y-45296040D01*
X64050970Y-45389799D01*
X64050971Y-45389800D01*
X64516559Y-45389800D01*
X64511245Y-45399004D01*
X64490801Y-45475304D01*
X64490801Y-45554296D01*
X64511245Y-45630596D01*
X64516559Y-45639800D01*
X64050970Y-45639800D01*
X64069620Y-45733559D01*
X64069622Y-45733567D01*
X64126157Y-45870054D01*
X64126162Y-45870064D01*
X64208236Y-45992896D01*
X64208239Y-45992900D01*
X64312699Y-46097360D01*
X64312703Y-46097363D01*
X64435535Y-46179437D01*
X64435548Y-46179444D01*
X64540886Y-46223076D01*
X64595290Y-46266917D01*
X64617355Y-46333211D01*
X64600076Y-46400910D01*
X64555436Y-46445023D01*
X64487438Y-46484283D01*
X64487432Y-46484287D01*
X64380287Y-46591432D01*
X64380285Y-46591435D01*
X64304519Y-46722663D01*
X64279028Y-46817800D01*
X64265300Y-46869034D01*
X64265300Y-47020566D01*
X64275181Y-47057442D01*
X64304519Y-47166936D01*
X64329016Y-47209365D01*
X64380285Y-47298165D01*
X64487435Y-47405315D01*
X64618665Y-47481081D01*
X64765034Y-47520300D01*
X64765036Y-47520300D01*
X64916564Y-47520300D01*
X64916566Y-47520300D01*
X64929206Y-47516913D01*
X64950398Y-47517417D01*
X64971150Y-47513079D01*
X64984627Y-47518230D01*
X64999054Y-47518574D01*
X65016613Y-47530457D01*
X65036414Y-47538027D01*
X65044966Y-47549646D01*
X65056917Y-47557735D01*
X65065263Y-47577223D01*
X65077830Y-47594298D01*
X65081504Y-47615147D01*
X65084423Y-47621963D01*
X65085052Y-47628846D01*
X65085300Y-47632759D01*
X65085300Y-47759474D01*
X65097082Y-47818705D01*
X65097605Y-47826959D01*
X65095471Y-47836398D01*
X65095471Y-47858990D01*
X65085300Y-47910126D01*
X65085300Y-48110301D01*
X65065615Y-48177340D01*
X65012811Y-48223095D01*
X64961300Y-48234301D01*
X63662455Y-48234301D01*
X63588190Y-48254200D01*
X63588189Y-48254199D01*
X63573313Y-48258186D01*
X63573308Y-48258188D01*
X63493390Y-48304328D01*
X63493385Y-48304332D01*
X62838532Y-48959185D01*
X62838528Y-48959191D01*
X62792664Y-49038628D01*
X62792665Y-49038629D01*
X62792385Y-49039113D01*
X62768500Y-49128256D01*
X60075500Y-49128256D01*
X60075500Y-46159523D01*
X60095185Y-46092484D01*
X60147989Y-46046729D01*
X60217147Y-46036785D01*
X60280703Y-46065810D01*
X60287181Y-46071842D01*
X60312699Y-46097360D01*
X60312703Y-46097363D01*
X60435535Y-46179437D01*
X60435545Y-46179442D01*
X60572032Y-46235977D01*
X60572040Y-46235979D01*
X60716926Y-46264799D01*
X60716929Y-46264800D01*
X61065800Y-46264800D01*
X61065800Y-45814800D01*
X61315800Y-45814800D01*
X61315800Y-46264800D01*
X61664671Y-46264800D01*
X61664673Y-46264799D01*
X61809559Y-46235979D01*
X61809567Y-46235977D01*
X61946054Y-46179442D01*
X61946064Y-46179437D01*
X62068896Y-46097363D01*
X62068900Y-46097360D01*
X62173360Y-45992900D01*
X62173363Y-45992896D01*
X62255437Y-45870064D01*
X62255442Y-45870054D01*
X62311977Y-45733567D01*
X62311979Y-45733559D01*
X62330629Y-45639800D01*
X61865041Y-45639800D01*
X61870355Y-45630596D01*
X61890799Y-45554296D01*
X61890799Y-45475304D01*
X61870355Y-45399004D01*
X61865041Y-45389800D01*
X62330629Y-45389800D01*
X62330629Y-45389799D01*
X62311979Y-45296040D01*
X62311977Y-45296032D01*
X62255442Y-45159545D01*
X62255437Y-45159535D01*
X62173363Y-45036703D01*
X62173360Y-45036699D01*
X62068900Y-44932239D01*
X62068896Y-44932236D01*
X61946064Y-44850162D01*
X61946054Y-44850157D01*
X61809567Y-44793622D01*
X61809559Y-44793620D01*
X61664672Y-44764800D01*
X61315800Y-44764800D01*
X61315800Y-45214800D01*
X61065800Y-45214800D01*
X61065800Y-44764800D01*
X60716928Y-44764800D01*
X60572040Y-44793620D01*
X60572032Y-44793622D01*
X60435545Y-44850157D01*
X60435535Y-44850162D01*
X60312703Y-44932236D01*
X60312699Y-44932239D01*
X60287181Y-44957758D01*
X60225858Y-44991243D01*
X60156166Y-44986259D01*
X60100233Y-44944387D01*
X60075816Y-44878923D01*
X60075500Y-44870077D01*
X60075500Y-40945838D01*
X61467700Y-40945838D01*
X61467700Y-41197762D01*
X61481967Y-41287837D01*
X61507110Y-41446585D01*
X61584960Y-41686183D01*
X61655796Y-41825205D01*
X61678625Y-41870010D01*
X61699332Y-41910648D01*
X61847401Y-42114449D01*
X61847405Y-42114454D01*
X62025545Y-42292594D01*
X62025550Y-42292598D01*
X62194391Y-42415267D01*
X62229355Y-42440670D01*
X62372384Y-42513547D01*
X62453816Y-42555039D01*
X62453818Y-42555039D01*
X62453821Y-42555041D01*
X62693415Y-42632890D01*
X62942238Y-42672300D01*
X62942239Y-42672300D01*
X63194161Y-42672300D01*
X63194162Y-42672300D01*
X63442985Y-42632890D01*
X63682579Y-42555041D01*
X63907045Y-42440670D01*
X64110856Y-42292593D01*
X64288993Y-42114456D01*
X64430763Y-41919326D01*
X68876900Y-41919326D01*
X68876900Y-41937513D01*
X68876900Y-43668678D01*
X68891432Y-43741735D01*
X68891433Y-43741739D01*
X68896855Y-43749853D01*
X68946799Y-43824601D01*
X69000777Y-43860667D01*
X69029660Y-43879966D01*
X69029664Y-43879967D01*
X69102721Y-43894499D01*
X69102724Y-43894500D01*
X69102726Y-43894500D01*
X69752076Y-43894500D01*
X69752077Y-43894499D01*
X69825140Y-43879966D01*
X69908001Y-43824601D01*
X69949298Y-43762793D01*
X70002909Y-43717990D01*
X70072234Y-43709282D01*
X70135262Y-43739436D01*
X70155499Y-43762791D01*
X70196799Y-43824601D01*
X70250777Y-43860667D01*
X70279660Y-43879966D01*
X70279664Y-43879967D01*
X70352721Y-43894499D01*
X70352724Y-43894500D01*
X70352726Y-43894500D01*
X70602900Y-43894500D01*
X70669939Y-43914185D01*
X70715694Y-43966989D01*
X70726900Y-44018500D01*
X70726900Y-44339942D01*
X70739743Y-44387873D01*
X70750784Y-44429083D01*
X70750785Y-44429084D01*
X70796927Y-44509006D01*
X70796931Y-44509011D01*
X71050010Y-44762090D01*
X71083495Y-44823413D01*
X71078511Y-44893105D01*
X71067326Y-44915737D01*
X71025199Y-44982789D01*
X71025196Y-44982795D01*
X70981250Y-45108407D01*
X70981249Y-45108414D01*
X70966360Y-45240647D01*
X70966360Y-45240650D01*
X70966360Y-45240654D01*
X70979132Y-45353899D01*
X70981274Y-45372894D01*
X70981274Y-45372896D01*
X71025241Y-45498500D01*
X71079429Y-45584712D01*
X71096062Y-45611174D01*
X71136033Y-45651133D01*
X71252398Y-45767498D01*
X71274975Y-45790075D01*
X71387646Y-45860871D01*
X71513246Y-45904821D01*
X71513249Y-45904822D01*
X71645473Y-45919720D01*
X71645477Y-45919720D01*
X71645481Y-45919720D01*
X71777704Y-45904822D01*
X71777706Y-45904821D01*
X71777708Y-45904821D01*
X71903308Y-45860871D01*
X71970335Y-45818754D01*
X72037571Y-45799755D01*
X72104407Y-45820122D01*
X72123988Y-45836068D01*
X72514781Y-46226861D01*
X72548266Y-46288184D01*
X72551100Y-46314542D01*
X72551100Y-49087858D01*
X72542455Y-49117298D01*
X72535932Y-49147285D01*
X72532177Y-49152300D01*
X72531415Y-49154897D01*
X72514781Y-49175539D01*
X72481439Y-49208881D01*
X72420116Y-49242366D01*
X72393758Y-49245200D01*
X72322342Y-49245200D01*
X72255303Y-49225515D01*
X72234661Y-49208881D01*
X71987618Y-48961838D01*
X71954133Y-48900515D01*
X71951299Y-48874157D01*
X71951299Y-48689183D01*
X71947618Y-48665939D01*
X71936446Y-48595397D01*
X71878850Y-48482359D01*
X71878846Y-48482355D01*
X71878845Y-48482353D01*
X71789147Y-48392655D01*
X71789144Y-48392653D01*
X71789142Y-48392651D01*
X71691954Y-48343131D01*
X71676101Y-48335053D01*
X71582324Y-48320201D01*
X70494282Y-48320201D01*
X70416376Y-48332540D01*
X70400496Y-48335055D01*
X70287458Y-48392651D01*
X70287457Y-48392652D01*
X70287452Y-48392655D01*
X70197754Y-48482353D01*
X70197751Y-48482358D01*
X70140152Y-48595399D01*
X70125300Y-48689176D01*
X70125300Y-49052218D01*
X70129679Y-49079864D01*
X70140154Y-49146005D01*
X70197750Y-49259043D01*
X70197753Y-49259046D01*
X70203489Y-49266942D01*
X70202249Y-49267842D01*
X70230563Y-49319695D01*
X70225579Y-49389387D01*
X70203182Y-49424242D01*
X70203895Y-49424760D01*
X70198161Y-49432651D01*
X70140633Y-49545555D01*
X70125800Y-49639213D01*
X70125800Y-49695700D01*
X70914300Y-49695700D01*
X70922985Y-49698250D01*
X70931947Y-49696962D01*
X70955987Y-49707940D01*
X70981339Y-49715385D01*
X70987266Y-49722225D01*
X70995503Y-49725987D01*
X71009792Y-49748221D01*
X71027094Y-49768189D01*
X71029381Y-49778703D01*
X71033277Y-49784765D01*
X71038300Y-49819700D01*
X71038300Y-49821700D01*
X71018615Y-49888739D01*
X70965811Y-49934494D01*
X70914300Y-49945700D01*
X70125801Y-49945700D01*
X70125801Y-50002179D01*
X70140635Y-50095849D01*
X70140637Y-50095855D01*
X70198156Y-50208741D01*
X70203898Y-50216644D01*
X70202525Y-50217641D01*
X70230563Y-50268988D01*
X70225579Y-50338680D01*
X70202872Y-50374016D01*
X70203486Y-50374462D01*
X70197752Y-50382354D01*
X70140152Y-50495397D01*
X70125300Y-50589174D01*
X70125300Y-50952216D01*
X70134651Y-51011256D01*
X70140154Y-51046003D01*
X70197750Y-51159041D01*
X70197752Y-51159043D01*
X70197754Y-51159046D01*
X70287452Y-51248744D01*
X70287454Y-51248745D01*
X70287458Y-51248749D01*
X70396543Y-51304331D01*
X70400498Y-51306346D01*
X70487916Y-51320190D01*
X70491212Y-51320713D01*
X70494275Y-51321198D01*
X70494281Y-51321199D01*
X71582318Y-51321198D01*
X71676104Y-51306345D01*
X71789142Y-51248749D01*
X71878850Y-51159041D01*
X71936446Y-51046003D01*
X71936446Y-51046001D01*
X71936447Y-51046000D01*
X71951299Y-50952223D01*
X71951300Y-50952218D01*
X71951299Y-50767242D01*
X71970983Y-50700203D01*
X71987613Y-50679566D01*
X72234661Y-50432519D01*
X72295984Y-50399034D01*
X72322342Y-50396200D01*
X72822840Y-50396200D01*
X72822842Y-50396200D01*
X72911986Y-50372314D01*
X72991910Y-50326170D01*
X73632070Y-49686010D01*
X73678214Y-49606086D01*
X73681402Y-49594188D01*
X73702100Y-49516942D01*
X73702100Y-45885458D01*
X73678214Y-45796314D01*
X73674612Y-45790075D01*
X73632073Y-45716396D01*
X73632070Y-45716393D01*
X73632069Y-45716390D01*
X73566812Y-45651133D01*
X72794602Y-44878923D01*
X72021861Y-44106181D01*
X71988376Y-44044858D01*
X71993360Y-43975166D01*
X72035232Y-43919233D01*
X72100696Y-43894816D01*
X72109542Y-43894500D01*
X72252076Y-43894500D01*
X72252077Y-43894499D01*
X72325140Y-43879966D01*
X72408001Y-43824601D01*
X72449298Y-43762793D01*
X72502909Y-43717990D01*
X72572234Y-43709282D01*
X72635262Y-43739436D01*
X72638779Y-43742720D01*
X72648201Y-43751868D01*
X72696799Y-43824601D01*
X72779660Y-43879966D01*
X72780256Y-43880084D01*
X72789279Y-43888845D01*
X72801139Y-43909824D01*
X72816596Y-43928319D01*
X72819511Y-43942322D01*
X72823664Y-43949668D01*
X72823102Y-43959570D01*
X72826900Y-43977810D01*
X72826900Y-44445345D01*
X72843958Y-44509009D01*
X72850784Y-44534484D01*
X72850787Y-44534491D01*
X72896927Y-44614408D01*
X72896929Y-44614411D01*
X72896930Y-44614412D01*
X73517762Y-45235244D01*
X74111381Y-45828862D01*
X74144866Y-45890185D01*
X74147700Y-45916543D01*
X74147700Y-51227145D01*
X74168381Y-51304329D01*
X74171585Y-51316286D01*
X74171587Y-51316291D01*
X74217727Y-51396208D01*
X74217731Y-51396213D01*
X74596104Y-51774586D01*
X74629589Y-51835909D01*
X74631361Y-51846076D01*
X74632298Y-51853193D01*
X74632300Y-51853199D01*
X74632300Y-51853201D01*
X74664705Y-51974136D01*
X74727305Y-52082564D01*
X74815836Y-52171095D01*
X74924264Y-52233695D01*
X75045199Y-52266100D01*
X75045201Y-52266100D01*
X75170399Y-52266100D01*
X75170401Y-52266100D01*
X75291336Y-52233695D01*
X75399764Y-52171095D01*
X75488295Y-52082564D01*
X75550895Y-51974136D01*
X75583300Y-51853201D01*
X75583300Y-51727999D01*
X75550895Y-51607064D01*
X75488295Y-51498636D01*
X75399764Y-51410105D01*
X75291336Y-51347505D01*
X75291337Y-51347505D01*
X75193162Y-51321199D01*
X75170401Y-51315100D01*
X75170400Y-51315100D01*
X75170393Y-51315098D01*
X75163276Y-51314161D01*
X75099380Y-51285892D01*
X75091786Y-51278904D01*
X74885019Y-51072137D01*
X74851534Y-51010814D01*
X74848700Y-50984456D01*
X74848700Y-49079864D01*
X81164401Y-49079864D01*
X81164401Y-49176400D01*
X81559401Y-49176400D01*
X81559401Y-48731400D01*
X81512866Y-48731400D01*
X81438027Y-48742303D01*
X81322590Y-48798736D01*
X81231737Y-48889589D01*
X81175304Y-49005025D01*
X81164401Y-49079864D01*
X74848700Y-49079864D01*
X74848700Y-48592428D01*
X96171600Y-48592428D01*
X96186103Y-48665340D01*
X96186105Y-48665344D01*
X96241360Y-48748039D01*
X96324055Y-48803294D01*
X96324059Y-48803296D01*
X96396971Y-48817799D01*
X96396974Y-48817800D01*
X97996600Y-48817800D01*
X97996600Y-47942800D01*
X96171600Y-47942800D01*
X96171600Y-48592428D01*
X74848700Y-48592428D01*
X74848700Y-45673858D01*
X74848700Y-45673856D01*
X74824814Y-45584712D01*
X74807253Y-45554296D01*
X74778673Y-45504794D01*
X74778670Y-45504791D01*
X74778669Y-45504788D01*
X74713412Y-45439531D01*
X74143958Y-44870077D01*
X73564219Y-44290337D01*
X73549515Y-44263409D01*
X73532923Y-44237591D01*
X73532031Y-44231390D01*
X73530734Y-44229014D01*
X73527900Y-44202656D01*
X73527900Y-43977810D01*
X73547585Y-43910771D01*
X73583008Y-43874708D01*
X73658001Y-43824601D01*
X73699298Y-43762793D01*
X73752909Y-43717990D01*
X73822234Y-43709282D01*
X73885262Y-43739436D01*
X73905499Y-43762791D01*
X73946799Y-43824601D01*
X74021790Y-43874708D01*
X74066596Y-43928319D01*
X74076900Y-43977810D01*
X74076900Y-44167346D01*
X74098419Y-44247654D01*
X74100786Y-44256489D01*
X74100787Y-44256492D01*
X74146927Y-44336410D01*
X74146931Y-44336415D01*
X75415381Y-45604865D01*
X75448866Y-45666188D01*
X75451700Y-45692546D01*
X75451700Y-45887584D01*
X75462618Y-45962520D01*
X75462618Y-45962521D01*
X75462619Y-45962523D01*
X75519121Y-46078101D01*
X75519123Y-46078104D01*
X75579339Y-46138320D01*
X75612824Y-46199643D01*
X75607840Y-46269335D01*
X75579339Y-46313682D01*
X75519123Y-46373897D01*
X75519121Y-46373900D01*
X75462619Y-46489478D01*
X75462618Y-46489480D01*
X75462618Y-46489482D01*
X75451700Y-46564418D01*
X75451700Y-46907582D01*
X75462618Y-46982518D01*
X75462618Y-46982519D01*
X75462619Y-46982521D01*
X75519121Y-47098099D01*
X75519123Y-47098102D01*
X75543663Y-47122642D01*
X75577148Y-47183965D01*
X75572164Y-47253657D01*
X75563373Y-47272316D01*
X75553708Y-47289058D01*
X75553705Y-47289064D01*
X75521300Y-47409999D01*
X75521300Y-47535201D01*
X75553705Y-47656136D01*
X75616305Y-47764564D01*
X75704836Y-47853095D01*
X75813264Y-47915695D01*
X75934199Y-47948100D01*
X75934201Y-47948100D01*
X76059399Y-47948100D01*
X76059401Y-47948100D01*
X76180336Y-47915695D01*
X76288764Y-47853095D01*
X76377295Y-47764564D01*
X76439895Y-47656136D01*
X76472300Y-47535201D01*
X76472300Y-47409999D01*
X76439895Y-47289064D01*
X76439893Y-47289062D01*
X76437791Y-47281214D01*
X76439580Y-47280734D01*
X76438946Y-47274843D01*
X76432345Y-47260035D01*
X76435285Y-47240820D01*
X76433206Y-47221494D01*
X76440573Y-47206272D01*
X76442915Y-47190970D01*
X76459271Y-47167638D01*
X76462265Y-47161453D01*
X76464818Y-47158559D01*
X76525276Y-47098102D01*
X76534099Y-47080053D01*
X76545177Y-47067501D01*
X76561144Y-47057442D01*
X76573876Y-47043507D01*
X76590095Y-47039204D01*
X76604294Y-47030260D01*
X76623168Y-47030431D01*
X76641410Y-47025592D01*
X76657380Y-47030740D01*
X76674161Y-47030893D01*
X76689945Y-47041240D01*
X76707909Y-47047032D01*
X76719912Y-47060885D01*
X76732595Y-47069199D01*
X76738399Y-47082220D01*
X76744966Y-47089799D01*
X76745052Y-47089739D01*
X76745696Y-47090641D01*
X76749551Y-47095090D01*
X76751023Y-47098102D01*
X76774361Y-47121440D01*
X76807846Y-47182763D01*
X76802862Y-47252455D01*
X76801244Y-47256566D01*
X76798307Y-47263656D01*
X76794180Y-47279057D01*
X76765900Y-47384599D01*
X76765900Y-47509801D01*
X76798305Y-47630736D01*
X76860905Y-47739164D01*
X76949436Y-47827695D01*
X77057864Y-47890295D01*
X77178799Y-47922700D01*
X77178801Y-47922700D01*
X77303999Y-47922700D01*
X77304001Y-47922700D01*
X77424936Y-47890295D01*
X77533364Y-47827695D01*
X77621895Y-47739164D01*
X77684495Y-47630736D01*
X77716900Y-47509801D01*
X77716900Y-47384599D01*
X77684495Y-47263664D01*
X77684493Y-47263661D01*
X77683396Y-47259565D01*
X77683568Y-47252296D01*
X77680516Y-47245694D01*
X77684389Y-47217829D01*
X77685058Y-47189715D01*
X77689369Y-47181994D01*
X77690135Y-47176490D01*
X77702186Y-47159045D01*
X77709076Y-47146709D01*
X77712147Y-47143130D01*
X77757176Y-47098102D01*
X77765619Y-47080831D01*
X77775956Y-47068788D01*
X77792483Y-47058055D01*
X77805776Y-47043507D01*
X77821184Y-47039419D01*
X77834556Y-47030737D01*
X77854263Y-47030644D01*
X77873310Y-47025592D01*
X77888482Y-47030483D01*
X77904425Y-47030409D01*
X77921052Y-47040984D01*
X77939809Y-47047032D01*
X77951163Y-47060135D01*
X77963380Y-47067906D01*
X77969654Y-47081476D01*
X77976866Y-47089799D01*
X77976952Y-47089739D01*
X77977596Y-47090641D01*
X77981451Y-47095090D01*
X77982923Y-47098102D01*
X78032863Y-47148042D01*
X78066348Y-47209365D01*
X78061364Y-47279057D01*
X78052572Y-47297718D01*
X78042907Y-47314459D01*
X78042905Y-47314462D01*
X78024113Y-47384596D01*
X78010500Y-47435399D01*
X78010500Y-47560601D01*
X78042905Y-47681536D01*
X78105505Y-47789964D01*
X78194036Y-47878495D01*
X78302464Y-47941095D01*
X78423399Y-47973500D01*
X78423401Y-47973500D01*
X78548599Y-47973500D01*
X78548601Y-47973500D01*
X78669536Y-47941095D01*
X78777964Y-47878495D01*
X78866495Y-47789964D01*
X78894979Y-47740628D01*
X82533800Y-47740628D01*
X82548303Y-47813540D01*
X82548305Y-47813544D01*
X82603560Y-47896239D01*
X82686255Y-47951494D01*
X82686259Y-47951496D01*
X82759171Y-47965999D01*
X82759174Y-47966000D01*
X83158800Y-47966000D01*
X83408800Y-47966000D01*
X83808426Y-47966000D01*
X83808428Y-47965999D01*
X83881340Y-47951496D01*
X83881344Y-47951494D01*
X83964039Y-47896239D01*
X84019294Y-47813544D01*
X84019296Y-47813540D01*
X84033799Y-47740628D01*
X84033800Y-47740626D01*
X84033800Y-46091000D01*
X83408800Y-46091000D01*
X83408800Y-47966000D01*
X83158800Y-47966000D01*
X83158800Y-46091000D01*
X82533800Y-46091000D01*
X82533800Y-47740628D01*
X78894979Y-47740628D01*
X78929095Y-47681536D01*
X78961500Y-47560601D01*
X78961500Y-47435399D01*
X78929095Y-47314464D01*
X78919428Y-47297721D01*
X78902958Y-47229821D01*
X78925810Y-47163795D01*
X78939137Y-47148041D01*
X78989076Y-47098102D01*
X78989078Y-47098099D01*
X79021933Y-47030893D01*
X79045582Y-46982518D01*
X79056500Y-46907582D01*
X79056500Y-46564418D01*
X79045582Y-46489482D01*
X79043040Y-46484283D01*
X78989078Y-46373900D01*
X78989076Y-46373897D01*
X78928861Y-46313682D01*
X78895376Y-46252359D01*
X78900360Y-46182667D01*
X78914678Y-46155292D01*
X78921010Y-46146169D01*
X78989076Y-46078104D01*
X79045582Y-45962520D01*
X79056500Y-45887584D01*
X79056500Y-45544420D01*
X79045582Y-45469484D01*
X79030939Y-45439531D01*
X78989078Y-45353902D01*
X78989076Y-45353899D01*
X78898102Y-45262925D01*
X78898099Y-45262923D01*
X78782521Y-45206421D01*
X78782519Y-45206420D01*
X78782518Y-45206420D01*
X78707582Y-45195502D01*
X78707577Y-45195502D01*
X78508545Y-45195502D01*
X78441506Y-45175817D01*
X78420864Y-45159183D01*
X77534647Y-44272965D01*
X77453053Y-44191371D01*
X82533800Y-44191371D01*
X82533800Y-45841000D01*
X83158800Y-45841000D01*
X83408800Y-45841000D01*
X84033800Y-45841000D01*
X84033800Y-44191372D01*
X84033790Y-44191321D01*
X84533300Y-44191321D01*
X84533300Y-47740678D01*
X84547832Y-47813735D01*
X84547833Y-47813739D01*
X84561906Y-47834800D01*
X84603199Y-47896601D01*
X84642260Y-47922700D01*
X84686060Y-47951966D01*
X84686064Y-47951967D01*
X84759121Y-47966499D01*
X84759124Y-47966500D01*
X84759126Y-47966500D01*
X85808476Y-47966500D01*
X85808477Y-47966499D01*
X85881540Y-47951966D01*
X85964401Y-47896601D01*
X86019766Y-47813740D01*
X86034300Y-47740674D01*
X86034300Y-47740628D01*
X86533800Y-47740628D01*
X86548303Y-47813540D01*
X86548305Y-47813544D01*
X86603560Y-47896239D01*
X86686255Y-47951494D01*
X86686259Y-47951496D01*
X86759171Y-47965999D01*
X86759174Y-47966000D01*
X87158800Y-47966000D01*
X87408800Y-47966000D01*
X87808426Y-47966000D01*
X87808428Y-47965999D01*
X87881340Y-47951496D01*
X87881344Y-47951494D01*
X87964039Y-47896239D01*
X88019294Y-47813544D01*
X88019296Y-47813540D01*
X88033799Y-47740628D01*
X88033800Y-47740626D01*
X88033800Y-46091000D01*
X87408800Y-46091000D01*
X87408800Y-47966000D01*
X87158800Y-47966000D01*
X87158800Y-46091000D01*
X86533800Y-46091000D01*
X86533800Y-47740628D01*
X86034300Y-47740628D01*
X86034300Y-44191371D01*
X86533800Y-44191371D01*
X86533800Y-45841000D01*
X87158800Y-45841000D01*
X87408800Y-45841000D01*
X88033800Y-45841000D01*
X88033800Y-44191372D01*
X88033790Y-44191321D01*
X88533300Y-44191321D01*
X88533300Y-47740678D01*
X88547832Y-47813735D01*
X88547833Y-47813739D01*
X88561906Y-47834800D01*
X88603199Y-47896601D01*
X88642260Y-47922700D01*
X88686060Y-47951966D01*
X88686064Y-47951967D01*
X88759121Y-47966499D01*
X88759124Y-47966500D01*
X88759126Y-47966500D01*
X89808476Y-47966500D01*
X89808477Y-47966499D01*
X89881540Y-47951966D01*
X89964401Y-47896601D01*
X90019766Y-47813740D01*
X90034300Y-47740674D01*
X90034300Y-47043171D01*
X96171600Y-47043171D01*
X96171600Y-47692800D01*
X97996600Y-47692800D01*
X97996600Y-46817800D01*
X96396973Y-46817800D01*
X96324059Y-46832303D01*
X96324055Y-46832305D01*
X96241360Y-46887560D01*
X96186105Y-46970255D01*
X96186103Y-46970259D01*
X96171600Y-47043171D01*
X90034300Y-47043171D01*
X90034300Y-44191326D01*
X90034300Y-44191323D01*
X90034299Y-44191321D01*
X90019767Y-44118264D01*
X90019766Y-44118260D01*
X89975126Y-44051451D01*
X89964401Y-44035399D01*
X89896647Y-43990128D01*
X89881539Y-43980033D01*
X89881535Y-43980032D01*
X89808477Y-43965500D01*
X89808474Y-43965500D01*
X88759126Y-43965500D01*
X88759123Y-43965500D01*
X88686064Y-43980032D01*
X88686060Y-43980033D01*
X88603199Y-44035399D01*
X88547833Y-44118260D01*
X88547832Y-44118264D01*
X88533300Y-44191321D01*
X88033790Y-44191321D01*
X88019296Y-44118459D01*
X88019294Y-44118455D01*
X87964039Y-44035760D01*
X87881344Y-43980505D01*
X87881340Y-43980503D01*
X87808427Y-43966000D01*
X87408800Y-43966000D01*
X87408800Y-45841000D01*
X87158800Y-45841000D01*
X87158800Y-43966000D01*
X86759173Y-43966000D01*
X86686259Y-43980503D01*
X86686255Y-43980505D01*
X86603560Y-44035760D01*
X86548305Y-44118455D01*
X86548303Y-44118459D01*
X86533800Y-44191371D01*
X86034300Y-44191371D01*
X86034300Y-44191326D01*
X86034300Y-44191323D01*
X86034299Y-44191321D01*
X86019767Y-44118264D01*
X86019766Y-44118260D01*
X85975126Y-44051451D01*
X85964401Y-44035399D01*
X85896647Y-43990128D01*
X85881539Y-43980033D01*
X85881535Y-43980032D01*
X85808477Y-43965500D01*
X85808474Y-43965500D01*
X84759126Y-43965500D01*
X84759123Y-43965500D01*
X84686064Y-43980032D01*
X84686060Y-43980033D01*
X84603199Y-44035399D01*
X84547833Y-44118260D01*
X84547832Y-44118264D01*
X84533300Y-44191321D01*
X84033790Y-44191321D01*
X84019296Y-44118459D01*
X84019294Y-44118455D01*
X83964039Y-44035760D01*
X83881344Y-43980505D01*
X83881340Y-43980503D01*
X83808427Y-43966000D01*
X83408800Y-43966000D01*
X83408800Y-45841000D01*
X83158800Y-45841000D01*
X83158800Y-43966000D01*
X82759173Y-43966000D01*
X82686259Y-43980503D01*
X82686255Y-43980505D01*
X82603560Y-44035760D01*
X82548305Y-44118455D01*
X82548303Y-44118459D01*
X82533800Y-44191371D01*
X77453053Y-44191371D01*
X77321984Y-44060302D01*
X77288499Y-43998979D01*
X77293483Y-43929287D01*
X77335355Y-43873354D01*
X77340762Y-43869527D01*
X77408001Y-43824601D01*
X77463366Y-43741740D01*
X77477900Y-43668674D01*
X77477900Y-41919326D01*
X77477900Y-41919323D01*
X77477899Y-41919321D01*
X77466224Y-41860628D01*
X79783800Y-41860628D01*
X79798303Y-41933540D01*
X79798305Y-41933544D01*
X79853560Y-42016239D01*
X79936255Y-42071494D01*
X79936259Y-42071496D01*
X80009171Y-42085999D01*
X80009174Y-42086000D01*
X80808800Y-42086000D01*
X81058800Y-42086000D01*
X81858426Y-42086000D01*
X81858428Y-42085999D01*
X81931340Y-42071496D01*
X81931344Y-42071494D01*
X82014039Y-42016239D01*
X82069294Y-41933544D01*
X82069296Y-41933540D01*
X82083799Y-41860628D01*
X90483800Y-41860628D01*
X90498303Y-41933540D01*
X90498305Y-41933544D01*
X90553560Y-42016239D01*
X90636255Y-42071494D01*
X90636259Y-42071496D01*
X90709171Y-42085999D01*
X90709174Y-42086000D01*
X91508800Y-42086000D01*
X91758800Y-42086000D01*
X92558426Y-42086000D01*
X92558428Y-42085999D01*
X92631340Y-42071496D01*
X92631344Y-42071494D01*
X92714039Y-42016239D01*
X92769294Y-41933544D01*
X92769296Y-41933540D01*
X92783799Y-41860628D01*
X92783800Y-41860626D01*
X92783800Y-40920438D01*
X95351300Y-40920438D01*
X95351300Y-41172362D01*
X95369590Y-41287837D01*
X95390710Y-41421185D01*
X95468560Y-41660783D01*
X95547213Y-41815147D01*
X95579458Y-41878431D01*
X95582932Y-41885248D01*
X95731001Y-42089049D01*
X95731005Y-42089054D01*
X95909145Y-42267194D01*
X95909150Y-42267198D01*
X96086917Y-42396352D01*
X96112955Y-42415270D01*
X96255984Y-42488147D01*
X96337416Y-42529639D01*
X96337418Y-42529639D01*
X96337421Y-42529641D01*
X96577015Y-42607490D01*
X96825838Y-42646900D01*
X96825839Y-42646900D01*
X97077761Y-42646900D01*
X97077762Y-42646900D01*
X97326585Y-42607490D01*
X97566179Y-42529641D01*
X97790645Y-42415270D01*
X97994456Y-42267193D01*
X98172593Y-42089056D01*
X98320670Y-41885245D01*
X98435041Y-41660779D01*
X98512890Y-41421185D01*
X98552300Y-41172362D01*
X98552300Y-40920438D01*
X98512890Y-40671615D01*
X98435041Y-40432021D01*
X98435039Y-40432018D01*
X98435039Y-40432016D01*
X98393547Y-40350584D01*
X98320670Y-40207555D01*
X98250519Y-40111000D01*
X98172598Y-40003750D01*
X98172594Y-40003745D01*
X97994454Y-39825605D01*
X97994449Y-39825601D01*
X97790648Y-39677532D01*
X97790647Y-39677531D01*
X97790645Y-39677530D01*
X97720547Y-39641813D01*
X97566183Y-39563160D01*
X97326585Y-39485310D01*
X97238130Y-39471300D01*
X97077762Y-39445900D01*
X96825838Y-39445900D01*
X96701426Y-39465605D01*
X96577014Y-39485310D01*
X96337416Y-39563160D01*
X96112951Y-39677532D01*
X95909150Y-39825601D01*
X95909145Y-39825605D01*
X95731005Y-40003745D01*
X95731001Y-40003750D01*
X95582932Y-40207551D01*
X95468560Y-40432016D01*
X95390710Y-40671614D01*
X95390710Y-40671615D01*
X95351300Y-40920438D01*
X92783800Y-40920438D01*
X92783800Y-40111000D01*
X91758800Y-40111000D01*
X91758800Y-42086000D01*
X91508800Y-42086000D01*
X91508800Y-40111000D01*
X90483800Y-40111000D01*
X90483800Y-41860628D01*
X82083799Y-41860628D01*
X82083800Y-41860626D01*
X82083800Y-40111000D01*
X81058800Y-40111000D01*
X81058800Y-42086000D01*
X80808800Y-42086000D01*
X80808800Y-40111000D01*
X79783800Y-40111000D01*
X79783800Y-41860628D01*
X77466224Y-41860628D01*
X77463367Y-41846264D01*
X77463366Y-41846260D01*
X77463360Y-41846251D01*
X77408001Y-41763399D01*
X77325140Y-41708034D01*
X77325139Y-41708033D01*
X77325135Y-41708032D01*
X77252077Y-41693500D01*
X77252074Y-41693500D01*
X76602726Y-41693500D01*
X76602723Y-41693500D01*
X76529664Y-41708032D01*
X76529660Y-41708033D01*
X76446798Y-41763399D01*
X76405502Y-41825205D01*
X76351890Y-41870010D01*
X76282565Y-41878717D01*
X76219538Y-41848563D01*
X76199298Y-41825205D01*
X76158001Y-41763399D01*
X76075139Y-41708033D01*
X76075135Y-41708032D01*
X76002077Y-41693500D01*
X76002074Y-41693500D01*
X75352726Y-41693500D01*
X75352723Y-41693500D01*
X75279664Y-41708032D01*
X75279660Y-41708033D01*
X75196798Y-41763399D01*
X75155502Y-41825205D01*
X75101890Y-41870010D01*
X75032565Y-41878717D01*
X74969538Y-41848563D01*
X74949298Y-41825205D01*
X74908001Y-41763399D01*
X74825139Y-41708033D01*
X74825135Y-41708032D01*
X74752077Y-41693500D01*
X74752074Y-41693500D01*
X74102726Y-41693500D01*
X74102723Y-41693500D01*
X74029664Y-41708032D01*
X74029660Y-41708033D01*
X73946798Y-41763399D01*
X73905502Y-41825205D01*
X73851890Y-41870010D01*
X73782565Y-41878717D01*
X73719538Y-41848563D01*
X73699298Y-41825205D01*
X73658001Y-41763399D01*
X73575139Y-41708033D01*
X73575135Y-41708032D01*
X73502077Y-41693500D01*
X73502074Y-41693500D01*
X72852726Y-41693500D01*
X72852723Y-41693500D01*
X72779664Y-41708032D01*
X72779660Y-41708033D01*
X72696798Y-41763399D01*
X72655502Y-41825205D01*
X72601890Y-41870010D01*
X72532565Y-41878717D01*
X72469538Y-41848563D01*
X72449298Y-41825205D01*
X72408001Y-41763399D01*
X72325139Y-41708033D01*
X72325135Y-41708032D01*
X72252077Y-41693500D01*
X72252074Y-41693500D01*
X71602726Y-41693500D01*
X71602723Y-41693500D01*
X71529664Y-41708032D01*
X71529660Y-41708033D01*
X71446798Y-41763399D01*
X71405502Y-41825205D01*
X71351890Y-41870010D01*
X71282565Y-41878717D01*
X71219538Y-41848563D01*
X71199298Y-41825205D01*
X71158001Y-41763399D01*
X71075139Y-41708033D01*
X71075135Y-41708032D01*
X71002077Y-41693500D01*
X71002074Y-41693500D01*
X70352726Y-41693500D01*
X70352723Y-41693500D01*
X70279664Y-41708032D01*
X70279660Y-41708033D01*
X70196798Y-41763399D01*
X70155502Y-41825205D01*
X70130318Y-41846251D01*
X70105916Y-41868171D01*
X70103651Y-41868537D01*
X70101890Y-41870010D01*
X70069330Y-41874099D01*
X70036946Y-41879347D01*
X70034841Y-41878431D01*
X70032565Y-41878717D01*
X70002963Y-41864554D01*
X69972883Y-41851461D01*
X69970838Y-41849185D01*
X69969538Y-41848563D01*
X69949298Y-41825205D01*
X69912432Y-41770031D01*
X69891554Y-41703353D01*
X69895760Y-41669047D01*
X69902900Y-41642401D01*
X69902900Y-41517199D01*
X69870495Y-41396264D01*
X69807895Y-41287836D01*
X69719364Y-41199305D01*
X69610936Y-41136705D01*
X69610937Y-41136705D01*
X69570624Y-41125903D01*
X69490001Y-41104300D01*
X69364799Y-41104300D01*
X69284175Y-41125903D01*
X69243863Y-41136705D01*
X69135437Y-41199304D01*
X69135434Y-41199306D01*
X69046906Y-41287834D01*
X69046904Y-41287837D01*
X68984305Y-41396263D01*
X68984305Y-41396264D01*
X68951900Y-41517199D01*
X68951900Y-41642401D01*
X68956825Y-41660783D01*
X68959040Y-41669047D01*
X68958504Y-41691538D01*
X68962632Y-41713655D01*
X68957485Y-41734336D01*
X68957377Y-41738897D01*
X68955255Y-41743297D01*
X68954109Y-41747905D01*
X68948173Y-41762480D01*
X68946799Y-41763399D01*
X68891434Y-41846260D01*
X68876900Y-41919326D01*
X64430763Y-41919326D01*
X64437070Y-41910645D01*
X64551441Y-41686179D01*
X64629290Y-41446585D01*
X64668700Y-41197762D01*
X64668700Y-40945838D01*
X64656471Y-40868628D01*
X66827400Y-40868628D01*
X66841903Y-40941540D01*
X66841905Y-40941544D01*
X66897160Y-41024239D01*
X66979855Y-41079494D01*
X66979859Y-41079496D01*
X67052771Y-41093999D01*
X67052774Y-41094000D01*
X67452400Y-41094000D01*
X67702400Y-41094000D01*
X68102026Y-41094000D01*
X68102028Y-41093999D01*
X68174940Y-41079496D01*
X68174944Y-41079494D01*
X68257639Y-41024239D01*
X68312894Y-40941544D01*
X68312896Y-40941540D01*
X68327399Y-40868628D01*
X78027400Y-40868628D01*
X78041903Y-40941540D01*
X78041905Y-40941544D01*
X78097160Y-41024239D01*
X78179855Y-41079494D01*
X78179859Y-41079496D01*
X78252771Y-41093999D01*
X78252774Y-41094000D01*
X78652400Y-41094000D01*
X78902400Y-41094000D01*
X79302026Y-41094000D01*
X79302028Y-41093999D01*
X79374940Y-41079496D01*
X79374944Y-41079494D01*
X79457639Y-41024239D01*
X79512894Y-40941544D01*
X79512896Y-40941540D01*
X79527399Y-40868628D01*
X79527400Y-40868626D01*
X79527400Y-39619000D01*
X78902400Y-39619000D01*
X78902400Y-41094000D01*
X78652400Y-41094000D01*
X78652400Y-39619000D01*
X78027400Y-39619000D01*
X78027400Y-40868628D01*
X68327399Y-40868628D01*
X68327400Y-40868626D01*
X68327400Y-39619000D01*
X67702400Y-39619000D01*
X67702400Y-41094000D01*
X67452400Y-41094000D01*
X67452400Y-39619000D01*
X66827400Y-39619000D01*
X66827400Y-40868628D01*
X64656471Y-40868628D01*
X64629290Y-40697015D01*
X64551441Y-40457421D01*
X64551439Y-40457418D01*
X64551439Y-40457416D01*
X64509947Y-40375984D01*
X64437070Y-40232955D01*
X64348465Y-40111000D01*
X64288998Y-40029150D01*
X64288994Y-40029145D01*
X64110854Y-39851005D01*
X64110849Y-39851001D01*
X63907049Y-39702932D01*
X63858358Y-39678123D01*
X63857198Y-39677532D01*
X63825879Y-39661573D01*
X63682583Y-39588560D01*
X63442985Y-39510710D01*
X63338771Y-39494204D01*
X63194162Y-39471300D01*
X62942238Y-39471300D01*
X62853783Y-39485310D01*
X62693414Y-39510710D01*
X62453816Y-39588560D01*
X62229351Y-39702932D01*
X62025550Y-39851001D01*
X62025545Y-39851005D01*
X61847405Y-40029145D01*
X61847401Y-40029150D01*
X61699332Y-40232951D01*
X61584960Y-40457416D01*
X61515363Y-40671614D01*
X61507110Y-40697015D01*
X61467700Y-40945838D01*
X60075500Y-40945838D01*
X60075500Y-40004066D01*
X60075765Y-39995957D01*
X60085265Y-39851005D01*
X60091433Y-39756893D01*
X60093548Y-39740836D01*
X60139493Y-39509859D01*
X60143682Y-39494224D01*
X60219386Y-39271206D01*
X60225581Y-39256251D01*
X60329742Y-39045033D01*
X60337849Y-39030993D01*
X60468675Y-38835197D01*
X60478540Y-38822339D01*
X60633819Y-38645277D01*
X60645277Y-38633819D01*
X60822339Y-38478540D01*
X60835192Y-38468678D01*
X61030993Y-38337849D01*
X61045033Y-38329742D01*
X61256251Y-38225581D01*
X61271206Y-38219386D01*
X61494224Y-38143682D01*
X61509859Y-38139493D01*
X61740836Y-38093548D01*
X61756895Y-38091433D01*
X61973904Y-38077210D01*
X61995958Y-38075765D01*
X62004067Y-38075500D01*
X62024531Y-38075500D01*
X66703400Y-38075500D01*
X66770439Y-38095185D01*
G37*
%TD.AperFunction*%
%TD*%
%TA.AperFunction,Conductor*%
%TO.N,VBUS*%
G36*
X68113077Y-51530885D02*
G01*
X68133719Y-51547519D01*
X68365881Y-51779681D01*
X68399366Y-51841004D01*
X68402200Y-51867362D01*
X68402200Y-52526638D01*
X68382515Y-52593677D01*
X68365881Y-52614319D01*
X68057519Y-52922681D01*
X67996196Y-52956166D01*
X67969838Y-52959000D01*
X67101622Y-52959000D01*
X67085500Y-52957948D01*
X67077412Y-52956887D01*
X67017001Y-52940700D01*
X66953963Y-52940700D01*
X66945940Y-52939648D01*
X66921084Y-52928667D01*
X66895023Y-52921015D01*
X66884418Y-52912469D01*
X66882029Y-52911414D01*
X66880801Y-52909554D01*
X66874381Y-52904381D01*
X66772619Y-52802619D01*
X66739134Y-52741296D01*
X66736300Y-52714938D01*
X66736300Y-52710126D01*
X66725873Y-52657706D01*
X66725873Y-52609324D01*
X66735800Y-52559423D01*
X66735800Y-52359800D01*
X66034800Y-52359800D01*
X66026114Y-52357249D01*
X66017153Y-52358538D01*
X65993112Y-52347559D01*
X65967761Y-52340115D01*
X65961833Y-52333274D01*
X65953597Y-52329513D01*
X65939307Y-52307278D01*
X65922006Y-52287311D01*
X65919718Y-52276796D01*
X65915823Y-52270735D01*
X65910800Y-52235800D01*
X65910800Y-52233800D01*
X65930485Y-52166761D01*
X65983289Y-52121006D01*
X66034800Y-52109800D01*
X66735800Y-52109800D01*
X66735800Y-51910176D01*
X66725873Y-51860275D01*
X66725840Y-51859623D01*
X66725688Y-51859326D01*
X66725698Y-51856755D01*
X66724073Y-51824069D01*
X66724668Y-51817946D01*
X66736300Y-51759474D01*
X66736300Y-51698440D01*
X66736883Y-51692450D01*
X66747771Y-51665395D01*
X66755985Y-51637423D01*
X66762066Y-51629876D01*
X66762969Y-51627633D01*
X66765080Y-51626134D01*
X66772614Y-51616785D01*
X66841882Y-51547518D01*
X66903206Y-51514034D01*
X66929563Y-51511200D01*
X68046038Y-51511200D01*
X68113077Y-51530885D01*
G37*
%TD.AperFunction*%
%TD*%
%TA.AperFunction,Conductor*%
%TO.N,+3.3V*%
G36*
X73642256Y-61954312D02*
G01*
X73652812Y-61960407D01*
X73754672Y-61987700D01*
X74220125Y-61987700D01*
X74243856Y-61994668D01*
X74268427Y-61997495D01*
X74282593Y-62006042D01*
X74287164Y-62007385D01*
X74298646Y-62015729D01*
X74395521Y-62094990D01*
X74434942Y-62152677D01*
X74441000Y-62190961D01*
X74441000Y-63199000D01*
X75025200Y-63783200D01*
X77492000Y-63783200D01*
X77559039Y-63802885D01*
X77604794Y-63855689D01*
X77616000Y-63907200D01*
X77616000Y-66754438D01*
X77596315Y-66821477D01*
X77579681Y-66842119D01*
X77296719Y-67125081D01*
X77235396Y-67158566D01*
X77209038Y-67161400D01*
X73781162Y-67161400D01*
X73714123Y-67141715D01*
X73693481Y-67125081D01*
X73435919Y-66867519D01*
X73402434Y-66806196D01*
X73399600Y-66779838D01*
X73399600Y-63215318D01*
X73416214Y-63153317D01*
X73434014Y-63122488D01*
X73457900Y-63033344D01*
X73457900Y-62341056D01*
X73434014Y-62251912D01*
X73434012Y-62251908D01*
X73416213Y-62221079D01*
X73412062Y-62205590D01*
X73404623Y-62194014D01*
X73399600Y-62159079D01*
X73399600Y-62061700D01*
X73419285Y-61994661D01*
X73472089Y-61948906D01*
X73523600Y-61937700D01*
X73580257Y-61937700D01*
X73642256Y-61954312D01*
G37*
%TD.AperFunction*%
%TD*%
M02*
