%TF.GenerationSoftware,KiCad,Pcbnew,9.0.7*%
%TF.CreationDate,2026-03-29T20:38:49+02:00*%
%TF.ProjectId,IoT_Environmental_Monitoring_Device_Power,496f545f-456e-4766-9972-6f6e6d656e74,rev?*%
%TF.SameCoordinates,Original*%
%TF.FileFunction,Legend,Bot*%
%TF.FilePolarity,Positive*%
%FSLAX46Y46*%
G04 Gerber Fmt 4.6, Leading zero omitted, Abs format (unit mm)*
G04 Created by KiCad (PCBNEW 9.0.7) date 2026-03-29 20:38:49*
%MOMM*%
%LPD*%
G01*
G04 APERTURE LIST*
%ADD10C,0.150000*%
G04 APERTURE END LIST*
D10*
X82926990Y-39036807D02*
X82888895Y-38960617D01*
X82888895Y-38960617D02*
X82888895Y-38846331D01*
X82888895Y-38846331D02*
X82926990Y-38732045D01*
X82926990Y-38732045D02*
X83003180Y-38655855D01*
X83003180Y-38655855D02*
X83079371Y-38617760D01*
X83079371Y-38617760D02*
X83231752Y-38579664D01*
X83231752Y-38579664D02*
X83346038Y-38579664D01*
X83346038Y-38579664D02*
X83498419Y-38617760D01*
X83498419Y-38617760D02*
X83574609Y-38655855D01*
X83574609Y-38655855D02*
X83650800Y-38732045D01*
X83650800Y-38732045D02*
X83688895Y-38846331D01*
X83688895Y-38846331D02*
X83688895Y-38922522D01*
X83688895Y-38922522D02*
X83650800Y-39036807D01*
X83650800Y-39036807D02*
X83612704Y-39074903D01*
X83612704Y-39074903D02*
X83346038Y-39074903D01*
X83346038Y-39074903D02*
X83346038Y-38922522D01*
X83688895Y-39417760D02*
X82888895Y-39417760D01*
X82888895Y-39417760D02*
X83688895Y-39874903D01*
X83688895Y-39874903D02*
X82888895Y-39874903D01*
X83688895Y-40255855D02*
X82888895Y-40255855D01*
X82888895Y-40255855D02*
X82888895Y-40446331D01*
X82888895Y-40446331D02*
X82926990Y-40560617D01*
X82926990Y-40560617D02*
X83003180Y-40636807D01*
X83003180Y-40636807D02*
X83079371Y-40674902D01*
X83079371Y-40674902D02*
X83231752Y-40712998D01*
X83231752Y-40712998D02*
X83346038Y-40712998D01*
X83346038Y-40712998D02*
X83498419Y-40674902D01*
X83498419Y-40674902D02*
X83574609Y-40636807D01*
X83574609Y-40636807D02*
X83650800Y-40560617D01*
X83650800Y-40560617D02*
X83688895Y-40446331D01*
X83688895Y-40446331D02*
X83688895Y-40255855D01*
X86889390Y-39036807D02*
X86851295Y-38960617D01*
X86851295Y-38960617D02*
X86851295Y-38846331D01*
X86851295Y-38846331D02*
X86889390Y-38732045D01*
X86889390Y-38732045D02*
X86965580Y-38655855D01*
X86965580Y-38655855D02*
X87041771Y-38617760D01*
X87041771Y-38617760D02*
X87194152Y-38579664D01*
X87194152Y-38579664D02*
X87308438Y-38579664D01*
X87308438Y-38579664D02*
X87460819Y-38617760D01*
X87460819Y-38617760D02*
X87537009Y-38655855D01*
X87537009Y-38655855D02*
X87613200Y-38732045D01*
X87613200Y-38732045D02*
X87651295Y-38846331D01*
X87651295Y-38846331D02*
X87651295Y-38922522D01*
X87651295Y-38922522D02*
X87613200Y-39036807D01*
X87613200Y-39036807D02*
X87575104Y-39074903D01*
X87575104Y-39074903D02*
X87308438Y-39074903D01*
X87308438Y-39074903D02*
X87308438Y-38922522D01*
X87651295Y-39417760D02*
X86851295Y-39417760D01*
X86851295Y-39417760D02*
X87651295Y-39874903D01*
X87651295Y-39874903D02*
X86851295Y-39874903D01*
X87651295Y-40255855D02*
X86851295Y-40255855D01*
X86851295Y-40255855D02*
X86851295Y-40446331D01*
X86851295Y-40446331D02*
X86889390Y-40560617D01*
X86889390Y-40560617D02*
X86965580Y-40636807D01*
X86965580Y-40636807D02*
X87041771Y-40674902D01*
X87041771Y-40674902D02*
X87194152Y-40712998D01*
X87194152Y-40712998D02*
X87308438Y-40712998D01*
X87308438Y-40712998D02*
X87460819Y-40674902D01*
X87460819Y-40674902D02*
X87537009Y-40636807D01*
X87537009Y-40636807D02*
X87613200Y-40560617D01*
X87613200Y-40560617D02*
X87651295Y-40446331D01*
X87651295Y-40446331D02*
X87651295Y-40255855D01*
X85365333Y-38617760D02*
X85365333Y-39227284D01*
X85670095Y-38922522D02*
X85060571Y-38922522D01*
X84870095Y-39532045D02*
X84870095Y-40027283D01*
X84870095Y-40027283D02*
X85174857Y-39760617D01*
X85174857Y-39760617D02*
X85174857Y-39874902D01*
X85174857Y-39874902D02*
X85212952Y-39951093D01*
X85212952Y-39951093D02*
X85251047Y-39989188D01*
X85251047Y-39989188D02*
X85327238Y-40027283D01*
X85327238Y-40027283D02*
X85517714Y-40027283D01*
X85517714Y-40027283D02*
X85593904Y-39989188D01*
X85593904Y-39989188D02*
X85632000Y-39951093D01*
X85632000Y-39951093D02*
X85670095Y-39874902D01*
X85670095Y-39874902D02*
X85670095Y-39646331D01*
X85670095Y-39646331D02*
X85632000Y-39570140D01*
X85632000Y-39570140D02*
X85593904Y-39532045D01*
X85593904Y-40370141D02*
X85632000Y-40408236D01*
X85632000Y-40408236D02*
X85670095Y-40370141D01*
X85670095Y-40370141D02*
X85632000Y-40332045D01*
X85632000Y-40332045D02*
X85593904Y-40370141D01*
X85593904Y-40370141D02*
X85670095Y-40370141D01*
X84870095Y-40674902D02*
X84870095Y-41170140D01*
X84870095Y-41170140D02*
X85174857Y-40903474D01*
X85174857Y-40903474D02*
X85174857Y-41017759D01*
X85174857Y-41017759D02*
X85212952Y-41093950D01*
X85212952Y-41093950D02*
X85251047Y-41132045D01*
X85251047Y-41132045D02*
X85327238Y-41170140D01*
X85327238Y-41170140D02*
X85517714Y-41170140D01*
X85517714Y-41170140D02*
X85593904Y-41132045D01*
X85593904Y-41132045D02*
X85632000Y-41093950D01*
X85632000Y-41093950D02*
X85670095Y-41017759D01*
X85670095Y-41017759D02*
X85670095Y-40789188D01*
X85670095Y-40789188D02*
X85632000Y-40712997D01*
X85632000Y-40712997D02*
X85593904Y-40674902D01*
X84870095Y-41398712D02*
X85670095Y-41665379D01*
X85670095Y-41665379D02*
X84870095Y-41932045D01*
X89378533Y-38617760D02*
X89378533Y-39227284D01*
X89683295Y-38922522D02*
X89073771Y-38922522D01*
X88883295Y-39989188D02*
X88883295Y-39608236D01*
X88883295Y-39608236D02*
X89264247Y-39570140D01*
X89264247Y-39570140D02*
X89226152Y-39608236D01*
X89226152Y-39608236D02*
X89188057Y-39684426D01*
X89188057Y-39684426D02*
X89188057Y-39874902D01*
X89188057Y-39874902D02*
X89226152Y-39951093D01*
X89226152Y-39951093D02*
X89264247Y-39989188D01*
X89264247Y-39989188D02*
X89340438Y-40027283D01*
X89340438Y-40027283D02*
X89530914Y-40027283D01*
X89530914Y-40027283D02*
X89607104Y-39989188D01*
X89607104Y-39989188D02*
X89645200Y-39951093D01*
X89645200Y-39951093D02*
X89683295Y-39874902D01*
X89683295Y-39874902D02*
X89683295Y-39684426D01*
X89683295Y-39684426D02*
X89645200Y-39608236D01*
X89645200Y-39608236D02*
X89607104Y-39570140D01*
X88883295Y-40255855D02*
X89683295Y-40522522D01*
X89683295Y-40522522D02*
X88883295Y-40789188D01*
X68766495Y-38998712D02*
X68766495Y-38617760D01*
X68766495Y-38617760D02*
X69147447Y-38579664D01*
X69147447Y-38579664D02*
X69109352Y-38617760D01*
X69109352Y-38617760D02*
X69071257Y-38693950D01*
X69071257Y-38693950D02*
X69071257Y-38884426D01*
X69071257Y-38884426D02*
X69109352Y-38960617D01*
X69109352Y-38960617D02*
X69147447Y-38998712D01*
X69147447Y-38998712D02*
X69223638Y-39036807D01*
X69223638Y-39036807D02*
X69414114Y-39036807D01*
X69414114Y-39036807D02*
X69490304Y-38998712D01*
X69490304Y-38998712D02*
X69528400Y-38960617D01*
X69528400Y-38960617D02*
X69566495Y-38884426D01*
X69566495Y-38884426D02*
X69566495Y-38693950D01*
X69566495Y-38693950D02*
X69528400Y-38617760D01*
X69528400Y-38617760D02*
X69490304Y-38579664D01*
X68766495Y-39265379D02*
X69566495Y-39532046D01*
X69566495Y-39532046D02*
X68766495Y-39798712D01*
X69642685Y-39874903D02*
X69642685Y-40484426D01*
X69147447Y-40674903D02*
X69147447Y-40941569D01*
X69566495Y-41055855D02*
X69566495Y-40674903D01*
X69566495Y-40674903D02*
X68766495Y-40674903D01*
X68766495Y-40674903D02*
X68766495Y-41055855D01*
X69566495Y-41398713D02*
X68766495Y-41398713D01*
X68766495Y-41398713D02*
X69566495Y-41855856D01*
X69566495Y-41855856D02*
X68766495Y-41855856D01*
X95539160Y-49889704D02*
X95539160Y-50689704D01*
X95539160Y-50689704D02*
X95996303Y-49889704D01*
X95996303Y-49889704D02*
X95996303Y-50689704D01*
X96262969Y-50689704D02*
X96720112Y-50689704D01*
X96491540Y-49889704D02*
X96491540Y-50689704D01*
X97443922Y-49965895D02*
X97405826Y-49927800D01*
X97405826Y-49927800D02*
X97291541Y-49889704D01*
X97291541Y-49889704D02*
X97215350Y-49889704D01*
X97215350Y-49889704D02*
X97101064Y-49927800D01*
X97101064Y-49927800D02*
X97024874Y-50003990D01*
X97024874Y-50003990D02*
X96986779Y-50080180D01*
X96986779Y-50080180D02*
X96948683Y-50232561D01*
X96948683Y-50232561D02*
X96948683Y-50346847D01*
X96948683Y-50346847D02*
X96986779Y-50499228D01*
X96986779Y-50499228D02*
X97024874Y-50575419D01*
X97024874Y-50575419D02*
X97101064Y-50651609D01*
X97101064Y-50651609D02*
X97215350Y-50689704D01*
X97215350Y-50689704D02*
X97291541Y-50689704D01*
X97291541Y-50689704D02*
X97405826Y-50651609D01*
X97405826Y-50651609D02*
X97443922Y-50613514D01*
X73617795Y-38617760D02*
X72817795Y-38617760D01*
X72817795Y-38617760D02*
X72817795Y-38808236D01*
X72817795Y-38808236D02*
X72855890Y-38922522D01*
X72855890Y-38922522D02*
X72932080Y-38998712D01*
X72932080Y-38998712D02*
X73008271Y-39036807D01*
X73008271Y-39036807D02*
X73160652Y-39074903D01*
X73160652Y-39074903D02*
X73274938Y-39074903D01*
X73274938Y-39074903D02*
X73427319Y-39036807D01*
X73427319Y-39036807D02*
X73503509Y-38998712D01*
X73503509Y-38998712D02*
X73579700Y-38922522D01*
X73579700Y-38922522D02*
X73617795Y-38808236D01*
X73617795Y-38808236D02*
X73617795Y-38617760D01*
X73313033Y-39417760D02*
X73313033Y-40027284D01*
X73617795Y-39722522D02*
X73008271Y-39722522D01*
X95805826Y-52213752D02*
X95920112Y-52175657D01*
X95920112Y-52175657D02*
X95958207Y-52137561D01*
X95958207Y-52137561D02*
X95996303Y-52061371D01*
X95996303Y-52061371D02*
X95996303Y-51947085D01*
X95996303Y-51947085D02*
X95958207Y-51870895D01*
X95958207Y-51870895D02*
X95920112Y-51832800D01*
X95920112Y-51832800D02*
X95843922Y-51794704D01*
X95843922Y-51794704D02*
X95539160Y-51794704D01*
X95539160Y-51794704D02*
X95539160Y-52594704D01*
X95539160Y-52594704D02*
X95805826Y-52594704D01*
X95805826Y-52594704D02*
X95882017Y-52556609D01*
X95882017Y-52556609D02*
X95920112Y-52518514D01*
X95920112Y-52518514D02*
X95958207Y-52442323D01*
X95958207Y-52442323D02*
X95958207Y-52366133D01*
X95958207Y-52366133D02*
X95920112Y-52289942D01*
X95920112Y-52289942D02*
X95882017Y-52251847D01*
X95882017Y-52251847D02*
X95805826Y-52213752D01*
X95805826Y-52213752D02*
X95539160Y-52213752D01*
X96301064Y-52023276D02*
X96682017Y-52023276D01*
X96224874Y-51794704D02*
X96491541Y-52594704D01*
X96491541Y-52594704D02*
X96758207Y-51794704D01*
X96910588Y-52594704D02*
X97367731Y-52594704D01*
X97139159Y-51794704D02*
X97139159Y-52594704D01*
X97634398Y-52099466D02*
X98243922Y-52099466D01*
X74968228Y-38617760D02*
X74168228Y-38617760D01*
X74968228Y-39455855D02*
X74587275Y-39189188D01*
X74968228Y-38998712D02*
X74168228Y-38998712D01*
X74168228Y-38998712D02*
X74168228Y-39303474D01*
X74168228Y-39303474D02*
X74206323Y-39379664D01*
X74206323Y-39379664D02*
X74244418Y-39417759D01*
X74244418Y-39417759D02*
X74320609Y-39455855D01*
X74320609Y-39455855D02*
X74434894Y-39455855D01*
X74434894Y-39455855D02*
X74511085Y-39417759D01*
X74511085Y-39417759D02*
X74549180Y-39379664D01*
X74549180Y-39379664D02*
X74587275Y-39303474D01*
X74587275Y-39303474D02*
X74587275Y-38998712D01*
X75044418Y-40332045D02*
X75006323Y-40255855D01*
X75006323Y-40255855D02*
X74930133Y-40179664D01*
X74930133Y-40179664D02*
X74815847Y-40065378D01*
X74815847Y-40065378D02*
X74777752Y-39989188D01*
X74777752Y-39989188D02*
X74777752Y-39912997D01*
X74968228Y-39951093D02*
X74930133Y-39874902D01*
X74930133Y-39874902D02*
X74853942Y-39798712D01*
X74853942Y-39798712D02*
X74701561Y-39760616D01*
X74701561Y-39760616D02*
X74434894Y-39760616D01*
X74434894Y-39760616D02*
X74282513Y-39798712D01*
X74282513Y-39798712D02*
X74206323Y-39874902D01*
X74206323Y-39874902D02*
X74168228Y-39951093D01*
X74168228Y-39951093D02*
X74168228Y-40103474D01*
X74168228Y-40103474D02*
X74206323Y-40179664D01*
X74206323Y-40179664D02*
X74282513Y-40255855D01*
X74282513Y-40255855D02*
X74434894Y-40293950D01*
X74434894Y-40293950D02*
X74701561Y-40293950D01*
X74701561Y-40293950D02*
X74853942Y-40255855D01*
X74853942Y-40255855D02*
X74930133Y-40179664D01*
X74930133Y-40179664D02*
X74968228Y-40103474D01*
X74968228Y-40103474D02*
X74968228Y-39951093D01*
X70916928Y-38617760D02*
X70116928Y-38617760D01*
X70116928Y-38617760D02*
X70116928Y-38922522D01*
X70116928Y-38922522D02*
X70155023Y-38998712D01*
X70155023Y-38998712D02*
X70193118Y-39036807D01*
X70193118Y-39036807D02*
X70269309Y-39074903D01*
X70269309Y-39074903D02*
X70383594Y-39074903D01*
X70383594Y-39074903D02*
X70459785Y-39036807D01*
X70459785Y-39036807D02*
X70497880Y-38998712D01*
X70497880Y-38998712D02*
X70535975Y-38922522D01*
X70535975Y-38922522D02*
X70535975Y-38617760D01*
X70116928Y-39341569D02*
X70916928Y-39532045D01*
X70916928Y-39532045D02*
X70345499Y-39684426D01*
X70345499Y-39684426D02*
X70916928Y-39836807D01*
X70916928Y-39836807D02*
X70116928Y-40027284D01*
X70916928Y-40789189D02*
X70535975Y-40522522D01*
X70916928Y-40332046D02*
X70116928Y-40332046D01*
X70116928Y-40332046D02*
X70116928Y-40636808D01*
X70116928Y-40636808D02*
X70155023Y-40712998D01*
X70155023Y-40712998D02*
X70193118Y-40751093D01*
X70193118Y-40751093D02*
X70269309Y-40789189D01*
X70269309Y-40789189D02*
X70383594Y-40789189D01*
X70383594Y-40789189D02*
X70459785Y-40751093D01*
X70459785Y-40751093D02*
X70497880Y-40712998D01*
X70497880Y-40712998D02*
X70535975Y-40636808D01*
X70535975Y-40636808D02*
X70535975Y-40332046D01*
X70116928Y-41284427D02*
X70116928Y-41436808D01*
X70116928Y-41436808D02*
X70155023Y-41512998D01*
X70155023Y-41512998D02*
X70231213Y-41589189D01*
X70231213Y-41589189D02*
X70383594Y-41627284D01*
X70383594Y-41627284D02*
X70650261Y-41627284D01*
X70650261Y-41627284D02*
X70802642Y-41589189D01*
X70802642Y-41589189D02*
X70878833Y-41512998D01*
X70878833Y-41512998D02*
X70916928Y-41436808D01*
X70916928Y-41436808D02*
X70916928Y-41284427D01*
X70916928Y-41284427D02*
X70878833Y-41208236D01*
X70878833Y-41208236D02*
X70802642Y-41132046D01*
X70802642Y-41132046D02*
X70650261Y-41093950D01*
X70650261Y-41093950D02*
X70383594Y-41093950D01*
X70383594Y-41093950D02*
X70231213Y-41132046D01*
X70231213Y-41132046D02*
X70155023Y-41208236D01*
X70155023Y-41208236D02*
X70116928Y-41284427D01*
X70916928Y-41970141D02*
X70116928Y-41970141D01*
X70116928Y-41970141D02*
X70916928Y-42427284D01*
X70916928Y-42427284D02*
X70116928Y-42427284D01*
X72267362Y-38617760D02*
X71467362Y-38617760D01*
X71467362Y-38617760D02*
X71467362Y-38808236D01*
X71467362Y-38808236D02*
X71505457Y-38922522D01*
X71505457Y-38922522D02*
X71581647Y-38998712D01*
X71581647Y-38998712D02*
X71657838Y-39036807D01*
X71657838Y-39036807D02*
X71810219Y-39074903D01*
X71810219Y-39074903D02*
X71924505Y-39074903D01*
X71924505Y-39074903D02*
X72076886Y-39036807D01*
X72076886Y-39036807D02*
X72153076Y-38998712D01*
X72153076Y-38998712D02*
X72229267Y-38922522D01*
X72229267Y-38922522D02*
X72267362Y-38808236D01*
X72267362Y-38808236D02*
X72267362Y-38617760D01*
X71962600Y-39417760D02*
X71962600Y-40027284D01*
X77631000Y-38579664D02*
X77669095Y-38693950D01*
X77669095Y-38693950D02*
X77669095Y-38884426D01*
X77669095Y-38884426D02*
X77631000Y-38960617D01*
X77631000Y-38960617D02*
X77592904Y-38998712D01*
X77592904Y-38998712D02*
X77516714Y-39036807D01*
X77516714Y-39036807D02*
X77440523Y-39036807D01*
X77440523Y-39036807D02*
X77364333Y-38998712D01*
X77364333Y-38998712D02*
X77326238Y-38960617D01*
X77326238Y-38960617D02*
X77288142Y-38884426D01*
X77288142Y-38884426D02*
X77250047Y-38732045D01*
X77250047Y-38732045D02*
X77211952Y-38655855D01*
X77211952Y-38655855D02*
X77173857Y-38617760D01*
X77173857Y-38617760D02*
X77097666Y-38579664D01*
X77097666Y-38579664D02*
X77021476Y-38579664D01*
X77021476Y-38579664D02*
X76945285Y-38617760D01*
X76945285Y-38617760D02*
X76907190Y-38655855D01*
X76907190Y-38655855D02*
X76869095Y-38732045D01*
X76869095Y-38732045D02*
X76869095Y-38922522D01*
X76869095Y-38922522D02*
X76907190Y-39036807D01*
X77669095Y-39379665D02*
X76869095Y-39379665D01*
X76869095Y-39379665D02*
X76869095Y-39570141D01*
X76869095Y-39570141D02*
X76907190Y-39684427D01*
X76907190Y-39684427D02*
X76983380Y-39760617D01*
X76983380Y-39760617D02*
X77059571Y-39798712D01*
X77059571Y-39798712D02*
X77211952Y-39836808D01*
X77211952Y-39836808D02*
X77326238Y-39836808D01*
X77326238Y-39836808D02*
X77478619Y-39798712D01*
X77478619Y-39798712D02*
X77554809Y-39760617D01*
X77554809Y-39760617D02*
X77631000Y-39684427D01*
X77631000Y-39684427D02*
X77669095Y-39570141D01*
X77669095Y-39570141D02*
X77669095Y-39379665D01*
X77440523Y-40141569D02*
X77440523Y-40522522D01*
X77669095Y-40065379D02*
X76869095Y-40332046D01*
X76869095Y-40332046D02*
X77669095Y-40598712D01*
X76280567Y-38579664D02*
X76318662Y-38693950D01*
X76318662Y-38693950D02*
X76318662Y-38884426D01*
X76318662Y-38884426D02*
X76280567Y-38960617D01*
X76280567Y-38960617D02*
X76242471Y-38998712D01*
X76242471Y-38998712D02*
X76166281Y-39036807D01*
X76166281Y-39036807D02*
X76090090Y-39036807D01*
X76090090Y-39036807D02*
X76013900Y-38998712D01*
X76013900Y-38998712D02*
X75975805Y-38960617D01*
X75975805Y-38960617D02*
X75937709Y-38884426D01*
X75937709Y-38884426D02*
X75899614Y-38732045D01*
X75899614Y-38732045D02*
X75861519Y-38655855D01*
X75861519Y-38655855D02*
X75823424Y-38617760D01*
X75823424Y-38617760D02*
X75747233Y-38579664D01*
X75747233Y-38579664D02*
X75671043Y-38579664D01*
X75671043Y-38579664D02*
X75594852Y-38617760D01*
X75594852Y-38617760D02*
X75556757Y-38655855D01*
X75556757Y-38655855D02*
X75518662Y-38732045D01*
X75518662Y-38732045D02*
X75518662Y-38922522D01*
X75518662Y-38922522D02*
X75556757Y-39036807D01*
X76242471Y-39836808D02*
X76280567Y-39798712D01*
X76280567Y-39798712D02*
X76318662Y-39684427D01*
X76318662Y-39684427D02*
X76318662Y-39608236D01*
X76318662Y-39608236D02*
X76280567Y-39493950D01*
X76280567Y-39493950D02*
X76204376Y-39417760D01*
X76204376Y-39417760D02*
X76128186Y-39379665D01*
X76128186Y-39379665D02*
X75975805Y-39341569D01*
X75975805Y-39341569D02*
X75861519Y-39341569D01*
X75861519Y-39341569D02*
X75709138Y-39379665D01*
X75709138Y-39379665D02*
X75632947Y-39417760D01*
X75632947Y-39417760D02*
X75556757Y-39493950D01*
X75556757Y-39493950D02*
X75518662Y-39608236D01*
X75518662Y-39608236D02*
X75518662Y-39684427D01*
X75518662Y-39684427D02*
X75556757Y-39798712D01*
X75556757Y-39798712D02*
X75594852Y-39836808D01*
X76318662Y-40179665D02*
X75518662Y-40179665D01*
X76318662Y-40636808D02*
X75861519Y-40293950D01*
X75518662Y-40636808D02*
X75975805Y-40179665D01*
X95805826Y-54347352D02*
X95920112Y-54309257D01*
X95920112Y-54309257D02*
X95958207Y-54271161D01*
X95958207Y-54271161D02*
X95996303Y-54194971D01*
X95996303Y-54194971D02*
X95996303Y-54080685D01*
X95996303Y-54080685D02*
X95958207Y-54004495D01*
X95958207Y-54004495D02*
X95920112Y-53966400D01*
X95920112Y-53966400D02*
X95843922Y-53928304D01*
X95843922Y-53928304D02*
X95539160Y-53928304D01*
X95539160Y-53928304D02*
X95539160Y-54728304D01*
X95539160Y-54728304D02*
X95805826Y-54728304D01*
X95805826Y-54728304D02*
X95882017Y-54690209D01*
X95882017Y-54690209D02*
X95920112Y-54652114D01*
X95920112Y-54652114D02*
X95958207Y-54575923D01*
X95958207Y-54575923D02*
X95958207Y-54499733D01*
X95958207Y-54499733D02*
X95920112Y-54423542D01*
X95920112Y-54423542D02*
X95882017Y-54385447D01*
X95882017Y-54385447D02*
X95805826Y-54347352D01*
X95805826Y-54347352D02*
X95539160Y-54347352D01*
X96301064Y-54156876D02*
X96682017Y-54156876D01*
X96224874Y-53928304D02*
X96491541Y-54728304D01*
X96491541Y-54728304D02*
X96758207Y-53928304D01*
X96910588Y-54728304D02*
X97367731Y-54728304D01*
X97139159Y-53928304D02*
X97139159Y-54728304D01*
X97634398Y-54233066D02*
X98243922Y-54233066D01*
X97939160Y-53928304D02*
X97939160Y-54537828D01*
M02*
