M48
; DRILL file {KiCad 9.0.7} date 2026-03-29T20:38:52+0200
; FORMAT={-:-/ absolute / metric / decimal}
; #@! TF.CreationDate,2026-03-29T20:38:52+02:00
; #@! TF.GenerationSoftware,Kicad,Pcbnew,9.0.7
; #@! TF.FileFunction,Plated,1,4,PTH
FMAT,2
METRIC
; #@! TA.AperFunction,Plated,PTH,ViaDrill
T1C0.200
; #@! TA.AperFunction,Plated,PTH,ViaDrill
T2C0.400
; #@! TA.AperFunction,Plated,PTH,ComponentDrill
T3C0.600
; #@! TA.AperFunction,Plated,PTH,ComponentDrill
T4C0.650
%
G90
G05
T1
X61.0Y-47.0
X61.0Y-49.0
X61.0Y-51.0
X61.0Y-53.0
X61.0Y-58.5
X61.0Y-60.5
X62.0Y-49.0
X62.0Y-51.0
X62.0Y-53.0
X62.0Y-59.5
X62.0Y-61.5
X63.0Y-46.5
X63.0Y-47.5
X63.0Y-60.5
X63.424Y-58.318
X64.0Y-59.5
X64.414Y-57.861
X64.5Y-60.5
X65.5Y-62.0
X65.557Y-56.159
X66.5Y-39.0
X66.5Y-42.0
X66.5Y-44.0
X66.954Y-53.416
X67.0Y-45.0
X67.0Y-64.0
X67.0Y-65.5
X67.0Y-67.0
X67.081Y-46.126
X67.183Y-56.972
X67.691Y-57.506
X68.0Y-42.0
X68.0Y-45.0
X68.218Y-53.712
X68.5Y-46.0
X68.5Y-64.5
X68.5Y-66.5
X68.504Y-39.954
X69.0Y-45.0
X69.427Y-41.58
X69.488Y-54.743
X69.488Y-55.703
X69.5Y-46.0
X69.875Y-51.156
X69.901Y-49.251
X70.0Y-45.0
X70.0Y-64.0
X70.0Y-65.5
X70.0Y-67.0
X70.479Y-55.15
X70.479Y-56.11
X70.79Y-59.614
X70.79Y-60.731
X71.425Y-39.421
X71.476Y-54.585
X71.5Y-47.0
X71.5Y-48.0
X71.5Y-52.0
X71.501Y-55.601
X71.831Y-59.614
X71.831Y-60.731
X71.935Y-55.096
X71.935Y-56.087
X72.0Y-41.0
X72.0Y-52.5
X72.5Y-52.0
X72.523Y-64.621
X72.536Y-66.298
X72.542Y-39.345
X72.895Y-55.096
X72.895Y-56.087
X73.0Y-51.5
X73.0Y-52.5
X73.5Y-41.0
X73.5Y-52.0
X73.9Y-46.7
X73.9Y-48.0
X73.9Y-49.2
X74.0Y-51.5
X74.5Y-52.5
X74.524Y-57.887
X75.0Y-41.0
X75.108Y-51.791
X75.406Y-58.335
X75.978Y-55.858
X75.997Y-47.473
X76.0Y-51.5
X76.022Y-45.716
X76.5Y-41.0
X77.0Y-52.5
X77.114Y-57.633
X77.241Y-47.447
X77.5Y-51.5
X78.0Y-41.0
X78.384Y-56.947
X78.486Y-47.498
X78.5Y-43.0
X78.5Y-51.0
X78.5Y-52.5
X78.5Y-61.0
X78.5Y-62.0
X79.527Y-59.493
X79.527Y-60.493
X79.527Y-61.507
X79.527Y-62.507
X79.527Y-63.507
X80.0Y-43.0
X80.0Y-44.5
X80.0Y-46.0
X80.0Y-48.5
X80.5Y-47.5
X80.5Y-59.0
X80.5Y-60.0
X80.5Y-61.0
X80.5Y-62.0
X80.5Y-63.0
X80.753Y-55.169
X81.5Y-43.0
X81.5Y-44.5
X81.5Y-46.0
X81.5Y-48.5
X81.753Y-55.169
X82.0Y-47.5
X82.5Y-39.0
X82.5Y-42.0
X82.753Y-55.169
X83.0Y-41.0
X83.0Y-43.0
X83.0Y-67.0
X83.753Y-55.169
X84.0Y-42.0
X84.074Y-40.97
X84.5Y-43.0
X84.753Y-55.169
X85.0Y-67.0
X85.753Y-55.169
X86.0Y-43.0
X86.157Y-39.319
X86.753Y-55.169
X87.0Y-42.0
X87.376Y-62.84
X87.5Y-41.0
X87.5Y-43.0
X87.766Y-55.169
X88.405Y-57.818
X88.415Y-56.523
X88.5Y-39.0
X88.5Y-42.0
X88.766Y-55.169
X89.0Y-43.0
X90.0Y-42.0
X90.5Y-43.0
X90.519Y-50.248
X90.777Y-64.397
X90.777Y-66.022
X91.694Y-59.131
X92.0Y-43.0
X92.0Y-43.5
X92.327Y-64.397
X92.5Y-67.0
X93.0Y-60.5
X93.5Y-39.0
X94.0Y-43.5
X94.0Y-45.0
X94.0Y-46.5
X94.0Y-48.0
X94.0Y-55.5
X94.0Y-57.0
X94.0Y-59.0
X95.5Y-45.0
X95.5Y-46.5
X95.5Y-48.0
X97.0Y-45.0
X97.0Y-46.5
X98.5Y-45.0
X98.5Y-46.5
X98.5Y-49.5
X98.5Y-51.0
X98.5Y-52.5
X98.5Y-54.0
X98.5Y-55.5
X98.5Y-59.0
X98.5Y-61.0
T2
X67.081Y-51.867
X67.081Y-52.578
X67.081Y-61.163
X67.158Y-47.066
X67.158Y-47.777
X67.793Y-51.867
X67.793Y-52.578
X67.869Y-47.066
X67.869Y-47.777
X68.218Y-55.262
X70.282Y-59.03
X70.282Y-60.187
X70.282Y-61.29
X71.307Y-59.03
X71.307Y-60.187
X71.307Y-61.29
X71.691Y-53.797
X72.314Y-59.03
X72.314Y-60.187
X72.314Y-61.29
X74.086Y-64.621
X74.086Y-65.456
X74.086Y-66.298
X75.362Y-66.298
X76.53Y-60.122
X76.556Y-59.385
X76.556Y-66.298
X77.292Y-60.122
X77.318Y-59.385
X82.525Y-57.556
X83.464Y-57.556
X84.404Y-57.556
X85.284Y-45.936
X85.293Y-44.882
X85.293Y-46.99
X85.344Y-57.556
X87.198Y-48.666
X87.478Y-57.658
X87.503Y-56.515
X87.63Y-49.555
X87.655Y-50.345
X88.036Y-48.666
X88.377Y-60.325
X88.377Y-62.509
X88.574Y-49.555
X88.925Y-48.666
X89.284Y-44.882
X89.284Y-45.966
X89.284Y-46.99
X89.51Y-50.345
X89.51Y-62.662
X89.56Y-49.555
X89.789Y-64.313
X89.789Y-65.227
X89.789Y-66.167
T4
X64.841Y-46.945
X64.841Y-52.725
T3
G00X60.791Y-45.515
M15
G01X61.591Y-45.515
M16
G05
G00X60.791Y-54.155
M15
G01X61.591Y-54.155
M16
G05
G00X65.891Y-45.515
M15
G01X64.791Y-45.515
M16
G05
G00X65.891Y-54.155
M15
G01X64.791Y-54.155
M16
G05
M30
