%TF.GenerationSoftware,KiCad,Pcbnew,9.0.7*%
%TF.CreationDate,2026-03-29T20:38:49+02:00*%
%TF.ProjectId,IoT_Environmental_Monitoring_Device_Power,496f545f-456e-4766-9972-6f6e6d656e74,rev?*%
%TF.SameCoordinates,Original*%
%TF.FileFunction,Paste,Top*%
%TF.FilePolarity,Positive*%
%FSLAX46Y46*%
G04 Gerber Fmt 4.6, Leading zero omitted, Abs format (unit mm)*
G04 Created by KiCad (PCBNEW 9.0.7) date 2026-03-29 20:38:49*
%MOMM*%
%LPD*%
G01*
G04 APERTURE LIST*
G04 Aperture macros list*
%AMRoundRect*
0 Rectangle with rounded corners*
0 $1 Rounding radius*
0 $2 $3 $4 $5 $6 $7 $8 $9 X,Y pos of 4 corners*
0 Add a 4 corners polygon primitive as box body*
4,1,4,$2,$3,$4,$5,$6,$7,$8,$9,$2,$3,0*
0 Add four circle primitives for the rounded corners*
1,1,$1+$1,$2,$3*
1,1,$1+$1,$4,$5*
1,1,$1+$1,$6,$7*
1,1,$1+$1,$8,$9*
0 Add four rect primitives between the rounded corners*
20,1,$1+$1,$2,$3,$4,$5,0*
20,1,$1+$1,$4,$5,$6,$7,0*
20,1,$1+$1,$6,$7,$8,$9,0*
20,1,$1+$1,$8,$9,$2,$3,0*%
G04 Aperture macros list end*
%ADD10RoundRect,0.140000X-0.170000X0.140000X-0.170000X-0.140000X0.170000X-0.140000X0.170000X0.140000X0*%
%ADD11RoundRect,0.135000X0.185000X-0.135000X0.185000X0.135000X-0.185000X0.135000X-0.185000X-0.135000X0*%
%ADD12R,1.000000X3.500000*%
%ADD13R,1.800000X3.700000*%
%ADD14RoundRect,0.140000X-0.140000X-0.170000X0.140000X-0.170000X0.140000X0.170000X-0.140000X0.170000X0*%
%ADD15RoundRect,0.225000X-0.250000X0.225000X-0.250000X-0.225000X0.250000X-0.225000X0.250000X0.225000X0*%
%ADD16RoundRect,0.135000X0.135000X0.185000X-0.135000X0.185000X-0.135000X-0.185000X0.135000X-0.185000X0*%
%ADD17RoundRect,0.225000X0.250000X-0.225000X0.250000X0.225000X-0.250000X0.225000X-0.250000X-0.225000X0*%
%ADD18RoundRect,0.225000X-0.225000X-0.250000X0.225000X-0.250000X0.225000X0.250000X-0.225000X0.250000X0*%
%ADD19RoundRect,0.135000X-0.135000X-0.185000X0.135000X-0.185000X0.135000X0.185000X-0.135000X0.185000X0*%
%ADD20R,0.600000X1.700000*%
%ADD21R,1.000000X2.700000*%
%ADD22R,3.400000X1.500000*%
%ADD23R,3.500000X1.000000*%
%ADD24RoundRect,0.140000X0.170000X-0.140000X0.170000X0.140000X-0.170000X0.140000X-0.170000X-0.140000X0*%
%ADD25R,1.070000X0.530000*%
%ADD26O,0.800000X0.200000*%
%ADD27O,0.200000X0.800000*%
%ADD28R,3.400000X3.400000*%
%ADD29R,2.160000X1.630000*%
%ADD30R,0.530000X1.070000*%
%ADD31RoundRect,0.225000X0.225000X0.250000X-0.225000X0.250000X-0.225000X-0.250000X0.225000X-0.250000X0*%
%ADD32R,1.100000X0.600000*%
%ADD33R,1.150000X0.600000*%
%ADD34R,1.150000X0.300000*%
%ADD35RoundRect,0.135000X-0.185000X0.135000X-0.185000X-0.135000X0.185000X-0.135000X0.185000X0.135000X0*%
%ADD36RoundRect,0.250000X1.000000X0.650000X-1.000000X0.650000X-1.000000X-0.650000X1.000000X-0.650000X0*%
%ADD37RoundRect,0.249999X-1.800001X0.450001X-1.800001X-0.450001X1.800001X-0.450001X1.800001X0.450001X0*%
%ADD38RoundRect,0.150000X-0.512500X-0.150000X0.512500X-0.150000X0.512500X0.150000X-0.512500X0.150000X0*%
G04 APERTURE END LIST*
D10*
%TO.C,C16*%
X80568800Y-51285200D03*
X80568800Y-52245200D03*
%TD*%
D11*
%TO.C,R8*%
X79527400Y-52300599D03*
X79527400Y-51280601D03*
%TD*%
D12*
%TO.C,U5*%
X89283800Y-45966000D03*
X87283800Y-45966000D03*
X85283800Y-45966000D03*
X83283800Y-45966000D03*
D13*
X80933800Y-39986000D03*
X91633800Y-39986000D03*
%TD*%
D14*
%TO.C,C14*%
X71935400Y-55096400D03*
X72895400Y-55096400D03*
%TD*%
D15*
%TO.C,C8*%
X67075200Y-58791800D03*
X67075200Y-60341800D03*
%TD*%
D16*
%TO.C,R7*%
X82704399Y-49301400D03*
X81684401Y-49301400D03*
%TD*%
D17*
%TO.C,C5*%
X68218200Y-55261800D03*
X68218200Y-53711800D03*
%TD*%
D18*
%TO.C,C2*%
X71691200Y-53797200D03*
X73241200Y-53797200D03*
%TD*%
D19*
%TO.C,R4*%
X90760402Y-62923401D03*
X91780400Y-62923401D03*
%TD*%
D18*
%TO.C,C10*%
X88414601Y-56522600D03*
X89964601Y-56522600D03*
%TD*%
D11*
%TO.C,R9*%
X76022200Y-46736000D03*
X76022200Y-45716002D03*
%TD*%
D20*
%TO.C,CN1*%
X76927400Y-42794000D03*
X75677400Y-42794000D03*
X74427400Y-42794000D03*
X73177400Y-42794000D03*
X71927400Y-42794000D03*
X70677400Y-42794000D03*
X69427400Y-42794000D03*
D21*
X78777400Y-39494000D03*
X67577400Y-39494000D03*
%TD*%
D18*
%TO.C,C1*%
X90776799Y-64396602D03*
X92326799Y-64396602D03*
%TD*%
D22*
%TO.C,U7*%
X98121600Y-47817800D03*
X98121600Y-56677800D03*
D23*
X92581600Y-54247800D03*
X92581600Y-52247800D03*
X92581600Y-50247800D03*
%TD*%
D19*
%TO.C,R5*%
X90762401Y-61729601D03*
X91782399Y-61729601D03*
%TD*%
D18*
%TO.C,C11*%
X74428201Y-55858400D03*
X75978201Y-55858400D03*
%TD*%
D24*
%TO.C,C4*%
X69488200Y-55703400D03*
X69488200Y-54743400D03*
%TD*%
D25*
%TO.C,U2*%
X84284200Y-52232901D03*
X84284200Y-51282901D03*
X84284200Y-50332901D03*
X81984200Y-50332901D03*
X81984200Y-51282901D03*
X81984200Y-52232901D03*
%TD*%
D11*
%TO.C,R10*%
X78486000Y-46736000D03*
X78486000Y-45716002D03*
%TD*%
D26*
%TO.C,U1*%
X68807400Y-58387200D03*
X68807401Y-58787200D03*
X68807400Y-59187200D03*
X68807400Y-59587200D03*
X68807400Y-59987201D03*
X68807400Y-60387199D03*
X68807400Y-60787200D03*
X68807400Y-61187200D03*
X68807401Y-61587200D03*
X68807400Y-61987200D03*
D27*
X69507400Y-62687200D03*
X69907400Y-62687199D03*
X70307400Y-62687200D03*
X70707400Y-62687200D03*
X71107401Y-62687200D03*
X71507399Y-62687200D03*
X71907400Y-62687200D03*
X72307400Y-62687200D03*
X72707400Y-62687199D03*
X73107400Y-62687200D03*
D26*
X73807400Y-61987200D03*
X73807399Y-61587200D03*
X73807400Y-61187200D03*
X73807400Y-60787200D03*
X73807400Y-60387199D03*
X73807400Y-59987201D03*
X73807400Y-59587200D03*
X73807400Y-59187200D03*
X73807399Y-58787200D03*
X73807400Y-58387200D03*
D27*
X73107400Y-57687200D03*
X72707400Y-57687201D03*
X72307400Y-57687200D03*
X71907400Y-57687200D03*
X71507399Y-57687200D03*
X71107401Y-57687200D03*
X70707400Y-57687200D03*
X70307400Y-57687200D03*
X69907400Y-57687201D03*
X69507400Y-57687200D03*
D28*
X71307400Y-60187200D03*
%TD*%
D29*
%TO.C,L3*%
X76346201Y-62284600D03*
X76346201Y-64624600D03*
%TD*%
D30*
%TO.C,U3*%
X87426800Y-61431200D03*
X88376800Y-61431200D03*
X89326800Y-61431200D03*
X89326800Y-59131200D03*
X88376800Y-59131200D03*
X87426800Y-59131200D03*
%TD*%
D31*
%TO.C,C7*%
X74086200Y-66297799D03*
X72536200Y-66297799D03*
%TD*%
D32*
%TO.C,Q1*%
X88573600Y-52244600D03*
X88573600Y-51294600D03*
X88573600Y-50344600D03*
X85873600Y-50344600D03*
X85873600Y-51294600D03*
X85873600Y-52244600D03*
%TD*%
D31*
%TO.C,C6*%
X74073200Y-64621400D03*
X72523200Y-64621400D03*
%TD*%
D11*
%TO.C,R11*%
X77254100Y-46736000D03*
X77254100Y-45716002D03*
%TD*%
D33*
%TO.C,USB1*%
X65910800Y-46634800D03*
X65910800Y-47434800D03*
D34*
X65910800Y-48584801D03*
X65910800Y-49584800D03*
X65910800Y-50084800D03*
X65910800Y-51084799D03*
D33*
X65910800Y-53034800D03*
X65910800Y-52234800D03*
D34*
X65910800Y-51584800D03*
X65910800Y-50584800D03*
X65910800Y-49084800D03*
X65910800Y-48084800D03*
%TD*%
D17*
%TO.C,C3*%
X75406400Y-59884600D03*
X75406400Y-58334600D03*
%TD*%
D18*
%TO.C,C18*%
X90776800Y-66022201D03*
X92326800Y-66022201D03*
%TD*%
D19*
%TO.C,R13*%
X63929801Y-56134000D03*
X64949799Y-56134000D03*
%TD*%
%TO.C,R14*%
X63929801Y-57226200D03*
X64949799Y-57226200D03*
%TD*%
D35*
%TO.C,R3*%
X90738998Y-59136802D03*
X90738998Y-60156800D03*
%TD*%
D36*
%TO.C,D2*%
X87938401Y-65031601D03*
X83938399Y-65031601D03*
%TD*%
D37*
%TO.C,L1*%
X83957200Y-58881000D03*
X83957200Y-61581000D03*
%TD*%
D14*
%TO.C,C9*%
X88404800Y-57818001D03*
X89364800Y-57818001D03*
%TD*%
D24*
%TO.C,C13*%
X70478800Y-56109800D03*
X70478800Y-55149800D03*
%TD*%
D38*
%TO.C,U4*%
X68763300Y-48870701D03*
X68763300Y-49820700D03*
X68763300Y-50770699D03*
X71038300Y-50770699D03*
X71038300Y-49820700D03*
X71038300Y-48870701D03*
%TD*%
D14*
%TO.C,C15*%
X71935400Y-56087000D03*
X72895400Y-56087000D03*
%TD*%
M02*
