%TF.GenerationSoftware,KiCad,Pcbnew,9.0.7*%
%TF.CreationDate,2026-03-29T20:38:49+02:00*%
%TF.ProjectId,IoT_Environmental_Monitoring_Device_Power,496f545f-456e-4766-9972-6f6e6d656e74,rev?*%
%TF.SameCoordinates,Original*%
%TF.FileFunction,Legend,Top*%
%TF.FilePolarity,Positive*%
%FSLAX46Y46*%
G04 Gerber Fmt 4.6, Leading zero omitted, Abs format (unit mm)*
G04 Created by KiCad (PCBNEW 9.0.7) date 2026-03-29 20:38:49*
%MOMM*%
%LPD*%
G01*
G04 APERTURE LIST*
%ADD10C,0.100000*%
%ADD11C,0.150000*%
%ADD12C,0.120000*%
%ADD13C,0.250000*%
%ADD14C,0.300000*%
%ADD15C,0.200000*%
G04 APERTURE END LIST*
D10*
X70967600Y-56870600D02*
X71374000Y-57251600D01*
D11*
X80905704Y-54336885D02*
X80943800Y-54374981D01*
X80943800Y-54374981D02*
X80981895Y-54489266D01*
X80981895Y-54489266D02*
X80981895Y-54565457D01*
X80981895Y-54565457D02*
X80943800Y-54679743D01*
X80943800Y-54679743D02*
X80867609Y-54755933D01*
X80867609Y-54755933D02*
X80791419Y-54794028D01*
X80791419Y-54794028D02*
X80639038Y-54832124D01*
X80639038Y-54832124D02*
X80524752Y-54832124D01*
X80524752Y-54832124D02*
X80372371Y-54794028D01*
X80372371Y-54794028D02*
X80296180Y-54755933D01*
X80296180Y-54755933D02*
X80219990Y-54679743D01*
X80219990Y-54679743D02*
X80181895Y-54565457D01*
X80181895Y-54565457D02*
X80181895Y-54489266D01*
X80181895Y-54489266D02*
X80219990Y-54374981D01*
X80219990Y-54374981D02*
X80258085Y-54336885D01*
X80981895Y-53574981D02*
X80981895Y-54032124D01*
X80981895Y-53803552D02*
X80181895Y-53803552D01*
X80181895Y-53803552D02*
X80296180Y-53879743D01*
X80296180Y-53879743D02*
X80372371Y-53955933D01*
X80372371Y-53955933D02*
X80410466Y-54032124D01*
X80181895Y-52889266D02*
X80181895Y-53041647D01*
X80181895Y-53041647D02*
X80219990Y-53117838D01*
X80219990Y-53117838D02*
X80258085Y-53155933D01*
X80258085Y-53155933D02*
X80372371Y-53232123D01*
X80372371Y-53232123D02*
X80524752Y-53270219D01*
X80524752Y-53270219D02*
X80829514Y-53270219D01*
X80829514Y-53270219D02*
X80905704Y-53232123D01*
X80905704Y-53232123D02*
X80943800Y-53194028D01*
X80943800Y-53194028D02*
X80981895Y-53117838D01*
X80981895Y-53117838D02*
X80981895Y-52965457D01*
X80981895Y-52965457D02*
X80943800Y-52889266D01*
X80943800Y-52889266D02*
X80905704Y-52851171D01*
X80905704Y-52851171D02*
X80829514Y-52813076D01*
X80829514Y-52813076D02*
X80639038Y-52813076D01*
X80639038Y-52813076D02*
X80562847Y-52851171D01*
X80562847Y-52851171D02*
X80524752Y-52889266D01*
X80524752Y-52889266D02*
X80486657Y-52965457D01*
X80486657Y-52965457D02*
X80486657Y-53117838D01*
X80486657Y-53117838D02*
X80524752Y-53194028D01*
X80524752Y-53194028D02*
X80562847Y-53232123D01*
X80562847Y-53232123D02*
X80639038Y-53270219D01*
X79915095Y-53625732D02*
X79534142Y-53892399D01*
X79915095Y-54082875D02*
X79115095Y-54082875D01*
X79115095Y-54082875D02*
X79115095Y-53778113D01*
X79115095Y-53778113D02*
X79153190Y-53701923D01*
X79153190Y-53701923D02*
X79191285Y-53663828D01*
X79191285Y-53663828D02*
X79267476Y-53625732D01*
X79267476Y-53625732D02*
X79381761Y-53625732D01*
X79381761Y-53625732D02*
X79457952Y-53663828D01*
X79457952Y-53663828D02*
X79496047Y-53701923D01*
X79496047Y-53701923D02*
X79534142Y-53778113D01*
X79534142Y-53778113D02*
X79534142Y-54082875D01*
X79457952Y-53168590D02*
X79419857Y-53244780D01*
X79419857Y-53244780D02*
X79381761Y-53282875D01*
X79381761Y-53282875D02*
X79305571Y-53320971D01*
X79305571Y-53320971D02*
X79267476Y-53320971D01*
X79267476Y-53320971D02*
X79191285Y-53282875D01*
X79191285Y-53282875D02*
X79153190Y-53244780D01*
X79153190Y-53244780D02*
X79115095Y-53168590D01*
X79115095Y-53168590D02*
X79115095Y-53016209D01*
X79115095Y-53016209D02*
X79153190Y-52940018D01*
X79153190Y-52940018D02*
X79191285Y-52901923D01*
X79191285Y-52901923D02*
X79267476Y-52863828D01*
X79267476Y-52863828D02*
X79305571Y-52863828D01*
X79305571Y-52863828D02*
X79381761Y-52901923D01*
X79381761Y-52901923D02*
X79419857Y-52940018D01*
X79419857Y-52940018D02*
X79457952Y-53016209D01*
X79457952Y-53016209D02*
X79457952Y-53168590D01*
X79457952Y-53168590D02*
X79496047Y-53244780D01*
X79496047Y-53244780D02*
X79534142Y-53282875D01*
X79534142Y-53282875D02*
X79610333Y-53320971D01*
X79610333Y-53320971D02*
X79762714Y-53320971D01*
X79762714Y-53320971D02*
X79838904Y-53282875D01*
X79838904Y-53282875D02*
X79877000Y-53244780D01*
X79877000Y-53244780D02*
X79915095Y-53168590D01*
X79915095Y-53168590D02*
X79915095Y-53016209D01*
X79915095Y-53016209D02*
X79877000Y-52940018D01*
X79877000Y-52940018D02*
X79838904Y-52901923D01*
X79838904Y-52901923D02*
X79762714Y-52863828D01*
X79762714Y-52863828D02*
X79610333Y-52863828D01*
X79610333Y-52863828D02*
X79534142Y-52901923D01*
X79534142Y-52901923D02*
X79496047Y-52940018D01*
X79496047Y-52940018D02*
X79457952Y-53016209D01*
X85877495Y-41060019D02*
X85877495Y-41869542D01*
X85877495Y-41869542D02*
X85925114Y-41964780D01*
X85925114Y-41964780D02*
X85972733Y-42012400D01*
X85972733Y-42012400D02*
X86067971Y-42060019D01*
X86067971Y-42060019D02*
X86258447Y-42060019D01*
X86258447Y-42060019D02*
X86353685Y-42012400D01*
X86353685Y-42012400D02*
X86401304Y-41964780D01*
X86401304Y-41964780D02*
X86448923Y-41869542D01*
X86448923Y-41869542D02*
X86448923Y-41060019D01*
X87401304Y-41060019D02*
X86925114Y-41060019D01*
X86925114Y-41060019D02*
X86877495Y-41536209D01*
X86877495Y-41536209D02*
X86925114Y-41488590D01*
X86925114Y-41488590D02*
X87020352Y-41440971D01*
X87020352Y-41440971D02*
X87258447Y-41440971D01*
X87258447Y-41440971D02*
X87353685Y-41488590D01*
X87353685Y-41488590D02*
X87401304Y-41536209D01*
X87401304Y-41536209D02*
X87448923Y-41631447D01*
X87448923Y-41631447D02*
X87448923Y-41869542D01*
X87448923Y-41869542D02*
X87401304Y-41964780D01*
X87401304Y-41964780D02*
X87353685Y-42012400D01*
X87353685Y-42012400D02*
X87258447Y-42060019D01*
X87258447Y-42060019D02*
X87020352Y-42060019D01*
X87020352Y-42060019D02*
X86925114Y-42012400D01*
X86925114Y-42012400D02*
X86877495Y-41964780D01*
X66040304Y-59852532D02*
X66078400Y-59890628D01*
X66078400Y-59890628D02*
X66116495Y-60004913D01*
X66116495Y-60004913D02*
X66116495Y-60081104D01*
X66116495Y-60081104D02*
X66078400Y-60195390D01*
X66078400Y-60195390D02*
X66002209Y-60271580D01*
X66002209Y-60271580D02*
X65926019Y-60309675D01*
X65926019Y-60309675D02*
X65773638Y-60347771D01*
X65773638Y-60347771D02*
X65659352Y-60347771D01*
X65659352Y-60347771D02*
X65506971Y-60309675D01*
X65506971Y-60309675D02*
X65430780Y-60271580D01*
X65430780Y-60271580D02*
X65354590Y-60195390D01*
X65354590Y-60195390D02*
X65316495Y-60081104D01*
X65316495Y-60081104D02*
X65316495Y-60004913D01*
X65316495Y-60004913D02*
X65354590Y-59890628D01*
X65354590Y-59890628D02*
X65392685Y-59852532D01*
X65659352Y-59395390D02*
X65621257Y-59471580D01*
X65621257Y-59471580D02*
X65583161Y-59509675D01*
X65583161Y-59509675D02*
X65506971Y-59547771D01*
X65506971Y-59547771D02*
X65468876Y-59547771D01*
X65468876Y-59547771D02*
X65392685Y-59509675D01*
X65392685Y-59509675D02*
X65354590Y-59471580D01*
X65354590Y-59471580D02*
X65316495Y-59395390D01*
X65316495Y-59395390D02*
X65316495Y-59243009D01*
X65316495Y-59243009D02*
X65354590Y-59166818D01*
X65354590Y-59166818D02*
X65392685Y-59128723D01*
X65392685Y-59128723D02*
X65468876Y-59090628D01*
X65468876Y-59090628D02*
X65506971Y-59090628D01*
X65506971Y-59090628D02*
X65583161Y-59128723D01*
X65583161Y-59128723D02*
X65621257Y-59166818D01*
X65621257Y-59166818D02*
X65659352Y-59243009D01*
X65659352Y-59243009D02*
X65659352Y-59395390D01*
X65659352Y-59395390D02*
X65697447Y-59471580D01*
X65697447Y-59471580D02*
X65735542Y-59509675D01*
X65735542Y-59509675D02*
X65811733Y-59547771D01*
X65811733Y-59547771D02*
X65964114Y-59547771D01*
X65964114Y-59547771D02*
X66040304Y-59509675D01*
X66040304Y-59509675D02*
X66078400Y-59471580D01*
X66078400Y-59471580D02*
X66116495Y-59395390D01*
X66116495Y-59395390D02*
X66116495Y-59243009D01*
X66116495Y-59243009D02*
X66078400Y-59166818D01*
X66078400Y-59166818D02*
X66040304Y-59128723D01*
X66040304Y-59128723D02*
X65964114Y-59090628D01*
X65964114Y-59090628D02*
X65811733Y-59090628D01*
X65811733Y-59090628D02*
X65735542Y-59128723D01*
X65735542Y-59128723D02*
X65697447Y-59166818D01*
X65697447Y-59166818D02*
X65659352Y-59243009D01*
X83889867Y-49485895D02*
X83623200Y-49104942D01*
X83432724Y-49485895D02*
X83432724Y-48685895D01*
X83432724Y-48685895D02*
X83737486Y-48685895D01*
X83737486Y-48685895D02*
X83813676Y-48723990D01*
X83813676Y-48723990D02*
X83851771Y-48762085D01*
X83851771Y-48762085D02*
X83889867Y-48838276D01*
X83889867Y-48838276D02*
X83889867Y-48952561D01*
X83889867Y-48952561D02*
X83851771Y-49028752D01*
X83851771Y-49028752D02*
X83813676Y-49066847D01*
X83813676Y-49066847D02*
X83737486Y-49104942D01*
X83737486Y-49104942D02*
X83432724Y-49104942D01*
X84156533Y-48685895D02*
X84689867Y-48685895D01*
X84689867Y-48685895D02*
X84347009Y-49485895D01*
X67074304Y-54620132D02*
X67112400Y-54658228D01*
X67112400Y-54658228D02*
X67150495Y-54772513D01*
X67150495Y-54772513D02*
X67150495Y-54848704D01*
X67150495Y-54848704D02*
X67112400Y-54962990D01*
X67112400Y-54962990D02*
X67036209Y-55039180D01*
X67036209Y-55039180D02*
X66960019Y-55077275D01*
X66960019Y-55077275D02*
X66807638Y-55115371D01*
X66807638Y-55115371D02*
X66693352Y-55115371D01*
X66693352Y-55115371D02*
X66540971Y-55077275D01*
X66540971Y-55077275D02*
X66464780Y-55039180D01*
X66464780Y-55039180D02*
X66388590Y-54962990D01*
X66388590Y-54962990D02*
X66350495Y-54848704D01*
X66350495Y-54848704D02*
X66350495Y-54772513D01*
X66350495Y-54772513D02*
X66388590Y-54658228D01*
X66388590Y-54658228D02*
X66426685Y-54620132D01*
X66350495Y-53896323D02*
X66350495Y-54277275D01*
X66350495Y-54277275D02*
X66731447Y-54315371D01*
X66731447Y-54315371D02*
X66693352Y-54277275D01*
X66693352Y-54277275D02*
X66655257Y-54201085D01*
X66655257Y-54201085D02*
X66655257Y-54010609D01*
X66655257Y-54010609D02*
X66693352Y-53934418D01*
X66693352Y-53934418D02*
X66731447Y-53896323D01*
X66731447Y-53896323D02*
X66807638Y-53858228D01*
X66807638Y-53858228D02*
X66998114Y-53858228D01*
X66998114Y-53858228D02*
X67074304Y-53896323D01*
X67074304Y-53896323D02*
X67112400Y-53934418D01*
X67112400Y-53934418D02*
X67150495Y-54010609D01*
X67150495Y-54010609D02*
X67150495Y-54201085D01*
X67150495Y-54201085D02*
X67112400Y-54277275D01*
X67112400Y-54277275D02*
X67074304Y-54315371D01*
X74675867Y-54028704D02*
X74637771Y-54066800D01*
X74637771Y-54066800D02*
X74523486Y-54104895D01*
X74523486Y-54104895D02*
X74447295Y-54104895D01*
X74447295Y-54104895D02*
X74333009Y-54066800D01*
X74333009Y-54066800D02*
X74256819Y-53990609D01*
X74256819Y-53990609D02*
X74218724Y-53914419D01*
X74218724Y-53914419D02*
X74180628Y-53762038D01*
X74180628Y-53762038D02*
X74180628Y-53647752D01*
X74180628Y-53647752D02*
X74218724Y-53495371D01*
X74218724Y-53495371D02*
X74256819Y-53419180D01*
X74256819Y-53419180D02*
X74333009Y-53342990D01*
X74333009Y-53342990D02*
X74447295Y-53304895D01*
X74447295Y-53304895D02*
X74523486Y-53304895D01*
X74523486Y-53304895D02*
X74637771Y-53342990D01*
X74637771Y-53342990D02*
X74675867Y-53381085D01*
X74980628Y-53381085D02*
X75018724Y-53342990D01*
X75018724Y-53342990D02*
X75094914Y-53304895D01*
X75094914Y-53304895D02*
X75285390Y-53304895D01*
X75285390Y-53304895D02*
X75361581Y-53342990D01*
X75361581Y-53342990D02*
X75399676Y-53381085D01*
X75399676Y-53381085D02*
X75437771Y-53457276D01*
X75437771Y-53457276D02*
X75437771Y-53533466D01*
X75437771Y-53533466D02*
X75399676Y-53647752D01*
X75399676Y-53647752D02*
X74942533Y-54104895D01*
X74942533Y-54104895D02*
X75437771Y-54104895D01*
X92838868Y-63311096D02*
X92572201Y-62930143D01*
X92381725Y-63311096D02*
X92381725Y-62511096D01*
X92381725Y-62511096D02*
X92686487Y-62511096D01*
X92686487Y-62511096D02*
X92762677Y-62549191D01*
X92762677Y-62549191D02*
X92800772Y-62587286D01*
X92800772Y-62587286D02*
X92838868Y-62663477D01*
X92838868Y-62663477D02*
X92838868Y-62777762D01*
X92838868Y-62777762D02*
X92800772Y-62853953D01*
X92800772Y-62853953D02*
X92762677Y-62892048D01*
X92762677Y-62892048D02*
X92686487Y-62930143D01*
X92686487Y-62930143D02*
X92381725Y-62930143D01*
X93524582Y-62777762D02*
X93524582Y-63311096D01*
X93334106Y-62473001D02*
X93143629Y-63044429D01*
X93143629Y-63044429D02*
X93638868Y-63044429D01*
X86023514Y-56902704D02*
X85985418Y-56940800D01*
X85985418Y-56940800D02*
X85871133Y-56978895D01*
X85871133Y-56978895D02*
X85794942Y-56978895D01*
X85794942Y-56978895D02*
X85680656Y-56940800D01*
X85680656Y-56940800D02*
X85604466Y-56864609D01*
X85604466Y-56864609D02*
X85566371Y-56788419D01*
X85566371Y-56788419D02*
X85528275Y-56636038D01*
X85528275Y-56636038D02*
X85528275Y-56521752D01*
X85528275Y-56521752D02*
X85566371Y-56369371D01*
X85566371Y-56369371D02*
X85604466Y-56293180D01*
X85604466Y-56293180D02*
X85680656Y-56216990D01*
X85680656Y-56216990D02*
X85794942Y-56178895D01*
X85794942Y-56178895D02*
X85871133Y-56178895D01*
X85871133Y-56178895D02*
X85985418Y-56216990D01*
X85985418Y-56216990D02*
X86023514Y-56255085D01*
X86785418Y-56978895D02*
X86328275Y-56978895D01*
X86556847Y-56978895D02*
X86556847Y-56178895D01*
X86556847Y-56178895D02*
X86480656Y-56293180D01*
X86480656Y-56293180D02*
X86404466Y-56369371D01*
X86404466Y-56369371D02*
X86328275Y-56407466D01*
X87280657Y-56178895D02*
X87356847Y-56178895D01*
X87356847Y-56178895D02*
X87433038Y-56216990D01*
X87433038Y-56216990D02*
X87471133Y-56255085D01*
X87471133Y-56255085D02*
X87509228Y-56331276D01*
X87509228Y-56331276D02*
X87547323Y-56483657D01*
X87547323Y-56483657D02*
X87547323Y-56674133D01*
X87547323Y-56674133D02*
X87509228Y-56826514D01*
X87509228Y-56826514D02*
X87471133Y-56902704D01*
X87471133Y-56902704D02*
X87433038Y-56940800D01*
X87433038Y-56940800D02*
X87356847Y-56978895D01*
X87356847Y-56978895D02*
X87280657Y-56978895D01*
X87280657Y-56978895D02*
X87204466Y-56940800D01*
X87204466Y-56940800D02*
X87166371Y-56902704D01*
X87166371Y-56902704D02*
X87128276Y-56826514D01*
X87128276Y-56826514D02*
X87090180Y-56674133D01*
X87090180Y-56674133D02*
X87090180Y-56483657D01*
X87090180Y-56483657D02*
X87128276Y-56331276D01*
X87128276Y-56331276D02*
X87166371Y-56255085D01*
X87166371Y-56255085D02*
X87204466Y-56216990D01*
X87204466Y-56216990D02*
X87280657Y-56178895D01*
X76460695Y-48647332D02*
X76079742Y-48913999D01*
X76460695Y-49104475D02*
X75660695Y-49104475D01*
X75660695Y-49104475D02*
X75660695Y-48799713D01*
X75660695Y-48799713D02*
X75698790Y-48723523D01*
X75698790Y-48723523D02*
X75736885Y-48685428D01*
X75736885Y-48685428D02*
X75813076Y-48647332D01*
X75813076Y-48647332D02*
X75927361Y-48647332D01*
X75927361Y-48647332D02*
X76003552Y-48685428D01*
X76003552Y-48685428D02*
X76041647Y-48723523D01*
X76041647Y-48723523D02*
X76079742Y-48799713D01*
X76079742Y-48799713D02*
X76079742Y-49104475D01*
X76460695Y-48266380D02*
X76460695Y-48113999D01*
X76460695Y-48113999D02*
X76422600Y-48037809D01*
X76422600Y-48037809D02*
X76384504Y-47999713D01*
X76384504Y-47999713D02*
X76270219Y-47923523D01*
X76270219Y-47923523D02*
X76117838Y-47885428D01*
X76117838Y-47885428D02*
X75813076Y-47885428D01*
X75813076Y-47885428D02*
X75736885Y-47923523D01*
X75736885Y-47923523D02*
X75698790Y-47961618D01*
X75698790Y-47961618D02*
X75660695Y-48037809D01*
X75660695Y-48037809D02*
X75660695Y-48190190D01*
X75660695Y-48190190D02*
X75698790Y-48266380D01*
X75698790Y-48266380D02*
X75736885Y-48304475D01*
X75736885Y-48304475D02*
X75813076Y-48342571D01*
X75813076Y-48342571D02*
X76003552Y-48342571D01*
X76003552Y-48342571D02*
X76079742Y-48304475D01*
X76079742Y-48304475D02*
X76117838Y-48266380D01*
X76117838Y-48266380D02*
X76155933Y-48190190D01*
X76155933Y-48190190D02*
X76155933Y-48037809D01*
X76155933Y-48037809D02*
X76117838Y-47961618D01*
X76117838Y-47961618D02*
X76079742Y-47923523D01*
X76079742Y-47923523D02*
X76003552Y-47885428D01*
X72613923Y-40948780D02*
X72566304Y-40996400D01*
X72566304Y-40996400D02*
X72423447Y-41044019D01*
X72423447Y-41044019D02*
X72328209Y-41044019D01*
X72328209Y-41044019D02*
X72185352Y-40996400D01*
X72185352Y-40996400D02*
X72090114Y-40901161D01*
X72090114Y-40901161D02*
X72042495Y-40805923D01*
X72042495Y-40805923D02*
X71994876Y-40615447D01*
X71994876Y-40615447D02*
X71994876Y-40472590D01*
X71994876Y-40472590D02*
X72042495Y-40282114D01*
X72042495Y-40282114D02*
X72090114Y-40186876D01*
X72090114Y-40186876D02*
X72185352Y-40091638D01*
X72185352Y-40091638D02*
X72328209Y-40044019D01*
X72328209Y-40044019D02*
X72423447Y-40044019D01*
X72423447Y-40044019D02*
X72566304Y-40091638D01*
X72566304Y-40091638D02*
X72613923Y-40139257D01*
X73042495Y-41044019D02*
X73042495Y-40044019D01*
X73042495Y-40044019D02*
X73613923Y-41044019D01*
X73613923Y-41044019D02*
X73613923Y-40044019D01*
X74613923Y-41044019D02*
X74042495Y-41044019D01*
X74328209Y-41044019D02*
X74328209Y-40044019D01*
X74328209Y-40044019D02*
X74232971Y-40186876D01*
X74232971Y-40186876D02*
X74137733Y-40282114D01*
X74137733Y-40282114D02*
X74042495Y-40329733D01*
X93668867Y-64725904D02*
X93630771Y-64764000D01*
X93630771Y-64764000D02*
X93516486Y-64802095D01*
X93516486Y-64802095D02*
X93440295Y-64802095D01*
X93440295Y-64802095D02*
X93326009Y-64764000D01*
X93326009Y-64764000D02*
X93249819Y-64687809D01*
X93249819Y-64687809D02*
X93211724Y-64611619D01*
X93211724Y-64611619D02*
X93173628Y-64459238D01*
X93173628Y-64459238D02*
X93173628Y-64344952D01*
X93173628Y-64344952D02*
X93211724Y-64192571D01*
X93211724Y-64192571D02*
X93249819Y-64116380D01*
X93249819Y-64116380D02*
X93326009Y-64040190D01*
X93326009Y-64040190D02*
X93440295Y-64002095D01*
X93440295Y-64002095D02*
X93516486Y-64002095D01*
X93516486Y-64002095D02*
X93630771Y-64040190D01*
X93630771Y-64040190D02*
X93668867Y-64078285D01*
X94430771Y-64802095D02*
X93973628Y-64802095D01*
X94202200Y-64802095D02*
X94202200Y-64002095D01*
X94202200Y-64002095D02*
X94126009Y-64116380D01*
X94126009Y-64116380D02*
X94049819Y-64192571D01*
X94049819Y-64192571D02*
X93973628Y-64230666D01*
X96660619Y-53593904D02*
X97470142Y-53593904D01*
X97470142Y-53593904D02*
X97565380Y-53546285D01*
X97565380Y-53546285D02*
X97613000Y-53498666D01*
X97613000Y-53498666D02*
X97660619Y-53403428D01*
X97660619Y-53403428D02*
X97660619Y-53212952D01*
X97660619Y-53212952D02*
X97613000Y-53117714D01*
X97613000Y-53117714D02*
X97565380Y-53070095D01*
X97565380Y-53070095D02*
X97470142Y-53022476D01*
X97470142Y-53022476D02*
X96660619Y-53022476D01*
X96660619Y-52641523D02*
X96660619Y-51974857D01*
X96660619Y-51974857D02*
X97660619Y-52403428D01*
X92856067Y-62160495D02*
X92589400Y-61779542D01*
X92398924Y-62160495D02*
X92398924Y-61360495D01*
X92398924Y-61360495D02*
X92703686Y-61360495D01*
X92703686Y-61360495D02*
X92779876Y-61398590D01*
X92779876Y-61398590D02*
X92817971Y-61436685D01*
X92817971Y-61436685D02*
X92856067Y-61512876D01*
X92856067Y-61512876D02*
X92856067Y-61627161D01*
X92856067Y-61627161D02*
X92817971Y-61703352D01*
X92817971Y-61703352D02*
X92779876Y-61741447D01*
X92779876Y-61741447D02*
X92703686Y-61779542D01*
X92703686Y-61779542D02*
X92398924Y-61779542D01*
X93579876Y-61360495D02*
X93198924Y-61360495D01*
X93198924Y-61360495D02*
X93160828Y-61741447D01*
X93160828Y-61741447D02*
X93198924Y-61703352D01*
X93198924Y-61703352D02*
X93275114Y-61665257D01*
X93275114Y-61665257D02*
X93465590Y-61665257D01*
X93465590Y-61665257D02*
X93541781Y-61703352D01*
X93541781Y-61703352D02*
X93579876Y-61741447D01*
X93579876Y-61741447D02*
X93617971Y-61817638D01*
X93617971Y-61817638D02*
X93617971Y-62008114D01*
X93617971Y-62008114D02*
X93579876Y-62084304D01*
X93579876Y-62084304D02*
X93541781Y-62122400D01*
X93541781Y-62122400D02*
X93465590Y-62160495D01*
X93465590Y-62160495D02*
X93275114Y-62160495D01*
X93275114Y-62160495D02*
X93198924Y-62122400D01*
X93198924Y-62122400D02*
X93160828Y-62084304D01*
X77743114Y-56191504D02*
X77705018Y-56229600D01*
X77705018Y-56229600D02*
X77590733Y-56267695D01*
X77590733Y-56267695D02*
X77514542Y-56267695D01*
X77514542Y-56267695D02*
X77400256Y-56229600D01*
X77400256Y-56229600D02*
X77324066Y-56153409D01*
X77324066Y-56153409D02*
X77285971Y-56077219D01*
X77285971Y-56077219D02*
X77247875Y-55924838D01*
X77247875Y-55924838D02*
X77247875Y-55810552D01*
X77247875Y-55810552D02*
X77285971Y-55658171D01*
X77285971Y-55658171D02*
X77324066Y-55581980D01*
X77324066Y-55581980D02*
X77400256Y-55505790D01*
X77400256Y-55505790D02*
X77514542Y-55467695D01*
X77514542Y-55467695D02*
X77590733Y-55467695D01*
X77590733Y-55467695D02*
X77705018Y-55505790D01*
X77705018Y-55505790D02*
X77743114Y-55543885D01*
X78505018Y-56267695D02*
X78047875Y-56267695D01*
X78276447Y-56267695D02*
X78276447Y-55467695D01*
X78276447Y-55467695D02*
X78200256Y-55581980D01*
X78200256Y-55581980D02*
X78124066Y-55658171D01*
X78124066Y-55658171D02*
X78047875Y-55696266D01*
X79266923Y-56267695D02*
X78809780Y-56267695D01*
X79038352Y-56267695D02*
X79038352Y-55467695D01*
X79038352Y-55467695D02*
X78962161Y-55581980D01*
X78962161Y-55581980D02*
X78885971Y-55658171D01*
X78885971Y-55658171D02*
X78809780Y-55696266D01*
X69875904Y-53604132D02*
X69914000Y-53642228D01*
X69914000Y-53642228D02*
X69952095Y-53756513D01*
X69952095Y-53756513D02*
X69952095Y-53832704D01*
X69952095Y-53832704D02*
X69914000Y-53946990D01*
X69914000Y-53946990D02*
X69837809Y-54023180D01*
X69837809Y-54023180D02*
X69761619Y-54061275D01*
X69761619Y-54061275D02*
X69609238Y-54099371D01*
X69609238Y-54099371D02*
X69494952Y-54099371D01*
X69494952Y-54099371D02*
X69342571Y-54061275D01*
X69342571Y-54061275D02*
X69266380Y-54023180D01*
X69266380Y-54023180D02*
X69190190Y-53946990D01*
X69190190Y-53946990D02*
X69152095Y-53832704D01*
X69152095Y-53832704D02*
X69152095Y-53756513D01*
X69152095Y-53756513D02*
X69190190Y-53642228D01*
X69190190Y-53642228D02*
X69228285Y-53604132D01*
X69418761Y-52918418D02*
X69952095Y-52918418D01*
X69114000Y-53108894D02*
X69685428Y-53299371D01*
X69685428Y-53299371D02*
X69685428Y-52804132D01*
X82677076Y-53080095D02*
X82677076Y-53727714D01*
X82677076Y-53727714D02*
X82715171Y-53803904D01*
X82715171Y-53803904D02*
X82753266Y-53842000D01*
X82753266Y-53842000D02*
X82829457Y-53880095D01*
X82829457Y-53880095D02*
X82981838Y-53880095D01*
X82981838Y-53880095D02*
X83058028Y-53842000D01*
X83058028Y-53842000D02*
X83096123Y-53803904D01*
X83096123Y-53803904D02*
X83134219Y-53727714D01*
X83134219Y-53727714D02*
X83134219Y-53080095D01*
X83477075Y-53156285D02*
X83515171Y-53118190D01*
X83515171Y-53118190D02*
X83591361Y-53080095D01*
X83591361Y-53080095D02*
X83781837Y-53080095D01*
X83781837Y-53080095D02*
X83858028Y-53118190D01*
X83858028Y-53118190D02*
X83896123Y-53156285D01*
X83896123Y-53156285D02*
X83934218Y-53232476D01*
X83934218Y-53232476D02*
X83934218Y-53308666D01*
X83934218Y-53308666D02*
X83896123Y-53422952D01*
X83896123Y-53422952D02*
X83438980Y-53880095D01*
X83438980Y-53880095D02*
X83934218Y-53880095D01*
X78949895Y-49358485D02*
X78568942Y-49625152D01*
X78949895Y-49815628D02*
X78149895Y-49815628D01*
X78149895Y-49815628D02*
X78149895Y-49510866D01*
X78149895Y-49510866D02*
X78187990Y-49434676D01*
X78187990Y-49434676D02*
X78226085Y-49396581D01*
X78226085Y-49396581D02*
X78302276Y-49358485D01*
X78302276Y-49358485D02*
X78416561Y-49358485D01*
X78416561Y-49358485D02*
X78492752Y-49396581D01*
X78492752Y-49396581D02*
X78530847Y-49434676D01*
X78530847Y-49434676D02*
X78568942Y-49510866D01*
X78568942Y-49510866D02*
X78568942Y-49815628D01*
X78949895Y-48596581D02*
X78949895Y-49053724D01*
X78949895Y-48825152D02*
X78149895Y-48825152D01*
X78149895Y-48825152D02*
X78264180Y-48901343D01*
X78264180Y-48901343D02*
X78340371Y-48977533D01*
X78340371Y-48977533D02*
X78378466Y-49053724D01*
X78149895Y-48101342D02*
X78149895Y-48025152D01*
X78149895Y-48025152D02*
X78187990Y-47948961D01*
X78187990Y-47948961D02*
X78226085Y-47910866D01*
X78226085Y-47910866D02*
X78302276Y-47872771D01*
X78302276Y-47872771D02*
X78454657Y-47834676D01*
X78454657Y-47834676D02*
X78645133Y-47834676D01*
X78645133Y-47834676D02*
X78797514Y-47872771D01*
X78797514Y-47872771D02*
X78873704Y-47910866D01*
X78873704Y-47910866D02*
X78911800Y-47948961D01*
X78911800Y-47948961D02*
X78949895Y-48025152D01*
X78949895Y-48025152D02*
X78949895Y-48101342D01*
X78949895Y-48101342D02*
X78911800Y-48177533D01*
X78911800Y-48177533D02*
X78873704Y-48215628D01*
X78873704Y-48215628D02*
X78797514Y-48253723D01*
X78797514Y-48253723D02*
X78645133Y-48291819D01*
X78645133Y-48291819D02*
X78454657Y-48291819D01*
X78454657Y-48291819D02*
X78302276Y-48253723D01*
X78302276Y-48253723D02*
X78226085Y-48215628D01*
X78226085Y-48215628D02*
X78187990Y-48177533D01*
X78187990Y-48177533D02*
X78149895Y-48101342D01*
X66999076Y-61796095D02*
X66999076Y-62443714D01*
X66999076Y-62443714D02*
X67037171Y-62519904D01*
X67037171Y-62519904D02*
X67075266Y-62558000D01*
X67075266Y-62558000D02*
X67151457Y-62596095D01*
X67151457Y-62596095D02*
X67303838Y-62596095D01*
X67303838Y-62596095D02*
X67380028Y-62558000D01*
X67380028Y-62558000D02*
X67418123Y-62519904D01*
X67418123Y-62519904D02*
X67456219Y-62443714D01*
X67456219Y-62443714D02*
X67456219Y-61796095D01*
X68256218Y-62596095D02*
X67799075Y-62596095D01*
X68027647Y-62596095D02*
X68027647Y-61796095D01*
X68027647Y-61796095D02*
X67951456Y-61910380D01*
X67951456Y-61910380D02*
X67875266Y-61986571D01*
X67875266Y-61986571D02*
X67799075Y-62024666D01*
X78848295Y-63480933D02*
X78848295Y-63861885D01*
X78848295Y-63861885D02*
X78048295Y-63861885D01*
X78048295Y-63290457D02*
X78048295Y-62795219D01*
X78048295Y-62795219D02*
X78353057Y-63061885D01*
X78353057Y-63061885D02*
X78353057Y-62947600D01*
X78353057Y-62947600D02*
X78391152Y-62871409D01*
X78391152Y-62871409D02*
X78429247Y-62833314D01*
X78429247Y-62833314D02*
X78505438Y-62795219D01*
X78505438Y-62795219D02*
X78695914Y-62795219D01*
X78695914Y-62795219D02*
X78772104Y-62833314D01*
X78772104Y-62833314D02*
X78810200Y-62871409D01*
X78810200Y-62871409D02*
X78848295Y-62947600D01*
X78848295Y-62947600D02*
X78848295Y-63176171D01*
X78848295Y-63176171D02*
X78810200Y-63252362D01*
X78810200Y-63252362D02*
X78772104Y-63290457D01*
X87589777Y-59843495D02*
X87589777Y-60491114D01*
X87589777Y-60491114D02*
X87627872Y-60567304D01*
X87627872Y-60567304D02*
X87665967Y-60605400D01*
X87665967Y-60605400D02*
X87742158Y-60643495D01*
X87742158Y-60643495D02*
X87894539Y-60643495D01*
X87894539Y-60643495D02*
X87970729Y-60605400D01*
X87970729Y-60605400D02*
X88008824Y-60567304D01*
X88008824Y-60567304D02*
X88046920Y-60491114D01*
X88046920Y-60491114D02*
X88046920Y-59843495D01*
X88351681Y-59843495D02*
X88846919Y-59843495D01*
X88846919Y-59843495D02*
X88580253Y-60148257D01*
X88580253Y-60148257D02*
X88694538Y-60148257D01*
X88694538Y-60148257D02*
X88770729Y-60186352D01*
X88770729Y-60186352D02*
X88808824Y-60224447D01*
X88808824Y-60224447D02*
X88846919Y-60300638D01*
X88846919Y-60300638D02*
X88846919Y-60491114D01*
X88846919Y-60491114D02*
X88808824Y-60567304D01*
X88808824Y-60567304D02*
X88770729Y-60605400D01*
X88770729Y-60605400D02*
X88694538Y-60643495D01*
X88694538Y-60643495D02*
X88465967Y-60643495D01*
X88465967Y-60643495D02*
X88389776Y-60605400D01*
X88389776Y-60605400D02*
X88351681Y-60567304D01*
X70853467Y-66609304D02*
X70815371Y-66647400D01*
X70815371Y-66647400D02*
X70701086Y-66685495D01*
X70701086Y-66685495D02*
X70624895Y-66685495D01*
X70624895Y-66685495D02*
X70510609Y-66647400D01*
X70510609Y-66647400D02*
X70434419Y-66571209D01*
X70434419Y-66571209D02*
X70396324Y-66495019D01*
X70396324Y-66495019D02*
X70358228Y-66342638D01*
X70358228Y-66342638D02*
X70358228Y-66228352D01*
X70358228Y-66228352D02*
X70396324Y-66075971D01*
X70396324Y-66075971D02*
X70434419Y-65999780D01*
X70434419Y-65999780D02*
X70510609Y-65923590D01*
X70510609Y-65923590D02*
X70624895Y-65885495D01*
X70624895Y-65885495D02*
X70701086Y-65885495D01*
X70701086Y-65885495D02*
X70815371Y-65923590D01*
X70815371Y-65923590D02*
X70853467Y-65961685D01*
X71120133Y-65885495D02*
X71653467Y-65885495D01*
X71653467Y-65885495D02*
X71310609Y-66685495D01*
X87249009Y-54108685D02*
X87172819Y-54070590D01*
X87172819Y-54070590D02*
X87096628Y-53994400D01*
X87096628Y-53994400D02*
X86982342Y-53880114D01*
X86982342Y-53880114D02*
X86906152Y-53842019D01*
X86906152Y-53842019D02*
X86829961Y-53842019D01*
X86868057Y-54032495D02*
X86791866Y-53994400D01*
X86791866Y-53994400D02*
X86715676Y-53918209D01*
X86715676Y-53918209D02*
X86677580Y-53765828D01*
X86677580Y-53765828D02*
X86677580Y-53499161D01*
X86677580Y-53499161D02*
X86715676Y-53346780D01*
X86715676Y-53346780D02*
X86791866Y-53270590D01*
X86791866Y-53270590D02*
X86868057Y-53232495D01*
X86868057Y-53232495D02*
X87020438Y-53232495D01*
X87020438Y-53232495D02*
X87096628Y-53270590D01*
X87096628Y-53270590D02*
X87172819Y-53346780D01*
X87172819Y-53346780D02*
X87210914Y-53499161D01*
X87210914Y-53499161D02*
X87210914Y-53765828D01*
X87210914Y-53765828D02*
X87172819Y-53918209D01*
X87172819Y-53918209D02*
X87096628Y-53994400D01*
X87096628Y-53994400D02*
X87020438Y-54032495D01*
X87020438Y-54032495D02*
X86868057Y-54032495D01*
X87972818Y-54032495D02*
X87515675Y-54032495D01*
X87744247Y-54032495D02*
X87744247Y-53232495D01*
X87744247Y-53232495D02*
X87668056Y-53346780D01*
X87668056Y-53346780D02*
X87591866Y-53422971D01*
X87591866Y-53422971D02*
X87515675Y-53461066D01*
X70878866Y-64983704D02*
X70840770Y-65021800D01*
X70840770Y-65021800D02*
X70726485Y-65059895D01*
X70726485Y-65059895D02*
X70650294Y-65059895D01*
X70650294Y-65059895D02*
X70536008Y-65021800D01*
X70536008Y-65021800D02*
X70459818Y-64945609D01*
X70459818Y-64945609D02*
X70421723Y-64869419D01*
X70421723Y-64869419D02*
X70383627Y-64717038D01*
X70383627Y-64717038D02*
X70383627Y-64602752D01*
X70383627Y-64602752D02*
X70421723Y-64450371D01*
X70421723Y-64450371D02*
X70459818Y-64374180D01*
X70459818Y-64374180D02*
X70536008Y-64297990D01*
X70536008Y-64297990D02*
X70650294Y-64259895D01*
X70650294Y-64259895D02*
X70726485Y-64259895D01*
X70726485Y-64259895D02*
X70840770Y-64297990D01*
X70840770Y-64297990D02*
X70878866Y-64336085D01*
X71564580Y-64259895D02*
X71412199Y-64259895D01*
X71412199Y-64259895D02*
X71336008Y-64297990D01*
X71336008Y-64297990D02*
X71297913Y-64336085D01*
X71297913Y-64336085D02*
X71221723Y-64450371D01*
X71221723Y-64450371D02*
X71183627Y-64602752D01*
X71183627Y-64602752D02*
X71183627Y-64907514D01*
X71183627Y-64907514D02*
X71221723Y-64983704D01*
X71221723Y-64983704D02*
X71259818Y-65021800D01*
X71259818Y-65021800D02*
X71336008Y-65059895D01*
X71336008Y-65059895D02*
X71488389Y-65059895D01*
X71488389Y-65059895D02*
X71564580Y-65021800D01*
X71564580Y-65021800D02*
X71602675Y-64983704D01*
X71602675Y-64983704D02*
X71640770Y-64907514D01*
X71640770Y-64907514D02*
X71640770Y-64717038D01*
X71640770Y-64717038D02*
X71602675Y-64640847D01*
X71602675Y-64640847D02*
X71564580Y-64602752D01*
X71564580Y-64602752D02*
X71488389Y-64564657D01*
X71488389Y-64564657D02*
X71336008Y-64564657D01*
X71336008Y-64564657D02*
X71259818Y-64602752D01*
X71259818Y-64602752D02*
X71221723Y-64640847D01*
X71221723Y-64640847D02*
X71183627Y-64717038D01*
X77705295Y-49206085D02*
X77324342Y-49472752D01*
X77705295Y-49663228D02*
X76905295Y-49663228D01*
X76905295Y-49663228D02*
X76905295Y-49358466D01*
X76905295Y-49358466D02*
X76943390Y-49282276D01*
X76943390Y-49282276D02*
X76981485Y-49244181D01*
X76981485Y-49244181D02*
X77057676Y-49206085D01*
X77057676Y-49206085D02*
X77171961Y-49206085D01*
X77171961Y-49206085D02*
X77248152Y-49244181D01*
X77248152Y-49244181D02*
X77286247Y-49282276D01*
X77286247Y-49282276D02*
X77324342Y-49358466D01*
X77324342Y-49358466D02*
X77324342Y-49663228D01*
X77705295Y-48444181D02*
X77705295Y-48901324D01*
X77705295Y-48672752D02*
X76905295Y-48672752D01*
X76905295Y-48672752D02*
X77019580Y-48748943D01*
X77019580Y-48748943D02*
X77095771Y-48825133D01*
X77095771Y-48825133D02*
X77133866Y-48901324D01*
X77705295Y-47682276D02*
X77705295Y-48139419D01*
X77705295Y-47910847D02*
X76905295Y-47910847D01*
X76905295Y-47910847D02*
X77019580Y-47987038D01*
X77019580Y-47987038D02*
X77095771Y-48063228D01*
X77095771Y-48063228D02*
X77133866Y-48139419D01*
X62599219Y-51547494D02*
X63408742Y-51547494D01*
X63408742Y-51547494D02*
X63503980Y-51499875D01*
X63503980Y-51499875D02*
X63551600Y-51452256D01*
X63551600Y-51452256D02*
X63599219Y-51357018D01*
X63599219Y-51357018D02*
X63599219Y-51166542D01*
X63599219Y-51166542D02*
X63551600Y-51071304D01*
X63551600Y-51071304D02*
X63503980Y-51023685D01*
X63503980Y-51023685D02*
X63408742Y-50976066D01*
X63408742Y-50976066D02*
X62599219Y-50976066D01*
X63551600Y-50547494D02*
X63599219Y-50404637D01*
X63599219Y-50404637D02*
X63599219Y-50166542D01*
X63599219Y-50166542D02*
X63551600Y-50071304D01*
X63551600Y-50071304D02*
X63503980Y-50023685D01*
X63503980Y-50023685D02*
X63408742Y-49976066D01*
X63408742Y-49976066D02*
X63313504Y-49976066D01*
X63313504Y-49976066D02*
X63218266Y-50023685D01*
X63218266Y-50023685D02*
X63170647Y-50071304D01*
X63170647Y-50071304D02*
X63123028Y-50166542D01*
X63123028Y-50166542D02*
X63075409Y-50357018D01*
X63075409Y-50357018D02*
X63027790Y-50452256D01*
X63027790Y-50452256D02*
X62980171Y-50499875D01*
X62980171Y-50499875D02*
X62884933Y-50547494D01*
X62884933Y-50547494D02*
X62789695Y-50547494D01*
X62789695Y-50547494D02*
X62694457Y-50499875D01*
X62694457Y-50499875D02*
X62646838Y-50452256D01*
X62646838Y-50452256D02*
X62599219Y-50357018D01*
X62599219Y-50357018D02*
X62599219Y-50118923D01*
X62599219Y-50118923D02*
X62646838Y-49976066D01*
X63075409Y-49214161D02*
X63123028Y-49071304D01*
X63123028Y-49071304D02*
X63170647Y-49023685D01*
X63170647Y-49023685D02*
X63265885Y-48976066D01*
X63265885Y-48976066D02*
X63408742Y-48976066D01*
X63408742Y-48976066D02*
X63503980Y-49023685D01*
X63503980Y-49023685D02*
X63551600Y-49071304D01*
X63551600Y-49071304D02*
X63599219Y-49166542D01*
X63599219Y-49166542D02*
X63599219Y-49547494D01*
X63599219Y-49547494D02*
X62599219Y-49547494D01*
X62599219Y-49547494D02*
X62599219Y-49214161D01*
X62599219Y-49214161D02*
X62646838Y-49118923D01*
X62646838Y-49118923D02*
X62694457Y-49071304D01*
X62694457Y-49071304D02*
X62789695Y-49023685D01*
X62789695Y-49023685D02*
X62884933Y-49023685D01*
X62884933Y-49023685D02*
X62980171Y-49071304D01*
X62980171Y-49071304D02*
X63027790Y-49118923D01*
X63027790Y-49118923D02*
X63075409Y-49214161D01*
X63075409Y-49214161D02*
X63075409Y-49547494D01*
X63599219Y-48023685D02*
X63599219Y-48595113D01*
X63599219Y-48309399D02*
X62599219Y-48309399D01*
X62599219Y-48309399D02*
X62742076Y-48404637D01*
X62742076Y-48404637D02*
X62837314Y-48499875D01*
X62837314Y-48499875D02*
X62884933Y-48595113D01*
X77095704Y-59594732D02*
X77133800Y-59632828D01*
X77133800Y-59632828D02*
X77171895Y-59747113D01*
X77171895Y-59747113D02*
X77171895Y-59823304D01*
X77171895Y-59823304D02*
X77133800Y-59937590D01*
X77133800Y-59937590D02*
X77057609Y-60013780D01*
X77057609Y-60013780D02*
X76981419Y-60051875D01*
X76981419Y-60051875D02*
X76829038Y-60089971D01*
X76829038Y-60089971D02*
X76714752Y-60089971D01*
X76714752Y-60089971D02*
X76562371Y-60051875D01*
X76562371Y-60051875D02*
X76486180Y-60013780D01*
X76486180Y-60013780D02*
X76409990Y-59937590D01*
X76409990Y-59937590D02*
X76371895Y-59823304D01*
X76371895Y-59823304D02*
X76371895Y-59747113D01*
X76371895Y-59747113D02*
X76409990Y-59632828D01*
X76409990Y-59632828D02*
X76448085Y-59594732D01*
X76371895Y-59328066D02*
X76371895Y-58832828D01*
X76371895Y-58832828D02*
X76676657Y-59099494D01*
X76676657Y-59099494D02*
X76676657Y-58985209D01*
X76676657Y-58985209D02*
X76714752Y-58909018D01*
X76714752Y-58909018D02*
X76752847Y-58870923D01*
X76752847Y-58870923D02*
X76829038Y-58832828D01*
X76829038Y-58832828D02*
X77019514Y-58832828D01*
X77019514Y-58832828D02*
X77095704Y-58870923D01*
X77095704Y-58870923D02*
X77133800Y-58909018D01*
X77133800Y-58909018D02*
X77171895Y-58985209D01*
X77171895Y-58985209D02*
X77171895Y-59213780D01*
X77171895Y-59213780D02*
X77133800Y-59289971D01*
X77133800Y-59289971D02*
X77095704Y-59328066D01*
X93668914Y-66300704D02*
X93630818Y-66338800D01*
X93630818Y-66338800D02*
X93516533Y-66376895D01*
X93516533Y-66376895D02*
X93440342Y-66376895D01*
X93440342Y-66376895D02*
X93326056Y-66338800D01*
X93326056Y-66338800D02*
X93249866Y-66262609D01*
X93249866Y-66262609D02*
X93211771Y-66186419D01*
X93211771Y-66186419D02*
X93173675Y-66034038D01*
X93173675Y-66034038D02*
X93173675Y-65919752D01*
X93173675Y-65919752D02*
X93211771Y-65767371D01*
X93211771Y-65767371D02*
X93249866Y-65691180D01*
X93249866Y-65691180D02*
X93326056Y-65614990D01*
X93326056Y-65614990D02*
X93440342Y-65576895D01*
X93440342Y-65576895D02*
X93516533Y-65576895D01*
X93516533Y-65576895D02*
X93630818Y-65614990D01*
X93630818Y-65614990D02*
X93668914Y-65653085D01*
X94430818Y-66376895D02*
X93973675Y-66376895D01*
X94202247Y-66376895D02*
X94202247Y-65576895D01*
X94202247Y-65576895D02*
X94126056Y-65691180D01*
X94126056Y-65691180D02*
X94049866Y-65767371D01*
X94049866Y-65767371D02*
X93973675Y-65805466D01*
X94887961Y-65919752D02*
X94811771Y-65881657D01*
X94811771Y-65881657D02*
X94773676Y-65843561D01*
X94773676Y-65843561D02*
X94735580Y-65767371D01*
X94735580Y-65767371D02*
X94735580Y-65729276D01*
X94735580Y-65729276D02*
X94773676Y-65653085D01*
X94773676Y-65653085D02*
X94811771Y-65614990D01*
X94811771Y-65614990D02*
X94887961Y-65576895D01*
X94887961Y-65576895D02*
X95040342Y-65576895D01*
X95040342Y-65576895D02*
X95116533Y-65614990D01*
X95116533Y-65614990D02*
X95154628Y-65653085D01*
X95154628Y-65653085D02*
X95192723Y-65729276D01*
X95192723Y-65729276D02*
X95192723Y-65767371D01*
X95192723Y-65767371D02*
X95154628Y-65843561D01*
X95154628Y-65843561D02*
X95116533Y-65881657D01*
X95116533Y-65881657D02*
X95040342Y-65919752D01*
X95040342Y-65919752D02*
X94887961Y-65919752D01*
X94887961Y-65919752D02*
X94811771Y-65957847D01*
X94811771Y-65957847D02*
X94773676Y-65995942D01*
X94773676Y-65995942D02*
X94735580Y-66072133D01*
X94735580Y-66072133D02*
X94735580Y-66224514D01*
X94735580Y-66224514D02*
X94773676Y-66300704D01*
X94773676Y-66300704D02*
X94811771Y-66338800D01*
X94811771Y-66338800D02*
X94887961Y-66376895D01*
X94887961Y-66376895D02*
X95040342Y-66376895D01*
X95040342Y-66376895D02*
X95116533Y-66338800D01*
X95116533Y-66338800D02*
X95154628Y-66300704D01*
X95154628Y-66300704D02*
X95192723Y-66224514D01*
X95192723Y-66224514D02*
X95192723Y-66072133D01*
X95192723Y-66072133D02*
X95154628Y-65995942D01*
X95154628Y-65995942D02*
X95116533Y-65957847D01*
X95116533Y-65957847D02*
X95040342Y-65919752D01*
X61741114Y-56536296D02*
X61474447Y-56155343D01*
X61283971Y-56536296D02*
X61283971Y-55736296D01*
X61283971Y-55736296D02*
X61588733Y-55736296D01*
X61588733Y-55736296D02*
X61664923Y-55774391D01*
X61664923Y-55774391D02*
X61703018Y-55812486D01*
X61703018Y-55812486D02*
X61741114Y-55888677D01*
X61741114Y-55888677D02*
X61741114Y-56002962D01*
X61741114Y-56002962D02*
X61703018Y-56079153D01*
X61703018Y-56079153D02*
X61664923Y-56117248D01*
X61664923Y-56117248D02*
X61588733Y-56155343D01*
X61588733Y-56155343D02*
X61283971Y-56155343D01*
X62503018Y-56536296D02*
X62045875Y-56536296D01*
X62274447Y-56536296D02*
X62274447Y-55736296D01*
X62274447Y-55736296D02*
X62198256Y-55850581D01*
X62198256Y-55850581D02*
X62122066Y-55926772D01*
X62122066Y-55926772D02*
X62045875Y-55964867D01*
X62769685Y-55736296D02*
X63264923Y-55736296D01*
X63264923Y-55736296D02*
X62998257Y-56041058D01*
X62998257Y-56041058D02*
X63112542Y-56041058D01*
X63112542Y-56041058D02*
X63188733Y-56079153D01*
X63188733Y-56079153D02*
X63226828Y-56117248D01*
X63226828Y-56117248D02*
X63264923Y-56193439D01*
X63264923Y-56193439D02*
X63264923Y-56383915D01*
X63264923Y-56383915D02*
X63226828Y-56460105D01*
X63226828Y-56460105D02*
X63188733Y-56498201D01*
X63188733Y-56498201D02*
X63112542Y-56536296D01*
X63112542Y-56536296D02*
X62883971Y-56536296D01*
X62883971Y-56536296D02*
X62807780Y-56498201D01*
X62807780Y-56498201D02*
X62769685Y-56460105D01*
X61741114Y-57653895D02*
X61474447Y-57272942D01*
X61283971Y-57653895D02*
X61283971Y-56853895D01*
X61283971Y-56853895D02*
X61588733Y-56853895D01*
X61588733Y-56853895D02*
X61664923Y-56891990D01*
X61664923Y-56891990D02*
X61703018Y-56930085D01*
X61703018Y-56930085D02*
X61741114Y-57006276D01*
X61741114Y-57006276D02*
X61741114Y-57120561D01*
X61741114Y-57120561D02*
X61703018Y-57196752D01*
X61703018Y-57196752D02*
X61664923Y-57234847D01*
X61664923Y-57234847D02*
X61588733Y-57272942D01*
X61588733Y-57272942D02*
X61283971Y-57272942D01*
X62503018Y-57653895D02*
X62045875Y-57653895D01*
X62274447Y-57653895D02*
X62274447Y-56853895D01*
X62274447Y-56853895D02*
X62198256Y-56968180D01*
X62198256Y-56968180D02*
X62122066Y-57044371D01*
X62122066Y-57044371D02*
X62045875Y-57082466D01*
X63188733Y-57120561D02*
X63188733Y-57653895D01*
X62998257Y-56815800D02*
X62807780Y-57387228D01*
X62807780Y-57387228D02*
X63303019Y-57387228D01*
X92284895Y-60229732D02*
X91903942Y-60496399D01*
X92284895Y-60686875D02*
X91484895Y-60686875D01*
X91484895Y-60686875D02*
X91484895Y-60382113D01*
X91484895Y-60382113D02*
X91522990Y-60305923D01*
X91522990Y-60305923D02*
X91561085Y-60267828D01*
X91561085Y-60267828D02*
X91637276Y-60229732D01*
X91637276Y-60229732D02*
X91751561Y-60229732D01*
X91751561Y-60229732D02*
X91827752Y-60267828D01*
X91827752Y-60267828D02*
X91865847Y-60305923D01*
X91865847Y-60305923D02*
X91903942Y-60382113D01*
X91903942Y-60382113D02*
X91903942Y-60686875D01*
X91484895Y-59963066D02*
X91484895Y-59467828D01*
X91484895Y-59467828D02*
X91789657Y-59734494D01*
X91789657Y-59734494D02*
X91789657Y-59620209D01*
X91789657Y-59620209D02*
X91827752Y-59544018D01*
X91827752Y-59544018D02*
X91865847Y-59505923D01*
X91865847Y-59505923D02*
X91942038Y-59467828D01*
X91942038Y-59467828D02*
X92132514Y-59467828D01*
X92132514Y-59467828D02*
X92208704Y-59505923D01*
X92208704Y-59505923D02*
X92246800Y-59544018D01*
X92246800Y-59544018D02*
X92284895Y-59620209D01*
X92284895Y-59620209D02*
X92284895Y-59848780D01*
X92284895Y-59848780D02*
X92246800Y-59924971D01*
X92246800Y-59924971D02*
X92208704Y-59963066D01*
X80867324Y-65360895D02*
X80867324Y-64560895D01*
X80867324Y-64560895D02*
X81057800Y-64560895D01*
X81057800Y-64560895D02*
X81172086Y-64598990D01*
X81172086Y-64598990D02*
X81248276Y-64675180D01*
X81248276Y-64675180D02*
X81286371Y-64751371D01*
X81286371Y-64751371D02*
X81324467Y-64903752D01*
X81324467Y-64903752D02*
X81324467Y-65018038D01*
X81324467Y-65018038D02*
X81286371Y-65170419D01*
X81286371Y-65170419D02*
X81248276Y-65246609D01*
X81248276Y-65246609D02*
X81172086Y-65322800D01*
X81172086Y-65322800D02*
X81057800Y-65360895D01*
X81057800Y-65360895D02*
X80867324Y-65360895D01*
X81629228Y-64637085D02*
X81667324Y-64598990D01*
X81667324Y-64598990D02*
X81743514Y-64560895D01*
X81743514Y-64560895D02*
X81933990Y-64560895D01*
X81933990Y-64560895D02*
X82010181Y-64598990D01*
X82010181Y-64598990D02*
X82048276Y-64637085D01*
X82048276Y-64637085D02*
X82086371Y-64713276D01*
X82086371Y-64713276D02*
X82086371Y-64789466D01*
X82086371Y-64789466D02*
X82048276Y-64903752D01*
X82048276Y-64903752D02*
X81591133Y-65360895D01*
X81591133Y-65360895D02*
X82086371Y-65360895D01*
X81235895Y-60382133D02*
X81235895Y-60763085D01*
X81235895Y-60763085D02*
X80435895Y-60763085D01*
X81235895Y-59696419D02*
X81235895Y-60153562D01*
X81235895Y-59924990D02*
X80435895Y-59924990D01*
X80435895Y-59924990D02*
X80550180Y-60001181D01*
X80550180Y-60001181D02*
X80626371Y-60077371D01*
X80626371Y-60077371D02*
X80664466Y-60153562D01*
X90453267Y-58053305D02*
X90415171Y-58091401D01*
X90415171Y-58091401D02*
X90300886Y-58129496D01*
X90300886Y-58129496D02*
X90224695Y-58129496D01*
X90224695Y-58129496D02*
X90110409Y-58091401D01*
X90110409Y-58091401D02*
X90034219Y-58015210D01*
X90034219Y-58015210D02*
X89996124Y-57939020D01*
X89996124Y-57939020D02*
X89958028Y-57786639D01*
X89958028Y-57786639D02*
X89958028Y-57672353D01*
X89958028Y-57672353D02*
X89996124Y-57519972D01*
X89996124Y-57519972D02*
X90034219Y-57443781D01*
X90034219Y-57443781D02*
X90110409Y-57367591D01*
X90110409Y-57367591D02*
X90224695Y-57329496D01*
X90224695Y-57329496D02*
X90300886Y-57329496D01*
X90300886Y-57329496D02*
X90415171Y-57367591D01*
X90415171Y-57367591D02*
X90453267Y-57405686D01*
X90834219Y-58129496D02*
X90986600Y-58129496D01*
X90986600Y-58129496D02*
X91062790Y-58091401D01*
X91062790Y-58091401D02*
X91100886Y-58053305D01*
X91100886Y-58053305D02*
X91177076Y-57939020D01*
X91177076Y-57939020D02*
X91215171Y-57786639D01*
X91215171Y-57786639D02*
X91215171Y-57481877D01*
X91215171Y-57481877D02*
X91177076Y-57405686D01*
X91177076Y-57405686D02*
X91138981Y-57367591D01*
X91138981Y-57367591D02*
X91062790Y-57329496D01*
X91062790Y-57329496D02*
X90910409Y-57329496D01*
X90910409Y-57329496D02*
X90834219Y-57367591D01*
X90834219Y-57367591D02*
X90796124Y-57405686D01*
X90796124Y-57405686D02*
X90758028Y-57481877D01*
X90758028Y-57481877D02*
X90758028Y-57672353D01*
X90758028Y-57672353D02*
X90796124Y-57748543D01*
X90796124Y-57748543D02*
X90834219Y-57786639D01*
X90834219Y-57786639D02*
X90910409Y-57824734D01*
X90910409Y-57824734D02*
X91062790Y-57824734D01*
X91062790Y-57824734D02*
X91138981Y-57786639D01*
X91138981Y-57786639D02*
X91177076Y-57748543D01*
X91177076Y-57748543D02*
X91215171Y-57672353D01*
X70891904Y-53985085D02*
X70930000Y-54023181D01*
X70930000Y-54023181D02*
X70968095Y-54137466D01*
X70968095Y-54137466D02*
X70968095Y-54213657D01*
X70968095Y-54213657D02*
X70930000Y-54327943D01*
X70930000Y-54327943D02*
X70853809Y-54404133D01*
X70853809Y-54404133D02*
X70777619Y-54442228D01*
X70777619Y-54442228D02*
X70625238Y-54480324D01*
X70625238Y-54480324D02*
X70510952Y-54480324D01*
X70510952Y-54480324D02*
X70358571Y-54442228D01*
X70358571Y-54442228D02*
X70282380Y-54404133D01*
X70282380Y-54404133D02*
X70206190Y-54327943D01*
X70206190Y-54327943D02*
X70168095Y-54213657D01*
X70168095Y-54213657D02*
X70168095Y-54137466D01*
X70168095Y-54137466D02*
X70206190Y-54023181D01*
X70206190Y-54023181D02*
X70244285Y-53985085D01*
X70968095Y-53223181D02*
X70968095Y-53680324D01*
X70968095Y-53451752D02*
X70168095Y-53451752D01*
X70168095Y-53451752D02*
X70282380Y-53527943D01*
X70282380Y-53527943D02*
X70358571Y-53604133D01*
X70358571Y-53604133D02*
X70396666Y-53680324D01*
X70168095Y-52956514D02*
X70168095Y-52461276D01*
X70168095Y-52461276D02*
X70472857Y-52727942D01*
X70472857Y-52727942D02*
X70472857Y-52613657D01*
X70472857Y-52613657D02*
X70510952Y-52537466D01*
X70510952Y-52537466D02*
X70549047Y-52499371D01*
X70549047Y-52499371D02*
X70625238Y-52461276D01*
X70625238Y-52461276D02*
X70815714Y-52461276D01*
X70815714Y-52461276D02*
X70891904Y-52499371D01*
X70891904Y-52499371D02*
X70930000Y-52537466D01*
X70930000Y-52537466D02*
X70968095Y-52613657D01*
X70968095Y-52613657D02*
X70968095Y-52842228D01*
X70968095Y-52842228D02*
X70930000Y-52918419D01*
X70930000Y-52918419D02*
X70891904Y-52956514D01*
X69291276Y-46982995D02*
X69291276Y-47630614D01*
X69291276Y-47630614D02*
X69329371Y-47706804D01*
X69329371Y-47706804D02*
X69367466Y-47744900D01*
X69367466Y-47744900D02*
X69443657Y-47782995D01*
X69443657Y-47782995D02*
X69596038Y-47782995D01*
X69596038Y-47782995D02*
X69672228Y-47744900D01*
X69672228Y-47744900D02*
X69710323Y-47706804D01*
X69710323Y-47706804D02*
X69748419Y-47630614D01*
X69748419Y-47630614D02*
X69748419Y-46982995D01*
X70472228Y-47249661D02*
X70472228Y-47782995D01*
X70281752Y-46944900D02*
X70091275Y-47516328D01*
X70091275Y-47516328D02*
X70586514Y-47516328D01*
D12*
%TO.C,C16*%
X80208800Y-51657364D02*
X80208800Y-51873036D01*
X80928800Y-51657364D02*
X80928800Y-51873036D01*
%TO.C,R8*%
X79147400Y-51944241D02*
X79147400Y-51636959D01*
X79907400Y-51944241D02*
X79907400Y-51636959D01*
D13*
%TO.C,U5*%
X80313800Y-42216000D02*
X80313800Y-42086000D01*
X80313800Y-46066000D02*
X80313800Y-42216000D01*
X81293800Y-44496000D02*
X81293800Y-46066000D01*
X81293800Y-46066000D02*
X80313800Y-46066000D01*
X82093800Y-38406000D02*
X90473800Y-38406000D01*
X82473800Y-44496000D02*
X81293800Y-44496000D01*
X90223800Y-44496000D02*
X90093800Y-44496000D01*
X91273800Y-44496000D02*
X90223800Y-44496000D01*
X91273800Y-46066000D02*
X91273800Y-44496000D01*
X91403800Y-46066000D02*
X91273800Y-46066000D01*
X92253800Y-42086000D02*
X92253800Y-42086000D01*
X92253800Y-42086000D02*
X92253800Y-46066000D01*
X92253800Y-46066000D02*
X91403800Y-46066000D01*
D12*
%TO.C,C14*%
X72307564Y-54736400D02*
X72523236Y-54736400D01*
X72307564Y-55456400D02*
X72523236Y-55456400D01*
%TO.C,C8*%
X66565200Y-59426219D02*
X66565200Y-59707381D01*
X67585200Y-59426219D02*
X67585200Y-59707381D01*
%TO.C,R7*%
X82348041Y-48921400D02*
X82040759Y-48921400D01*
X82348041Y-49681400D02*
X82040759Y-49681400D01*
%TO.C,C5*%
X67708200Y-54627381D02*
X67708200Y-54346219D01*
X68728200Y-54627381D02*
X68728200Y-54346219D01*
%TO.C,C2*%
X72325619Y-53287200D02*
X72606781Y-53287200D01*
X72325619Y-54307200D02*
X72606781Y-54307200D01*
%TO.C,R4*%
X91116760Y-62543401D02*
X91424042Y-62543401D01*
X91116760Y-63303401D02*
X91424042Y-63303401D01*
%TO.C,C10*%
X89049020Y-56012600D02*
X89330182Y-56012600D01*
X89049020Y-57032600D02*
X89330182Y-57032600D01*
%TO.C,R9*%
X75642200Y-46379642D02*
X75642200Y-46072360D01*
X76402200Y-46379642D02*
X76402200Y-46072360D01*
D13*
%TO.C,CN1*%
X67177400Y-42744000D02*
X67177400Y-41074000D01*
X68897400Y-42744000D02*
X67177400Y-42744000D01*
X70147400Y-42744000D02*
X69967400Y-42744000D01*
X71397400Y-42744000D02*
X71217400Y-42744000D01*
X72647400Y-42744000D02*
X72467400Y-42744000D01*
X73897400Y-42744000D02*
X73717400Y-42744000D01*
X75147400Y-42744000D02*
X74967400Y-42744000D01*
X76397400Y-42744000D02*
X76217400Y-42744000D01*
X78047400Y-38494000D02*
X68317400Y-38494000D01*
X79177400Y-42744000D02*
X77467400Y-42744000D01*
X79177400Y-42744000D02*
X79177400Y-41074000D01*
D12*
%TO.C,C1*%
X91411218Y-63886602D02*
X91692380Y-63886602D01*
X91411218Y-64906602D02*
X91692380Y-64906602D01*
D13*
%TO.C,U7*%
X92051600Y-47287800D02*
X96201600Y-47287800D01*
X92051600Y-48177800D02*
X92051600Y-47287800D01*
X92051600Y-56307800D02*
X93581600Y-56307801D01*
X92051600Y-56437800D02*
X92051600Y-56307800D01*
X92051600Y-57197800D02*
X92051600Y-56437800D01*
X93581600Y-48177799D02*
X92051600Y-48177800D01*
X93581600Y-49437800D02*
X93581600Y-48177799D01*
X93581600Y-51437801D02*
X93581600Y-50897800D01*
X93581600Y-53437800D02*
X93581600Y-52897799D01*
X93581600Y-56307801D02*
X93581600Y-54897800D01*
X96201600Y-57197800D02*
X92051600Y-57197800D01*
X99691600Y-48737800D02*
X99691600Y-55727800D01*
D12*
%TO.C,R5*%
X91118759Y-61349601D02*
X91426041Y-61349601D01*
X91118759Y-62109601D02*
X91426041Y-62109601D01*
%TO.C,C11*%
X75062620Y-55348400D02*
X75343782Y-55348400D01*
X75062620Y-56368400D02*
X75343782Y-56368400D01*
%TO.C,C4*%
X69128200Y-55331236D02*
X69128200Y-55115564D01*
X69848200Y-55331236D02*
X69848200Y-55115564D01*
D11*
%TO.C,U2*%
X84024200Y-49742902D02*
X82244200Y-49742902D01*
X84024200Y-52822900D02*
X82244200Y-52822900D01*
D14*
X84584200Y-52952901D02*
G75*
G02*
X84284200Y-52952901I-150000J0D01*
G01*
X84284200Y-52952901D02*
G75*
G02*
X84584200Y-52952901I150000J0D01*
G01*
D12*
%TO.C,R10*%
X78106000Y-46379642D02*
X78106000Y-46072360D01*
X78866000Y-46379642D02*
X78866000Y-46072360D01*
D15*
%TO.C,U1*%
X68607400Y-57487200D02*
X69107400Y-57487200D01*
X68607400Y-57987200D02*
X68607400Y-57487200D01*
X68607400Y-62887200D02*
X68607400Y-62387200D01*
X69107400Y-62887200D02*
X68607400Y-62887200D01*
X73507400Y-62887200D02*
X74007400Y-62887200D01*
X74007400Y-57487200D02*
X73507400Y-57487200D01*
X74007400Y-57987200D02*
X74007400Y-57487200D01*
X74007400Y-62887200D02*
X74007400Y-62387200D01*
D14*
X68257401Y-57687200D02*
X68257401Y-57687200D01*
X68257401Y-57687200D01*
X68257401Y-57687200D01*
X68257401Y-57687200D01*
X68257401Y-57687200D01*
X68257401Y-57687201D01*
X68257401Y-57687201D01*
X68257401Y-57687201D01*
X68257401Y-57687201D01*
X68257401Y-57687201D01*
X68257401Y-57687201D01*
X68257401Y-57687201D01*
X68257400Y-57687201D01*
X68257400Y-57687201D01*
X68257400Y-57687201D01*
X68257400Y-57687201D01*
X68257400Y-57687201D01*
X68257400Y-57687201D01*
X68257400Y-57687201D01*
X68257400Y-57687201D01*
X68257400Y-57687201D01*
X68257400Y-57687201D01*
X68257400Y-57687201D01*
X68257400Y-57687201D01*
X68257399Y-57687201D01*
X68257399Y-57687201D01*
X68257399Y-57687201D01*
X68257399Y-57687201D01*
X68257399Y-57687201D01*
X68257399Y-57687201D01*
X68257399Y-57687200D01*
X68257399Y-57687200D01*
X68257399Y-57687200D01*
X68257399Y-57687200D01*
X68257399Y-57687200D01*
X68257399Y-57687200D01*
X68257399Y-57687200D02*
X68257399Y-57687200D01*
X68257399Y-57687200D01*
X68257399Y-57687200D01*
X68257399Y-57687200D01*
X68257399Y-57687200D01*
X68257399Y-57687200D01*
X68257399Y-57687199D01*
X68257399Y-57687199D01*
X68257399Y-57687199D01*
X68257399Y-57687199D01*
X68257399Y-57687199D01*
X68257400Y-57687199D01*
X68257400Y-57687199D01*
X68257400Y-57687199D01*
X68257400Y-57687199D01*
X68257400Y-57687199D01*
X68257400Y-57687199D01*
X68257400Y-57687199D01*
X68257400Y-57687199D01*
X68257400Y-57687199D01*
X68257400Y-57687199D01*
X68257400Y-57687199D01*
X68257400Y-57687199D01*
X68257401Y-57687199D01*
X68257401Y-57687199D01*
X68257401Y-57687199D01*
X68257401Y-57687199D01*
X68257401Y-57687199D01*
X68257401Y-57687199D01*
X68257401Y-57687200D01*
X68257401Y-57687200D01*
X68257401Y-57687200D01*
X68257401Y-57687200D01*
X68257401Y-57687200D01*
X68257401Y-57687200D01*
X68257401Y-57687200D01*
D11*
%TO.C,L3*%
X75076201Y-61424600D02*
X75316201Y-61184601D01*
X75076201Y-62824600D02*
X75076201Y-61424600D01*
X75076201Y-62824600D02*
X75076201Y-62824600D01*
X75076201Y-65464600D02*
X75076201Y-64094600D01*
X75316201Y-61184601D02*
X77376201Y-61184601D01*
X75346201Y-65724600D02*
X75076201Y-65464600D01*
X77376201Y-61184601D02*
X77646201Y-61444600D01*
X77396202Y-65724600D02*
X75346201Y-65724600D01*
X77646201Y-61444600D02*
X77646201Y-62824600D01*
X77646201Y-64094600D02*
X77646201Y-64094600D01*
X77646201Y-64094600D02*
X77646201Y-65484600D01*
X77646201Y-65484600D02*
X77396202Y-65724600D01*
%TO.C,U3*%
X86836801Y-61171200D02*
X86836801Y-59391200D01*
X89916799Y-61171200D02*
X89916799Y-59391200D01*
D14*
X86856800Y-61581200D02*
G75*
G02*
X86556800Y-61581200I-150000J0D01*
G01*
X86556800Y-61581200D02*
G75*
G02*
X86856800Y-61581200I150000J0D01*
G01*
D12*
%TO.C,C7*%
X73451781Y-65787799D02*
X73170619Y-65787799D01*
X73451781Y-66807799D02*
X73170619Y-66807799D01*
D13*
%TO.C,Q1*%
X86323599Y-49744600D02*
X88123601Y-49744600D01*
X86323599Y-52844600D02*
X88123601Y-52844600D01*
X88753600Y-52944600D02*
G75*
G02*
X88493600Y-52944600I-130000J0D01*
G01*
X88493600Y-52944600D02*
G75*
G02*
X88753600Y-52944600I130000J0D01*
G01*
D12*
%TO.C,C6*%
X73438781Y-64111400D02*
X73157619Y-64111400D01*
X73438781Y-65131400D02*
X73157619Y-65131400D01*
%TO.C,R11*%
X76874100Y-46379642D02*
X76874100Y-46072360D01*
X77634100Y-46379642D02*
X77634100Y-46072360D01*
D13*
%TO.C,USB1*%
X58580800Y-45364800D02*
X60070800Y-45364800D01*
X58580800Y-54304800D02*
X58580800Y-45364800D01*
X58580800Y-54304800D02*
X60070800Y-54304800D01*
X62300800Y-45364800D02*
X64070800Y-45364800D01*
X62300800Y-54304800D02*
X64070800Y-54304800D01*
D12*
%TO.C,C3*%
X74896400Y-59250181D02*
X74896400Y-58969019D01*
X75916400Y-59250181D02*
X75916400Y-58969019D01*
%TO.C,C18*%
X91411219Y-65512201D02*
X91692381Y-65512201D01*
X91411219Y-66532201D02*
X91692381Y-66532201D01*
%TO.C,R13*%
X64286159Y-55754000D02*
X64593441Y-55754000D01*
X64286159Y-56514000D02*
X64593441Y-56514000D01*
%TO.C,R14*%
X64286159Y-56846200D02*
X64593441Y-56846200D01*
X64286159Y-57606200D02*
X64593441Y-57606200D01*
%TO.C,R3*%
X90358998Y-59493160D02*
X90358998Y-59800442D01*
X91118998Y-59493160D02*
X91118998Y-59800442D01*
%TO.C,D2*%
X89448400Y-63381601D02*
X83938400Y-63381601D01*
X89448400Y-66681601D02*
X83938400Y-66681601D01*
X89448400Y-66681601D02*
X89448400Y-63381601D01*
%TO.C,L1*%
X81647200Y-62391000D02*
X81647200Y-58071000D01*
X86267200Y-58071000D02*
X86267200Y-62391000D01*
%TO.C,C9*%
X88776964Y-57458001D02*
X88992636Y-57458001D01*
X88776964Y-58178001D02*
X88992636Y-58178001D01*
%TO.C,C13*%
X70118800Y-55737636D02*
X70118800Y-55521964D01*
X70838800Y-55737636D02*
X70838800Y-55521964D01*
%TO.C,U4*%
X68990800Y-48260700D02*
X70810800Y-48260700D01*
X68990800Y-48310700D02*
X68990800Y-48260700D01*
X68990800Y-51380700D02*
X68990800Y-51330700D01*
X70810800Y-48260700D02*
X70810800Y-48310700D01*
X70810800Y-51330700D02*
X70810800Y-51380700D01*
X70810800Y-51380700D02*
X68990800Y-51380700D01*
X68450800Y-48310700D02*
X68210800Y-47980700D01*
X68690800Y-47980700D01*
X68450800Y-48310700D01*
G36*
X68450800Y-48310700D02*
G01*
X68210800Y-47980700D01*
X68690800Y-47980700D01*
X68450800Y-48310700D01*
G37*
%TO.C,C15*%
X72307564Y-55727000D02*
X72523236Y-55727000D01*
X72307564Y-56447000D02*
X72523236Y-56447000D01*
%TD*%
M02*
